<svg width="397" height="683" viewBox="0 0 397 683" fill="none" xmlns="http://www.w3.org/2000/svg">
<g style="mix-blend-mode:hard-light" filter="url(#filter0_f)">
<path d="M254.524 331.517C294.033 306.106 313.726 268.12 313.726 217.428C313.726 172.181 298.244 135.62 267.404 107.746C236.565 79.8722 195.941 66 145.656 66H-64.2753V135.102C-64.2753 158.698 -61.0551 179.96 -39.133 185.664C-35.2936 186.701 -31.578 187.09 -28.4816 186.961C-10.0274 185.664 109.244 151.048 142.065 149.104C149.744 148.715 157.051 153.252 160.147 160.642C163.491 168.292 168.569 177.756 174.514 179.83C184.794 183.46 236.317 177.367 242.51 200.703C248.455 223.392 239.537 249.191 228.019 255.803L216.996 275.899L206.097 262.804C205.725 262.804 205.478 262.804 205.106 262.934L194.826 281.603L183.927 268.509C183.308 268.509 183.184 268.638 182.565 268.638L172.037 287.956L160.89 274.602C160.519 274.602 160.395 274.602 160.023 274.732L138.597 281.733C129.679 284.974 123.611 288.085 123.239 290.678C122.867 293.012 126.955 298.457 133.519 305.328L149.124 320.756C149.372 321.145 149.496 321.275 149.744 321.664L170.303 320.497L165.845 336.573C166.34 337.222 166.588 337.481 167.083 338.129L187.767 336.962L183.308 353.039C183.803 353.687 184.051 354.076 184.546 354.724L205.354 353.557L200.524 371.319C202.01 373.264 202.877 374.819 203.001 375.856C204.982 387.265 196.56 402.823 167.702 400.23C138.845 397.637 143.923 374.69 79.7664 394.915C19.9451 413.843 -18.2018 441.069 -43.5918 496.299C-66.1331 544.916 -64.2753 617 -64.2753 617C-64.2753 617 65.6471 617 96.7343 617H158.413C212.166 617 254.4 608.573 285.116 580.44C315.831 552.306 331.313 513.412 331.313 463.368C331.313 403.601 305.675 359.651 254.524 331.517Z" stroke="#0094FF" stroke-width="12.8189"/>
</g>
<g style="mix-blend-mode:hard-light" filter="url(#filter1_f)">
<path d="M254.524 331.517C294.033 306.106 313.726 268.12 313.726 217.428C313.726 172.181 298.244 135.62 267.404 107.746C236.565 79.8722 195.941 66 145.656 66H-64.2753V135.102C-64.2753 158.698 -61.0551 179.96 -39.133 185.664C-35.2936 186.701 -31.578 187.09 -28.4816 186.961C-10.0274 185.664 109.244 151.048 142.065 149.104C149.744 148.715 157.051 153.252 160.147 160.642C163.491 168.292 168.569 177.756 174.514 179.83C184.794 183.46 236.317 177.367 242.51 200.703C248.455 223.392 239.537 249.191 228.019 255.803L216.996 275.899L206.097 262.804C205.725 262.804 205.478 262.804 205.106 262.934L194.826 281.603L183.927 268.509C183.308 268.509 183.184 268.638 182.565 268.638L172.037 287.956L160.89 274.602C160.519 274.602 160.395 274.602 160.023 274.732L138.597 281.733C129.679 284.974 123.611 288.085 123.239 290.678C122.867 293.012 126.955 298.457 133.519 305.328L149.124 320.756C149.372 321.145 149.496 321.275 149.744 321.664L170.303 320.497L165.845 336.573C166.34 337.222 166.588 337.481 167.083 338.129L187.767 336.962L183.308 353.039C183.803 353.687 184.051 354.076 184.546 354.724L205.354 353.557L200.524 371.319C202.01 373.264 202.877 374.819 203.001 375.856C204.982 387.265 196.56 402.823 167.702 400.23C138.845 397.637 143.923 374.69 79.7664 394.915C19.9451 413.843 -18.2018 441.069 -43.5918 496.299C-66.1331 544.916 -64.2753 617 -64.2753 617C-64.2753 617 65.6471 617 96.7343 617H158.413C212.166 617 254.4 608.573 285.116 580.44C315.831 552.306 331.313 513.412 331.313 463.368C331.313 403.601 305.675 359.651 254.524 331.517Z" stroke="#0094FF" stroke-width="16.7632"/>
</g>
<g style="mix-blend-mode:hard-light" filter="url(#filter2_ddi)">
<path d="M254.524 331.517C294.033 306.106 313.726 268.12 313.726 217.428C313.726 172.181 298.244 135.62 267.404 107.746C236.565 79.8722 195.941 66 145.656 66H-64.2753V135.102C-64.2753 158.698 -61.0551 179.96 -39.133 185.664C-35.2936 186.701 -31.578 187.09 -28.4816 186.961C-10.0274 185.664 109.244 151.048 142.065 149.104C149.744 148.715 157.051 153.252 160.147 160.642C163.491 168.292 168.569 177.756 174.514 179.83C184.794 183.46 236.317 177.367 242.51 200.703C248.455 223.392 239.537 249.191 228.019 255.803L216.996 275.899L206.097 262.804C205.725 262.804 205.478 262.804 205.106 262.934L194.826 281.603L183.927 268.509C183.308 268.509 183.184 268.638 182.565 268.638L172.037 287.956L160.89 274.602C160.519 274.602 160.395 274.602 160.023 274.732L138.597 281.733C129.679 284.974 123.611 288.085 123.239 290.678C122.867 293.012 126.955 298.457 133.519 305.328L149.124 320.756C149.372 321.145 149.496 321.275 149.744 321.664L170.303 320.497L165.845 336.573C166.34 337.222 166.588 337.481 167.083 338.129L187.767 336.962L183.308 353.039C183.803 353.687 184.051 354.076 184.546 354.724L205.354 353.557L200.524 371.319C202.01 373.264 202.877 374.819 203.001 375.856C204.982 387.265 196.56 402.823 167.702 400.23C138.845 397.637 143.923 374.69 79.7664 394.915C19.9451 413.843 -18.2018 441.069 -43.5918 496.299C-66.1331 544.916 -64.2753 617 -64.2753 617C-64.2753 617 65.6471 617 96.7343 617H158.413C212.166 617 254.4 608.573 285.116 580.44C315.831 552.306 331.313 513.412 331.313 463.368C331.313 403.601 305.675 359.651 254.524 331.517Z" stroke="#00B3FF" stroke-opacity="0.2" stroke-width="12.8189"/>
</g>
<g filter="url(#filter3_f)">
<path d="M254.524 331.517C294.033 306.106 313.726 268.12 313.726 217.428C313.726 172.181 298.244 135.62 267.404 107.746C236.565 79.8722 195.941 66 145.656 66H-64.2753V135.102C-64.2753 158.698 -61.0551 179.96 -39.133 185.664C-35.2936 186.701 -31.578 187.09 -28.4816 186.961C-10.0274 185.664 109.244 151.048 142.065 149.104C149.744 148.715 157.051 153.252 160.147 160.642C163.491 168.292 168.569 177.756 174.514 179.83C184.794 183.46 236.317 177.367 242.51 200.703C248.455 223.392 239.537 249.191 228.019 255.803L216.996 275.899L206.097 262.804C205.725 262.804 205.478 262.804 205.106 262.934L194.826 281.603L183.927 268.509C183.308 268.509 183.184 268.638 182.565 268.638L172.037 287.956L160.89 274.602C160.519 274.602 160.395 274.602 160.023 274.732L138.597 281.733C129.679 284.974 123.611 288.085 123.239 290.678C122.867 293.012 126.955 298.457 133.519 305.328L149.124 320.756C149.372 321.145 149.496 321.275 149.744 321.664L170.303 320.497L165.845 336.573C166.34 337.222 166.588 337.481 167.083 338.129L187.767 336.962L183.308 353.039C183.803 353.687 184.051 354.076 184.546 354.724L205.354 353.557L200.524 371.319C202.01 373.264 202.877 374.819 203.001 375.856C204.982 387.265 196.56 402.823 167.702 400.23C138.845 397.637 143.923 374.69 79.7664 394.915C19.9451 413.843 -18.2018 441.069 -43.5918 496.299C-66.1331 544.916 -64.2753 617 -64.2753 617C-64.2753 617 65.6471 617 96.7343 617H158.413C212.166 617 254.4 608.573 285.116 580.44C315.831 552.306 331.313 513.412 331.313 463.368C331.313 403.601 305.675 359.651 254.524 331.517Z" stroke="#82D9FF" stroke-width="7.88854"/>
</g>
<g filter="url(#filter4_f)">
<path d="M254.524 331.517C294.033 306.106 313.726 268.12 313.726 217.428C313.726 172.181 298.244 135.62 267.404 107.746C236.565 79.8722 195.941 66 145.656 66H-64.2753V135.102C-64.2753 158.698 -61.0551 179.96 -39.133 185.664C-35.2936 186.701 -31.578 187.09 -28.4816 186.961C-10.0274 185.664 109.244 151.048 142.065 149.104C149.744 148.715 157.051 153.252 160.147 160.642C163.491 168.292 168.569 177.756 174.514 179.83C184.794 183.46 236.317 177.367 242.51 200.703C248.455 223.392 239.537 249.191 228.019 255.803L216.996 275.899L206.097 262.804C205.725 262.804 205.478 262.804 205.106 262.934L194.826 281.603L183.927 268.509C183.308 268.509 183.184 268.638 182.565 268.638L172.037 287.956L160.89 274.602C160.519 274.602 160.395 274.602 160.023 274.732L138.597 281.733C129.679 284.974 123.611 288.085 123.239 290.678C122.867 293.012 126.955 298.457 133.519 305.328L149.124 320.756C149.372 321.145 149.496 321.275 149.744 321.664L170.303 320.497L165.845 336.573C166.34 337.222 166.588 337.481 167.083 338.129L187.767 336.962L183.308 353.039C183.803 353.687 184.051 354.076 184.546 354.724L205.354 353.557L200.524 371.319C202.01 373.264 202.877 374.819 203.001 375.856C204.982 387.265 196.56 402.823 167.702 400.23C138.845 397.637 143.923 374.69 79.7664 394.915C19.9451 413.843 -18.2018 441.069 -43.5918 496.299C-66.1331 544.916 -64.2753 617 -64.2753 617C-64.2753 617 65.6471 617 96.7343 617H158.413C212.166 617 254.4 608.573 285.116 580.44C315.831 552.306 331.313 513.412 331.313 463.368C331.313 403.601 305.675 359.651 254.524 331.517Z" stroke="white" stroke-width="3.94427"/>
</g>
<defs>
<filter id="filter0_f" x="-129.886" y="0.426735" width="526.772" height="682.147" filterUnits="userSpaceOnUse" color-interpolation-filters="sRGB">
<feFlood flood-opacity="0" result="BackgroundImageFix"/>
<feBlend mode="normal" in="SourceGraphic" in2="BackgroundImageFix" result="shape"/>
<feGaussianBlur stdDeviation="29.582" result="effect1_foregroundBlur"/>
</filter>
<filter id="filter1_f" x="-92.4155" y="37.8968" width="451.831" height="607.206" filterUnits="userSpaceOnUse" color-interpolation-filters="sRGB">
<feFlood flood-opacity="0" result="BackgroundImageFix"/>
<feBlend mode="normal" in="SourceGraphic" in2="BackgroundImageFix" result="shape"/>
<feGaussianBlur stdDeviation="9.86068" result="effect1_foregroundBlur"/>
</filter>
<filter id="filter2_ddi" x="-96.3597" y="53.6744" width="459.72" height="615.094" filterUnits="userSpaceOnUse" color-interpolation-filters="sRGB">
<feFlood flood-opacity="0" result="BackgroundImageFix"/>
<feColorMatrix in="SourceAlpha" type="matrix" values="0 0 0 0 0 0 0 0 0 0 0 0 0 0 0 0 0 0 127 0" result="hardAlpha"/>
<feOffset dy="12.8189"/>
<feGaussianBlur stdDeviation="4.93034"/>
<feColorMatrix type="matrix" values="0 0 0 0 0 0 0 0 0 0.051 0 0 0 0 0.082 0 0 0 0.7 0"/>
<feBlend mode="multiply" in2="BackgroundImageFix" result="effect1_dropShadow"/>
<feColorMatrix in="SourceAlpha" type="matrix" values="0 0 0 0 0 0 0 0 0 0 0 0 0 0 0 0 0 0 127 0" result="hardAlpha"/>
<feOffset dy="19.7214"/>
<feGaussianBlur stdDeviation="12.8189"/>
<feColorMatrix type="matrix" values="0 0 0 0 0 0 0 0 0 0.4 0 0 0 0 1 0 0 0 1 0"/>
<feBlend mode="color-dodge" in2="effect1_dropShadow" result="effect2_dropShadow"/>
<feBlend mode="normal" in="SourceGraphic" in2="effect2_dropShadow" result="shape"/>
<feColorMatrix in="SourceAlpha" type="matrix" values="0 0 0 0 0 0 0 0 0 0 0 0 0 0 0 0 0 0 127 0" result="hardAlpha"/>
<feOffset dx="-1.28189" dy="2.56378"/>
<feGaussianBlur stdDeviation="0.640944"/>
<feComposite in2="hardAlpha" operator="arithmetic" k2="-1" k3="1"/>
<feColorMatrix type="matrix" values="0 0 0 0 1 0 0 0 0 1 0 0 0 0 1 0 0 0 0.5 0"/>
<feBlend mode="normal" in2="shape" result="effect3_innerShadow"/>
</filter>
<filter id="filter3_f" x="-70.2289" y="60.0835" width="407.458" height="562.833" filterUnits="userSpaceOnUse" color-interpolation-filters="sRGB">
<feFlood flood-opacity="0" result="BackgroundImageFix"/>
<feBlend mode="normal" in="SourceGraphic" in2="BackgroundImageFix" result="shape"/>
<feGaussianBlur stdDeviation="0.986068" result="effect1_foregroundBlur"/>
</filter>
<filter id="filter4_f" x="-67.5994" y="62.7136" width="402.199" height="557.574" filterUnits="userSpaceOnUse" color-interpolation-filters="sRGB">
<feFlood flood-opacity="0" result="BackgroundImageFix"/>
<feBlend mode="normal" in="SourceGraphic" in2="BackgroundImageFix" result="shape"/>
<feGaussianBlur stdDeviation="0.657379" result="effect1_foregroundBlur"/>
</filter>
</defs>
</svg>
