<svg width="100" height="30" viewBox="0 0 100 30" fill="none" xmlns="http://www.w3.org/2000/svg">
<path d="M11.9422 14.769L11.6801 14.5051C11.4789 14.3071 11.1375 14.4451 11.1375 14.7271V18.4643C11.1375 18.6383 11.2838 18.7762 11.4545 18.7762H15.2524C15.5328 18.7762 15.6791 18.4403 15.4779 18.2424C15.356 18.1224 15.356 17.9244 15.4779 17.7984L19.5135 13.8152C19.6355 13.6953 19.6355 13.4973 19.5135 13.3713L19.1478 13.0114C18.9466 12.8134 19.0929 12.4775 19.3733 12.4775H23.1651C23.3419 12.4775 23.4821 12.6155 23.4821 12.7894V16.5267C23.4821 16.8026 23.1407 16.9466 22.9395 16.7487L22.6835 16.4967C22.5555 16.3707 22.3604 16.3707 22.2324 16.4967L15.4231 23.1914C15.3011 23.3113 15.1 23.3113 14.972 23.1914L6.64472 14.991C6.5228 14.871 6.5167 14.6731 6.64472 14.5471L18.1724 3.20336C18.2943 3.08338 18.2943 2.87942 18.1724 2.75945L15.4596 0.089982C15.3377 -0.029994 15.1366 -0.029994 15.0085 0.089982L0.0914411 14.781C-0.0304804 14.901 -0.0304804 15.105 0.0914411 15.225L15.0146 29.91C15.1366 30.03 15.3438 30.03 15.4657 29.91L30.3889 15.225C30.5109 15.105 30.5109 14.907 30.3889 14.781L21.6106 6.14277C21.4887 6.0228 21.2875 6.0228 21.1595 6.14277L12.3933 14.769C12.2714 14.889 12.0702 14.889 11.9422 14.769ZM80.8278 18.4823C80.4438 18.4823 80.1085 18.6203 79.8342 18.8902C79.5599 19.1662 79.4197 19.4841 79.4197 19.856C79.4197 20.4259 79.7123 20.8698 80.2975 21.1818C80.9376 21.3557 81.4496 21.2418 81.8337 20.8518C82.1141 20.5759 82.2482 20.246 82.2482 19.862C82.2482 19.4721 82.108 19.1482 81.8337 18.8842C81.5533 18.6203 81.2241 18.4823 80.8278 18.4823ZM58.1505 7.92442H57.0958C56.6386 7.92442 56.2729 8.28434 56.2729 8.73425V9.31014C55.1512 8.16437 53.8893 7.59448 52.4689 7.59448C50.8352 7.59448 49.4696 8.19436 48.3845 9.38812C47.2933 10.5819 46.7508 12.0756 46.7508 13.8632C46.7508 15.6869 47.2933 17.2046 48.3784 18.4283C49.4757 19.6221 50.8656 20.222 52.5421 20.222C53.871 20.222 55.1146 19.6881 56.2668 18.6263V19.766C56.2668 20.3179 56.724 20.7738 57.2848 20.7738H59.0832V8.85423C59.0892 8.34433 58.6686 7.92442 58.1505 7.92442ZM55.4926 16.6947C54.8525 17.3965 54.0112 17.7505 52.9749 17.7505C51.9995 17.7505 51.1948 17.3845 50.5547 16.6587C49.9329 15.9388 49.616 15.003 49.616 13.8632C49.616 12.7954 49.939 11.8896 50.5791 11.1638C51.2253 10.4439 52.0361 10.084 52.9993 10.084C54.0234 10.084 54.8525 10.4379 55.4926 11.1518C56.1327 11.8776 56.4557 12.8014 56.4557 13.9232C56.4496 15.045 56.1266 15.9688 55.4926 16.6947ZM46.7508 9.94001V8.75825C46.7508 8.29634 46.3728 7.92442 45.9034 7.92442H44.794C44.3246 7.92442 43.9466 8.29634 43.9466 8.75825V9.27415C42.9347 8.15237 41.6606 7.58848 40.1305 7.58848C38.387 7.58848 36.9788 8.23635 35.9181 9.52609C34.9305 10.7439 34.4367 12.2256 34.4367 13.9652C34.4367 15.7588 34.9671 17.2526 36.0339 18.4403C37.0885 19.6221 38.4418 20.204 40.1 20.204C41.5508 20.204 42.8371 19.6461 43.9527 18.5243V20.192C43.9527 22.6695 42.9286 23.9112 40.8742 23.9112C39.7586 23.9112 38.9112 23.5393 38.3321 22.7954C38.1858 22.6095 38.0578 22.3695 37.9603 22.0876C37.82 21.6917 37.4421 21.4337 37.0215 21.4337H35.9607C35.4243 21.4337 35.028 21.9376 35.1622 22.4475C35.4548 23.5333 36.0156 24.4151 36.8508 25.099C37.8993 25.9568 39.2343 26.3887 40.8498 26.3887C42.7701 26.3887 44.2758 25.7648 45.3731 24.5231C45.9522 23.8752 46.3424 23.1014 46.5435 22.2016C46.6106 21.8776 46.6655 21.4937 46.702 21.0678C46.7386 20.6419 46.7569 20.144 46.7569 19.5801V17.8464C45.9705 16.7307 45.5743 15.4049 45.5743 13.8512C45.5682 12.3395 45.9644 11.0378 46.7508 9.94001ZM43.1968 16.5987C42.575 17.3665 41.7276 17.7505 40.6547 17.7505C39.5818 17.7505 38.7406 17.3725 38.137 16.6107C37.5823 15.9148 37.3019 15.027 37.3019 13.9352C37.3019 12.8314 37.5823 11.9316 38.137 11.2358C38.7527 10.4619 39.594 10.072 40.6547 10.072C41.6545 10.072 42.4714 10.4259 43.1114 11.1398C43.7454 11.8356 44.0624 12.7654 44.0624 13.9232C44.0563 15.009 43.7698 15.9028 43.1968 16.5987ZM70.0683 7.93641V7.92442H64.2526V4.42112C64.2526 3.97121 63.8808 3.60528 63.4236 3.60528H62.2897C61.8264 3.60528 61.4484 3.9772 61.4484 4.43311V7.92442H60.2536V10.4979H61.4484V20.7618H63.0456C63.7101 20.7618 64.2465 20.234 64.2526 19.5801V19.5741V10.5039H67.13C67.3555 10.078 67.6359 9.68206 67.959 9.32213C68.5504 8.68026 69.2575 8.21836 70.0683 7.93641ZM84.3819 3.60528C83.882 3.60528 83.4553 3.77924 83.1017 4.13317C82.7481 4.4871 82.5652 4.90102 82.5652 5.38692C82.5652 5.89682 82.742 6.32274 83.1017 6.67666C83.4613 7.03059 83.8942 7.20456 84.4001 7.20456C84.9061 7.20456 85.3328 7.03059 85.6803 6.67666C86.04 6.32274 86.2168 5.90282 86.2168 5.39892C86.2168 4.90102 86.04 4.4811 85.6803 4.13917C85.3207 3.77924 84.8878 3.60528 84.3819 3.60528ZM84.9488 9.28014H83.9307C83.4065 9.28014 82.9859 9.69406 82.9859 10.21V18.9742C83.1992 19.2202 83.3029 19.5141 83.3029 19.85C83.3029 20.186 83.1992 20.4859 82.9859 20.7319V21.2238H84.7903C85.345 21.2238 85.79 20.7798 85.79 20.24V10.102C85.79 9.64607 85.4121 9.28014 84.9488 9.28014ZM98.1346 10.9718C96.8727 9.75405 95.3304 9.14217 93.5199 9.14217C91.7154 9.14217 90.1853 9.74805 88.9295 10.9598C87.6737 12.1716 87.0458 13.6353 87.0458 15.3629C87.0458 17.1926 87.6615 18.7163 88.893 19.928C90.1244 21.1518 91.6484 21.7696 93.465 21.7696C95.2999 21.7696 96.8544 21.1698 98.1163 19.964C99.366 18.7523 100 17.2526 100 15.4589C100 13.6833 99.3782 12.1896 98.1346 10.9718ZM96.1473 18.2603C95.495 18.9562 94.6172 19.2981 93.5199 19.2981C92.4287 19.2981 91.5508 18.9502 90.8864 18.2424C90.2402 17.5465 89.911 16.5987 89.911 15.4109C89.911 14.3011 90.2463 13.3893 90.9108 12.6875C91.5752 11.9856 92.4409 11.6317 93.5138 11.6317C94.5989 11.6317 95.4767 11.9856 96.1412 12.6875C96.7996 13.3833 97.1287 14.3131 97.1287 15.4709C97.1348 16.6347 96.8057 17.5585 96.1473 18.2603Z" fill="white"/>
<path d="M71.1124 17.7746C70.5333 17.1987 70.2102 16.4128 70.1371 15.435H78.1778C78.5435 15.435 78.8483 15.1471 78.8544 14.7872C78.8544 12.8136 78.3363 11.2719 77.3121 10.1621C76.2697 9.04031 74.8554 8.48242 73.0693 8.48242C71.3014 8.48242 69.881 9.05831 68.8081 10.2101C67.7413 11.3798 67.2109 12.9095 67.2109 14.7992C67.2109 16.7068 67.7596 18.2365 68.8569 19.3882C69.625 20.1921 70.5638 20.708 71.6733 20.9479C72.1427 21.0559 72.6242 21.1099 73.1119 21.1039C75.1114 21.1459 76.8488 21.1879 78.8422 21.2239V20.9359C78.5984 20.672 78.4765 20.36 78.4765 19.9941C78.4765 19.6342 78.6045 19.3283 78.8544 19.0643V18.7164C77.2756 18.6804 73.4594 18.6384 73.307 18.6384C72.4231 18.6384 71.6855 18.3504 71.1124 17.7746ZM70.7223 12.2557C70.8991 11.9857 71.1063 11.7578 71.3502 11.5658C71.594 11.3738 71.8683 11.2239 72.167 11.1219C72.4657 11.0199 72.7888 10.9659 73.1302 10.9659C74.6238 10.9659 75.5687 11.7038 75.9588 13.1735H70.3199C70.4175 12.8316 70.5516 12.5256 70.7223 12.2557Z" fill="white"/>
</svg>
