<svg width="451" height="451" viewBox="0 0 451 451" fill="none" xmlns="http://www.w3.org/2000/svg">
<path d="M441.335 245.038L441.551 241.048L427.166 234.537L442.167 229.643L442.383 225.653L423.005 232.474L422.806 236.167L441.335 245.038Z" fill="white"/>
<path d="M423.376 262.323L425.004 251.838L429.219 252.492L427.65 262.604L430.931 263.114L432.501 253.002L436.797 253.669L435.169 264.154L438.584 264.684L440.754 250.704C434.538 249.739 428.295 248.769 422.078 247.804L419.908 261.785L423.376 262.323Z" fill="white"/>
<path d="M437.423 270.781L419.09 266.185L415.86 279.07L419.055 279.871L421.419 270.443L436.556 274.238L437.423 270.781Z" fill="white"/>
<path d="M409.722 297.294L408.397 300.95L429.055 299.419L430.379 295.764L415.499 281.353L414.184 284.983L416.982 287.72L413.615 297.011L409.722 297.294ZM417.225 296.797L419.617 290.197L425.986 296.239L417.225 296.797Z" fill="white"/>
<path d="M414.968 323.924C418.216 323.912 420.303 321.533 421.589 318.886C423.086 315.741 423.329 311.597 419.832 309.898C416.019 308.045 413.539 310.802 411.439 314.075C410.099 316.215 408.629 317.572 407.026 316.794C405.18 315.897 405.396 313.66 406.376 311.645C407.379 309.58 409.16 308.014 411.396 308.17L411.309 304.826C407.587 304.579 405.221 306.731 403.533 310.204C401.693 313.992 401.692 318.134 405.48 319.975C409.536 321.945 412.063 319.091 414.223 315.758C415.457 313.836 416.72 312.288 418.201 313.008C419.464 313.621 419.905 315.246 418.749 317.626C417.852 319.472 416.15 320.626 414.896 320.737L414.968 323.924Z" fill="white"/>
<path d="M409.928 332.472L407.125 337.024C404.746 340.887 399.031 337.399 401.423 333.513L404.227 328.961L409.928 332.472ZM410.022 338.808C411.579 336.279 413.114 333.736 414.671 331.207L398.578 321.297L396.709 324.331L401.445 327.248L398.642 331.8C393.785 339.686 405.18 346.671 410.022 338.808Z" fill="white"/>
<path d="M378.707 350.364L376.329 353.44L396.467 358.291L398.845 355.215L389.077 336.949L386.716 340.003L388.544 343.465L382.501 351.283L378.707 350.364ZM386.003 352.182L390.297 346.628L394.516 354.326L386.003 352.182Z" fill="white"/>
<path d="M382.613 374.422C384.225 372.751 386.156 370.749 387.767 369.078L374.162 355.958C372.551 357.63 370.62 359.632 369.008 361.303C364.417 366.065 365.871 371.519 369.368 374.778C372.786 377.962 378.115 379.087 382.613 374.422ZM382.883 369.281L380.184 372.08C377.335 375.034 374.017 374.235 371.842 372.25C369.571 370.172 368.497 366.774 371.477 363.683L374.176 360.885L382.883 369.281Z" fill="white"/>
<path d="M346.981 388.064C345.417 389.219 345.003 391.203 346.222 392.854C347.441 394.505 349.476 394.714 351.039 393.559C352.646 392.372 353.045 390.366 351.825 388.715C350.606 387.065 348.588 386.877 346.981 388.064Z" fill="white"/>
<path d="M314.677 423.009L318.251 421.223L316.794 405.501L328.468 416.118L332.042 414.332L316.53 400.865L313.221 402.518L314.677 423.009Z" fill="white"/>
<path d="M290.42 416.017L300.354 412.289L301.853 416.283L292.272 419.878L293.439 422.988L303.02 419.393L304.547 423.463L294.612 427.19L295.826 430.426L309.073 425.456C306.863 419.566 304.643 413.651 302.433 407.761L289.187 412.731L290.42 416.017Z" fill="white"/>
<path d="M290.154 432.345L285.141 414.122L272.333 417.645L273.207 420.821L282.579 418.243L286.718 433.29L290.154 432.345Z" fill="white"/>
<path d="M253.645 421.245L249.813 421.9L261.355 439.101L265.187 438.446L270.358 418.387L266.553 419.038L265.557 422.824L255.816 424.489L253.645 421.245ZM257.786 427.522L264.706 426.338L262.602 434.861L257.786 427.522Z" fill="white"/>
<path d="M233.004 438.955C234.623 441.771 237.723 442.406 240.659 442.213C244.133 441.958 247.854 440.117 247.6 436.237C247.322 432.007 243.698 431.217 239.815 431.012C237.292 430.907 235.385 430.302 235.269 428.524C235.134 426.476 237.184 425.557 239.42 425.41C241.71 425.26 243.953 426.032 244.924 428.052L247.787 426.322C246.16 422.965 243.118 421.974 239.265 422.227C235.063 422.503 231.463 424.553 231.739 428.756C232.035 433.255 235.766 434.038 239.731 434.265C242.012 434.385 243.982 434.716 244.09 436.36C244.182 437.761 242.988 438.948 240.348 439.122C238.3 439.256 236.455 438.349 235.738 437.314L233.004 438.955Z" fill="white"/>
<path d="M222.219 438.778L216.877 438.571C212.344 438.396 212.575 431.704 217.135 431.88L222.477 432.087L222.219 438.778ZM216.745 441.971C219.713 442.085 222.682 442.173 225.65 442.288L226.379 423.402L222.818 423.264L222.603 428.822L217.261 428.616C208.007 428.258 207.518 441.615 216.745 441.971Z" fill="white"/>
<path d="M191.26 420.391L187.411 419.839L193.119 439.751L196.967 440.304L208.044 422.799L204.222 422.251L202.112 425.549L192.33 424.145L191.26 420.391ZM193.275 427.636L200.224 428.633L195.607 436.099L193.275 427.636Z" fill="white"/>
<path d="M172.448 435.652C174.696 436.234 177.388 436.931 179.636 437.513L184.372 419.216C182.124 418.634 179.431 417.937 177.184 417.355C170.78 415.698 166.746 419.646 165.627 424.293C164.535 428.835 166.175 434.029 172.448 435.652ZM177.058 433.359L173.294 432.385C169.321 431.357 168.385 428.075 169.044 425.205C169.737 422.205 172.168 419.599 176.324 420.675L180.088 421.649L177.058 433.359Z" fill="white"/>
<path d="M143.101 411.31C141.328 410.513 139.396 411.124 138.554 412.996C137.713 414.867 138.527 416.743 140.3 417.54C142.123 418.36 144.066 417.724 144.908 415.852C145.749 413.981 144.924 412.13 143.101 411.31Z" fill="white"/>
<path d="M96.8449 400.267L100.152 402.51L113.149 393.545L109.604 408.921L112.911 411.164L117.063 391.045L114.002 388.969L96.8449 400.267Z" fill="white"/>
<path d="M91.0747 375.733L99.2031 382.553L96.4609 385.821L88.6221 379.243L86.4873 381.787L94.3261 388.365L91.5318 391.695L83.4035 384.874L81.182 387.522L92.0198 396.616C96.0636 391.797 100.125 386.957 104.169 382.138L93.3309 373.044L91.0747 375.733Z" fill="white"/>
<path d="M76.8819 383.645L90.2462 370.28L80.853 360.887L78.5238 363.216L85.3969 370.089L74.3618 381.124L76.8819 383.645Z" fill="white"/>
<path d="M68.4485 346.306L65.9929 343.292L56.6941 361.802L59.1497 364.816L79.1576 359.452L76.7191 356.459L72.9327 357.454L66.6914 349.792L68.4485 346.306ZM65.0204 352.999L69.4541 358.442L60.9991 360.802L65.0204 352.999Z" fill="white"/>
<path d="M42.981 337.277C41.3298 340.074 42.3057 343.084 43.9218 345.544C45.857 348.44 49.2938 350.769 52.5431 348.634C56.0858 346.306 54.9861 342.764 53.2495 339.285C52.0962 337.039 51.6824 335.081 53.1717 334.103C54.8866 332.976 56.6975 334.306 57.9281 336.179C59.1884 338.097 59.6221 340.429 58.3443 342.27L61.2614 343.907C63.3787 340.836 62.7406 337.701 60.6204 334.474C58.3075 330.954 54.7495 328.834 51.2294 331.147C47.4611 333.623 48.6201 337.255 50.3786 340.816C51.3984 342.86 52.0823 344.737 50.7059 345.641C49.5325 346.412 47.9105 345.96 46.4575 343.748C45.3306 342.033 45.2095 339.981 45.7563 338.846L42.981 337.277Z" fill="white"/>
<path d="M38.067 328.292L35.6068 323.545C33.5193 319.518 39.4517 316.413 41.5516 320.464L44.0118 325.21L38.067 328.292ZM32.5864 325.111C33.9532 327.748 35.344 330.372 36.7108 333.009L53.4905 324.311L51.8503 321.147L46.9123 323.707L44.4521 318.96C40.1902 310.738 28.3369 316.913 32.5864 325.111Z" fill="white"/>
<path d="M38.7764 292.297L37.3696 288.672L22.8176 303.414L24.2243 307.039L44.9113 308.104L43.5144 304.504L39.6057 304.284L36.0302 295.071L38.7764 292.297ZM33.452 297.607L35.9919 304.151L27.2211 303.79L33.452 297.607Z" fill="white"/>
<path d="M16.3044 283.852C16.9117 286.093 17.6391 288.777 18.2465 291.019L36.4885 286.075C35.8812 283.834 35.1538 281.15 34.5464 278.909C32.8162 272.524 27.3888 270.974 22.7973 272.302C18.3101 273.602 14.6095 277.598 16.3044 283.852ZM20.5788 286.722L19.5619 282.969C18.4885 279.008 20.877 276.571 23.6964 275.723C26.646 274.839 30.1139 275.662 31.2368 279.806L32.2537 283.558L20.5788 286.722Z" fill="white"/>
<path d="M22.9372 246.492C22.7501 244.557 21.2608 243.182 19.2183 243.38C17.1759 243.577 15.9508 245.215 16.1379 247.15C16.3302 249.138 17.8463 250.511 19.8888 250.313C21.9313 250.116 23.1295 248.481 22.9372 246.492Z" fill="white"/>
<path d="M9.64633 199.529L9.32301 203.512L23.5266 210.408L8.39894 214.896L8.07563 218.878L27.6301 212.583L27.9294 208.896L9.64633 199.529Z" fill="white"/>
<path d="M28.0124 183.031L26.1041 193.469L21.9077 192.701L23.748 182.635L20.4812 182.038L18.6408 192.104L14.3647 191.322L16.273 180.884L12.8734 180.263L10.329 194.18C16.5174 195.311 22.7324 196.448 28.9208 197.579L31.4652 183.662L28.0124 183.031Z" fill="white"/>
<path d="M14.1457 174.31L32.3498 179.392L35.9214 166.597L32.7487 165.711L30.1353 175.073L15.104 170.877L14.1457 174.31Z" fill="white"/>
<path d="M42.5154 148.533L43.9358 144.914L23.2449 145.902L21.8246 149.521L36.3213 164.317L37.7317 160.723L35.0058 157.913L38.6158 148.714L42.5154 148.533ZM35.0016 148.833L32.4371 155.368L26.2294 149.161L35.0016 148.833Z" fill="white"/>
<path d="M37.8074 122.031C34.56 121.96 32.4128 124.283 31.0584 126.896C29.4795 130.001 29.1294 134.138 32.5812 135.927C36.3447 137.878 38.8957 135.186 41.0801 131.969C42.4753 129.864 43.9799 128.546 45.562 129.366C47.3838 130.31 47.1098 132.54 46.0785 134.53C45.0223 136.567 43.2008 138.087 40.9699 137.873L40.9694 141.218C44.6839 141.562 47.1054 139.472 48.8822 136.044C50.8206 132.305 50.9292 128.164 47.1897 126.226C43.1866 124.151 40.5858 126.939 38.3402 130.215C37.0568 132.104 35.7546 133.619 34.2924 132.861C33.0459 132.215 32.6471 130.578 33.8648 128.229C34.8091 126.408 36.5401 125.298 37.7971 125.219L37.8074 122.031Z" fill="white"/>
<path d="M42.895 113.797L45.8143 109.319C48.2912 105.519 53.9155 109.152 51.4238 112.975L48.5045 117.454L42.895 113.797ZM42.9643 107.461C41.3425 109.949 39.7432 112.452 38.1214 114.94L53.9547 125.261L55.9009 122.275L51.2414 119.238L54.1607 114.759C59.2178 107.001 48.0067 99.7251 42.9643 107.461Z" fill="white"/>
<path d="M75.0348 96.0486L77.5014 93.0432L57.5131 87.6066L55.0466 90.612L64.278 109.156L66.7274 106.171L65.0001 102.658L71.2692 95.019L75.0348 96.0486ZM67.7943 94.0184L63.3408 99.4449L59.3479 91.6272L67.7943 94.0184Z" fill="white"/>
<path d="M71.2793 72.3536C69.6255 73.9836 67.6448 75.9357 65.991 77.5656L79.2579 91.0267C80.9117 89.3968 82.8924 87.4446 84.5461 85.8147C89.2575 81.1713 87.9418 75.6822 84.5295 72.3354C81.193 69.0654 75.8945 67.805 71.2793 72.3536ZM70.8792 77.4866L73.6484 74.7574C76.5713 71.8766 79.8679 72.7597 81.9914 74.7989C84.2097 76.9343 85.1967 80.359 82.1392 83.3725L79.37 86.1017L70.8792 77.4866Z" fill="white"/>
<path d="M107.152 59.5928C108.744 58.4782 109.209 56.5052 108.033 54.824C106.856 53.1428 104.828 52.8816 103.235 53.9962C101.598 55.1419 101.149 57.137 102.325 58.8182C103.502 60.4993 105.515 60.7384 107.152 59.5928Z" fill="white"/>
<path d="M140.197 25.4494L136.577 27.1421L137.625 42.8964L126.232 31.98L122.612 33.6726L137.769 47.5384L141.12 45.9716L140.197 25.4494Z" fill="white"/>
<path d="M164.805 32.8083L154.776 36.2734L153.383 32.2413L163.055 28.8996L161.97 25.7607L152.298 29.1024L150.879 24.9937L160.908 21.5286L159.779 18.262L146.407 22.8822C148.461 28.8283 150.525 34.7999 152.579 40.746L165.951 36.1259L164.805 32.8083Z" fill="white"/>
<path d="M165.443 16.4927L169.97 34.8427L182.867 31.6611L182.078 28.463L172.641 30.791L168.903 15.6391L165.443 16.4927Z" fill="white"/>
<path d="M201.184 28.5946L205.033 28.0424L193.956 10.5382L190.108 11.0904L184.4 31.003L188.222 30.4546L189.319 26.6966L199.101 25.293L201.184 28.5946ZM197.213 22.209L190.264 23.206L192.596 14.7431L197.213 22.209Z" fill="white"/>
<path d="M222.121 11.3674C220.579 8.50882 217.498 7.79016 214.557 7.90371C211.078 8.06508 207.308 9.80482 207.458 13.6899C207.622 17.9258 211.223 18.8135 215.098 19.1232C217.618 19.2961 219.508 19.9527 219.577 21.7333C219.656 23.7838 217.581 24.6475 215.342 24.734C213.049 24.8225 210.828 23.9896 209.911 21.9444L207.003 23.5969C208.539 26.9961 211.553 28.0686 215.411 27.9197C219.62 27.7572 223.273 25.8057 223.111 21.5969C222.937 17.0912 219.228 16.2077 215.27 15.8741C212.994 15.6918 211.033 15.3082 210.97 13.6624C210.916 12.2595 212.141 11.1043 214.785 11.0022C216.835 10.9231 218.656 11.8795 219.345 12.9337L222.121 11.3674Z" fill="white"/>
<path d="M233.68 11.7706L239.014 12.121C243.541 12.4183 243.129 19.1017 238.576 18.8026L233.241 18.4522L233.68 11.7706ZM239.237 8.72631C236.274 8.53165 233.308 8.36394 230.345 8.16929L229.106 27.0287L232.662 27.2622L233.027 21.7122L238.362 22.0626C247.603 22.6695 248.452 9.3315 239.237 8.72631Z" fill="white"/>
<path d="M264.306 31.0075L268.135 31.6774L263.041 11.5993L259.211 10.9294L247.603 28.0858L251.406 28.7511L253.616 25.5196L263.35 27.2223L264.306 31.0075ZM262.513 23.7044L255.598 22.4948L260.442 15.174L262.513 23.7044Z" fill="white"/>
<path d="M283.015 16.0898C280.783 15.4486 278.11 14.6806 275.879 14.0393L270.659 32.2043C272.891 32.8456 275.564 33.6136 277.796 34.2548C284.153 36.0816 288.291 32.2419 289.533 27.6263C290.745 23.1146 289.243 17.8793 283.015 16.0898ZM278.346 18.2598L282.083 19.3336C286.027 20.4669 286.875 23.7727 286.141 26.6236C285.368 29.6043 282.869 32.1447 278.743 30.9592L275.006 29.8854L278.346 18.2598Z" fill="white"/>
<path d="M311.522 41.0337C313.274 41.8767 315.222 41.316 316.112 39.467C317.002 37.618 316.236 35.7215 314.485 34.8784C312.684 34.012 310.725 34.5971 309.835 36.4461C308.945 38.2951 309.722 40.1672 311.522 41.0337Z" fill="white"/>
<path d="M357.502 53.1592L354.253 50.8323L341.031 59.4617L344.969 44.1815L341.72 41.8546L337.054 61.8606L340.061 64.0146L357.502 53.1592Z" fill="white"/>
<path d="M362.724 77.8231L354.772 70.7976L357.596 67.6005L365.265 74.3758L367.464 71.887L359.795 65.1117L362.673 61.854L370.625 68.8796L372.913 66.2896L362.311 56.9222C358.145 61.6368 353.962 66.3716 349.797 71.0862L360.4 80.4535L362.724 77.8231Z" fill="white"/>
<path d="M377.602 70.685L363.855 83.6553L372.971 93.3175L375.367 91.057L368.697 83.9871L380.048 73.2773L377.602 70.685Z" fill="white"/>
<path d="M384.715 107.812L387.093 110.888L396.861 92.6212L394.483 89.5452L374.345 94.397L376.706 97.4517L380.517 96.5536L386.56 104.372L384.715 107.812ZM388.313 101.209L384.019 95.6546L392.532 93.5106L388.313 101.209Z" fill="white"/>
<path d="M410.365 118.13C412.098 115.383 411.21 112.346 409.667 109.84C407.818 106.888 404.451 104.459 401.14 106.498C397.531 108.72 398.526 112.293 400.16 115.821C401.247 118.101 401.603 120.07 400.085 121.004C398.338 122.08 396.567 120.697 395.392 118.789C394.189 116.835 393.823 114.492 395.155 112.689L392.287 110.967C390.08 113.974 390.626 117.126 392.651 120.414C394.859 124 398.354 126.225 401.94 124.016C405.78 121.651 404.728 117.987 403.074 114.375C402.115 112.303 401.487 110.407 402.889 109.543C404.084 108.807 405.692 109.307 407.08 111.56C408.156 113.307 408.217 115.363 407.637 116.481L410.365 118.13Z" fill="white"/>
<path d="M414.845 126.851L417.181 131.659C419.164 135.739 413.153 138.69 411.159 134.585L408.822 129.777L414.845 126.851ZM420.241 130.173C418.943 127.501 417.621 124.842 416.323 122.17L399.324 130.43L400.881 133.635L405.884 131.205L408.22 136.013C412.267 144.343 424.277 138.478 420.241 130.173Z" fill="white"/>
<path d="M413.254 162.915L414.565 166.576L429.499 152.221L428.188 148.561L407.536 146.952L408.838 150.587L412.739 150.911L416.072 160.214L413.254 162.915ZM418.716 157.747L416.348 151.138L425.107 151.729L418.716 157.747Z" fill="white"/>
<path d="M435.47 171.797C434.923 169.541 434.267 166.838 433.719 164.582L415.352 169.038C415.9 171.295 416.555 173.997 417.103 176.254C418.663 182.682 424.047 184.377 428.672 183.171C433.193 181.991 436.998 178.095 435.47 171.797ZM431.273 168.815L432.19 172.593C433.158 176.581 430.705 178.955 427.865 179.727C424.892 180.532 421.448 179.617 420.435 175.445L419.519 171.667L431.273 168.815Z" fill="white"/>
<path d="M427.926 209.302C428.061 211.241 429.513 212.656 431.56 212.514C433.607 212.371 434.875 210.768 434.741 208.828C434.602 206.835 433.123 205.422 431.076 205.565C429.029 205.707 427.787 207.309 427.926 209.302Z" fill="white"/>
</svg>
