<svg width="171" height="85" viewBox="0 0 171 85" fill="none" xmlns="http://www.w3.org/2000/svg">
<path d="M1 56.1626L2.89891 64.2854L4.60749 57.9942L7.40881 60.4948L10.0198 58.6536L13.7991 62.6608L17.1407 75.8738L19.5143 71.7583L22.1253 72.8413L24.9737 71.5417L26.6352 83.9966L28.0594 74.6825L29.4836 75.8738L30.4331 74.0327L31.8572 62.011L33.2814 63.2024L33.9935 65.9099L35.655 64.8269L38.266 67.8594L40.6397 66.6681L42.5386 67.8594L44.4375 72.8413L46.8111 64.6103L49.1848 63.6356L49.8968 68.7258L54.4664 64.2589L55.9997 65.9099L60.3408 47.3901L65.0881 51.6139L69.1233 52.8052L72.9433 64.6808L76.7189 63.0941L79.5673 60.4948L82.1783 61.3612L86.2134 59.9533L89.0618 60.7114L93.097 59.9533L95.9453 53.3468L99.0311 56.3793L101.409 54.1049L103.54 55.0796L106.736 59.4117L108.6 57.2457L110.731 60.4948L112.862 63.2024L113.463 73.4709L115.525 68.7258L116.59 70.3504L117.922 74.7908L120.319 80.206L124.048 57.2818L128.484 68.6271L130.44 66.4876L132.304 63.9966L133.902 65.2962L139.229 41.3612L145.088 44.9352L147.098 51.0002L149.107 49.2244L151.116 42.7977L153.125 44.9767L155.134 39.1925L158.139 40.0616L159.153 35.7575L161.162 18.8992L163.199 21.3612L165.18 10.0373L167.176 13.2554L169.198 10.7556L171.189 10.7475L173.32 13.2385L175.185 15.2962L177.315 7.8233L179.244 1.06856" stroke="url(#paint0_linear)" stroke-linecap="round" stroke-linejoin="round"/>
<defs>
<linearGradient id="paint0_linear" x1="41.255" y1="51.8969" x2="1" y2="51.8969" gradientUnits="userSpaceOnUse">
<stop stop-color="#EF9E36"/>
<stop offset="1" stop-color="#F8CD66" stop-opacity="0.01"/>
</linearGradient>
</defs>
</svg>
