<svg width="304" height="90" viewBox="0 0 304 90" fill="none" xmlns="http://www.w3.org/2000/svg">
<path d="M1 79.3215L2.89891 70.3865L4.60749 77.3068L7.40881 74.5562L10.0198 76.5814L13.7991 72.1735L17.1407 57.6392L19.5143 62.1663L22.1253 60.9749L24.9737 62.4045L26.6352 48.7042L28.0594 58.9497L29.4836 57.6392L30.4331 59.6645L31.8572 72.8883L33.2814 71.5778L33.9935 68.5995L35.655 69.7908L38.266 66.4551L40.6397 67.7656L42.5386 66.4551L44.4375 60.9749L46.8111 70.0291L49.1848 71.1013L49.8968 65.502L54.4664 70.4156L55.9997 68.5995L60.3408 88.9713L65.0881 84.3251L69.1233 83.0147L72.9433 69.9515L76.7189 71.697L79.5673 74.5562L82.1783 73.6031L86.2134 75.1518L89.0618 74.3179L93.097 75.1518L95.9453 82.419L99.0311 79.0832L101.409 81.5851L103.54 80.5128L106.736 75.7475L108.6 78.1302L110.731 74.5562L112.862 71.5778L113.463 60.2824L115.525 65.502L116.59 63.715L117.922 58.8305L120.319 52.8739L124.048 56.0905L128.484 43.6106L130.44 45.9641L132.304 48.7042L133.902 47.2746L139.229 40.6031L145.088 36.6717L147.098 30.0002L149.107 31.9535L151.116 39.0229L153.125 36.6261L155.134 42.9887L158.139 42.0327L159.153 46.7671L161.162 43.3113L163.199 40.6031L165.18 53.0594L167.176 49.5195L169.198 52.2692L171.189 52.2782L173.32 49.5381L175.185 47.2746L177.315 55.4948L179.244 62.925L181.31 61.8089L183.175 64.0724L185.305 63.1193L187.281 72.1735L189.3 70.3865L191.299 75.9555L193.295 74.5562L195.318 80.0363L197.327 78.2042L199.421 67.7656L201.345 74.593L203.354 73.5358L205.281 77.2962L207.373 72.1735L209.276 73.0074L211.391 72.1735L213.271 69.91L215.409 75.0348L217.532 73.2457L219.428 79.1794L221.527 79.2024L226.446 59.8149L228.522 57.5128L230.464 62.2687L232.517 68.8305L234.483 56.4223L236.512 52.2782L238.501 59.689L240.626 57.0839L242.638 58.8305L244.503 58.9497L246.538 62.2085L248.498 63.0002L250.556 58.9814L252.493 59.6645L254.574 55.8315L256.583 54.1843L258.618 50.2529L260.602 36.3071L262.613 35.3757L264.62 38.8468L266.609 37.0435L268.638 40.8558L270.604 42.1663L272.734 34.1843L274.653 34.6735L276.729 28.5851L278.684 23.8635L280.724 25.1302L282.703 10.2667L284.719 5.83776L286.721 6.99412L288.73 5.59949L290.845 16.3215L292.748 7.59588L294.84 4.76556L296.767 9.1735L298.835 7.62476L300.785 9.1735L302.83 -4.646L304.803 5.86593L306.825 -0.357187L308.822 1.10179L310.82 2.50202L312.951 3.33595L314.849 -4.11218L313.858 17.6392L315.811 14.1843L320.877 -2.49572L322.806 1.31068L324.895 0.139105L326.801 12.9858L328.913 2.50202H330.796L332.927 3.45509L334.941 -0.105014L336.922 -2.73986L338.959 -0.595455H340.968L342.972 -2.02579L344.912 2.50202L346.996 5.38119L348.907 4.76556L351.014 7.99707L352.902 5.83776L355.033 9.1735" stroke="url(#paint0_linear)" stroke-linecap="round" stroke-linejoin="round"/>
<defs>
<linearGradient id="paint0_linear" x1="231.397" y1="31.5484" x2="151.117" y2="31.5484" gradientUnits="userSpaceOnUse">
<stop stop-color="#EF9E36"/>
<stop offset="1" stop-color="#F8CD66" stop-opacity="0.01"/>
</linearGradient>
</defs>
</svg>
