<svg width="460" height="360" viewBox="0 0 460 360" fill="none" xmlns="http://www.w3.org/2000/svg">
<mask id="mask0" mask-type="alpha" maskUnits="userSpaceOnUse" x="0" y="0" width="460" height="360">
<rect width="460" height="360" fill="white"/>
</mask>
<g mask="url(#mask0)">
<mask id="mask1" mask-type="alpha" maskUnits="userSpaceOnUse" x="-43" y="-78" width="499" height="502">
<rect x="222.863" y="423.686" width="389" height="318" transform="rotate(-133 222.863 423.686)" fill="url(#paint0_radial)"/>
</mask>
<g mask="url(#mask1)">
<path opacity="0.1" d="M629.937 -2.01862L571.761 7.80005C554.805 10.6618 537.492 5.36859 525.035 -6.48552L502.085 -28.3252C489.628 -40.1793 472.315 -45.4725 455.359 -42.6107L424.12 -37.3383C407.164 -34.4766 389.851 -39.7698 377.394 -51.6239L354.444 -73.4636C341.987 -85.3177 324.674 -90.6109 307.718 -87.7491L276.479 -82.4767C259.523 -79.615 242.21 -84.9082 229.753 -96.7623L206.803 -118.602C194.346 -130.456 177.033 -135.749 160.077 -132.888L128.838 -127.615C111.882 -124.753 94.5685 -130.047 82.1117 -141.901L59.1616 -163.74C46.7048 -175.594 29.3915 -180.888 12.4356 -178.026L-45.7401 -168.207" stroke="#530871" stroke-width="23.478" stroke-linecap="square"/>
<path opacity="0.1" d="M615.963 43.6874L557.787 53.5061C540.831 56.3679 523.518 51.0746 511.061 39.2205L488.111 17.3809C475.654 5.52676 458.341 0.233555 441.385 3.09531L410.146 8.36771C393.19 11.2295 375.877 5.93625 363.42 -5.91786L340.47 -27.7575C328.013 -39.6116 310.7 -44.9048 293.744 -42.0431L262.505 -36.7707C245.549 -33.9089 228.236 -39.2022 215.779 -51.0563L192.829 -72.8959C180.372 -84.75 163.059 -90.0432 146.103 -87.1815L114.864 -81.9091C97.9082 -79.0473 80.5948 -84.3405 68.138 -96.1947L45.188 -118.034C32.7312 -129.888 15.4179 -135.182 -1.53801 -132.32L-59.7137 -122.501" stroke="#530871" stroke-width="23.478" stroke-linecap="square"/>
<path opacity="0.3" d="M601.989 89.3935L543.813 99.2122C526.858 102.074 509.544 96.7807 497.087 84.9266L474.137 63.0869C461.681 51.2328 444.367 45.9396 427.411 48.8014L396.172 54.0738C379.216 56.9355 361.903 51.6423 349.446 39.7882L326.496 17.9485C314.04 6.09442 296.726 0.80121 279.77 3.66296L248.531 8.93536C231.575 11.7971 214.262 6.5039 201.805 -5.35021L178.855 -27.1899C166.399 -39.044 149.085 -44.3372 132.129 -41.4754L100.89 -36.203C83.9344 -33.3413 66.6211 -38.6345 54.1643 -50.4886L31.2142 -72.3283C18.7574 -84.1824 1.44413 -89.4756 -15.5118 -86.6138L-73.6874 -76.7952" stroke="#530871" stroke-width="23.478" stroke-linecap="square"/>
<path opacity="0.1" d="M588.015 135.1L529.84 144.918C512.884 147.78 495.57 142.487 483.114 130.633L460.164 108.793C447.707 96.9389 430.394 91.6457 413.438 94.5074L382.199 99.7798C365.243 102.642 347.929 97.3484 335.473 85.4942L312.523 63.6546C300.066 51.8005 282.752 46.5073 265.797 49.369L234.558 54.6414C217.602 57.5032 200.288 52.21 187.832 40.3558L164.882 18.5162C152.425 6.66208 135.111 1.36887 118.156 4.23062L86.9165 9.50302C69.9607 12.3648 52.6473 7.07156 40.1905 -4.78255L17.2405 -26.6222C4.78369 -38.4763 -12.5296 -43.7695 -29.4855 -40.9078L-87.6612 -31.0891" stroke="#530871" stroke-width="23.478" stroke-linecap="square"/>
<path opacity="0.1" d="M574.042 180.806L515.866 190.624C498.91 193.486 481.597 188.193 469.14 176.339L446.19 154.499C433.733 142.645 416.42 137.352 399.464 140.213L368.225 145.486C351.269 148.348 333.956 143.054 321.499 131.2L298.549 109.361C286.092 97.5065 268.779 92.2133 251.823 95.0751L220.584 100.347C203.628 103.209 186.315 97.916 173.858 86.0619L150.908 64.2223C138.451 52.3681 121.138 47.0749 104.182 49.9367L72.9428 55.2091C55.9869 58.0708 38.6736 52.7776 26.2168 40.9235L3.26674 19.0838C-9.19006 7.22973 -26.5034 1.93652 -43.4593 4.79828L-101.635 14.617" stroke="#530871" stroke-width="23.478" stroke-linecap="square"/>
<path opacity="0.2" d="M560.068 226.512L501.892 236.33C484.936 239.192 467.623 233.899 455.166 222.045L432.216 200.205C419.759 188.351 402.446 183.058 385.49 185.92L354.251 191.192C337.295 194.054 319.982 188.76 307.525 176.906L284.575 155.067C272.118 143.213 254.805 137.919 237.849 140.781L206.61 146.054C189.654 148.915 172.341 143.622 159.884 131.768L136.934 109.928C124.477 98.0742 107.164 92.781 90.2082 95.6427L58.9692 100.915C42.0133 103.777 24.6999 98.4837 12.2431 86.6296L-10.7069 64.7899C-23.1637 52.9358 -40.477 47.6426 -57.4329 50.5043L-115.609 60.323" stroke="#530871" stroke-width="23.478" stroke-linecap="square"/>
<path opacity="0.1" d="M546.094 272.218L487.919 282.036C470.963 284.898 453.649 279.605 441.193 267.751L418.243 245.911C405.786 234.057 388.472 228.764 371.517 231.626L340.277 236.898C323.322 239.76 306.008 234.467 293.551 222.612L270.601 200.773C258.145 188.919 240.831 183.625 223.875 186.487L192.636 191.76C175.681 194.621 158.367 189.328 145.91 177.474L122.96 155.634C110.504 143.78 93.1903 138.487 76.2344 141.349L44.9954 146.621C28.0395 149.483 10.7262 144.19 -1.73061 132.336L-24.6806 110.496C-37.1375 98.6418 -54.4508 93.3486 -71.4067 96.2104L-129.582 106.029" stroke="#530871" stroke-width="23.478" stroke-linecap="square"/>
<path opacity="0.1" d="M532.121 317.923L473.945 327.742C456.989 330.604 439.676 325.31 427.219 313.456L404.269 291.617C391.812 279.763 374.499 274.469 357.543 277.331L326.304 282.604C309.348 285.465 292.035 280.172 279.578 268.318L256.628 246.478C244.171 234.624 226.858 229.331 209.902 232.193L178.663 237.465C161.707 240.327 144.393 235.034 131.937 223.18L108.987 201.34C96.5299 189.486 79.2165 184.193 62.2607 187.054L31.0216 192.327C14.0658 195.189 -3.24756 189.895 -15.7044 178.041L-38.6544 156.202C-51.1112 144.347 -68.4245 139.054 -85.3804 141.916L-143.556 151.735" stroke="#530871" stroke-width="23.478" stroke-linecap="square"/>
<path opacity="0.2" d="M518.147 363.629L459.971 373.448C443.015 376.31 425.702 371.017 413.245 359.162L390.295 337.323C377.838 325.469 360.525 320.175 343.569 323.037L312.33 328.31C295.374 331.171 278.061 325.878 265.604 314.024L242.654 292.184C230.197 280.33 212.884 275.037 195.928 277.899L164.689 283.171C147.733 286.033 130.42 280.74 117.963 268.886L95.0129 247.046C82.5561 235.192 65.2428 229.899 48.2869 232.76L17.0479 238.033C0.0919987 240.895 -17.2213 235.601 -29.6781 223.747L-52.6282 201.908C-65.085 190.053 -82.3983 184.76 -99.3542 187.622L-157.53 197.441" stroke="#530871" stroke-width="23.478" stroke-linecap="square"/>
<path opacity="0.1" d="M504.173 409.335L445.997 419.154C429.041 422.016 411.728 416.723 399.271 404.868L376.321 383.029C363.865 371.175 346.551 365.882 329.595 368.743L298.356 374.016C281.4 376.877 264.087 371.584 251.63 359.73L228.68 337.89C216.223 326.036 198.91 320.743 181.954 323.605L150.715 328.877C133.759 331.739 116.446 326.446 103.989 314.592L81.0392 292.752C68.5824 280.898 51.2691 275.605 34.3132 278.466L3.07419 283.739C-13.8817 286.601 -31.195 281.307 -43.6518 269.453L-66.6019 247.614C-79.0587 235.76 -96.372 230.466 -113.328 233.328L-171.504 243.147" stroke="#530871" stroke-width="23.478" stroke-linecap="square"/>
<path opacity="0.1" d="M490.199 455.041L432.024 464.86C415.068 467.722 397.754 462.429 385.298 450.575L362.348 428.735C349.891 416.881 332.577 411.588 315.622 414.449L284.383 419.722C267.427 422.583 250.113 417.29 237.657 405.436L214.707 383.596C202.25 371.742 184.936 366.449 167.98 369.311L136.741 374.583C119.786 377.445 102.472 372.152 90.0155 360.298L67.0655 338.458C54.6087 326.604 37.2953 321.311 20.3394 324.173L-10.8996 329.445C-27.8555 332.307 -45.1688 327.013 -57.6256 315.159L-80.5756 293.32C-93.0324 281.466 -110.346 276.172 -127.302 279.034L-185.477 288.853" stroke="#530871" stroke-width="23.478" stroke-linecap="square"/>
<path opacity="0.1" d="M476.226 500.747L418.05 510.566C401.094 513.428 383.781 508.135 371.324 496.281L348.374 474.441C335.917 462.587 318.604 457.294 301.648 460.155L270.409 465.428C253.453 468.29 236.14 462.996 223.683 451.142L200.733 429.303C188.276 417.448 170.963 412.155 154.007 415.017L122.768 420.289C105.812 423.151 88.4986 417.858 76.0418 406.004L53.0918 384.164C40.635 372.31 23.3217 367.017 6.36576 369.879L-24.8733 375.151C-41.8291 378.013 -59.1425 372.72 -71.5993 360.865L-94.5493 339.026C-107.006 327.172 -124.319 321.878 -141.275 324.74L-199.451 334.559" stroke="#530871" stroke-width="23.478" stroke-linecap="square"/>
<path opacity="0.1" d="M462.252 546.454L404.076 556.272C387.12 559.134 369.807 553.841 357.35 541.987L334.4 520.147C321.943 508.293 304.63 503 287.674 505.861L256.435 511.134C239.479 513.996 222.166 508.702 209.709 496.848L186.759 475.009C174.302 463.154 156.989 457.861 140.033 460.723L108.794 465.995C91.8381 468.857 74.5248 463.564 62.068 451.71L39.118 429.87C26.6612 418.016 9.3479 412.723 -7.608 415.585L-38.847 420.857C-55.8029 423.719 -73.1162 418.426 -85.573 406.571L-108.523 384.732C-120.98 372.878 -138.293 367.584 -155.249 370.446L-213.425 380.265" stroke="#530871" stroke-width="23.478" stroke-linecap="square"/>
</g>
</g>
<defs>
<radialGradient id="paint0_radial" cx="0" cy="0" r="1" gradientUnits="userSpaceOnUse" gradientTransform="translate(427.226 591.654) rotate(90) scale(159.97 195.686)">
<stop stop-color="#200932" stop-opacity="0.397001"/>
<stop offset="0.437119" stop-color="#28093B" stop-opacity="0.864467"/>
<stop offset="1" stop-color="#580876" stop-opacity="0.01"/>
</radialGradient>
</defs>
</svg>
