<svg width="12" height="10" viewBox="0 0 12 10" fill="none" xmlns="http://www.w3.org/2000/svg">
<path fill-rule="evenodd" clip-rule="evenodd" d="M1.60608 2.54545C1.62048 2.40385 1.56624 2.26417 1.46064 2.16913L0.385438 0.873128V0.679688H3.72528L6.30672 6.34129L8.57616 0.679688H11.76V0.873128L10.8403 1.75489C10.7611 1.81537 10.7218 1.91473 10.7381 2.01313V8.49217C10.7218 8.59009 10.7611 8.68945 10.8403 8.74993L11.7384 9.63169V9.82513H7.22064V9.63169L8.15136 8.72833C8.24256 8.63713 8.24256 8.61025 8.24256 8.47057V3.23377L5.65584 9.80401H5.3064L2.2944 3.23377V7.63729C2.26944 7.82209 2.33088 8.00881 2.46096 8.14225L3.67104 9.61009V9.80401H0.239998V9.61009L1.45008 8.14225C1.57968 8.00833 1.63728 7.82065 1.60608 7.63729V2.54545V2.54545Z" fill="#0B0C26"/>
</svg>
