<svg width="15" height="12" viewBox="0 0 15 12" fill="none" xmlns="http://www.w3.org/2000/svg">
<path d="M14.3498 1.62631C13.8356 1.85434 13.2824 2.00857 12.7023 2.07745C13.2946 1.72257 13.7492 1.16106 13.9637 0.490881C13.4095 0.81966 12.7954 1.05817 12.1423 1.18673C11.6191 0.629495 10.8736 0.28125 10.0481 0.28125C8.46433 0.28125 7.1798 1.56578 7.1798 3.14956C7.1798 3.37438 7.20526 3.59321 7.25446 3.80327C4.87065 3.68369 2.75701 2.54185 1.34221 0.80597C1.09536 1.22951 0.953755 1.72257 0.953755 2.24815C0.953755 3.24304 1.46051 4.12135 2.22972 4.63559C1.75977 4.62083 1.31719 4.49184 0.930653 4.27644C0.930439 4.28863 0.930439 4.30082 0.930439 4.3128C0.930439 5.70257 1.91956 6.86175 3.23146 7.12507C2.99103 7.19095 2.73712 7.22582 2.47593 7.22582C2.29069 7.22582 2.11122 7.20807 1.93624 7.1747C2.30117 8.31398 3.36024 9.14331 4.61567 9.16662C3.63383 9.93605 2.39722 10.3945 1.05301 10.3945C0.821987 10.3945 0.593104 10.381 0.369141 10.3542C1.63784 11.1684 3.1459 11.6431 4.76562 11.6431C10.0415 11.6431 12.9267 7.27245 12.9267 3.48176C12.9267 3.35748 12.9239 3.23363 12.9184 3.11084C13.4792 2.70656 13.9654 2.20152 14.3498 1.62631Z" fill="#0B0C26"/>
</svg>
