<svg width="55" height="74" viewBox="0 0 55 74" fill="none" xmlns="http://www.w3.org/2000/svg">
<path d="M44.3248 36.1272C49.8174 32.7627 52.5551 27.7329 52.5551 21.0209C52.5551 15.0299 50.4026 10.189 46.1155 6.49824C41.8281 2.80749 36.1805 0.970703 29.2073 0.970703H0.00517194V10.1203C0.00517194 13.2446 0.452845 16.0598 3.50046 16.8152C4.03422 16.9525 4.55076 17.004 4.98122 16.9868C7.54672 16.8152 24.1278 12.2318 28.6905 11.9743C29.7582 11.9228 30.7739 12.5236 31.2045 13.5021C31.6694 14.5149 32.3752 15.768 33.2017 16.0427C34.6308 16.5233 41.7937 15.7165 42.6545 18.8064C43.4809 21.8105 42.2414 25.2266 40.6401 26.1021L39.1076 28.7628L37.5925 27.0291C37.5406 27.0291 37.5063 27.0291 37.4547 27.0462L36.0256 29.5181L34.5105 27.7844C34.4243 27.7844 34.4071 27.8016 34.3209 27.8016L32.8573 30.3594L31.3079 28.5912C31.256 28.5912 31.2389 28.5912 31.1873 28.6084L28.2085 29.5355C26.9688 29.9644 26.1251 30.3765 26.0735 30.7199C26.0218 31.0288 26.59 31.7498 27.5026 32.6595L29.6722 34.7023C29.7066 34.7539 29.7238 34.771 29.7582 34.8225L32.6164 34.6681L31.9965 36.7966C32.0653 36.8824 32.0999 36.9169 32.1687 37.0027L35.0442 36.8482L34.4243 38.9768C34.493 39.0626 34.5277 39.1142 34.5964 39.1999L37.4891 39.0455L36.8176 41.3972C37.0242 41.6548 37.1448 41.8606 37.162 41.9979C37.4375 43.5086 36.2668 45.5685 32.2549 45.2254C28.243 44.882 28.9489 41.8435 20.0299 44.5215C11.7135 47.0277 6.41034 50.6327 2.8806 57.9455C-0.253101 64.3828 0.00517194 73.9272 0.00517194 73.9272C0.00517194 73.9272 18.067 73.9272 22.3888 73.9272H30.9636C38.4361 73.9272 44.3077 72.8115 48.5776 69.0865C52.8478 65.3614 55 60.2114 55 53.5852C55 45.6717 51.4359 39.8523 44.3248 36.1272Z" fill="url(#paint0_linear)"/>
<defs>
<linearGradient id="paint0_linear" x1="-1.12517e-06" y1="-46.3642" x2="-42.2703" y2="112.056" gradientUnits="userSpaceOnUse">
<stop stop-color="#00BCB0"/>
<stop offset="1" stop-color="#F7D542"/>
</linearGradient>
</defs>
</svg>
