<svg width="19" height="20" viewBox="0 0 19 20" fill="none" xmlns="http://www.w3.org/2000/svg">
<path fill-rule="evenodd" clip-rule="evenodd" d="M3.4164 2.99684C3.11672 1.43848 4.31546 0 5.87382 0C7.25237 0 8.39117 1.1388 8.39117 2.51735V5.63407C8.75079 5.63407 9.11041 5.57413 9.47003 5.57413C9.82965 5.57413 10.1293 5.57413 10.489 5.63407V2.51735C10.489 1.1388 11.6278 0 13.0063 0C14.5647 0 15.7634 1.43848 15.5237 2.99684L14.8644 6.65299C17.2019 7.67192 19 9.47003 19 11.6877V13.0662C19 14.9242 17.8013 16.4826 16.0631 17.5015C14.3249 18.5804 12.0473 19.1798 9.47003 19.1798C6.89274 19.1798 4.61514 18.5804 2.87697 17.5015C1.19874 16.4826 0 14.9242 0 13.0662V11.6877C0 9.47003 1.73817 7.67192 4.07571 6.65299L3.4164 2.99684ZM13.9653 7.13249L14.7445 2.81703C14.9243 1.73817 14.1451 0.719244 13.0063 0.719244C12.0473 0.719244 11.2681 1.49842 11.2681 2.45741V6.41325C11.0284 6.35331 10.7287 6.35331 10.489 6.35331C10.1293 6.35331 9.82965 6.29337 9.47003 6.29337C9.11041 6.29337 8.75079 6.29337 8.39117 6.35331C8.15142 6.35331 7.85173 6.41325 7.61199 6.41325V2.51735C7.61199 1.55836 6.83281 0.779184 5.87382 0.779184C4.79495 0.779184 3.95584 1.7981 4.19558 2.87697L4.97476 7.19243C2.45741 8.15142 0.77918 9.82964 0.77918 11.7476V13.1261C0.77918 16.063 4.67508 18.4605 9.47003 18.4605C14.265 18.4605 18.1609 16.063 18.1609 13.1261V11.7476C18.2208 9.76974 16.5426 8.09148 13.9653 7.13249Z" fill="url(#paint0_linear)"/>
<path fill-rule="evenodd" clip-rule="evenodd" d="M4.19631 2.8771C3.95656 1.79823 4.79568 0.779297 5.87454 0.779297C6.83353 0.779297 7.61271 1.55848 7.61271 2.51747V6.47331C8.21208 6.41337 8.81145 6.35344 9.47076 6.35344C10.0701 6.35344 10.6695 6.41337 11.2689 6.47331V2.51747C11.2689 1.55848 12.048 0.779297 13.007 0.779297C14.0859 0.779297 14.925 1.79823 14.7452 2.8771L13.966 7.19255C16.4834 8.15154 18.2215 9.82975 18.2215 11.7477C18.2215 14.6846 14.3256 17.0821 9.53069 17.0821C4.73574 17.0821 0.839844 14.6846 0.839844 11.7477C0.839844 9.82975 2.51808 8.15154 5.03543 7.19255L4.19631 2.8771ZM7.07228 11.3281C7.07228 12.1073 6.65272 12.7666 6.11329 12.7666C5.57385 12.7666 5.1543 12.1073 5.1543 11.3281C5.1543 10.5489 5.57385 9.88964 6.11329 9.88964C6.65272 9.88964 7.07228 10.5489 7.07228 11.3281ZM12.7656 12.7666C13.3051 12.7666 13.7246 12.1073 13.7246 11.3281C13.7246 10.5489 13.3051 9.88964 12.7656 9.88964C12.2262 9.88964 11.8066 10.5489 11.8066 11.3281C11.8066 12.1073 12.2262 12.7666 12.7656 12.7666Z" fill="url(#paint1_linear)"/>
<defs>
<linearGradient id="paint0_linear" x1="-3.88696e-07" y1="-12.4441" x2="-8.70016" y2="30.4021" gradientUnits="userSpaceOnUse">
<stop stop-color="#00BCB0"/>
<stop offset="1" stop-color="#F7D542"/>
</linearGradient>
<linearGradient id="paint1_linear" x1="0.839843" y1="-9.79815" x2="-6.06866" y2="26.8193" gradientUnits="userSpaceOnUse">
<stop stop-color="#00BCB0"/>
<stop offset="1" stop-color="#F7D542"/>
</linearGradient>
</defs>
</svg>
