<svg width="24" height="24" viewBox="0 0 24 24" fill="none" xmlns="http://www.w3.org/2000/svg">
<path d="M9.40298 11.8109L9.19513 11.6017C9.03776 11.4445 8.76742 11.5558 8.76742 11.7786V14.7665C8.76742 14.9045 8.88064 15.0168 9.01899 15.0168H12.0078C12.2307 15.0168 12.3428 14.7469 12.1844 14.5899C12.0867 14.4922 12.0867 14.334 12.1844 14.2365L15.3633 11.0481C15.4613 10.9509 15.4613 10.7928 15.3633 10.6946L15.0737 10.4061C14.9163 10.2489 15.0285 9.97898 15.2507 9.97898H18.2377C18.3759 9.97898 18.4889 10.0911 18.4889 10.2292V13.2168C18.4889 13.4397 18.218 13.5512 18.0603 13.3938L17.859 13.1926C17.7606 13.0921 17.6024 13.0921 17.5062 13.1926L12.1465 18.5492C12.0492 18.6467 11.8913 18.6467 11.7927 18.5492L5.2355 11.9926C5.13693 11.894 5.13693 11.7356 5.2355 11.6377L14.3129 2.56144C14.4104 2.46374 14.4104 2.30432 14.3129 2.20704L12.1784 0.0729575C12.0807 -0.0243192 11.9225 -0.0243192 11.8243 0.0729575L0.0729638 11.8237C-0.0243213 11.9214 -0.0243213 12.0808 0.0729638 12.1781L11.8231 23.9272C11.9208 24.0243 12.0803 24.0243 12.1776 23.9272L23.9272 12.1781C24.0243 12.0804 24.0243 11.9219 23.9272 11.8245L17.0144 4.91228C16.9178 4.815 16.7587 4.815 16.6608 4.91228L9.75869 11.811C9.66012 11.9095 9.50155 11.9095 9.40298 11.811V11.8109Z" fill="url(#paint0_linear_201_9251)"/>
<defs>
<linearGradient id="paint0_linear_201_9251" x1="-4.90985e-07" y1="-15.5714" x2="-10.7925" y2="38.0823" gradientUnits="userSpaceOnUse">
<stop stop-color="#00BCB0"/>
<stop offset="1" stop-color="#F7D542"/>
</linearGradient>
</defs>
</svg>
