<svg width="365" height="61" viewBox="0 0 365 61" fill="none" xmlns="http://www.w3.org/2000/svg">
<g opacity="0.6">
<path d="M97.8654 7.87402H101.938L93.2991 0.878418H89.2266L97.8654 7.87402Z" fill="url(#paint0_linear)"/>
<path d="M106.01 7.87402H110.206L101.568 0.878418H97.3716L106.01 7.87402Z" fill="url(#paint1_linear)"/>
<path d="M73.1832 7.87402H77.3792L68.7404 0.878418H64.5444L73.1832 7.87402Z" fill="url(#paint2_linear)"/>
<path d="M89.5968 7.87402H93.7928L85.154 0.878418H80.958L89.5968 7.87402Z" fill="url(#paint3_linear)"/>
<path d="M81.4513 7.87402H85.5239L76.8851 0.878418H72.8125L81.4513 7.87402Z" fill="url(#paint4_linear)"/>
<path d="M114.155 7.87402H118.351L109.713 0.878418H105.517L114.155 7.87402Z" fill="url(#paint5_linear)"/>
<path d="M138.838 7.87402H143.034L134.395 0.878418H130.199L138.838 7.87402Z" fill="url(#paint6_linear)"/>
<path d="M146.983 7.87402H151.179L142.54 0.878418H138.344L146.983 7.87402Z" fill="url(#paint7_linear)"/>
<path d="M122.424 7.87402H126.62L117.981 0.878418H113.785L122.424 7.87402Z" fill="url(#paint8_linear)"/>
<path d="M130.569 7.87402H134.765L126.127 0.878418H121.931L130.569 7.87402Z" fill="url(#paint9_linear)"/>
<path d="M65.0377 7.87402H69.2337L60.5949 0.878418H56.3989L65.0377 7.87402Z" fill="url(#paint10_linear)"/>
<path d="M15.7965 7.87402H19.9925L11.3537 0.878418H7.15771L15.7965 7.87402Z" fill="url(#paint11_linear)"/>
<path d="M155.252 7.87402H159.448L150.809 0.878418H146.613L155.252 7.87402Z" fill="url(#paint12_linear)"/>
<path d="M8.63879 22.0654V18.6675L0 11.6719C0 12.8711 0 13.9704 0 15.0698L8.63879 22.0654Z" fill="url(#paint13_linear)"/>
<path d="M8.63879 28.6616V25.2636L0 18.2678C0 19.4671 0 20.5665 0 21.6658L8.63879 28.6616Z" fill="url(#paint14_linear)"/>
<path d="M23.942 7.87402H28.138L19.4992 0.878418H15.3032L23.942 7.87402Z" fill="url(#paint15_linear)"/>
<path d="M8.63879 15.3696V11.9717L0 4.97583C0 6.17511 0 7.27446 0 8.3738L8.63879 15.3696Z" fill="url(#paint16_linear)"/>
<path d="M48.6241 7.87402H52.8201L44.1813 0.878418H39.9854L48.6241 7.87402Z" fill="url(#paint17_linear)"/>
<path d="M32.2106 7.87402H36.4066L27.7678 0.878418H23.5718L32.2106 7.87402Z" fill="url(#paint18_linear)"/>
<path d="M56.7692 7.87402H60.9652L52.3264 0.878418H48.1304L56.7692 7.87402Z" fill="url(#paint19_linear)"/>
<path d="M40.3556 7.87402H44.5516L35.9128 0.878418H31.7168L40.3556 7.87402Z" fill="url(#paint20_linear)"/>
<path d="M237.196 7.87402H241.392L232.754 0.878418H228.558L237.196 7.87402Z" fill="url(#paint21_linear)"/>
<path d="M8.63879 8.77344V7.874H11.7241L3.08528 0.878418H0C0 1.17823 0 1.47804 0 1.77785L8.63879 8.77344Z" fill="url(#paint22_linear)"/>
<path d="M163.397 7.87402H167.593L158.954 0.878418H154.758L163.397 7.87402Z" fill="url(#paint23_linear)"/>
<path d="M253.61 7.87402H257.806L249.168 0.878418H244.972L253.61 7.87402Z" fill="url(#paint24_linear)"/>
<path d="M261.879 7.87402H266.075L257.436 0.878418H253.24L261.879 7.87402Z" fill="url(#paint25_linear)"/>
<path d="M270.024 7.87402H274.22L265.581 0.878418H261.385L270.024 7.87402Z" fill="url(#paint26_linear)"/>
<path d="M281.995 0.878418H277.799L286.438 7.87402H290.634L281.995 0.878418Z" fill="url(#paint27_linear)"/>
<path d="M10.9836 53.7467C10.2431 53.7467 9.37926 53.7467 8.63879 53.7467V51.8479L0 44.8521C0 45.9514 0 47.0507 0 48.25L15.303 60.6426C16.6605 60.6426 18.0181 60.6426 19.499 60.6426L10.9836 53.7467Z" fill="url(#paint28_linear)"/>
<path d="M109.096 53.4468C107.739 53.4468 106.258 53.4468 104.9 53.4468L113.539 60.4429C114.897 60.4429 116.378 60.4429 117.735 60.4429L109.096 53.4468Z" fill="url(#paint29_linear)"/>
<path d="M0 58.144C0 59.0435 0 59.9429 0 60.8423C0.987291 60.8423 2.09799 60.8423 3.33211 60.7424L0 58.144Z" fill="url(#paint30_linear)"/>
<path d="M0 51.448C0 52.5474 0 53.6467 0 54.8461L7.28127 60.7427C8.51539 60.7427 9.99633 60.7427 11.3539 60.7427L0 51.448Z" fill="url(#paint31_linear)"/>
<path d="M278.293 7.87402H282.489L273.85 0.878418H269.654L278.293 7.87402Z" fill="url(#paint32_linear)"/>
<path d="M188.079 7.87402H192.275L183.636 0.878418H179.44L188.079 7.87402Z" fill="url(#paint33_linear)"/>
<path d="M196.224 7.87402H200.42L191.781 0.878418H187.585L196.224 7.87402Z" fill="url(#paint34_linear)"/>
<path d="M204.493 7.87402H208.565L199.927 0.878418H195.854L204.493 7.87402Z" fill="url(#paint35_linear)"/>
<path d="M171.665 7.87402H175.861L167.222 0.878418H163.026L171.665 7.87402Z" fill="url(#paint36_linear)"/>
<path d="M179.81 7.87402H184.006L175.367 0.878418H171.171L179.81 7.87402Z" fill="url(#paint37_linear)"/>
<path d="M8.63879 35.2576V31.8597L0 24.864C0 25.9633 0 27.1626 0 28.2619L8.63879 35.2576Z" fill="url(#paint38_linear)"/>
<path d="M245.465 7.87402H249.661L241.023 0.878418H236.827L245.465 7.87402Z" fill="url(#paint39_linear)"/>
<path d="M229.051 7.87402H233.247L224.609 0.878418H220.413L229.051 7.87402Z" fill="url(#paint40_linear)"/>
<path d="M220.906 7.87402H224.979L216.34 0.878418H212.268L220.906 7.87402Z" fill="url(#paint41_linear)"/>
<path d="M212.638 7.87402H216.834L208.195 0.878418H203.999L212.638 7.87402Z" fill="url(#paint42_linear)"/>
<path d="M199.309 53.5466C197.952 53.5466 196.471 53.5466 195.113 53.5466L203.752 60.5425C205.11 60.5425 206.591 60.5425 207.948 60.5425L199.309 53.5466Z" fill="url(#paint43_linear)"/>
<path d="M248.674 53.5466C247.317 53.5466 245.836 53.5466 244.479 53.5466L253.117 60.5425C254.475 60.5425 255.956 60.5425 257.313 60.5425L248.674 53.5466Z" fill="url(#paint44_linear)"/>
<path d="M240.405 53.5466C239.047 53.5466 237.567 53.5466 236.209 53.5466L244.848 60.5425C246.205 60.5425 247.686 60.5425 249.044 60.5425L240.405 53.5466Z" fill="url(#paint45_linear)"/>
<path d="M265.088 53.647C263.73 53.647 262.249 53.647 260.892 53.647L269.53 60.6426C270.888 60.6426 272.369 60.6426 273.726 60.6426L265.088 53.647Z" fill="url(#paint46_linear)"/>
<path d="M273.356 53.647C271.999 53.647 270.518 53.647 269.16 53.647L277.799 60.6426C279.156 60.6426 280.637 60.6426 281.995 60.6426L273.356 53.647Z" fill="url(#paint47_linear)"/>
<path d="M232.26 53.5466C230.903 53.5466 229.422 53.5466 228.064 53.5466L236.703 60.5425C238.061 60.5425 239.542 60.5425 240.899 60.5425L232.26 53.5466Z" fill="url(#paint48_linear)"/>
<path d="M256.942 53.647C255.585 53.647 254.104 53.647 252.746 53.647L261.385 60.6426C262.742 60.6426 264.223 60.6426 265.581 60.6426L256.942 53.647Z" fill="url(#paint49_linear)"/>
<path d="M182.895 53.4468C181.538 53.4468 180.057 53.4468 178.699 53.4468L187.338 60.4429C188.696 60.4429 190.176 60.4429 191.534 60.4429L182.895 53.4468Z" fill="url(#paint50_linear)"/>
<path d="M191.165 53.5466C189.807 53.5466 188.326 53.5466 186.969 53.5466L195.608 60.5425C196.965 60.5425 198.446 60.5425 199.804 60.5425L191.165 53.5466Z" fill="url(#paint51_linear)"/>
<path d="M215.846 53.5466C214.489 53.5466 213.008 53.5466 211.65 53.5466L220.289 60.5425C221.647 60.5425 223.128 60.5425 224.485 60.5425L215.846 53.5466Z" fill="url(#paint52_linear)"/>
<path d="M223.991 53.5466C222.633 53.5466 221.152 53.5466 219.795 53.5466L228.434 60.5425C229.791 60.5425 231.272 60.5425 232.63 60.5425L223.991 53.5466Z" fill="url(#paint53_linear)"/>
<path d="M207.578 53.5466C206.22 53.5466 204.739 53.5466 203.382 53.5466L212.021 60.5425C213.378 60.5425 214.859 60.5425 216.217 60.5425L207.578 53.5466Z" fill="url(#paint54_linear)"/>
<path d="M339.134 53.7466C337.777 53.7466 336.419 53.7466 334.938 53.7466L343.577 60.7422C345.058 60.7422 346.416 60.7422 347.773 60.7422L339.134 53.7466Z" fill="url(#paint55_linear)"/>
<path d="M330.866 53.7466C329.508 53.7466 328.151 53.7466 326.67 53.7466L335.309 60.7422C336.79 60.7422 338.147 60.7422 339.505 60.7422L330.866 53.7466Z" fill="url(#paint56_linear)"/>
<path d="M347.403 53.7466C346.045 53.7466 344.688 53.7466 343.207 53.7466L351.846 60.7422C353.327 60.7422 354.684 60.7422 356.042 60.7422L347.403 53.7466Z" fill="url(#paint57_linear)"/>
<path d="M290.263 0.878418H286.067L360.114 60.8423C361.719 60.8423 363.076 60.8423 364.31 60.8423L290.263 0.878418Z" fill="url(#paint58_linear)"/>
<path d="M322.721 53.7466C321.364 53.7466 320.006 53.7466 318.525 53.7466L327.164 60.7422C328.645 60.7422 330.003 60.7422 331.36 60.7422L322.721 53.7466Z" fill="url(#paint59_linear)"/>
<path d="M8.63879 41.9536V38.5557L0 31.5601C0 32.6594 0 33.7587 0 34.9579L8.63879 41.9536Z" fill="url(#paint60_linear)"/>
<path d="M289.77 53.647C288.413 53.647 286.932 53.647 285.574 53.647L294.213 60.6426C295.571 60.6426 297.052 60.6426 298.409 60.6426L289.77 53.647Z" fill="url(#paint61_linear)"/>
<path d="M298.038 53.647C296.68 53.647 295.199 53.647 293.842 53.647L302.481 60.6426C303.838 60.6426 305.319 60.6426 306.677 60.6426L298.038 53.647Z" fill="url(#paint62_linear)"/>
<path d="M314.452 53.7466C313.094 53.7466 311.613 53.7466 310.256 53.7466L318.895 60.7422C320.252 60.7422 321.733 60.7422 323.091 60.7422L314.452 53.7466Z" fill="url(#paint63_linear)"/>
<path d="M306.184 53.647C304.827 53.647 303.469 53.647 301.988 53.647L310.627 60.6426C311.985 60.6426 313.466 60.6426 314.823 60.6426L306.184 53.647Z" fill="url(#paint64_linear)"/>
<path d="M281.501 53.647C280.143 53.647 278.662 53.647 277.305 53.647L285.943 60.6426C287.301 60.6426 288.782 60.6426 290.139 60.6426L281.501 53.647Z" fill="url(#paint65_linear)"/>
<path d="M43.5641 53.5466C42.2066 53.5466 40.7257 53.5466 39.3682 53.5466L48.007 60.5425C49.3645 60.5425 50.722 60.5425 52.2029 60.5425L43.5641 53.5466Z" fill="url(#paint66_linear)"/>
<path d="M59.8542 53.4468C58.4967 53.4468 57.0157 53.4468 55.6582 53.4468L64.297 60.4429C65.6545 60.4429 67.012 60.4429 68.493 60.4429L59.8542 53.4468Z" fill="url(#paint67_linear)"/>
<path d="M51.7097 53.5466C50.3521 53.5466 48.8712 53.5466 47.5137 53.5466L56.1525 60.5425C57.51 60.5425 58.8675 60.5425 60.3484 60.5425L51.7097 53.5466Z" fill="url(#paint68_linear)"/>
<path d="M84.4128 53.4468C83.0553 53.4468 81.5743 53.4468 80.2168 53.4468L88.8556 60.4429C90.2131 60.4429 91.5706 60.4429 93.0516 60.4429L84.4128 53.4468Z" fill="url(#paint69_linear)"/>
<path d="M68.1237 53.4468C66.7662 53.4468 65.2853 53.4468 63.9277 53.4468L72.5665 60.4429C73.9241 60.4429 75.2816 60.4429 76.7625 60.4429L68.1237 53.4468Z" fill="url(#paint70_linear)"/>
<path d="M174.751 53.4468C173.393 53.4468 171.912 53.4468 170.555 53.4468L179.193 60.4429C180.551 60.4429 182.032 60.4429 183.389 60.4429L174.751 53.4468Z" fill="url(#paint71_linear)"/>
<path d="M8.63879 48.5498V45.1518L0 38.156C0 39.2553 0 40.3547 0 41.554L8.63879 48.5498Z" fill="url(#paint72_linear)"/>
<path d="M35.4186 53.5466C33.9377 53.5466 32.5802 53.5466 31.2227 53.5466L39.8614 60.5425C41.219 60.5425 42.5765 60.5425 44.0574 60.5425L35.4186 53.5466Z" fill="url(#paint73_linear)"/>
<path d="M19.0056 53.647C17.5246 53.647 16.1671 53.647 14.8096 53.647L23.325 60.5425C24.6825 60.5425 26.04 60.5425 27.5209 60.5425L19.0056 53.647Z" fill="url(#paint74_linear)"/>
<path d="M27.1511 53.647C25.6701 53.647 24.3126 53.647 22.9551 53.647L31.5939 60.6426C32.9514 60.6426 34.3089 60.6426 35.7899 60.6426L27.1511 53.647Z" fill="url(#paint75_linear)"/>
<path d="M76.2682 53.4468C74.9107 53.4468 73.4298 53.4468 72.0723 53.4468L80.7111 60.4429C82.0686 60.4429 83.4261 60.4429 84.907 60.4429L76.2682 53.4468Z" fill="url(#paint76_linear)"/>
<path d="M158.337 53.4468C156.979 53.4468 155.498 53.4468 154.141 53.4468L162.779 60.4429C164.137 60.4429 165.618 60.4429 166.975 60.4429L158.337 53.4468Z" fill="url(#paint77_linear)"/>
<path d="M150.068 53.4468C148.711 53.4468 147.23 53.4468 145.872 53.4468L154.511 60.4429C155.868 60.4429 157.349 60.4429 158.707 60.4429L150.068 53.4468Z" fill="url(#paint78_linear)"/>
<path d="M166.482 53.4468C165.125 53.4468 163.644 53.4468 162.286 53.4468L170.925 60.4429C172.282 60.4429 173.763 60.4429 175.121 60.4429L166.482 53.4468Z" fill="url(#paint79_linear)"/>
<path d="M92.6823 53.4468C91.3248 53.4468 89.8439 53.4468 88.4863 53.4468L97.1251 60.4429C98.4826 60.4429 99.8402 60.4429 101.321 60.4429L92.6823 53.4468Z" fill="url(#paint80_linear)"/>
<path d="M141.923 53.4468C140.565 53.4468 139.084 53.4468 137.727 53.4468L146.365 60.4429C147.723 60.4429 149.204 60.4429 150.561 60.4429L141.923 53.4468Z" fill="url(#paint81_linear)"/>
<path d="M133.655 53.4468C132.297 53.4468 130.817 53.4468 129.459 53.4468L138.098 60.4429C139.455 60.4429 140.936 60.4429 142.294 60.4429L133.655 53.4468Z" fill="url(#paint82_linear)"/>
<path d="M100.827 53.4468C99.4693 53.4468 97.9884 53.4468 96.6309 53.4468L105.27 60.4429C106.627 60.4429 108.108 60.4429 109.466 60.4429L100.827 53.4468Z" fill="url(#paint83_linear)"/>
<path d="M117.241 53.4468C116.624 53.4468 116.13 53.4468 115.513 53.4468C114.649 53.4468 113.909 53.4468 113.045 53.4468L121.684 60.4429C123.041 60.4429 124.522 60.4429 125.88 60.4429L117.241 53.4468Z" fill="url(#paint84_linear)"/>
<path d="M125.509 53.4468C124.152 53.4468 122.671 53.4468 121.313 53.4468L129.952 60.4429C131.31 60.4429 132.791 60.4429 134.148 60.4429L125.509 53.4468Z" fill="url(#paint85_linear)"/>
</g>
<defs>
<linearGradient id="paint0_linear" x1="89.2266" y1="-3.6604" x2="87.447" y2="12.4146" gradientUnits="userSpaceOnUse">
<stop stop-color="#00BCB0"/>
<stop offset="1" stop-color="#F7D542"/>
</linearGradient>
<linearGradient id="paint1_linear" x1="97.3716" y1="-3.6604" x2="95.6087" y2="12.4183" gradientUnits="userSpaceOnUse">
<stop stop-color="#00BCB0"/>
<stop offset="1" stop-color="#F7D542"/>
</linearGradient>
<linearGradient id="paint2_linear" x1="64.5444" y1="-3.6604" x2="62.7816" y2="12.4183" gradientUnits="userSpaceOnUse">
<stop stop-color="#00BCB0"/>
<stop offset="1" stop-color="#F7D542"/>
</linearGradient>
<linearGradient id="paint3_linear" x1="80.958" y1="-3.6604" x2="79.1952" y2="12.4183" gradientUnits="userSpaceOnUse">
<stop stop-color="#00BCB0"/>
<stop offset="1" stop-color="#F7D542"/>
</linearGradient>
<linearGradient id="paint4_linear" x1="72.8125" y1="-3.6604" x2="71.033" y2="12.4146" gradientUnits="userSpaceOnUse">
<stop stop-color="#00BCB0"/>
<stop offset="1" stop-color="#F7D542"/>
</linearGradient>
<linearGradient id="paint5_linear" x1="105.517" y1="-3.6604" x2="103.754" y2="12.4183" gradientUnits="userSpaceOnUse">
<stop stop-color="#00BCB0"/>
<stop offset="1" stop-color="#F7D542"/>
</linearGradient>
<linearGradient id="paint6_linear" x1="130.199" y1="-3.6604" x2="128.436" y2="12.4183" gradientUnits="userSpaceOnUse">
<stop stop-color="#00BCB0"/>
<stop offset="1" stop-color="#F7D542"/>
</linearGradient>
<linearGradient id="paint7_linear" x1="138.344" y1="-3.6604" x2="136.581" y2="12.4183" gradientUnits="userSpaceOnUse">
<stop stop-color="#00BCB0"/>
<stop offset="1" stop-color="#F7D542"/>
</linearGradient>
<linearGradient id="paint8_linear" x1="113.785" y1="-3.6604" x2="112.022" y2="12.4183" gradientUnits="userSpaceOnUse">
<stop stop-color="#00BCB0"/>
<stop offset="1" stop-color="#F7D542"/>
</linearGradient>
<linearGradient id="paint9_linear" x1="121.931" y1="-3.6604" x2="120.168" y2="12.4183" gradientUnits="userSpaceOnUse">
<stop stop-color="#00BCB0"/>
<stop offset="1" stop-color="#F7D542"/>
</linearGradient>
<linearGradient id="paint10_linear" x1="56.3989" y1="-3.6604" x2="54.6361" y2="12.4183" gradientUnits="userSpaceOnUse">
<stop stop-color="#00BCB0"/>
<stop offset="1" stop-color="#F7D542"/>
</linearGradient>
<linearGradient id="paint11_linear" x1="7.15771" y1="-3.6604" x2="5.39488" y2="12.4183" gradientUnits="userSpaceOnUse">
<stop stop-color="#00BCB0"/>
<stop offset="1" stop-color="#F7D542"/>
</linearGradient>
<linearGradient id="paint12_linear" x1="146.613" y1="-3.6604" x2="144.85" y2="12.4183" gradientUnits="userSpaceOnUse">
<stop stop-color="#00BCB0"/>
<stop offset="1" stop-color="#F7D542"/>
</linearGradient>
<linearGradient id="paint13_linear" x1="-1.7673e-07" y1="4.92844" x2="-5.52706" y2="27.7665" gradientUnits="userSpaceOnUse">
<stop stop-color="#00BCB0"/>
<stop offset="1" stop-color="#F7D542"/>
</linearGradient>
<linearGradient id="paint14_linear" x1="-1.7673e-07" y1="11.5242" x2="-5.5273" y2="34.3628" gradientUnits="userSpaceOnUse">
<stop stop-color="#00BCB0"/>
<stop offset="1" stop-color="#F7D542"/>
</linearGradient>
<linearGradient id="paint15_linear" x1="15.3032" y1="-3.6604" x2="13.5404" y2="12.4183" gradientUnits="userSpaceOnUse">
<stop stop-color="#00BCB0"/>
<stop offset="1" stop-color="#F7D542"/>
</linearGradient>
<linearGradient id="paint16_linear" x1="-1.7673e-07" y1="-1.76777" x2="-5.5273" y2="21.0708" gradientUnits="userSpaceOnUse">
<stop stop-color="#00BCB0"/>
<stop offset="1" stop-color="#F7D542"/>
</linearGradient>
<linearGradient id="paint17_linear" x1="39.9854" y1="-3.6604" x2="38.2225" y2="12.4183" gradientUnits="userSpaceOnUse">
<stop stop-color="#00BCB0"/>
<stop offset="1" stop-color="#F7D542"/>
</linearGradient>
<linearGradient id="paint18_linear" x1="23.5718" y1="-3.6604" x2="21.8089" y2="12.4183" gradientUnits="userSpaceOnUse">
<stop stop-color="#00BCB0"/>
<stop offset="1" stop-color="#F7D542"/>
</linearGradient>
<linearGradient id="paint19_linear" x1="48.1304" y1="-3.6604" x2="46.3675" y2="12.4183" gradientUnits="userSpaceOnUse">
<stop stop-color="#00BCB0"/>
<stop offset="1" stop-color="#F7D542"/>
</linearGradient>
<linearGradient id="paint20_linear" x1="31.7168" y1="-3.6604" x2="29.954" y2="12.4183" gradientUnits="userSpaceOnUse">
<stop stop-color="#00BCB0"/>
<stop offset="1" stop-color="#F7D542"/>
</linearGradient>
<linearGradient id="paint21_linear" x1="228.558" y1="-3.6604" x2="226.795" y2="12.4183" gradientUnits="userSpaceOnUse">
<stop stop-color="#00BCB0"/>
<stop offset="1" stop-color="#F7D542"/>
</linearGradient>
<linearGradient id="paint22_linear" x1="-2.39848e-07" y1="-4.24395" x2="-2.4427" y2="13.7892" gradientUnits="userSpaceOnUse">
<stop stop-color="#00BCB0"/>
<stop offset="1" stop-color="#F7D542"/>
</linearGradient>
<linearGradient id="paint23_linear" x1="154.758" y1="-3.6604" x2="152.995" y2="12.4183" gradientUnits="userSpaceOnUse">
<stop stop-color="#00BCB0"/>
<stop offset="1" stop-color="#F7D542"/>
</linearGradient>
<linearGradient id="paint24_linear" x1="244.972" y1="-3.6604" x2="243.209" y2="12.4183" gradientUnits="userSpaceOnUse">
<stop stop-color="#00BCB0"/>
<stop offset="1" stop-color="#F7D542"/>
</linearGradient>
<linearGradient id="paint25_linear" x1="253.24" y1="-3.6604" x2="251.477" y2="12.4183" gradientUnits="userSpaceOnUse">
<stop stop-color="#00BCB0"/>
<stop offset="1" stop-color="#F7D542"/>
</linearGradient>
<linearGradient id="paint26_linear" x1="261.385" y1="-3.6604" x2="259.622" y2="12.4183" gradientUnits="userSpaceOnUse">
<stop stop-color="#00BCB0"/>
<stop offset="1" stop-color="#F7D542"/>
</linearGradient>
<linearGradient id="paint27_linear" x1="277.799" y1="-3.6604" x2="276.036" y2="12.4183" gradientUnits="userSpaceOnUse">
<stop stop-color="#00BCB0"/>
<stop offset="1" stop-color="#F7D542"/>
</linearGradient>
<linearGradient id="paint28_linear" x1="-3.98905e-07" y1="34.607" x2="-5.82835" y2="70.3868" gradientUnits="userSpaceOnUse">
<stop stop-color="#00BCB0"/>
<stop offset="1" stop-color="#F7D542"/>
</linearGradient>
<linearGradient id="paint29_linear" x1="104.9" y1="48.9076" x2="103.137" y2="64.9874" gradientUnits="userSpaceOnUse">
<stop stop-color="#00BCB0"/>
<stop offset="1" stop-color="#F7D542"/>
</linearGradient>
<linearGradient id="paint30_linear" x1="-6.81673e-08" y1="56.3934" x2="-0.995884" y2="62.5074" gradientUnits="userSpaceOnUse">
<stop stop-color="#00BCB0"/>
<stop offset="1" stop-color="#F7D542"/>
</linearGradient>
<linearGradient id="paint31_linear" x1="-2.32274e-07" y1="45.4175" x2="-3.46612" y2="66.4664" gradientUnits="userSpaceOnUse">
<stop stop-color="#00BCB0"/>
<stop offset="1" stop-color="#F7D542"/>
</linearGradient>
<linearGradient id="paint32_linear" x1="269.654" y1="-3.6604" x2="267.891" y2="12.4183" gradientUnits="userSpaceOnUse">
<stop stop-color="#00BCB0"/>
<stop offset="1" stop-color="#F7D542"/>
</linearGradient>
<linearGradient id="paint33_linear" x1="179.44" y1="-3.6604" x2="177.677" y2="12.4183" gradientUnits="userSpaceOnUse">
<stop stop-color="#00BCB0"/>
<stop offset="1" stop-color="#F7D542"/>
</linearGradient>
<linearGradient id="paint34_linear" x1="187.585" y1="-3.6604" x2="185.823" y2="12.4183" gradientUnits="userSpaceOnUse">
<stop stop-color="#00BCB0"/>
<stop offset="1" stop-color="#F7D542"/>
</linearGradient>
<linearGradient id="paint35_linear" x1="195.854" y1="-3.6604" x2="194.074" y2="12.4146" gradientUnits="userSpaceOnUse">
<stop stop-color="#00BCB0"/>
<stop offset="1" stop-color="#F7D542"/>
</linearGradient>
<linearGradient id="paint36_linear" x1="163.026" y1="-3.6604" x2="161.264" y2="12.4183" gradientUnits="userSpaceOnUse">
<stop stop-color="#00BCB0"/>
<stop offset="1" stop-color="#F7D542"/>
</linearGradient>
<linearGradient id="paint37_linear" x1="171.171" y1="-3.6604" x2="169.409" y2="12.4183" gradientUnits="userSpaceOnUse">
<stop stop-color="#00BCB0"/>
<stop offset="1" stop-color="#F7D542"/>
</linearGradient>
<linearGradient id="paint38_linear" x1="-1.7673e-07" y1="18.1206" x2="-5.52706" y2="40.9586" gradientUnits="userSpaceOnUse">
<stop stop-color="#00BCB0"/>
<stop offset="1" stop-color="#F7D542"/>
</linearGradient>
<linearGradient id="paint39_linear" x1="236.827" y1="-3.6604" x2="235.064" y2="12.4183" gradientUnits="userSpaceOnUse">
<stop stop-color="#00BCB0"/>
<stop offset="1" stop-color="#F7D542"/>
</linearGradient>
<linearGradient id="paint40_linear" x1="220.413" y1="-3.6604" x2="218.65" y2="12.4183" gradientUnits="userSpaceOnUse">
<stop stop-color="#00BCB0"/>
<stop offset="1" stop-color="#F7D542"/>
</linearGradient>
<linearGradient id="paint41_linear" x1="212.268" y1="-3.6604" x2="210.488" y2="12.4146" gradientUnits="userSpaceOnUse">
<stop stop-color="#00BCB0"/>
<stop offset="1" stop-color="#F7D542"/>
</linearGradient>
<linearGradient id="paint42_linear" x1="203.999" y1="-3.6604" x2="202.236" y2="12.4183" gradientUnits="userSpaceOnUse">
<stop stop-color="#00BCB0"/>
<stop offset="1" stop-color="#F7D542"/>
</linearGradient>
<linearGradient id="paint43_linear" x1="195.113" y1="49.0077" x2="193.35" y2="65.0869" gradientUnits="userSpaceOnUse">
<stop stop-color="#00BCB0"/>
<stop offset="1" stop-color="#F7D542"/>
</linearGradient>
<linearGradient id="paint44_linear" x1="244.479" y1="49.0077" x2="242.716" y2="65.0869" gradientUnits="userSpaceOnUse">
<stop stop-color="#00BCB0"/>
<stop offset="1" stop-color="#F7D542"/>
</linearGradient>
<linearGradient id="paint45_linear" x1="236.209" y1="49.0077" x2="234.446" y2="65.0869" gradientUnits="userSpaceOnUse">
<stop stop-color="#00BCB0"/>
<stop offset="1" stop-color="#F7D542"/>
</linearGradient>
<linearGradient id="paint46_linear" x1="260.892" y1="49.1082" x2="259.129" y2="65.1868" gradientUnits="userSpaceOnUse">
<stop stop-color="#00BCB0"/>
<stop offset="1" stop-color="#F7D542"/>
</linearGradient>
<linearGradient id="paint47_linear" x1="269.16" y1="49.1082" x2="267.397" y2="65.1868" gradientUnits="userSpaceOnUse">
<stop stop-color="#00BCB0"/>
<stop offset="1" stop-color="#F7D542"/>
</linearGradient>
<linearGradient id="paint48_linear" x1="228.064" y1="49.0077" x2="226.301" y2="65.0869" gradientUnits="userSpaceOnUse">
<stop stop-color="#00BCB0"/>
<stop offset="1" stop-color="#F7D542"/>
</linearGradient>
<linearGradient id="paint49_linear" x1="252.746" y1="49.1082" x2="250.983" y2="65.1868" gradientUnits="userSpaceOnUse">
<stop stop-color="#00BCB0"/>
<stop offset="1" stop-color="#F7D542"/>
</linearGradient>
<linearGradient id="paint50_linear" x1="178.699" y1="48.9076" x2="176.936" y2="64.9874" gradientUnits="userSpaceOnUse">
<stop stop-color="#00BCB0"/>
<stop offset="1" stop-color="#F7D542"/>
</linearGradient>
<linearGradient id="paint51_linear" x1="186.969" y1="49.0077" x2="185.206" y2="65.0869" gradientUnits="userSpaceOnUse">
<stop stop-color="#00BCB0"/>
<stop offset="1" stop-color="#F7D542"/>
</linearGradient>
<linearGradient id="paint52_linear" x1="211.65" y1="49.0077" x2="209.887" y2="65.0869" gradientUnits="userSpaceOnUse">
<stop stop-color="#00BCB0"/>
<stop offset="1" stop-color="#F7D542"/>
</linearGradient>
<linearGradient id="paint53_linear" x1="219.795" y1="49.0077" x2="218.032" y2="65.0869" gradientUnits="userSpaceOnUse">
<stop stop-color="#00BCB0"/>
<stop offset="1" stop-color="#F7D542"/>
</linearGradient>
<linearGradient id="paint54_linear" x1="203.382" y1="49.0077" x2="201.619" y2="65.0869" gradientUnits="userSpaceOnUse">
<stop stop-color="#00BCB0"/>
<stop offset="1" stop-color="#F7D542"/>
</linearGradient>
<linearGradient id="paint55_linear" x1="334.938" y1="49.2078" x2="333.176" y2="65.2865" gradientUnits="userSpaceOnUse">
<stop stop-color="#00BCB0"/>
<stop offset="1" stop-color="#F7D542"/>
</linearGradient>
<linearGradient id="paint56_linear" x1="326.67" y1="49.2078" x2="324.907" y2="65.2865" gradientUnits="userSpaceOnUse">
<stop stop-color="#00BCB0"/>
<stop offset="1" stop-color="#F7D542"/>
</linearGradient>
<linearGradient id="paint57_linear" x1="343.207" y1="49.2078" x2="341.444" y2="65.2865" gradientUnits="userSpaceOnUse">
<stop stop-color="#00BCB0"/>
<stop offset="1" stop-color="#F7D542"/>
</linearGradient>
<linearGradient id="paint58_linear" x1="286.067" y1="-38.0267" x2="265.065" y2="98.2131" gradientUnits="userSpaceOnUse">
<stop stop-color="#00BCB0"/>
<stop offset="1" stop-color="#F7D542"/>
</linearGradient>
<linearGradient id="paint59_linear" x1="318.525" y1="49.2078" x2="316.763" y2="65.2865" gradientUnits="userSpaceOnUse">
<stop stop-color="#00BCB0"/>
<stop offset="1" stop-color="#F7D542"/>
</linearGradient>
<linearGradient id="paint60_linear" x1="-1.7673e-07" y1="24.8166" x2="-5.52706" y2="47.6547" gradientUnits="userSpaceOnUse">
<stop stop-color="#00BCB0"/>
<stop offset="1" stop-color="#F7D542"/>
</linearGradient>
<linearGradient id="paint61_linear" x1="285.574" y1="49.1082" x2="283.811" y2="65.1868" gradientUnits="userSpaceOnUse">
<stop stop-color="#00BCB0"/>
<stop offset="1" stop-color="#F7D542"/>
</linearGradient>
<linearGradient id="paint62_linear" x1="293.842" y1="49.1082" x2="292.079" y2="65.1868" gradientUnits="userSpaceOnUse">
<stop stop-color="#00BCB0"/>
<stop offset="1" stop-color="#F7D542"/>
</linearGradient>
<linearGradient id="paint63_linear" x1="310.256" y1="49.2078" x2="308.493" y2="65.2865" gradientUnits="userSpaceOnUse">
<stop stop-color="#00BCB0"/>
<stop offset="1" stop-color="#F7D542"/>
</linearGradient>
<linearGradient id="paint64_linear" x1="301.988" y1="49.1082" x2="300.225" y2="65.1868" gradientUnits="userSpaceOnUse">
<stop stop-color="#00BCB0"/>
<stop offset="1" stop-color="#F7D542"/>
</linearGradient>
<linearGradient id="paint65_linear" x1="277.305" y1="49.1082" x2="275.542" y2="65.1868" gradientUnits="userSpaceOnUse">
<stop stop-color="#00BCB0"/>
<stop offset="1" stop-color="#F7D542"/>
</linearGradient>
<linearGradient id="paint66_linear" x1="39.3682" y1="49.0077" x2="37.6052" y2="65.0869" gradientUnits="userSpaceOnUse">
<stop stop-color="#00BCB0"/>
<stop offset="1" stop-color="#F7D542"/>
</linearGradient>
<linearGradient id="paint67_linear" x1="55.6582" y1="48.9076" x2="53.8951" y2="64.9874" gradientUnits="userSpaceOnUse">
<stop stop-color="#00BCB0"/>
<stop offset="1" stop-color="#F7D542"/>
</linearGradient>
<linearGradient id="paint68_linear" x1="47.5137" y1="49.0077" x2="45.7507" y2="65.0869" gradientUnits="userSpaceOnUse">
<stop stop-color="#00BCB0"/>
<stop offset="1" stop-color="#F7D542"/>
</linearGradient>
<linearGradient id="paint69_linear" x1="80.2168" y1="48.9076" x2="78.4537" y2="64.9874" gradientUnits="userSpaceOnUse">
<stop stop-color="#00BCB0"/>
<stop offset="1" stop-color="#F7D542"/>
</linearGradient>
<linearGradient id="paint70_linear" x1="63.9277" y1="48.9076" x2="62.1647" y2="64.9874" gradientUnits="userSpaceOnUse">
<stop stop-color="#00BCB0"/>
<stop offset="1" stop-color="#F7D542"/>
</linearGradient>
<linearGradient id="paint71_linear" x1="170.555" y1="48.9076" x2="168.792" y2="64.9874" gradientUnits="userSpaceOnUse">
<stop stop-color="#00BCB0"/>
<stop offset="1" stop-color="#F7D542"/>
</linearGradient>
<linearGradient id="paint72_linear" x1="-1.7673e-07" y1="31.4124" x2="-5.5273" y2="54.251" gradientUnits="userSpaceOnUse">
<stop stop-color="#00BCB0"/>
<stop offset="1" stop-color="#F7D542"/>
</linearGradient>
<linearGradient id="paint73_linear" x1="31.2227" y1="49.0077" x2="29.4597" y2="65.0869" gradientUnits="userSpaceOnUse">
<stop stop-color="#00BCB0"/>
<stop offset="1" stop-color="#F7D542"/>
</linearGradient>
<linearGradient id="paint74_linear" x1="14.8096" y1="49.1731" x2="13.08" y2="65.0235" gradientUnits="userSpaceOnUse">
<stop stop-color="#00BCB0"/>
<stop offset="1" stop-color="#F7D542"/>
</linearGradient>
<linearGradient id="paint75_linear" x1="22.9551" y1="49.1082" x2="21.1922" y2="65.1868" gradientUnits="userSpaceOnUse">
<stop stop-color="#00BCB0"/>
<stop offset="1" stop-color="#F7D542"/>
</linearGradient>
<linearGradient id="paint76_linear" x1="72.0723" y1="48.9076" x2="70.3092" y2="64.9874" gradientUnits="userSpaceOnUse">
<stop stop-color="#00BCB0"/>
<stop offset="1" stop-color="#F7D542"/>
</linearGradient>
<linearGradient id="paint77_linear" x1="154.141" y1="48.9076" x2="152.378" y2="64.9874" gradientUnits="userSpaceOnUse">
<stop stop-color="#00BCB0"/>
<stop offset="1" stop-color="#F7D542"/>
</linearGradient>
<linearGradient id="paint78_linear" x1="145.872" y1="48.9076" x2="144.109" y2="64.9874" gradientUnits="userSpaceOnUse">
<stop stop-color="#00BCB0"/>
<stop offset="1" stop-color="#F7D542"/>
</linearGradient>
<linearGradient id="paint79_linear" x1="162.286" y1="48.9076" x2="160.523" y2="64.9874" gradientUnits="userSpaceOnUse">
<stop stop-color="#00BCB0"/>
<stop offset="1" stop-color="#F7D542"/>
</linearGradient>
<linearGradient id="paint80_linear" x1="88.4863" y1="48.9076" x2="86.7233" y2="64.9874" gradientUnits="userSpaceOnUse">
<stop stop-color="#00BCB0"/>
<stop offset="1" stop-color="#F7D542"/>
</linearGradient>
<linearGradient id="paint81_linear" x1="137.727" y1="48.9076" x2="135.963" y2="64.9874" gradientUnits="userSpaceOnUse">
<stop stop-color="#00BCB0"/>
<stop offset="1" stop-color="#F7D542"/>
</linearGradient>
<linearGradient id="paint82_linear" x1="129.459" y1="48.9076" x2="127.696" y2="64.9874" gradientUnits="userSpaceOnUse">
<stop stop-color="#00BCB0"/>
<stop offset="1" stop-color="#F7D542"/>
</linearGradient>
<linearGradient id="paint83_linear" x1="96.6309" y1="48.9076" x2="94.8678" y2="64.9874" gradientUnits="userSpaceOnUse">
<stop stop-color="#00BCB0"/>
<stop offset="1" stop-color="#F7D542"/>
</linearGradient>
<linearGradient id="paint84_linear" x1="113.045" y1="48.9076" x2="111.282" y2="64.9874" gradientUnits="userSpaceOnUse">
<stop stop-color="#00BCB0"/>
<stop offset="1" stop-color="#F7D542"/>
</linearGradient>
<linearGradient id="paint85_linear" x1="121.313" y1="48.9076" x2="119.55" y2="64.9874" gradientUnits="userSpaceOnUse">
<stop stop-color="#00BCB0"/>
<stop offset="1" stop-color="#F7D542"/>
</linearGradient>
</defs>
</svg>
