<svg width="266" height="61" viewBox="0 0 266 61" fill="none" xmlns="http://www.w3.org/2000/svg">
<g opacity="0.6">
<path d="M97.8654 7.87402H101.938L93.2991 0.878418H89.2266L97.8654 7.87402Z" fill="url(#paint0_linear_402_229)"/>
<path d="M106.011 7.87402H110.207L101.568 0.878418H97.3721L106.011 7.87402Z" fill="url(#paint1_linear_402_229)"/>
<path d="M73.1827 7.87402H77.3787L68.7399 0.878418H64.5439L73.1827 7.87402Z" fill="url(#paint2_linear_402_229)"/>
<path d="M89.5968 7.87402H93.7928L85.154 0.878418H80.958L89.5968 7.87402Z" fill="url(#paint3_linear_402_229)"/>
<path d="M81.4513 7.87402H85.5239L76.8851 0.878418H72.8125L81.4513 7.87402Z" fill="url(#paint4_linear_402_229)"/>
<path d="M114.155 7.87402H118.351L109.713 0.878418H105.517L114.155 7.87402Z" fill="url(#paint5_linear_402_229)"/>
<path d="M138.838 7.87402H143.034L134.395 0.878418H130.199L138.838 7.87402Z" fill="url(#paint6_linear_402_229)"/>
<path d="M146.983 7.87402H151.179L142.54 0.878418H138.344L146.983 7.87402Z" fill="url(#paint7_linear_402_229)"/>
<path d="M122.424 7.87402H126.62L117.981 0.878418H113.785L122.424 7.87402Z" fill="url(#paint8_linear_402_229)"/>
<path d="M130.569 7.87402H134.765L126.127 0.878418H121.931L130.569 7.87402Z" fill="url(#paint9_linear_402_229)"/>
<path d="M65.0382 7.87402H69.2342L60.5954 0.878418H56.3994L65.0382 7.87402Z" fill="url(#paint10_linear_402_229)"/>
<path d="M15.797 7.87402H19.993L11.3542 0.878418H7.1582L15.797 7.87402Z" fill="url(#paint11_linear_402_229)"/>
<path d="M155.251 7.87402H159.447L150.808 0.878418H146.612L155.251 7.87402Z" fill="url(#paint12_linear_402_229)"/>
<path d="M8.63879 22.0654V18.6675L0 11.6719C0 12.8711 0 13.9704 0 15.0698L8.63879 22.0654Z" fill="url(#paint13_linear_402_229)"/>
<path d="M8.63879 28.6616V25.2636L0 18.2678C0 19.4671 0 20.5665 0 21.6658L8.63879 28.6616Z" fill="url(#paint14_linear_402_229)"/>
<path d="M23.9415 7.87402H28.1375L19.4987 0.878418H15.3027L23.9415 7.87402Z" fill="url(#paint15_linear_402_229)"/>
<path d="M8.63879 15.3696V11.9717L0 4.97583C0 6.17511 0 7.27446 0 8.3738L8.63879 15.3696Z" fill="url(#paint16_linear_402_229)"/>
<path d="M48.6241 7.87402H52.8201L44.1813 0.878418H39.9854L48.6241 7.87402Z" fill="url(#paint17_linear_402_229)"/>
<path d="M32.2101 7.87402H36.4061L27.7673 0.878418H23.5713L32.2101 7.87402Z" fill="url(#paint18_linear_402_229)"/>
<path d="M56.7697 7.87402H60.9657L52.3269 0.878418H48.1309L56.7697 7.87402Z" fill="url(#paint19_linear_402_229)"/>
<path d="M40.3556 7.87402H44.5516L35.9128 0.878418H31.7168L40.3556 7.87402Z" fill="url(#paint20_linear_402_229)"/>
<path d="M8.63879 8.77344V7.874H11.7241L3.08528 0.878418H0C0 1.17823 0 1.47804 0 1.77785L8.63879 8.77344Z" fill="url(#paint21_linear_402_229)"/>
<path d="M163.397 7.87402H167.593L158.954 0.878418H154.758L163.397 7.87402Z" fill="url(#paint22_linear_402_229)"/>
<path d="M10.9836 53.7467C10.2431 53.7467 9.37926 53.7467 8.63879 53.7467V51.8479L0 44.8521C0 45.9514 0 47.0507 0 48.25L15.303 60.6426C16.6605 60.6426 18.0181 60.6426 19.499 60.6426L10.9836 53.7467Z" fill="url(#paint23_linear_402_229)"/>
<path d="M109.096 53.4468C107.739 53.4468 106.258 53.4468 104.9 53.4468L113.539 60.4429C114.897 60.4429 116.378 60.4429 117.735 60.4429L109.096 53.4468Z" fill="url(#paint24_linear_402_229)"/>
<path d="M0 58.144C0 59.0435 0 59.9429 0 60.8423C0.987291 60.8423 2.09799 60.8423 3.33211 60.7424L0 58.144Z" fill="url(#paint25_linear_402_229)"/>
<path d="M0 51.448C0 52.5474 0 53.6467 0 54.8461L7.28127 60.7427C8.51539 60.7427 9.99633 60.7427 11.3539 60.7427L0 51.448Z" fill="url(#paint26_linear_402_229)"/>
<path d="M188.079 7.87402H192.275L183.636 0.878418H179.44L188.079 7.87402Z" fill="url(#paint27_linear_402_229)"/>
<path d="M261.304 61H265.5L191.781 0.878418H187.585L261.304 61Z" fill="url(#paint28_linear_402_229)"/>
<path d="M171.665 7.87402H175.861L167.222 0.878418H163.026L171.665 7.87402Z" fill="url(#paint29_linear_402_229)"/>
<path d="M179.811 7.87402H184.007L175.368 0.878418H171.172L179.811 7.87402Z" fill="url(#paint30_linear_402_229)"/>
<path d="M8.63879 35.2576V31.8597L0 24.864C0 25.9633 0 27.1626 0 28.2619L8.63879 35.2576Z" fill="url(#paint31_linear_402_229)"/>
<path d="M199.309 53.5466C197.952 53.5466 196.471 53.5466 195.113 53.5466L203.752 60.5425C205.11 60.5425 206.591 60.5425 207.948 60.5425L199.309 53.5466Z" fill="url(#paint32_linear_402_229)"/>
<path d="M248.674 53.5466C247.317 53.5466 245.836 53.5466 244.479 53.5466L253.117 60.5425C254.475 60.5425 255.956 60.5425 257.313 60.5425L248.674 53.5466Z" fill="url(#paint33_linear_402_229)"/>
<path d="M240.405 53.5466C239.047 53.5466 237.567 53.5466 236.209 53.5466L244.848 60.5425C246.205 60.5425 247.686 60.5425 249.044 60.5425L240.405 53.5466Z" fill="url(#paint34_linear_402_229)"/>
<path d="M232.26 53.5466C230.903 53.5466 229.422 53.5466 228.064 53.5466L236.703 60.5425C238.061 60.5425 239.542 60.5425 240.899 60.5425L232.26 53.5466Z" fill="url(#paint35_linear_402_229)"/>
<path d="M182.895 53.4468C181.538 53.4468 180.057 53.4468 178.699 53.4468L187.338 60.4429C188.696 60.4429 190.176 60.4429 191.534 60.4429L182.895 53.4468Z" fill="url(#paint36_linear_402_229)"/>
<path d="M191.165 53.5466C189.807 53.5466 188.326 53.5466 186.969 53.5466L195.608 60.5425C196.965 60.5425 198.446 60.5425 199.804 60.5425L191.165 53.5466Z" fill="url(#paint37_linear_402_229)"/>
<path d="M215.846 53.5466C214.489 53.5466 213.008 53.5466 211.65 53.5466L220.289 60.5425C221.647 60.5425 223.128 60.5425 224.485 60.5425L215.846 53.5466Z" fill="url(#paint38_linear_402_229)"/>
<path d="M223.991 53.5466C222.633 53.5466 221.152 53.5466 219.795 53.5466L228.434 60.5425C229.791 60.5425 231.272 60.5425 232.63 60.5425L223.991 53.5466Z" fill="url(#paint39_linear_402_229)"/>
<path d="M207.578 53.5466C206.22 53.5466 204.739 53.5466 203.382 53.5466L212.021 60.5425C213.378 60.5425 214.859 60.5425 216.217 60.5425L207.578 53.5466Z" fill="url(#paint40_linear_402_229)"/>
<path d="M8.63879 41.9536V38.5557L0 31.5601C0 32.6594 0 33.7587 0 34.9579L8.63879 41.9536Z" fill="url(#paint41_linear_402_229)"/>
<path d="M43.5641 53.5466C42.2066 53.5466 40.7257 53.5466 39.3682 53.5466L48.007 60.5425C49.3645 60.5425 50.722 60.5425 52.2029 60.5425L43.5641 53.5466Z" fill="url(#paint42_linear_402_229)"/>
<path d="M59.8542 53.4468C58.4967 53.4468 57.0157 53.4468 55.6582 53.4468L64.297 60.4429C65.6545 60.4429 67.012 60.4429 68.493 60.4429L59.8542 53.4468Z" fill="url(#paint43_linear_402_229)"/>
<path d="M51.7097 53.5466C50.3521 53.5466 48.8712 53.5466 47.5137 53.5466L56.1525 60.5425C57.51 60.5425 58.8675 60.5425 60.3484 60.5425L51.7097 53.5466Z" fill="url(#paint44_linear_402_229)"/>
<path d="M84.4128 53.4468C83.0553 53.4468 81.5743 53.4468 80.2168 53.4468L88.8556 60.4429C90.2131 60.4429 91.5706 60.4429 93.0516 60.4429L84.4128 53.4468Z" fill="url(#paint45_linear_402_229)"/>
<path d="M68.1237 53.4468C66.7662 53.4468 65.2853 53.4468 63.9277 53.4468L72.5665 60.4429C73.9241 60.4429 75.2816 60.4429 76.7625 60.4429L68.1237 53.4468Z" fill="url(#paint46_linear_402_229)"/>
<path d="M174.751 53.4468C173.393 53.4468 171.912 53.4468 170.555 53.4468L179.193 60.4429C180.551 60.4429 182.032 60.4429 183.389 60.4429L174.751 53.4468Z" fill="url(#paint47_linear_402_229)"/>
<path d="M8.63879 48.5498V45.1518L0 38.156C0 39.2553 0 40.3547 0 41.554L8.63879 48.5498Z" fill="url(#paint48_linear_402_229)"/>
<path d="M35.4186 53.5466C33.9377 53.5466 32.5802 53.5466 31.2227 53.5466L39.8614 60.5425C41.219 60.5425 42.5765 60.5425 44.0574 60.5425L35.4186 53.5466Z" fill="url(#paint49_linear_402_229)"/>
<path d="M19.0056 53.647C17.5246 53.647 16.1671 53.647 14.8096 53.647L23.325 60.5425C24.6825 60.5425 26.04 60.5425 27.5209 60.5425L19.0056 53.647Z" fill="url(#paint50_linear_402_229)"/>
<path d="M27.1511 53.647C25.6701 53.647 24.3126 53.647 22.9551 53.647L31.5939 60.6426C32.9514 60.6426 34.3089 60.6426 35.7899 60.6426L27.1511 53.647Z" fill="url(#paint51_linear_402_229)"/>
<path d="M76.2682 53.4468C74.9107 53.4468 73.4298 53.4468 72.0723 53.4468L80.7111 60.4429C82.0686 60.4429 83.4261 60.4429 84.907 60.4429L76.2682 53.4468Z" fill="url(#paint52_linear_402_229)"/>
<path d="M158.337 53.4468C156.979 53.4468 155.498 53.4468 154.141 53.4468L162.779 60.4429C164.137 60.4429 165.618 60.4429 166.975 60.4429L158.337 53.4468Z" fill="url(#paint53_linear_402_229)"/>
<path d="M150.068 53.4468C148.711 53.4468 147.23 53.4468 145.872 53.4468L154.511 60.4429C155.868 60.4429 157.349 60.4429 158.707 60.4429L150.068 53.4468Z" fill="url(#paint54_linear_402_229)"/>
<path d="M166.482 53.4468C165.125 53.4468 163.644 53.4468 162.286 53.4468L170.925 60.4429C172.282 60.4429 173.763 60.4429 175.121 60.4429L166.482 53.4468Z" fill="url(#paint55_linear_402_229)"/>
<path d="M92.6823 53.4468C91.3248 53.4468 89.8439 53.4468 88.4863 53.4468L97.1251 60.4429C98.4826 60.4429 99.8402 60.4429 101.321 60.4429L92.6823 53.4468Z" fill="url(#paint56_linear_402_229)"/>
<path d="M141.923 53.4468C140.565 53.4468 139.084 53.4468 137.727 53.4468L146.365 60.4429C147.723 60.4429 149.204 60.4429 150.561 60.4429L141.923 53.4468Z" fill="url(#paint57_linear_402_229)"/>
<path d="M133.655 53.4468C132.297 53.4468 130.817 53.4468 129.459 53.4468L138.098 60.4429C139.455 60.4429 140.936 60.4429 142.294 60.4429L133.655 53.4468Z" fill="url(#paint58_linear_402_229)"/>
<path d="M100.827 53.4468C99.4693 53.4468 97.9884 53.4468 96.6309 53.4468L105.27 60.4429C106.627 60.4429 108.108 60.4429 109.466 60.4429L100.827 53.4468Z" fill="url(#paint59_linear_402_229)"/>
<path d="M117.241 53.4468C116.624 53.4468 116.13 53.4468 115.513 53.4468C114.649 53.4468 113.909 53.4468 113.045 53.4468L121.684 60.4429C123.041 60.4429 124.522 60.4429 125.88 60.4429L117.241 53.4468Z" fill="url(#paint60_linear_402_229)"/>
<path d="M125.509 53.4468C124.152 53.4468 122.671 53.4468 121.313 53.4468L129.952 60.4429C131.31 60.4429 132.791 60.4429 134.148 60.4429L125.509 53.4468Z" fill="url(#paint61_linear_402_229)"/>
</g>
<defs>
<linearGradient id="paint0_linear_402_229" x1="89.2266" y1="-3.6604" x2="87.447" y2="12.4146" gradientUnits="userSpaceOnUse">
<stop stop-color="#00BCB0"/>
<stop offset="1" stop-color="#F7D542"/>
</linearGradient>
<linearGradient id="paint1_linear_402_229" x1="97.3721" y1="-3.6604" x2="95.6092" y2="12.4183" gradientUnits="userSpaceOnUse">
<stop stop-color="#00BCB0"/>
<stop offset="1" stop-color="#F7D542"/>
</linearGradient>
<linearGradient id="paint2_linear_402_229" x1="64.5439" y1="-3.6604" x2="62.7811" y2="12.4183" gradientUnits="userSpaceOnUse">
<stop stop-color="#00BCB0"/>
<stop offset="1" stop-color="#F7D542"/>
</linearGradient>
<linearGradient id="paint3_linear_402_229" x1="80.958" y1="-3.6604" x2="79.1952" y2="12.4183" gradientUnits="userSpaceOnUse">
<stop stop-color="#00BCB0"/>
<stop offset="1" stop-color="#F7D542"/>
</linearGradient>
<linearGradient id="paint4_linear_402_229" x1="72.8125" y1="-3.6604" x2="71.033" y2="12.4146" gradientUnits="userSpaceOnUse">
<stop stop-color="#00BCB0"/>
<stop offset="1" stop-color="#F7D542"/>
</linearGradient>
<linearGradient id="paint5_linear_402_229" x1="105.517" y1="-3.6604" x2="103.754" y2="12.4183" gradientUnits="userSpaceOnUse">
<stop stop-color="#00BCB0"/>
<stop offset="1" stop-color="#F7D542"/>
</linearGradient>
<linearGradient id="paint6_linear_402_229" x1="130.199" y1="-3.6604" x2="128.436" y2="12.4183" gradientUnits="userSpaceOnUse">
<stop stop-color="#00BCB0"/>
<stop offset="1" stop-color="#F7D542"/>
</linearGradient>
<linearGradient id="paint7_linear_402_229" x1="138.344" y1="-3.6604" x2="136.581" y2="12.4183" gradientUnits="userSpaceOnUse">
<stop stop-color="#00BCB0"/>
<stop offset="1" stop-color="#F7D542"/>
</linearGradient>
<linearGradient id="paint8_linear_402_229" x1="113.785" y1="-3.6604" x2="112.022" y2="12.4183" gradientUnits="userSpaceOnUse">
<stop stop-color="#00BCB0"/>
<stop offset="1" stop-color="#F7D542"/>
</linearGradient>
<linearGradient id="paint9_linear_402_229" x1="121.931" y1="-3.6604" x2="120.168" y2="12.4183" gradientUnits="userSpaceOnUse">
<stop stop-color="#00BCB0"/>
<stop offset="1" stop-color="#F7D542"/>
</linearGradient>
<linearGradient id="paint10_linear_402_229" x1="56.3994" y1="-3.6604" x2="54.6366" y2="12.4183" gradientUnits="userSpaceOnUse">
<stop stop-color="#00BCB0"/>
<stop offset="1" stop-color="#F7D542"/>
</linearGradient>
<linearGradient id="paint11_linear_402_229" x1="7.1582" y1="-3.6604" x2="5.39537" y2="12.4183" gradientUnits="userSpaceOnUse">
<stop stop-color="#00BCB0"/>
<stop offset="1" stop-color="#F7D542"/>
</linearGradient>
<linearGradient id="paint12_linear_402_229" x1="146.612" y1="-3.6604" x2="144.849" y2="12.4183" gradientUnits="userSpaceOnUse">
<stop stop-color="#00BCB0"/>
<stop offset="1" stop-color="#F7D542"/>
</linearGradient>
<linearGradient id="paint13_linear_402_229" x1="-1.7673e-07" y1="4.92844" x2="-5.52706" y2="27.7665" gradientUnits="userSpaceOnUse">
<stop stop-color="#00BCB0"/>
<stop offset="1" stop-color="#F7D542"/>
</linearGradient>
<linearGradient id="paint14_linear_402_229" x1="-1.7673e-07" y1="11.5242" x2="-5.5273" y2="34.3628" gradientUnits="userSpaceOnUse">
<stop stop-color="#00BCB0"/>
<stop offset="1" stop-color="#F7D542"/>
</linearGradient>
<linearGradient id="paint15_linear_402_229" x1="15.3027" y1="-3.6604" x2="13.5399" y2="12.4183" gradientUnits="userSpaceOnUse">
<stop stop-color="#00BCB0"/>
<stop offset="1" stop-color="#F7D542"/>
</linearGradient>
<linearGradient id="paint16_linear_402_229" x1="-1.7673e-07" y1="-1.76777" x2="-5.5273" y2="21.0708" gradientUnits="userSpaceOnUse">
<stop stop-color="#00BCB0"/>
<stop offset="1" stop-color="#F7D542"/>
</linearGradient>
<linearGradient id="paint17_linear_402_229" x1="39.9854" y1="-3.6604" x2="38.2225" y2="12.4183" gradientUnits="userSpaceOnUse">
<stop stop-color="#00BCB0"/>
<stop offset="1" stop-color="#F7D542"/>
</linearGradient>
<linearGradient id="paint18_linear_402_229" x1="23.5713" y1="-3.6604" x2="21.8085" y2="12.4183" gradientUnits="userSpaceOnUse">
<stop stop-color="#00BCB0"/>
<stop offset="1" stop-color="#F7D542"/>
</linearGradient>
<linearGradient id="paint19_linear_402_229" x1="48.1309" y1="-3.6604" x2="46.368" y2="12.4183" gradientUnits="userSpaceOnUse">
<stop stop-color="#00BCB0"/>
<stop offset="1" stop-color="#F7D542"/>
</linearGradient>
<linearGradient id="paint20_linear_402_229" x1="31.7168" y1="-3.6604" x2="29.954" y2="12.4183" gradientUnits="userSpaceOnUse">
<stop stop-color="#00BCB0"/>
<stop offset="1" stop-color="#F7D542"/>
</linearGradient>
<linearGradient id="paint21_linear_402_229" x1="-2.39848e-07" y1="-4.24395" x2="-2.4427" y2="13.7892" gradientUnits="userSpaceOnUse">
<stop stop-color="#00BCB0"/>
<stop offset="1" stop-color="#F7D542"/>
</linearGradient>
<linearGradient id="paint22_linear_402_229" x1="154.758" y1="-3.6604" x2="152.995" y2="12.4183" gradientUnits="userSpaceOnUse">
<stop stop-color="#00BCB0"/>
<stop offset="1" stop-color="#F7D542"/>
</linearGradient>
<linearGradient id="paint23_linear_402_229" x1="-3.98905e-07" y1="34.607" x2="-5.82835" y2="70.3868" gradientUnits="userSpaceOnUse">
<stop stop-color="#00BCB0"/>
<stop offset="1" stop-color="#F7D542"/>
</linearGradient>
<linearGradient id="paint24_linear_402_229" x1="104.9" y1="48.9076" x2="103.137" y2="64.9874" gradientUnits="userSpaceOnUse">
<stop stop-color="#00BCB0"/>
<stop offset="1" stop-color="#F7D542"/>
</linearGradient>
<linearGradient id="paint25_linear_402_229" x1="-6.81673e-08" y1="56.3934" x2="-0.995884" y2="62.5074" gradientUnits="userSpaceOnUse">
<stop stop-color="#00BCB0"/>
<stop offset="1" stop-color="#F7D542"/>
</linearGradient>
<linearGradient id="paint26_linear_402_229" x1="-2.32274e-07" y1="45.4175" x2="-3.46612" y2="66.4664" gradientUnits="userSpaceOnUse">
<stop stop-color="#00BCB0"/>
<stop offset="1" stop-color="#F7D542"/>
</linearGradient>
<linearGradient id="paint27_linear_402_229" x1="179.44" y1="-3.6604" x2="177.678" y2="12.4183" gradientUnits="userSpaceOnUse">
<stop stop-color="#00BCB0"/>
<stop offset="1" stop-color="#F7D542"/>
</linearGradient>
<linearGradient id="paint28_linear_402_229" x1="187.585" y1="-3.6604" x2="195.666" y2="71.8967" gradientUnits="userSpaceOnUse">
<stop stop-color="#00BCB0"/>
<stop offset="1" stop-color="#F7D542"/>
</linearGradient>
<linearGradient id="paint29_linear_402_229" x1="163.026" y1="-3.6604" x2="161.264" y2="12.4183" gradientUnits="userSpaceOnUse">
<stop stop-color="#00BCB0"/>
<stop offset="1" stop-color="#F7D542"/>
</linearGradient>
<linearGradient id="paint30_linear_402_229" x1="171.172" y1="-3.6604" x2="169.409" y2="12.4183" gradientUnits="userSpaceOnUse">
<stop stop-color="#00BCB0"/>
<stop offset="1" stop-color="#F7D542"/>
</linearGradient>
<linearGradient id="paint31_linear_402_229" x1="-1.7673e-07" y1="18.1206" x2="-5.52706" y2="40.9586" gradientUnits="userSpaceOnUse">
<stop stop-color="#00BCB0"/>
<stop offset="1" stop-color="#F7D542"/>
</linearGradient>
<linearGradient id="paint32_linear_402_229" x1="195.113" y1="49.0077" x2="193.35" y2="65.0869" gradientUnits="userSpaceOnUse">
<stop stop-color="#00BCB0"/>
<stop offset="1" stop-color="#F7D542"/>
</linearGradient>
<linearGradient id="paint33_linear_402_229" x1="244.479" y1="49.0077" x2="242.716" y2="65.0869" gradientUnits="userSpaceOnUse">
<stop stop-color="#00BCB0"/>
<stop offset="1" stop-color="#F7D542"/>
</linearGradient>
<linearGradient id="paint34_linear_402_229" x1="236.209" y1="49.0077" x2="234.446" y2="65.0869" gradientUnits="userSpaceOnUse">
<stop stop-color="#00BCB0"/>
<stop offset="1" stop-color="#F7D542"/>
</linearGradient>
<linearGradient id="paint35_linear_402_229" x1="228.064" y1="49.0077" x2="226.301" y2="65.0869" gradientUnits="userSpaceOnUse">
<stop stop-color="#00BCB0"/>
<stop offset="1" stop-color="#F7D542"/>
</linearGradient>
<linearGradient id="paint36_linear_402_229" x1="178.699" y1="48.9076" x2="176.936" y2="64.9874" gradientUnits="userSpaceOnUse">
<stop stop-color="#00BCB0"/>
<stop offset="1" stop-color="#F7D542"/>
</linearGradient>
<linearGradient id="paint37_linear_402_229" x1="186.969" y1="49.0077" x2="185.206" y2="65.0869" gradientUnits="userSpaceOnUse">
<stop stop-color="#00BCB0"/>
<stop offset="1" stop-color="#F7D542"/>
</linearGradient>
<linearGradient id="paint38_linear_402_229" x1="211.65" y1="49.0077" x2="209.887" y2="65.0869" gradientUnits="userSpaceOnUse">
<stop stop-color="#00BCB0"/>
<stop offset="1" stop-color="#F7D542"/>
</linearGradient>
<linearGradient id="paint39_linear_402_229" x1="219.795" y1="49.0077" x2="218.032" y2="65.0869" gradientUnits="userSpaceOnUse">
<stop stop-color="#00BCB0"/>
<stop offset="1" stop-color="#F7D542"/>
</linearGradient>
<linearGradient id="paint40_linear_402_229" x1="203.382" y1="49.0077" x2="201.619" y2="65.0869" gradientUnits="userSpaceOnUse">
<stop stop-color="#00BCB0"/>
<stop offset="1" stop-color="#F7D542"/>
</linearGradient>
<linearGradient id="paint41_linear_402_229" x1="-1.7673e-07" y1="24.8166" x2="-5.52706" y2="47.6547" gradientUnits="userSpaceOnUse">
<stop stop-color="#00BCB0"/>
<stop offset="1" stop-color="#F7D542"/>
</linearGradient>
<linearGradient id="paint42_linear_402_229" x1="39.3682" y1="49.0077" x2="37.6052" y2="65.0869" gradientUnits="userSpaceOnUse">
<stop stop-color="#00BCB0"/>
<stop offset="1" stop-color="#F7D542"/>
</linearGradient>
<linearGradient id="paint43_linear_402_229" x1="55.6582" y1="48.9076" x2="53.8951" y2="64.9874" gradientUnits="userSpaceOnUse">
<stop stop-color="#00BCB0"/>
<stop offset="1" stop-color="#F7D542"/>
</linearGradient>
<linearGradient id="paint44_linear_402_229" x1="47.5137" y1="49.0077" x2="45.7507" y2="65.0869" gradientUnits="userSpaceOnUse">
<stop stop-color="#00BCB0"/>
<stop offset="1" stop-color="#F7D542"/>
</linearGradient>
<linearGradient id="paint45_linear_402_229" x1="80.2168" y1="48.9076" x2="78.4537" y2="64.9874" gradientUnits="userSpaceOnUse">
<stop stop-color="#00BCB0"/>
<stop offset="1" stop-color="#F7D542"/>
</linearGradient>
<linearGradient id="paint46_linear_402_229" x1="63.9277" y1="48.9076" x2="62.1647" y2="64.9874" gradientUnits="userSpaceOnUse">
<stop stop-color="#00BCB0"/>
<stop offset="1" stop-color="#F7D542"/>
</linearGradient>
<linearGradient id="paint47_linear_402_229" x1="170.555" y1="48.9076" x2="168.792" y2="64.9874" gradientUnits="userSpaceOnUse">
<stop stop-color="#00BCB0"/>
<stop offset="1" stop-color="#F7D542"/>
</linearGradient>
<linearGradient id="paint48_linear_402_229" x1="-1.7673e-07" y1="31.4124" x2="-5.5273" y2="54.251" gradientUnits="userSpaceOnUse">
<stop stop-color="#00BCB0"/>
<stop offset="1" stop-color="#F7D542"/>
</linearGradient>
<linearGradient id="paint49_linear_402_229" x1="31.2227" y1="49.0077" x2="29.4597" y2="65.0869" gradientUnits="userSpaceOnUse">
<stop stop-color="#00BCB0"/>
<stop offset="1" stop-color="#F7D542"/>
</linearGradient>
<linearGradient id="paint50_linear_402_229" x1="14.8096" y1="49.1731" x2="13.08" y2="65.0235" gradientUnits="userSpaceOnUse">
<stop stop-color="#00BCB0"/>
<stop offset="1" stop-color="#F7D542"/>
</linearGradient>
<linearGradient id="paint51_linear_402_229" x1="22.9551" y1="49.1082" x2="21.1922" y2="65.1868" gradientUnits="userSpaceOnUse">
<stop stop-color="#00BCB0"/>
<stop offset="1" stop-color="#F7D542"/>
</linearGradient>
<linearGradient id="paint52_linear_402_229" x1="72.0723" y1="48.9076" x2="70.3092" y2="64.9874" gradientUnits="userSpaceOnUse">
<stop stop-color="#00BCB0"/>
<stop offset="1" stop-color="#F7D542"/>
</linearGradient>
<linearGradient id="paint53_linear_402_229" x1="154.141" y1="48.9076" x2="152.378" y2="64.9874" gradientUnits="userSpaceOnUse">
<stop stop-color="#00BCB0"/>
<stop offset="1" stop-color="#F7D542"/>
</linearGradient>
<linearGradient id="paint54_linear_402_229" x1="145.872" y1="48.9076" x2="144.109" y2="64.9874" gradientUnits="userSpaceOnUse">
<stop stop-color="#00BCB0"/>
<stop offset="1" stop-color="#F7D542"/>
</linearGradient>
<linearGradient id="paint55_linear_402_229" x1="162.286" y1="48.9076" x2="160.523" y2="64.9874" gradientUnits="userSpaceOnUse">
<stop stop-color="#00BCB0"/>
<stop offset="1" stop-color="#F7D542"/>
</linearGradient>
<linearGradient id="paint56_linear_402_229" x1="88.4863" y1="48.9076" x2="86.7233" y2="64.9874" gradientUnits="userSpaceOnUse">
<stop stop-color="#00BCB0"/>
<stop offset="1" stop-color="#F7D542"/>
</linearGradient>
<linearGradient id="paint57_linear_402_229" x1="137.727" y1="48.9076" x2="135.963" y2="64.9874" gradientUnits="userSpaceOnUse">
<stop stop-color="#00BCB0"/>
<stop offset="1" stop-color="#F7D542"/>
</linearGradient>
<linearGradient id="paint58_linear_402_229" x1="129.459" y1="48.9076" x2="127.696" y2="64.9874" gradientUnits="userSpaceOnUse">
<stop stop-color="#00BCB0"/>
<stop offset="1" stop-color="#F7D542"/>
</linearGradient>
<linearGradient id="paint59_linear_402_229" x1="96.6309" y1="48.9076" x2="94.8678" y2="64.9874" gradientUnits="userSpaceOnUse">
<stop stop-color="#00BCB0"/>
<stop offset="1" stop-color="#F7D542"/>
</linearGradient>
<linearGradient id="paint60_linear_402_229" x1="113.045" y1="48.9076" x2="111.282" y2="64.9874" gradientUnits="userSpaceOnUse">
<stop stop-color="#00BCB0"/>
<stop offset="1" stop-color="#F7D542"/>
</linearGradient>
<linearGradient id="paint61_linear_402_229" x1="121.313" y1="48.9076" x2="119.55" y2="64.9874" gradientUnits="userSpaceOnUse">
<stop stop-color="#00BCB0"/>
<stop offset="1" stop-color="#F7D542"/>
</linearGradient>
</defs>
</svg>
