<svg width="69" height="69" viewBox="0 0 69 69" fill="none" xmlns="http://www.w3.org/2000/svg">
<g filter="url(#filter0_b)">
<rect x="4" y="4.00049" width="60" height="60" rx="21" fill="#081E26" fill-opacity="0.01"/>
<rect x="3.5" y="3.50049" width="61" height="61" rx="21.5" stroke="url(#paint0_linear)"/>
</g>
<rect x="30" y="3.53564" width="5" height="5" transform="rotate(-45 30 3.53564)" fill="white"/>
<rect y="34.0005" width="5" height="5" transform="rotate(-45 0 34.0005)" fill="white"/>
<rect x="30" y="64.5356" width="5" height="5" transform="rotate(-45 30 64.5356)" fill="white"/>
<rect x="61" y="34.0005" width="5" height="5" transform="rotate(-45 61 34.0005)" fill="white"/>
<g filter="url(#filter1_i)">
<path d="M39.1665 38.5352H28.8232C29.1367 40.0563 29.5662 41.4586 30.1234 42.6588C31.203 44.9999 32.6076 46.3428 33.9891 46.3428C35.3705 46.3428 36.7751 44.9999 37.8547 42.6588C38.4119 41.4586 38.8531 40.0563 39.1665 38.5352Z" fill="url(#paint1_linear)"/>
<path d="M41.4529 32.9146C41.4529 34.2333 41.3716 35.5164 41.2207 36.752H47.4893C47.826 35.5283 48.0001 34.2452 48.0001 32.9146C48.0001 31.5839 47.826 30.3008 47.4893 29.0771H41.2207C41.3716 30.3127 41.4529 31.5958 41.4529 32.9146Z" fill="url(#paint2_linear)"/>
<path d="M39.4334 22.3995C40.0835 23.8254 40.5942 25.489 40.9309 27.2832H46.8628C45.1099 23.0887 41.4533 19.9161 36.9956 18.918C37.9127 19.7141 38.7485 20.8905 39.4334 22.3995Z" fill="url(#paint3_linear)"/>
<path d="M39.7109 32.9146C39.7109 31.5958 39.6297 30.3008 39.4672 29.0771H28.5319C28.3693 30.3127 28.2881 31.5958 28.2881 32.9146C28.2881 34.2333 28.3693 35.5283 28.5319 36.752H39.4672C39.6181 35.5164 39.7109 34.2333 39.7109 32.9146Z" fill="url(#paint4_linear)"/>
<path d="M40.942 38.5352C40.6054 40.3413 40.0946 41.9929 39.4445 43.4188C38.748 44.9279 37.9238 46.1043 36.9951 46.9004C41.4528 45.9023 45.1095 42.7297 46.874 38.5352H40.942Z" fill="url(#paint5_linear)"/>
<path d="M28.5555 43.4188C27.9054 41.9929 27.3946 40.3413 27.058 38.5352H21.126C22.8789 42.7415 26.5472 45.9023 31.0049 46.9004C30.0762 46.1043 29.252 44.9279 28.5555 43.4188Z" fill="url(#paint6_linear)"/>
<path d="M26.5356 32.9146C26.5356 31.5958 26.6169 30.3127 26.7678 29.0771H20.4992C20.1741 30.289 20 31.5839 20 32.9146C20 34.2452 20.1741 35.5401 20.5108 36.752H26.7794C26.6169 35.5164 26.5356 34.2214 26.5356 32.9146Z" fill="url(#paint7_linear)"/>
<path d="M27.0462 27.2832C27.3829 25.4771 27.8937 23.8254 28.5438 22.3995C29.2519 20.8905 30.0761 19.7141 30.9932 18.918C26.5355 19.9161 22.8672 23.0887 21.1143 27.2832H27.0462Z" fill="url(#paint8_linear)"/>
<path d="M28.8232 27.2837H39.1665C38.8531 25.7628 38.4236 24.3607 37.8663 23.1605C36.7867 20.8197 35.3821 19.4771 34.0007 19.4771C32.6193 19.4771 31.2146 20.8197 30.135 23.1605C29.5778 24.3725 29.1367 25.7628 28.8232 27.2837Z" fill="url(#paint9_linear)"/>
</g>
<defs>
<filter id="filter0_b" x="-7" y="-6.99951" width="82" height="82" filterUnits="userSpaceOnUse" color-interpolation-filters="sRGB">
<feFlood flood-opacity="0" result="BackgroundImageFix"/>
<feGaussianBlur in="BackgroundImage" stdDeviation="5"/>
<feComposite in2="SourceAlpha" operator="in" result="effect1_backgroundBlur"/>
<feBlend mode="normal" in="SourceGraphic" in2="effect1_backgroundBlur" result="shape"/>
</filter>
<filter id="filter1_i" x="20" y="18.918" width="28.0001" height="27.9824" filterUnits="userSpaceOnUse" color-interpolation-filters="sRGB">
<feFlood flood-opacity="0" result="BackgroundImageFix"/>
<feBlend mode="normal" in="SourceGraphic" in2="BackgroundImageFix" result="shape"/>
<feColorMatrix in="SourceAlpha" type="matrix" values="0 0 0 0 0 0 0 0 0 0 0 0 0 0 0 0 0 0 127 0" result="hardAlpha"/>
<feOffset/>
<feGaussianBlur stdDeviation="2.4"/>
<feComposite in2="hardAlpha" operator="arithmetic" k2="-1" k3="1"/>
<feColorMatrix type="matrix" values="0 0 0 0 0.027451 0 0 0 0 0.129412 0 0 0 0 0.164706 0 0 0 1 0"/>
<feBlend mode="normal" in2="shape" result="effect1_innerShadow"/>
</filter>
<linearGradient id="paint0_linear" x1="1.96612" y1="-34.9281" x2="10.7038" y2="96.2599" gradientUnits="userSpaceOnUse">
<stop stop-color="#00BCB0"/>
<stop offset="1" stop-color="#F7D542"/>
</linearGradient>
<linearGradient id="paint1_linear" x1="28.8232" y1="33.4695" x2="26.1279" y2="51.221" gradientUnits="userSpaceOnUse">
<stop stop-color="#00BCB0"/>
<stop offset="1" stop-color="#F7D542"/>
</linearGradient>
<linearGradient id="paint2_linear" x1="41.2207" y1="24.0977" x2="37.3559" y2="41.0694" gradientUnits="userSpaceOnUse">
<stop stop-color="#00BCB0"/>
<stop offset="1" stop-color="#F7D542"/>
</linearGradient>
<linearGradient id="paint3_linear" x1="36.9956" y1="13.4905" x2="33.7712" y2="32.3984" gradientUnits="userSpaceOnUse">
<stop stop-color="#00BCB0"/>
<stop offset="1" stop-color="#F7D542"/>
</linearGradient>
<linearGradient id="paint4_linear" x1="28.2881" y1="24.0977" x2="25.9187" y2="41.6292" gradientUnits="userSpaceOnUse">
<stop stop-color="#00BCB0"/>
<stop offset="1" stop-color="#F7D542"/>
</linearGradient>
<linearGradient id="paint5_linear" x1="36.9951" y1="33.1077" x2="33.7743" y2="52.0169" gradientUnits="userSpaceOnUse">
<stop stop-color="#00BCB0"/>
<stop offset="1" stop-color="#F7D542"/>
</linearGradient>
<linearGradient id="paint6_linear" x1="21.126" y1="33.1077" x2="17.9052" y2="52.0169" gradientUnits="userSpaceOnUse">
<stop stop-color="#00BCB0"/>
<stop offset="1" stop-color="#F7D542"/>
</linearGradient>
<linearGradient id="paint7_linear" x1="20" y1="24.0977" x2="16.1352" y2="41.0694" gradientUnits="userSpaceOnUse">
<stop stop-color="#00BCB0"/>
<stop offset="1" stop-color="#F7D542"/>
</linearGradient>
<linearGradient id="paint8_linear" x1="21.1143" y1="13.4905" x2="17.8934" y2="32.3997" gradientUnits="userSpaceOnUse">
<stop stop-color="#00BCB0"/>
<stop offset="1" stop-color="#F7D542"/>
</linearGradient>
<linearGradient id="paint9_linear" x1="28.8232" y1="14.412" x2="26.1285" y2="32.1614" gradientUnits="userSpaceOnUse">
<stop stop-color="#00BCB0"/>
<stop offset="1" stop-color="#F7D542"/>
</linearGradient>
</defs>
</svg>
