<svg width="571" height="85" viewBox="0 0 571 85" fill="none" xmlns="http://www.w3.org/2000/svg">
<path d="M214.336 62.5068H210.86L218.015 55.5112L221.49 55.5112L214.336 62.5068Z" fill="url(#paint0_linear)"/>
<path d="M207.079 62.5068H203.604L210.759 55.5112L214.234 55.5112L207.079 62.5068Z" fill="url(#paint1_linear)"/>
<path d="M279.238 62.5068H275.763L282.918 55.5112L286.393 55.5112L279.238 62.5068Z" fill="url(#paint2_linear)"/>
<path d="M264.828 62.5068H261.353L268.507 55.5112L271.982 55.5112L264.828 62.5068Z" fill="url(#paint3_linear)"/>
<path d="M272.085 62.5068H268.609L275.764 55.5112L279.239 55.5112L272.085 62.5068Z" fill="url(#paint4_linear)"/>
<path d="M293.65 62.5068H290.277L297.432 55.5112L300.805 55.5112L293.65 62.5068Z" fill="url(#paint5_linear)"/>
<path d="M286.495 62.5068H283.02L290.175 55.5112L293.65 55.5112L286.495 62.5068Z" fill="url(#paint6_linear)"/>
<path d="M243.159 62.5068H239.684L246.838 55.5112L250.313 55.5112L243.159 62.5068Z" fill="url(#paint7_linear)"/>
<path d="M300.908 62.5068H297.433L304.587 55.5112L308.062 55.5112L300.908 62.5068Z" fill="url(#paint8_linear)"/>
<path d="M235.901 62.5068H232.529L239.683 55.5112L243.056 55.5112L235.901 62.5068Z" fill="url(#paint9_linear)"/>
<path d="M228.746 62.5068H225.271L232.426 55.5112L235.901 55.5112L228.746 62.5068Z" fill="url(#paint10_linear)"/>
<path d="M250.415 62.5068H246.94L254.095 55.5112L257.57 55.5112L250.415 62.5068Z" fill="url(#paint11_linear)"/>
<path d="M221.49 62.5068H218.015L225.169 55.5112L228.645 55.5112L221.49 62.5068Z" fill="url(#paint12_linear)"/>
<path d="M257.57 62.5068H254.095L261.25 55.5112L264.725 55.5112L257.57 62.5068Z" fill="url(#paint13_linear)"/>
<path d="M308.164 62.5068H304.689L311.844 55.5112L315.319 55.5112L308.164 62.5068Z" fill="url(#paint14_linear)"/>
<path d="M315.318 62.5068H311.843L318.998 55.5112L322.473 55.5112L315.318 62.5068Z" fill="url(#paint15_linear)"/>
<path d="M322.576 62.5068H319.101L326.255 55.5112L329.73 55.5112L322.576 62.5068Z" fill="url(#paint16_linear)"/>
<path d="M336.987 62.5068H333.512L340.666 55.5112L344.142 55.5112L336.987 62.5068Z" fill="url(#paint17_linear)"/>
<path d="M329.731 62.5068H326.358L333.513 55.5112L336.886 55.5112L329.731 62.5068Z" fill="url(#paint18_linear)"/>
<path d="M33.4234 62.5068H29.9482L37.103 55.5112L40.5781 55.5112L33.4234 62.5068Z" fill="url(#paint19_linear)"/>
<path d="M26.1666 62.5068H22.6915L29.8462 55.5112L33.3213 55.5112L26.1666 62.5068Z" fill="url(#paint20_linear)"/>
<path d="M98.3263 62.5068H94.8511L102.006 55.5112L105.481 55.5112L98.3263 62.5068Z" fill="url(#paint21_linear)"/>
<path d="M83.9146 62.5068H80.4395L87.5942 55.5112L91.0693 55.5112L83.9146 62.5068Z" fill="url(#paint22_linear)"/>
<path d="M91.171 62.5068H87.6958L94.8505 55.5112L98.3257 55.5112L91.171 62.5068Z" fill="url(#paint23_linear)"/>
<path d="M112.738 62.5068H109.365L116.52 55.5112L119.893 55.5112L112.738 62.5068Z" fill="url(#paint24_linear)"/>
<path d="M105.583 62.5068H102.107L109.262 55.5112L112.737 55.5112L105.583 62.5068Z" fill="url(#paint25_linear)"/>
<path d="M62.2466 62.5068H58.7715L65.9262 55.5112L69.4014 55.5112L62.2466 62.5068Z" fill="url(#paint26_linear)"/>
<path d="M119.995 62.5068H116.52L123.675 55.5112L127.15 55.5112L119.995 62.5068Z" fill="url(#paint27_linear)"/>
<path d="M54.9889 62.5068H51.616L58.7706 55.5112L62.1436 55.5112L54.9889 62.5068Z" fill="url(#paint28_linear)"/>
<path d="M47.8341 62.5068H44.3589L51.5136 55.5112L54.9888 55.5112L47.8341 62.5068Z" fill="url(#paint29_linear)"/>
<path d="M69.503 62.5068H66.0279L73.1826 55.5112L76.6577 55.5112L69.503 62.5068Z" fill="url(#paint30_linear)"/>
<path d="M40.5772 62.5068H37.1021L44.2568 55.5112L47.7319 55.5112L40.5772 62.5068Z" fill="url(#paint31_linear)"/>
<path d="M76.6573 62.5068H73.1822L80.3369 55.5112L83.812 55.5112L76.6573 62.5068Z" fill="url(#paint32_linear)"/>
<path d="M127.252 62.5068H123.776L130.931 55.5112L134.406 55.5112L127.252 62.5068Z" fill="url(#paint33_linear)"/>
<path d="M134.406 62.5068H130.931L138.085 55.5112L141.561 55.5112L134.406 62.5068Z" fill="url(#paint34_linear)"/>
<path d="M141.663 62.5068H138.188L145.343 55.5112L148.818 55.5112L141.663 62.5068Z" fill="url(#paint35_linear)"/>
<path d="M156.075 62.5068H152.6L159.754 55.5112L163.229 55.5112L156.075 62.5068Z" fill="url(#paint36_linear)"/>
<path d="M148.818 62.5068H145.445L152.6 55.5112L155.973 55.5112L148.818 62.5068Z" fill="url(#paint37_linear)"/>
<path d="M336.783 62.5068L336.987 59.009L340.565 55.5112L343.938 55.5112L336.783 62.5068Z" fill="url(#paint38_linear)"/>
<path d="M343.836 62.5068H340.36L347.515 55.5112L350.99 55.5112L343.836 62.5068Z" fill="url(#paint39_linear)"/>
<path d="M351.092 62.5068H347.617L354.771 55.5112L358.247 55.5112L351.092 62.5068Z" fill="url(#paint40_linear)"/>
<path d="M358.247 62.5068H354.772L361.927 55.5112L365.402 55.5112L358.247 62.5068Z" fill="url(#paint41_linear)"/>
<path d="M365.504 62.5068H362.029L369.184 55.5112L372.659 55.5112L365.504 62.5068Z" fill="url(#paint42_linear)"/>
<path d="M379.916 62.5068H376.441L383.595 55.5112L387.07 55.5112L379.916 62.5068Z" fill="url(#paint43_linear)"/>
<path d="M372.659 62.5068H369.286L376.441 55.5112L379.813 55.5112L372.659 62.5068Z" fill="url(#paint44_linear)"/>
<path d="M155.871 62.5068L156.076 59.009L159.653 55.5112L163.026 55.5112L155.871 62.5068Z" fill="url(#paint45_linear)"/>
<path d="M162.924 62.5068H159.449L166.603 55.5112L170.079 55.5112L162.924 62.5068Z" fill="url(#paint46_linear)"/>
<path d="M170.181 62.5068H166.706L173.86 55.5112L177.335 55.5112L170.181 62.5068Z" fill="url(#paint47_linear)"/>
<path d="M177.336 62.5068H173.86L181.015 55.5112L184.49 55.5112L177.336 62.5068Z" fill="url(#paint48_linear)"/>
<path d="M184.593 62.5068H181.118L188.273 55.5112L191.748 55.5112L184.593 62.5068Z" fill="url(#paint49_linear)"/>
<path d="M199.004 62.5068H195.528L202.683 55.5112L206.158 55.5112L199.004 62.5068Z" fill="url(#paint50_linear)"/>
<path d="M191.747 62.5068H188.374L195.529 55.5112L198.902 55.5112L191.747 62.5068Z" fill="url(#paint51_linear)"/>
<path d="M0.102033 55.5112L3.57715 55.5112L-0.000183105 59.0088L0.102033 55.5112Z" fill="url(#paint52_linear)"/>
<path d="M3.67978 62.5068H0.20465L7.35934 55.5112L10.8345 55.5112L3.67978 62.5068Z" fill="url(#paint53_linear)"/>
<path d="M18.0914 62.5068H14.6163L21.771 55.5112L25.2461 55.5112L18.0914 62.5068Z" fill="url(#paint54_linear)"/>
<path d="M10.8351 62.5068H7.46216L14.6168 55.5112L17.9897 55.5112L10.8351 62.5068Z" fill="url(#paint55_linear)"/>
<path d="M395.244 62.5068H391.769L398.923 55.5112L402.398 55.5112L395.244 62.5068Z" fill="url(#paint56_linear)"/>
<path d="M387.987 62.5068H384.512L391.666 55.5112L395.142 55.5112L387.987 62.5068Z" fill="url(#paint57_linear)"/>
<path d="M460.148 62.5068H456.673L463.828 55.5112L467.303 55.5112L460.148 62.5068Z" fill="url(#paint58_linear)"/>
<path d="M445.736 62.5068H442.261L449.415 55.5112L452.891 55.5112L445.736 62.5068Z" fill="url(#paint59_linear)"/>
<path d="M452.993 62.5068H449.518L456.672 55.5112L460.147 55.5112L452.993 62.5068Z" fill="url(#paint60_linear)"/>
<path d="M474.559 62.5068H471.186L478.341 55.5112L481.714 55.5112L474.559 62.5068Z" fill="url(#paint61_linear)"/>
<path d="M467.405 62.5068H463.93L471.084 55.5112L474.56 55.5112L467.405 62.5068Z" fill="url(#paint62_linear)"/>
<path d="M424.066 62.5068H420.591L427.746 55.5112L431.221 55.5112L424.066 62.5068Z" fill="url(#paint63_linear)"/>
<path d="M481.815 62.5068H478.34L485.495 55.5112L488.97 55.5112L481.815 62.5068Z" fill="url(#paint64_linear)"/>
<path d="M416.81 62.5068H413.437L420.592 55.5112L423.965 55.5112L416.81 62.5068Z" fill="url(#paint65_linear)"/>
<path d="M409.656 62.5068H406.181L413.335 55.5112L416.811 55.5112L409.656 62.5068Z" fill="url(#paint66_linear)"/>
<path d="M431.324 62.5068H427.849L435.003 55.5112L438.479 55.5112L431.324 62.5068Z" fill="url(#paint67_linear)"/>
<path d="M402.399 62.5068H398.924L406.079 55.5112L409.554 55.5112L402.399 62.5068Z" fill="url(#paint68_linear)"/>
<path d="M438.479 62.5068H435.004L442.159 55.5112L445.634 55.5112L438.479 62.5068Z" fill="url(#paint69_linear)"/>
<path d="M489.073 62.5068H485.598L492.752 55.5112L496.228 55.5112L489.073 62.5068Z" fill="url(#paint70_linear)"/>
<path d="M496.228 62.5068H492.753L499.908 55.5112L503.383 55.5112L496.228 62.5068Z" fill="url(#paint71_linear)"/>
<path d="M503.485 62.5068H500.01L507.164 55.5112L510.64 55.5112L503.485 62.5068Z" fill="url(#paint72_linear)"/>
<path d="M510.639 62.5068L507.266 62.5068L569.922 0.0444336L569.925 3.41534L510.639 62.5068Z" fill="url(#paint73_linear)"/>
<path d="M518.001 62.5068L514.628 62.5068L570.001 7.04004L570.004 10.411L518.001 62.5068Z" fill="url(#paint74_linear)"/>
<path d="M510.373 84.4922L507 84.4922L569.997 21.6582L570 25.0291L510.373 84.4922Z" fill="url(#paint75_linear)"/>
<path d="M517.734 84.4893H514.361L569.997 29.1538L570 32.5247L517.734 84.4893Z" fill="url(#paint76_linear)"/>
<path d="M525.106 84.4878H521.733L569.999 36.0229L570.002 39.3939L525.106 84.4878Z" fill="url(#paint77_linear)"/>
<path d="M395.246 84.4941H391.771L398.926 77.498H402.401L395.246 84.4941Z" fill="url(#paint78_linear)"/>
<path d="M387.988 84.4941H384.513L391.668 77.498H395.143L387.988 84.4941Z" fill="url(#paint79_linear)"/>
<path d="M460.15 84.4941H456.675L463.83 77.498H467.305L460.15 84.4941Z" fill="url(#paint80_linear)"/>
<path d="M445.737 84.4941H442.262L449.417 77.498H452.892L445.737 84.4941Z" fill="url(#paint81_linear)"/>
<path d="M452.995 84.4941H449.52L456.674 77.498H460.149L452.995 84.4941Z" fill="url(#paint82_linear)"/>
<path d="M474.561 84.4941H471.188L478.342 77.498H481.715L474.561 84.4941Z" fill="url(#paint83_linear)"/>
<path d="M467.406 84.4941H463.931L471.086 77.498H474.561L467.406 84.4941Z" fill="url(#paint84_linear)"/>
<path d="M424.069 84.4941H420.593L427.748 77.498H431.223L424.069 84.4941Z" fill="url(#paint85_linear)"/>
<path d="M481.817 84.4941H478.342L485.497 77.498H488.972L481.817 84.4941Z" fill="url(#paint86_linear)"/>
<path d="M416.812 84.4941H413.439L420.593 77.498H423.966L416.812 84.4941Z" fill="url(#paint87_linear)"/>
<path d="M409.658 84.4941H406.183L413.337 77.498H416.812L409.658 84.4941Z" fill="url(#paint88_linear)"/>
<path d="M431.326 84.4941H427.851L435.005 77.498H438.48L431.326 84.4941Z" fill="url(#paint89_linear)"/>
<path d="M402.401 84.4941H398.926L406.081 77.498H409.556L402.401 84.4941Z" fill="url(#paint90_linear)"/>
<path d="M438.481 84.4941H435.006L442.161 77.498H445.636L438.481 84.4941Z" fill="url(#paint91_linear)"/>
<path d="M489.074 84.4941H485.599L492.754 77.498H496.229L489.074 84.4941Z" fill="url(#paint92_linear)"/>
<path d="M496.23 84.4941H492.754L499.909 77.498H503.384L496.23 84.4941Z" fill="url(#paint93_linear)"/>
<path d="M503.486 84.4941H500.011L507.165 77.498H510.641L503.486 84.4941Z" fill="url(#paint94_linear)"/>
<path d="M517.898 84.4941H514.423L518 80.9956L517.898 84.4941Z" fill="url(#paint95_linear)"/>
<path d="M214.335 84.4941H210.86L218.015 77.498H221.49L214.335 84.4941Z" fill="url(#paint96_linear)"/>
<path d="M207.079 84.4941H203.604L210.758 77.498H214.233L207.079 84.4941Z" fill="url(#paint97_linear)"/>
<path d="M279.238 84.4941H275.763L282.917 77.498H286.393L279.238 84.4941Z" fill="url(#paint98_linear)"/>
<path d="M264.827 84.4941H261.352L268.507 77.498H271.982L264.827 84.4941Z" fill="url(#paint99_linear)"/>
<path d="M272.084 84.4941H268.609L275.764 77.498H279.239L272.084 84.4941Z" fill="url(#paint100_linear)"/>
<path d="M293.65 84.4941H290.277L297.431 77.498H300.804L293.65 84.4941Z" fill="url(#paint101_linear)"/>
<path d="M286.495 84.4941H283.02L290.174 77.498H293.649L286.495 84.4941Z" fill="url(#paint102_linear)"/>
<path d="M243.158 84.4941H239.683L246.838 77.498H250.313L243.158 84.4941Z" fill="url(#paint103_linear)"/>
<path d="M300.907 84.4941H297.432L304.587 77.498H308.062L300.907 84.4941Z" fill="url(#paint104_linear)"/>
<path d="M235.901 84.4941H232.528L239.683 77.498H243.056L235.901 84.4941Z" fill="url(#paint105_linear)"/>
<path d="M228.746 84.4941H225.271L232.425 77.498H235.9L228.746 84.4941Z" fill="url(#paint106_linear)"/>
<path d="M250.415 84.4941H246.94L254.094 77.498H257.569L250.415 84.4941Z" fill="url(#paint107_linear)"/>
<path d="M221.489 84.4941H218.014L225.169 77.498H228.644L221.489 84.4941Z" fill="url(#paint108_linear)"/>
<path d="M257.57 84.4941H254.095L261.249 77.498H264.725L257.57 84.4941Z" fill="url(#paint109_linear)"/>
<path d="M308.164 84.4941H304.688L311.843 77.498H315.318L308.164 84.4941Z" fill="url(#paint110_linear)"/>
<path d="M315.318 84.4941H311.843L318.998 77.498H322.473L315.318 84.4941Z" fill="url(#paint111_linear)"/>
<path d="M322.575 84.4941H319.1L326.255 77.498H329.73L322.575 84.4941Z" fill="url(#paint112_linear)"/>
<path d="M336.986 84.4941H333.511L340.666 77.498H344.141L336.986 84.4941Z" fill="url(#paint113_linear)"/>
<path d="M329.731 84.4941H326.358L333.512 77.498H336.885L329.731 84.4941Z" fill="url(#paint114_linear)"/>
<path d="M33.4239 84.4941H29.9488L37.1035 77.498H40.5786L33.4239 84.4941Z" fill="url(#paint115_linear)"/>
<path d="M26.1671 84.4941H22.692L29.8466 77.498H33.3218L26.1671 84.4941Z" fill="url(#paint116_linear)"/>
<path d="M98.3267 84.4941H94.8516L102.006 77.498H105.481L98.3267 84.4941Z" fill="url(#paint117_linear)"/>
<path d="M83.9151 84.4941H80.4399L87.5947 77.498H91.0698L83.9151 84.4941Z" fill="url(#paint118_linear)"/>
<path d="M91.1715 84.4941H87.6964L94.851 77.498H98.3262L91.1715 84.4941Z" fill="url(#paint119_linear)"/>
<path d="M112.738 84.4941H109.365L116.52 77.498H119.893L112.738 84.4941Z" fill="url(#paint120_linear)"/>
<path d="M105.583 84.4941H102.108L109.263 77.498H112.738L105.583 84.4941Z" fill="url(#paint121_linear)"/>
<path d="M62.2472 84.4941H58.772L65.9267 77.498H69.4019L62.2472 84.4941Z" fill="url(#paint122_linear)"/>
<path d="M119.996 84.4941H116.521L123.675 77.498H127.15L119.996 84.4941Z" fill="url(#paint123_linear)"/>
<path d="M54.9893 84.4941H51.6164L58.7711 77.498H62.144L54.9893 84.4941Z" fill="url(#paint124_linear)"/>
<path d="M47.8346 84.4941H44.3594L51.5141 77.498H54.9893L47.8346 84.4941Z" fill="url(#paint125_linear)"/>
<path d="M69.5035 84.4941H66.0283L73.1831 77.498H76.6582L69.5035 84.4941Z" fill="url(#paint126_linear)"/>
<path d="M40.5777 84.4941H37.1026L44.2573 77.498H47.7324L40.5777 84.4941Z" fill="url(#paint127_linear)"/>
<path d="M76.6578 84.4941H73.1827L80.3374 77.498H83.8125L76.6578 84.4941Z" fill="url(#paint128_linear)"/>
<path d="M127.252 84.4941H123.777L130.932 77.498H134.407L127.252 84.4941Z" fill="url(#paint129_linear)"/>
<path d="M134.406 84.4941H130.931L138.086 77.498H141.561L134.406 84.4941Z" fill="url(#paint130_linear)"/>
<path d="M141.664 84.4941H138.188L145.343 77.498H148.818L141.664 84.4941Z" fill="url(#paint131_linear)"/>
<path d="M156.075 84.4941H152.6L159.755 77.498H163.23L156.075 84.4941Z" fill="url(#paint132_linear)"/>
<path d="M148.819 84.4941H145.446L152.601 77.498H155.974L148.819 84.4941Z" fill="url(#paint133_linear)"/>
<path d="M336.783 84.4941L336.987 80.9961L340.565 77.498H343.938L336.783 84.4941Z" fill="url(#paint134_linear)"/>
<path d="M343.836 84.4941H340.36L347.515 77.498H350.99L343.836 84.4941Z" fill="url(#paint135_linear)"/>
<path d="M351.092 84.4941H347.617L354.771 77.498H358.247L351.092 84.4941Z" fill="url(#paint136_linear)"/>
<path d="M358.247 84.4941H354.772L361.927 77.498H365.402L358.247 84.4941Z" fill="url(#paint137_linear)"/>
<path d="M365.504 84.4941H362.029L369.184 77.498H372.659L365.504 84.4941Z" fill="url(#paint138_linear)"/>
<path d="M379.916 84.4941H376.44L383.595 77.498H387.07L379.916 84.4941Z" fill="url(#paint139_linear)"/>
<path d="M372.659 84.4941H369.286L376.441 77.498H379.813L372.659 84.4941Z" fill="url(#paint140_linear)"/>
<path d="M155.871 84.4941L156.075 80.9961L159.652 77.498H163.025L155.871 84.4941Z" fill="url(#paint141_linear)"/>
<path d="M162.923 84.4941H159.448L166.603 77.498H170.078L162.923 84.4941Z" fill="url(#paint142_linear)"/>
<path d="M170.18 84.4941H166.705L173.86 77.498H177.335L170.18 84.4941Z" fill="url(#paint143_linear)"/>
<path d="M177.335 84.4941H173.86L181.015 77.498H184.49L177.335 84.4941Z" fill="url(#paint144_linear)"/>
<path d="M184.593 84.4941H181.118L188.272 77.498H191.748L184.593 84.4941Z" fill="url(#paint145_linear)"/>
<path d="M199.003 84.4941H195.528L202.683 77.498H206.158L199.003 84.4941Z" fill="url(#paint146_linear)"/>
<path d="M191.747 84.4941H188.374L195.528 77.498H198.901L191.747 84.4941Z" fill="url(#paint147_linear)"/>
<path d="M0.102033 77.498H3.57715L-0.000183105 80.9956L0.102033 77.498Z" fill="url(#paint148_linear)"/>
<path d="M3.67978 84.4941H0.20465L7.35934 77.498H10.8345L3.67978 84.4941Z" fill="url(#paint149_linear)"/>
<path d="M18.0914 84.4941H14.6163L21.771 77.498H25.2461L18.0914 84.4941Z" fill="url(#paint150_linear)"/>
<path d="M10.835 84.4941H7.4621L14.6168 77.498H17.9897L10.835 84.4941Z" fill="url(#paint151_linear)"/>
<defs>
<linearGradient id="paint0_linear" x1="221.49" y1="50.9724" x2="223.607" y2="66.9641" gradientUnits="userSpaceOnUse">
<stop stop-color="#00BCB0"/>
<stop offset="1" stop-color="#F7D542"/>
</linearGradient>
<linearGradient id="paint1_linear" x1="214.234" y1="50.9724" x2="216.351" y2="66.9641" gradientUnits="userSpaceOnUse">
<stop stop-color="#00BCB0"/>
<stop offset="1" stop-color="#F7D542"/>
</linearGradient>
<linearGradient id="paint2_linear" x1="286.393" y1="50.9724" x2="288.51" y2="66.9641" gradientUnits="userSpaceOnUse">
<stop stop-color="#00BCB0"/>
<stop offset="1" stop-color="#F7D542"/>
</linearGradient>
<linearGradient id="paint3_linear" x1="271.982" y1="50.9724" x2="274.099" y2="66.9641" gradientUnits="userSpaceOnUse">
<stop stop-color="#00BCB0"/>
<stop offset="1" stop-color="#F7D542"/>
</linearGradient>
<linearGradient id="paint4_linear" x1="279.239" y1="50.9724" x2="281.356" y2="66.9641" gradientUnits="userSpaceOnUse">
<stop stop-color="#00BCB0"/>
<stop offset="1" stop-color="#F7D542"/>
</linearGradient>
<linearGradient id="paint5_linear" x1="300.805" y1="50.9724" x2="302.941" y2="66.9588" gradientUnits="userSpaceOnUse">
<stop stop-color="#00BCB0"/>
<stop offset="1" stop-color="#F7D542"/>
</linearGradient>
<linearGradient id="paint6_linear" x1="293.65" y1="50.9724" x2="295.767" y2="66.9641" gradientUnits="userSpaceOnUse">
<stop stop-color="#00BCB0"/>
<stop offset="1" stop-color="#F7D542"/>
</linearGradient>
<linearGradient id="paint7_linear" x1="250.313" y1="50.9724" x2="252.43" y2="66.9641" gradientUnits="userSpaceOnUse">
<stop stop-color="#00BCB0"/>
<stop offset="1" stop-color="#F7D542"/>
</linearGradient>
<linearGradient id="paint8_linear" x1="308.063" y1="50.9724" x2="310.179" y2="66.9641" gradientUnits="userSpaceOnUse">
<stop stop-color="#00BCB0"/>
<stop offset="1" stop-color="#F7D542"/>
</linearGradient>
<linearGradient id="paint9_linear" x1="243.056" y1="50.9724" x2="245.193" y2="66.9588" gradientUnits="userSpaceOnUse">
<stop stop-color="#00BCB0"/>
<stop offset="1" stop-color="#F7D542"/>
</linearGradient>
<linearGradient id="paint10_linear" x1="235.901" y1="50.9724" x2="238.018" y2="66.9641" gradientUnits="userSpaceOnUse">
<stop stop-color="#00BCB0"/>
<stop offset="1" stop-color="#F7D542"/>
</linearGradient>
<linearGradient id="paint11_linear" x1="257.57" y1="50.9724" x2="259.687" y2="66.9641" gradientUnits="userSpaceOnUse">
<stop stop-color="#00BCB0"/>
<stop offset="1" stop-color="#F7D542"/>
</linearGradient>
<linearGradient id="paint12_linear" x1="228.645" y1="50.9724" x2="230.762" y2="66.9641" gradientUnits="userSpaceOnUse">
<stop stop-color="#00BCB0"/>
<stop offset="1" stop-color="#F7D542"/>
</linearGradient>
<linearGradient id="paint13_linear" x1="264.725" y1="50.9724" x2="266.842" y2="66.9641" gradientUnits="userSpaceOnUse">
<stop stop-color="#00BCB0"/>
<stop offset="1" stop-color="#F7D542"/>
</linearGradient>
<linearGradient id="paint14_linear" x1="315.319" y1="50.9724" x2="317.436" y2="66.9641" gradientUnits="userSpaceOnUse">
<stop stop-color="#00BCB0"/>
<stop offset="1" stop-color="#F7D542"/>
</linearGradient>
<linearGradient id="paint15_linear" x1="322.473" y1="50.9724" x2="324.59" y2="66.9641" gradientUnits="userSpaceOnUse">
<stop stop-color="#00BCB0"/>
<stop offset="1" stop-color="#F7D542"/>
</linearGradient>
<linearGradient id="paint16_linear" x1="329.73" y1="50.9724" x2="331.847" y2="66.9641" gradientUnits="userSpaceOnUse">
<stop stop-color="#00BCB0"/>
<stop offset="1" stop-color="#F7D542"/>
</linearGradient>
<linearGradient id="paint17_linear" x1="344.142" y1="50.9724" x2="346.259" y2="66.9641" gradientUnits="userSpaceOnUse">
<stop stop-color="#00BCB0"/>
<stop offset="1" stop-color="#F7D542"/>
</linearGradient>
<linearGradient id="paint18_linear" x1="336.886" y1="50.9724" x2="339.023" y2="66.9588" gradientUnits="userSpaceOnUse">
<stop stop-color="#00BCB0"/>
<stop offset="1" stop-color="#F7D542"/>
</linearGradient>
<linearGradient id="paint19_linear" x1="40.5781" y1="50.9724" x2="42.6951" y2="66.9641" gradientUnits="userSpaceOnUse">
<stop stop-color="#00BCB0"/>
<stop offset="1" stop-color="#F7D542"/>
</linearGradient>
<linearGradient id="paint20_linear" x1="33.3213" y1="50.9724" x2="35.4383" y2="66.9641" gradientUnits="userSpaceOnUse">
<stop stop-color="#00BCB0"/>
<stop offset="1" stop-color="#F7D542"/>
</linearGradient>
<linearGradient id="paint21_linear" x1="105.481" y1="50.9724" x2="107.598" y2="66.9641" gradientUnits="userSpaceOnUse">
<stop stop-color="#00BCB0"/>
<stop offset="1" stop-color="#F7D542"/>
</linearGradient>
<linearGradient id="paint22_linear" x1="91.0693" y1="50.9724" x2="93.1863" y2="66.9641" gradientUnits="userSpaceOnUse">
<stop stop-color="#00BCB0"/>
<stop offset="1" stop-color="#F7D542"/>
</linearGradient>
<linearGradient id="paint23_linear" x1="98.3257" y1="50.9724" x2="100.443" y2="66.9641" gradientUnits="userSpaceOnUse">
<stop stop-color="#00BCB0"/>
<stop offset="1" stop-color="#F7D542"/>
</linearGradient>
<linearGradient id="paint24_linear" x1="119.893" y1="50.9724" x2="122.029" y2="66.9588" gradientUnits="userSpaceOnUse">
<stop stop-color="#00BCB0"/>
<stop offset="1" stop-color="#F7D542"/>
</linearGradient>
<linearGradient id="paint25_linear" x1="112.737" y1="50.9724" x2="114.854" y2="66.9641" gradientUnits="userSpaceOnUse">
<stop stop-color="#00BCB0"/>
<stop offset="1" stop-color="#F7D542"/>
</linearGradient>
<linearGradient id="paint26_linear" x1="69.4014" y1="50.9724" x2="71.5183" y2="66.9641" gradientUnits="userSpaceOnUse">
<stop stop-color="#00BCB0"/>
<stop offset="1" stop-color="#F7D542"/>
</linearGradient>
<linearGradient id="paint27_linear" x1="127.15" y1="50.9724" x2="129.267" y2="66.9641" gradientUnits="userSpaceOnUse">
<stop stop-color="#00BCB0"/>
<stop offset="1" stop-color="#F7D542"/>
</linearGradient>
<linearGradient id="paint28_linear" x1="62.1436" y1="50.9724" x2="64.2804" y2="66.9588" gradientUnits="userSpaceOnUse">
<stop stop-color="#00BCB0"/>
<stop offset="1" stop-color="#F7D542"/>
</linearGradient>
<linearGradient id="paint29_linear" x1="54.9888" y1="50.9724" x2="57.1057" y2="66.9641" gradientUnits="userSpaceOnUse">
<stop stop-color="#00BCB0"/>
<stop offset="1" stop-color="#F7D542"/>
</linearGradient>
<linearGradient id="paint30_linear" x1="76.6577" y1="50.9724" x2="78.7747" y2="66.9641" gradientUnits="userSpaceOnUse">
<stop stop-color="#00BCB0"/>
<stop offset="1" stop-color="#F7D542"/>
</linearGradient>
<linearGradient id="paint31_linear" x1="47.7319" y1="50.9724" x2="49.8489" y2="66.9641" gradientUnits="userSpaceOnUse">
<stop stop-color="#00BCB0"/>
<stop offset="1" stop-color="#F7D542"/>
</linearGradient>
<linearGradient id="paint32_linear" x1="83.812" y1="50.9724" x2="85.929" y2="66.9641" gradientUnits="userSpaceOnUse">
<stop stop-color="#00BCB0"/>
<stop offset="1" stop-color="#F7D542"/>
</linearGradient>
<linearGradient id="paint33_linear" x1="134.406" y1="50.9724" x2="136.523" y2="66.9641" gradientUnits="userSpaceOnUse">
<stop stop-color="#00BCB0"/>
<stop offset="1" stop-color="#F7D542"/>
</linearGradient>
<linearGradient id="paint34_linear" x1="141.561" y1="50.9724" x2="143.678" y2="66.9641" gradientUnits="userSpaceOnUse">
<stop stop-color="#00BCB0"/>
<stop offset="1" stop-color="#F7D542"/>
</linearGradient>
<linearGradient id="paint35_linear" x1="148.818" y1="50.9724" x2="150.935" y2="66.9641" gradientUnits="userSpaceOnUse">
<stop stop-color="#00BCB0"/>
<stop offset="1" stop-color="#F7D542"/>
</linearGradient>
<linearGradient id="paint36_linear" x1="163.229" y1="50.9724" x2="165.346" y2="66.9641" gradientUnits="userSpaceOnUse">
<stop stop-color="#00BCB0"/>
<stop offset="1" stop-color="#F7D542"/>
</linearGradient>
<linearGradient id="paint37_linear" x1="155.973" y1="50.9724" x2="158.11" y2="66.9588" gradientUnits="userSpaceOnUse">
<stop stop-color="#00BCB0"/>
<stop offset="1" stop-color="#F7D542"/>
</linearGradient>
<linearGradient id="paint38_linear" x1="343.938" y1="50.9724" x2="346.074" y2="66.9588" gradientUnits="userSpaceOnUse">
<stop stop-color="#00BCB0"/>
<stop offset="1" stop-color="#F7D542"/>
</linearGradient>
<linearGradient id="paint39_linear" x1="350.99" y1="50.9724" x2="353.107" y2="66.9641" gradientUnits="userSpaceOnUse">
<stop stop-color="#00BCB0"/>
<stop offset="1" stop-color="#F7D542"/>
</linearGradient>
<linearGradient id="paint40_linear" x1="358.247" y1="50.9724" x2="360.364" y2="66.9641" gradientUnits="userSpaceOnUse">
<stop stop-color="#00BCB0"/>
<stop offset="1" stop-color="#F7D542"/>
</linearGradient>
<linearGradient id="paint41_linear" x1="365.402" y1="50.9724" x2="367.519" y2="66.9641" gradientUnits="userSpaceOnUse">
<stop stop-color="#00BCB0"/>
<stop offset="1" stop-color="#F7D542"/>
</linearGradient>
<linearGradient id="paint42_linear" x1="372.659" y1="50.9724" x2="374.776" y2="66.9641" gradientUnits="userSpaceOnUse">
<stop stop-color="#00BCB0"/>
<stop offset="1" stop-color="#F7D542"/>
</linearGradient>
<linearGradient id="paint43_linear" x1="387.07" y1="50.9724" x2="389.187" y2="66.9641" gradientUnits="userSpaceOnUse">
<stop stop-color="#00BCB0"/>
<stop offset="1" stop-color="#F7D542"/>
</linearGradient>
<linearGradient id="paint44_linear" x1="379.813" y1="50.9724" x2="381.95" y2="66.9588" gradientUnits="userSpaceOnUse">
<stop stop-color="#00BCB0"/>
<stop offset="1" stop-color="#F7D542"/>
</linearGradient>
<linearGradient id="paint45_linear" x1="163.026" y1="50.9724" x2="165.163" y2="66.9588" gradientUnits="userSpaceOnUse">
<stop stop-color="#00BCB0"/>
<stop offset="1" stop-color="#F7D542"/>
</linearGradient>
<linearGradient id="paint46_linear" x1="170.079" y1="50.9724" x2="172.196" y2="66.9641" gradientUnits="userSpaceOnUse">
<stop stop-color="#00BCB0"/>
<stop offset="1" stop-color="#F7D542"/>
</linearGradient>
<linearGradient id="paint47_linear" x1="177.335" y1="50.9724" x2="179.452" y2="66.9641" gradientUnits="userSpaceOnUse">
<stop stop-color="#00BCB0"/>
<stop offset="1" stop-color="#F7D542"/>
</linearGradient>
<linearGradient id="paint48_linear" x1="184.49" y1="50.9724" x2="186.607" y2="66.9641" gradientUnits="userSpaceOnUse">
<stop stop-color="#00BCB0"/>
<stop offset="1" stop-color="#F7D542"/>
</linearGradient>
<linearGradient id="paint49_linear" x1="191.748" y1="50.9724" x2="193.865" y2="66.9641" gradientUnits="userSpaceOnUse">
<stop stop-color="#00BCB0"/>
<stop offset="1" stop-color="#F7D542"/>
</linearGradient>
<linearGradient id="paint50_linear" x1="206.158" y1="50.9724" x2="208.275" y2="66.9641" gradientUnits="userSpaceOnUse">
<stop stop-color="#00BCB0"/>
<stop offset="1" stop-color="#F7D542"/>
</linearGradient>
<linearGradient id="paint51_linear" x1="198.902" y1="50.9724" x2="201.039" y2="66.9588" gradientUnits="userSpaceOnUse">
<stop stop-color="#00BCB0"/>
<stop offset="1" stop-color="#F7D542"/>
</linearGradient>
<linearGradient id="paint52_linear" x1="3.57715" y1="50.9727" x2="5.69385" y2="66.9634" gradientUnits="userSpaceOnUse">
<stop stop-color="#00BCB0"/>
<stop offset="1" stop-color="#F7D542"/>
</linearGradient>
<linearGradient id="paint53_linear" x1="10.8345" y1="50.9724" x2="12.9515" y2="66.9641" gradientUnits="userSpaceOnUse">
<stop stop-color="#00BCB0"/>
<stop offset="1" stop-color="#F7D542"/>
</linearGradient>
<linearGradient id="paint54_linear" x1="25.2461" y1="50.9724" x2="27.3631" y2="66.9641" gradientUnits="userSpaceOnUse">
<stop stop-color="#00BCB0"/>
<stop offset="1" stop-color="#F7D542"/>
</linearGradient>
<linearGradient id="paint55_linear" x1="17.9897" y1="50.9724" x2="20.1266" y2="66.9588" gradientUnits="userSpaceOnUse">
<stop stop-color="#00BCB0"/>
<stop offset="1" stop-color="#F7D542"/>
</linearGradient>
<linearGradient id="paint56_linear" x1="402.398" y1="50.9724" x2="404.515" y2="66.9641" gradientUnits="userSpaceOnUse">
<stop stop-color="#00BCB0"/>
<stop offset="1" stop-color="#F7D542"/>
</linearGradient>
<linearGradient id="paint57_linear" x1="395.142" y1="50.9724" x2="397.259" y2="66.9641" gradientUnits="userSpaceOnUse">
<stop stop-color="#00BCB0"/>
<stop offset="1" stop-color="#F7D542"/>
</linearGradient>
<linearGradient id="paint58_linear" x1="467.303" y1="50.9724" x2="469.42" y2="66.9641" gradientUnits="userSpaceOnUse">
<stop stop-color="#00BCB0"/>
<stop offset="1" stop-color="#F7D542"/>
</linearGradient>
<linearGradient id="paint59_linear" x1="452.891" y1="50.9724" x2="455.008" y2="66.9641" gradientUnits="userSpaceOnUse">
<stop stop-color="#00BCB0"/>
<stop offset="1" stop-color="#F7D542"/>
</linearGradient>
<linearGradient id="paint60_linear" x1="460.147" y1="50.9724" x2="462.264" y2="66.9641" gradientUnits="userSpaceOnUse">
<stop stop-color="#00BCB0"/>
<stop offset="1" stop-color="#F7D542"/>
</linearGradient>
<linearGradient id="paint61_linear" x1="481.714" y1="50.9724" x2="483.851" y2="66.9588" gradientUnits="userSpaceOnUse">
<stop stop-color="#00BCB0"/>
<stop offset="1" stop-color="#F7D542"/>
</linearGradient>
<linearGradient id="paint62_linear" x1="474.56" y1="50.9724" x2="476.677" y2="66.9641" gradientUnits="userSpaceOnUse">
<stop stop-color="#00BCB0"/>
<stop offset="1" stop-color="#F7D542"/>
</linearGradient>
<linearGradient id="paint63_linear" x1="431.221" y1="50.9724" x2="433.338" y2="66.9641" gradientUnits="userSpaceOnUse">
<stop stop-color="#00BCB0"/>
<stop offset="1" stop-color="#F7D542"/>
</linearGradient>
<linearGradient id="paint64_linear" x1="488.97" y1="50.9724" x2="491.087" y2="66.9641" gradientUnits="userSpaceOnUse">
<stop stop-color="#00BCB0"/>
<stop offset="1" stop-color="#F7D542"/>
</linearGradient>
<linearGradient id="paint65_linear" x1="423.965" y1="50.9724" x2="426.102" y2="66.9588" gradientUnits="userSpaceOnUse">
<stop stop-color="#00BCB0"/>
<stop offset="1" stop-color="#F7D542"/>
</linearGradient>
<linearGradient id="paint66_linear" x1="416.811" y1="50.9724" x2="418.928" y2="66.9641" gradientUnits="userSpaceOnUse">
<stop stop-color="#00BCB0"/>
<stop offset="1" stop-color="#F7D542"/>
</linearGradient>
<linearGradient id="paint67_linear" x1="438.479" y1="50.9724" x2="440.595" y2="66.9641" gradientUnits="userSpaceOnUse">
<stop stop-color="#00BCB0"/>
<stop offset="1" stop-color="#F7D542"/>
</linearGradient>
<linearGradient id="paint68_linear" x1="409.554" y1="50.9724" x2="411.671" y2="66.9641" gradientUnits="userSpaceOnUse">
<stop stop-color="#00BCB0"/>
<stop offset="1" stop-color="#F7D542"/>
</linearGradient>
<linearGradient id="paint69_linear" x1="445.634" y1="50.9724" x2="447.751" y2="66.9641" gradientUnits="userSpaceOnUse">
<stop stop-color="#00BCB0"/>
<stop offset="1" stop-color="#F7D542"/>
</linearGradient>
<linearGradient id="paint70_linear" x1="496.228" y1="50.9724" x2="498.345" y2="66.9641" gradientUnits="userSpaceOnUse">
<stop stop-color="#00BCB0"/>
<stop offset="1" stop-color="#F7D542"/>
</linearGradient>
<linearGradient id="paint71_linear" x1="503.383" y1="50.9724" x2="505.5" y2="66.9641" gradientUnits="userSpaceOnUse">
<stop stop-color="#00BCB0"/>
<stop offset="1" stop-color="#F7D542"/>
</linearGradient>
<linearGradient id="paint72_linear" x1="510.64" y1="50.9724" x2="512.757" y2="66.9641" gradientUnits="userSpaceOnUse">
<stop stop-color="#00BCB0"/>
<stop offset="1" stop-color="#F7D542"/>
</linearGradient>
<linearGradient id="paint73_linear" x1="517.795" y1="50.9721" x2="519.932" y2="66.9589" gradientUnits="userSpaceOnUse">
<stop stop-color="#00BCB0"/>
<stop offset="1" stop-color="#F7D542"/>
</linearGradient>
<linearGradient id="paint74_linear" x1="525.529" y1="50.4725" x2="527.666" y2="66.4593" gradientUnits="userSpaceOnUse">
<stop stop-color="#00BCB0"/>
<stop offset="1" stop-color="#F7D542"/>
</linearGradient>
<linearGradient id="paint75_linear" x1="517.528" y1="72.959" x2="519.665" y2="88.9458" gradientUnits="userSpaceOnUse">
<stop stop-color="#00BCB0"/>
<stop offset="1" stop-color="#F7D542"/>
</linearGradient>
<linearGradient id="paint76_linear" x1="525.263" y1="72.4593" x2="527.4" y2="88.4462" gradientUnits="userSpaceOnUse">
<stop stop-color="#00BCB0"/>
<stop offset="1" stop-color="#F7D542"/>
</linearGradient>
<linearGradient id="paint77_linear" x1="532.636" y1="72.4593" x2="534.773" y2="88.446" gradientUnits="userSpaceOnUse">
<stop stop-color="#00BCB0"/>
<stop offset="1" stop-color="#F7D542"/>
</linearGradient>
<linearGradient id="paint78_linear" x1="402.401" y1="72.9589" x2="404.518" y2="88.9517" gradientUnits="userSpaceOnUse">
<stop stop-color="#00BCB0"/>
<stop offset="1" stop-color="#F7D542"/>
</linearGradient>
<linearGradient id="paint79_linear" x1="395.143" y1="72.9589" x2="397.26" y2="88.9517" gradientUnits="userSpaceOnUse">
<stop stop-color="#00BCB0"/>
<stop offset="1" stop-color="#F7D542"/>
</linearGradient>
<linearGradient id="paint80_linear" x1="467.305" y1="72.9589" x2="469.422" y2="88.9517" gradientUnits="userSpaceOnUse">
<stop stop-color="#00BCB0"/>
<stop offset="1" stop-color="#F7D542"/>
</linearGradient>
<linearGradient id="paint81_linear" x1="452.892" y1="72.9589" x2="455.009" y2="88.9517" gradientUnits="userSpaceOnUse">
<stop stop-color="#00BCB0"/>
<stop offset="1" stop-color="#F7D542"/>
</linearGradient>
<linearGradient id="paint82_linear" x1="460.149" y1="72.9589" x2="462.267" y2="88.9517" gradientUnits="userSpaceOnUse">
<stop stop-color="#00BCB0"/>
<stop offset="1" stop-color="#F7D542"/>
</linearGradient>
<linearGradient id="paint83_linear" x1="481.715" y1="72.9589" x2="483.852" y2="88.9463" gradientUnits="userSpaceOnUse">
<stop stop-color="#00BCB0"/>
<stop offset="1" stop-color="#F7D542"/>
</linearGradient>
<linearGradient id="paint84_linear" x1="474.561" y1="72.9589" x2="476.678" y2="88.9517" gradientUnits="userSpaceOnUse">
<stop stop-color="#00BCB0"/>
<stop offset="1" stop-color="#F7D542"/>
</linearGradient>
<linearGradient id="paint85_linear" x1="431.223" y1="72.9589" x2="433.34" y2="88.9517" gradientUnits="userSpaceOnUse">
<stop stop-color="#00BCB0"/>
<stop offset="1" stop-color="#F7D542"/>
</linearGradient>
<linearGradient id="paint86_linear" x1="488.972" y1="72.9589" x2="491.089" y2="88.9517" gradientUnits="userSpaceOnUse">
<stop stop-color="#00BCB0"/>
<stop offset="1" stop-color="#F7D542"/>
</linearGradient>
<linearGradient id="paint87_linear" x1="423.966" y1="72.9589" x2="426.103" y2="88.9463" gradientUnits="userSpaceOnUse">
<stop stop-color="#00BCB0"/>
<stop offset="1" stop-color="#F7D542"/>
</linearGradient>
<linearGradient id="paint88_linear" x1="416.813" y1="72.9589" x2="418.93" y2="88.9517" gradientUnits="userSpaceOnUse">
<stop stop-color="#00BCB0"/>
<stop offset="1" stop-color="#F7D542"/>
</linearGradient>
<linearGradient id="paint89_linear" x1="438.48" y1="72.9589" x2="440.598" y2="88.9517" gradientUnits="userSpaceOnUse">
<stop stop-color="#00BCB0"/>
<stop offset="1" stop-color="#F7D542"/>
</linearGradient>
<linearGradient id="paint90_linear" x1="409.556" y1="72.9589" x2="411.673" y2="88.9517" gradientUnits="userSpaceOnUse">
<stop stop-color="#00BCB0"/>
<stop offset="1" stop-color="#F7D542"/>
</linearGradient>
<linearGradient id="paint91_linear" x1="445.636" y1="72.9589" x2="447.753" y2="88.9517" gradientUnits="userSpaceOnUse">
<stop stop-color="#00BCB0"/>
<stop offset="1" stop-color="#F7D542"/>
</linearGradient>
<linearGradient id="paint92_linear" x1="496.229" y1="72.9589" x2="498.346" y2="88.9517" gradientUnits="userSpaceOnUse">
<stop stop-color="#00BCB0"/>
<stop offset="1" stop-color="#F7D542"/>
</linearGradient>
<linearGradient id="paint93_linear" x1="503.384" y1="72.9589" x2="505.502" y2="88.9517" gradientUnits="userSpaceOnUse">
<stop stop-color="#00BCB0"/>
<stop offset="1" stop-color="#F7D542"/>
</linearGradient>
<linearGradient id="paint94_linear" x1="510.641" y1="72.9589" x2="512.758" y2="88.9517" gradientUnits="userSpaceOnUse">
<stop stop-color="#00BCB0"/>
<stop offset="1" stop-color="#F7D542"/>
</linearGradient>
<linearGradient id="paint95_linear" x1="525.053" y1="72.9573" x2="527.171" y2="88.9523" gradientUnits="userSpaceOnUse">
<stop stop-color="#00BCB0"/>
<stop offset="1" stop-color="#F7D542"/>
</linearGradient>
<linearGradient id="paint96_linear" x1="221.49" y1="72.9589" x2="223.607" y2="88.9517" gradientUnits="userSpaceOnUse">
<stop stop-color="#00BCB0"/>
<stop offset="1" stop-color="#F7D542"/>
</linearGradient>
<linearGradient id="paint97_linear" x1="214.233" y1="72.9589" x2="216.351" y2="88.9517" gradientUnits="userSpaceOnUse">
<stop stop-color="#00BCB0"/>
<stop offset="1" stop-color="#F7D542"/>
</linearGradient>
<linearGradient id="paint98_linear" x1="286.393" y1="72.9589" x2="288.51" y2="88.9517" gradientUnits="userSpaceOnUse">
<stop stop-color="#00BCB0"/>
<stop offset="1" stop-color="#F7D542"/>
</linearGradient>
<linearGradient id="paint99_linear" x1="271.982" y1="72.9589" x2="274.099" y2="88.9517" gradientUnits="userSpaceOnUse">
<stop stop-color="#00BCB0"/>
<stop offset="1" stop-color="#F7D542"/>
</linearGradient>
<linearGradient id="paint100_linear" x1="279.239" y1="72.9589" x2="281.356" y2="88.9517" gradientUnits="userSpaceOnUse">
<stop stop-color="#00BCB0"/>
<stop offset="1" stop-color="#F7D542"/>
</linearGradient>
<linearGradient id="paint101_linear" x1="300.804" y1="72.9589" x2="302.941" y2="88.9463" gradientUnits="userSpaceOnUse">
<stop stop-color="#00BCB0"/>
<stop offset="1" stop-color="#F7D542"/>
</linearGradient>
<linearGradient id="paint102_linear" x1="293.649" y1="72.9589" x2="295.767" y2="88.9517" gradientUnits="userSpaceOnUse">
<stop stop-color="#00BCB0"/>
<stop offset="1" stop-color="#F7D542"/>
</linearGradient>
<linearGradient id="paint103_linear" x1="250.313" y1="72.9589" x2="252.43" y2="88.9517" gradientUnits="userSpaceOnUse">
<stop stop-color="#00BCB0"/>
<stop offset="1" stop-color="#F7D542"/>
</linearGradient>
<linearGradient id="paint104_linear" x1="308.062" y1="72.9589" x2="310.179" y2="88.9517" gradientUnits="userSpaceOnUse">
<stop stop-color="#00BCB0"/>
<stop offset="1" stop-color="#F7D542"/>
</linearGradient>
<linearGradient id="paint105_linear" x1="243.056" y1="72.9589" x2="245.193" y2="88.9463" gradientUnits="userSpaceOnUse">
<stop stop-color="#00BCB0"/>
<stop offset="1" stop-color="#F7D542"/>
</linearGradient>
<linearGradient id="paint106_linear" x1="235.9" y1="72.9589" x2="238.018" y2="88.9517" gradientUnits="userSpaceOnUse">
<stop stop-color="#00BCB0"/>
<stop offset="1" stop-color="#F7D542"/>
</linearGradient>
<linearGradient id="paint107_linear" x1="257.569" y1="72.9589" x2="259.687" y2="88.9517" gradientUnits="userSpaceOnUse">
<stop stop-color="#00BCB0"/>
<stop offset="1" stop-color="#F7D542"/>
</linearGradient>
<linearGradient id="paint108_linear" x1="228.644" y1="72.9589" x2="230.761" y2="88.9517" gradientUnits="userSpaceOnUse">
<stop stop-color="#00BCB0"/>
<stop offset="1" stop-color="#F7D542"/>
</linearGradient>
<linearGradient id="paint109_linear" x1="264.725" y1="72.9589" x2="266.842" y2="88.9517" gradientUnits="userSpaceOnUse">
<stop stop-color="#00BCB0"/>
<stop offset="1" stop-color="#F7D542"/>
</linearGradient>
<linearGradient id="paint110_linear" x1="315.318" y1="72.9589" x2="317.436" y2="88.9517" gradientUnits="userSpaceOnUse">
<stop stop-color="#00BCB0"/>
<stop offset="1" stop-color="#F7D542"/>
</linearGradient>
<linearGradient id="paint111_linear" x1="322.473" y1="72.9589" x2="324.59" y2="88.9517" gradientUnits="userSpaceOnUse">
<stop stop-color="#00BCB0"/>
<stop offset="1" stop-color="#F7D542"/>
</linearGradient>
<linearGradient id="paint112_linear" x1="329.73" y1="72.9589" x2="331.847" y2="88.9517" gradientUnits="userSpaceOnUse">
<stop stop-color="#00BCB0"/>
<stop offset="1" stop-color="#F7D542"/>
</linearGradient>
<linearGradient id="paint113_linear" x1="344.141" y1="72.9589" x2="346.258" y2="88.9517" gradientUnits="userSpaceOnUse">
<stop stop-color="#00BCB0"/>
<stop offset="1" stop-color="#F7D542"/>
</linearGradient>
<linearGradient id="paint114_linear" x1="336.885" y1="72.9589" x2="339.022" y2="88.9463" gradientUnits="userSpaceOnUse">
<stop stop-color="#00BCB0"/>
<stop offset="1" stop-color="#F7D542"/>
</linearGradient>
<linearGradient id="paint115_linear" x1="40.5786" y1="72.9589" x2="42.6959" y2="88.9517" gradientUnits="userSpaceOnUse">
<stop stop-color="#00BCB0"/>
<stop offset="1" stop-color="#F7D542"/>
</linearGradient>
<linearGradient id="paint116_linear" x1="33.3218" y1="72.9589" x2="35.4391" y2="88.9517" gradientUnits="userSpaceOnUse">
<stop stop-color="#00BCB0"/>
<stop offset="1" stop-color="#F7D542"/>
</linearGradient>
<linearGradient id="paint117_linear" x1="105.481" y1="72.9589" x2="107.599" y2="88.9517" gradientUnits="userSpaceOnUse">
<stop stop-color="#00BCB0"/>
<stop offset="1" stop-color="#F7D542"/>
</linearGradient>
<linearGradient id="paint118_linear" x1="91.0698" y1="72.9589" x2="93.1871" y2="88.9517" gradientUnits="userSpaceOnUse">
<stop stop-color="#00BCB0"/>
<stop offset="1" stop-color="#F7D542"/>
</linearGradient>
<linearGradient id="paint119_linear" x1="98.3262" y1="72.9589" x2="100.443" y2="88.9517" gradientUnits="userSpaceOnUse">
<stop stop-color="#00BCB0"/>
<stop offset="1" stop-color="#F7D542"/>
</linearGradient>
<linearGradient id="paint120_linear" x1="119.893" y1="72.9589" x2="122.03" y2="88.9463" gradientUnits="userSpaceOnUse">
<stop stop-color="#00BCB0"/>
<stop offset="1" stop-color="#F7D542"/>
</linearGradient>
<linearGradient id="paint121_linear" x1="112.738" y1="72.9589" x2="114.855" y2="88.9517" gradientUnits="userSpaceOnUse">
<stop stop-color="#00BCB0"/>
<stop offset="1" stop-color="#F7D542"/>
</linearGradient>
<linearGradient id="paint122_linear" x1="69.4019" y1="72.9589" x2="71.5191" y2="88.9517" gradientUnits="userSpaceOnUse">
<stop stop-color="#00BCB0"/>
<stop offset="1" stop-color="#F7D542"/>
</linearGradient>
<linearGradient id="paint123_linear" x1="127.15" y1="72.9589" x2="129.268" y2="88.9517" gradientUnits="userSpaceOnUse">
<stop stop-color="#00BCB0"/>
<stop offset="1" stop-color="#F7D542"/>
</linearGradient>
<linearGradient id="paint124_linear" x1="62.144" y1="72.9589" x2="64.2812" y2="88.9463" gradientUnits="userSpaceOnUse">
<stop stop-color="#00BCB0"/>
<stop offset="1" stop-color="#F7D542"/>
</linearGradient>
<linearGradient id="paint125_linear" x1="54.9893" y1="72.9589" x2="57.1065" y2="88.9517" gradientUnits="userSpaceOnUse">
<stop stop-color="#00BCB0"/>
<stop offset="1" stop-color="#F7D542"/>
</linearGradient>
<linearGradient id="paint126_linear" x1="76.6582" y1="72.9589" x2="78.7755" y2="88.9517" gradientUnits="userSpaceOnUse">
<stop stop-color="#00BCB0"/>
<stop offset="1" stop-color="#F7D542"/>
</linearGradient>
<linearGradient id="paint127_linear" x1="47.7324" y1="72.9589" x2="49.8497" y2="88.9517" gradientUnits="userSpaceOnUse">
<stop stop-color="#00BCB0"/>
<stop offset="1" stop-color="#F7D542"/>
</linearGradient>
<linearGradient id="paint128_linear" x1="83.8125" y1="72.9589" x2="85.9298" y2="88.9517" gradientUnits="userSpaceOnUse">
<stop stop-color="#00BCB0"/>
<stop offset="1" stop-color="#F7D542"/>
</linearGradient>
<linearGradient id="paint129_linear" x1="134.407" y1="72.9589" x2="136.524" y2="88.9517" gradientUnits="userSpaceOnUse">
<stop stop-color="#00BCB0"/>
<stop offset="1" stop-color="#F7D542"/>
</linearGradient>
<linearGradient id="paint130_linear" x1="141.561" y1="72.9589" x2="143.678" y2="88.9517" gradientUnits="userSpaceOnUse">
<stop stop-color="#00BCB0"/>
<stop offset="1" stop-color="#F7D542"/>
</linearGradient>
<linearGradient id="paint131_linear" x1="148.818" y1="72.9589" x2="150.936" y2="88.9517" gradientUnits="userSpaceOnUse">
<stop stop-color="#00BCB0"/>
<stop offset="1" stop-color="#F7D542"/>
</linearGradient>
<linearGradient id="paint132_linear" x1="163.23" y1="72.9589" x2="165.347" y2="88.9517" gradientUnits="userSpaceOnUse">
<stop stop-color="#00BCB0"/>
<stop offset="1" stop-color="#F7D542"/>
</linearGradient>
<linearGradient id="paint133_linear" x1="155.974" y1="72.9589" x2="158.111" y2="88.9463" gradientUnits="userSpaceOnUse">
<stop stop-color="#00BCB0"/>
<stop offset="1" stop-color="#F7D542"/>
</linearGradient>
<linearGradient id="paint134_linear" x1="343.938" y1="72.9589" x2="346.075" y2="88.9463" gradientUnits="userSpaceOnUse">
<stop stop-color="#00BCB0"/>
<stop offset="1" stop-color="#F7D542"/>
</linearGradient>
<linearGradient id="paint135_linear" x1="350.99" y1="72.9589" x2="353.107" y2="88.9517" gradientUnits="userSpaceOnUse">
<stop stop-color="#00BCB0"/>
<stop offset="1" stop-color="#F7D542"/>
</linearGradient>
<linearGradient id="paint136_linear" x1="358.247" y1="72.9589" x2="360.364" y2="88.9517" gradientUnits="userSpaceOnUse">
<stop stop-color="#00BCB0"/>
<stop offset="1" stop-color="#F7D542"/>
</linearGradient>
<linearGradient id="paint137_linear" x1="365.402" y1="72.9589" x2="367.519" y2="88.9517" gradientUnits="userSpaceOnUse">
<stop stop-color="#00BCB0"/>
<stop offset="1" stop-color="#F7D542"/>
</linearGradient>
<linearGradient id="paint138_linear" x1="372.659" y1="72.9589" x2="374.776" y2="88.9517" gradientUnits="userSpaceOnUse">
<stop stop-color="#00BCB0"/>
<stop offset="1" stop-color="#F7D542"/>
</linearGradient>
<linearGradient id="paint139_linear" x1="387.07" y1="72.9589" x2="389.188" y2="88.9517" gradientUnits="userSpaceOnUse">
<stop stop-color="#00BCB0"/>
<stop offset="1" stop-color="#F7D542"/>
</linearGradient>
<linearGradient id="paint140_linear" x1="379.813" y1="72.9589" x2="381.951" y2="88.9463" gradientUnits="userSpaceOnUse">
<stop stop-color="#00BCB0"/>
<stop offset="1" stop-color="#F7D542"/>
</linearGradient>
<linearGradient id="paint141_linear" x1="163.025" y1="72.9589" x2="165.162" y2="88.9463" gradientUnits="userSpaceOnUse">
<stop stop-color="#00BCB0"/>
<stop offset="1" stop-color="#F7D542"/>
</linearGradient>
<linearGradient id="paint142_linear" x1="170.078" y1="72.9589" x2="172.195" y2="88.9517" gradientUnits="userSpaceOnUse">
<stop stop-color="#00BCB0"/>
<stop offset="1" stop-color="#F7D542"/>
</linearGradient>
<linearGradient id="paint143_linear" x1="177.335" y1="72.9589" x2="179.452" y2="88.9517" gradientUnits="userSpaceOnUse">
<stop stop-color="#00BCB0"/>
<stop offset="1" stop-color="#F7D542"/>
</linearGradient>
<linearGradient id="paint144_linear" x1="184.49" y1="72.9589" x2="186.607" y2="88.9517" gradientUnits="userSpaceOnUse">
<stop stop-color="#00BCB0"/>
<stop offset="1" stop-color="#F7D542"/>
</linearGradient>
<linearGradient id="paint145_linear" x1="191.748" y1="72.9589" x2="193.865" y2="88.9517" gradientUnits="userSpaceOnUse">
<stop stop-color="#00BCB0"/>
<stop offset="1" stop-color="#F7D542"/>
</linearGradient>
<linearGradient id="paint146_linear" x1="206.158" y1="72.9589" x2="208.275" y2="88.9517" gradientUnits="userSpaceOnUse">
<stop stop-color="#00BCB0"/>
<stop offset="1" stop-color="#F7D542"/>
</linearGradient>
<linearGradient id="paint147_linear" x1="198.901" y1="72.9589" x2="201.038" y2="88.9463" gradientUnits="userSpaceOnUse">
<stop stop-color="#00BCB0"/>
<stop offset="1" stop-color="#F7D542"/>
</linearGradient>
<linearGradient id="paint148_linear" x1="3.57715" y1="72.9595" x2="5.69385" y2="88.9502" gradientUnits="userSpaceOnUse">
<stop stop-color="#00BCB0"/>
<stop offset="1" stop-color="#F7D542"/>
</linearGradient>
<linearGradient id="paint149_linear" x1="10.8345" y1="72.9589" x2="12.9517" y2="88.9517" gradientUnits="userSpaceOnUse">
<stop stop-color="#00BCB0"/>
<stop offset="1" stop-color="#F7D542"/>
</linearGradient>
<linearGradient id="paint150_linear" x1="25.2461" y1="72.9589" x2="27.3634" y2="88.9517" gradientUnits="userSpaceOnUse">
<stop stop-color="#00BCB0"/>
<stop offset="1" stop-color="#F7D542"/>
</linearGradient>
<linearGradient id="paint151_linear" x1="17.9897" y1="72.9589" x2="20.1269" y2="88.9463" gradientUnits="userSpaceOnUse">
<stop stop-color="#00BCB0"/>
<stop offset="1" stop-color="#F7D542"/>
</linearGradient>
</defs>
</svg>
