<svg width="69" height="69" viewBox="0 0 69 69" fill="none" xmlns="http://www.w3.org/2000/svg">
<g filter="url(#filter0_b)">
<rect x="4" y="4.00049" width="60" height="60" rx="21" fill="#081E26" fill-opacity="0.01"/>
<rect x="3.5" y="3.50049" width="61" height="61" rx="21.5" stroke="url(#paint0_linear)"/>
</g>
<rect x="30" y="3.53564" width="5" height="5" transform="rotate(-45 30 3.53564)" fill="white"/>
<rect y="34.0005" width="5" height="5" transform="rotate(-45 0 34.0005)" fill="white"/>
<rect x="30" y="64.5356" width="5" height="5" transform="rotate(-45 30 64.5356)" fill="white"/>
<rect x="61" y="34.0005" width="5" height="5" transform="rotate(-45 61 34.0005)" fill="white"/>
<g filter="url(#filter1_i)">
<path d="M50.5 23.7533C49.3967 24.2365 48.2095 24.5613 46.9641 24.7086C48.2365 23.9581 49.212 22.7722 49.6714 21.3562C48.4812 22.0523 47.1646 22.5564 45.7613 22.8267C44.6389 21.6506 43.0399 20.916 41.2688 20.916C37.8719 20.916 35.1158 23.6253 35.1158 26.9697C35.1158 27.445 35.1695 27.9075 35.2751 28.3508C30.1607 28.098 25.624 25.6863 22.5901 22.0234C22.0597 22.918 21.7566 23.9565 21.7566 25.067C21.7566 27.1666 22.8426 29.0228 24.4938 30.1063C23.4836 30.0743 22.5363 29.8038 21.7046 29.3478V29.4246C21.7046 32.3594 23.8261 34.8063 26.6421 35.3631C26.126 35.5008 25.5829 35.576 25.0209 35.576C24.6247 35.576 24.2396 35.5393 23.8639 35.4672C24.6467 37.874 26.9199 39.6246 29.6145 39.6727C27.5072 41.2985 24.8536 42.2651 21.9697 42.2651C21.4724 42.2651 20.9831 42.2363 20.5 42.1804C23.2261 43.899 26.459 44.9023 29.9365 44.9023C41.2577 44.9023 47.4488 35.6722 47.4488 27.6709L47.4314 26.8867C48.631 26.0352 49.6745 24.9695 50.5 23.7533Z" fill="url(#paint1_linear)"/>
</g>
<defs>
<filter id="filter0_b" x="-7" y="-6.99951" width="82" height="82" filterUnits="userSpaceOnUse" color-interpolation-filters="sRGB">
<feFlood flood-opacity="0" result="BackgroundImageFix"/>
<feGaussianBlur in="BackgroundImage" stdDeviation="5"/>
<feComposite in2="SourceAlpha" operator="in" result="effect1_backgroundBlur"/>
<feBlend mode="normal" in="SourceGraphic" in2="effect1_backgroundBlur" result="shape"/>
</filter>
<filter id="filter1_i" x="20.5" y="20.916" width="30" height="23.9863" filterUnits="userSpaceOnUse" color-interpolation-filters="sRGB">
<feFlood flood-opacity="0" result="BackgroundImageFix"/>
<feBlend mode="normal" in="SourceGraphic" in2="BackgroundImageFix" result="shape"/>
<feColorMatrix in="SourceAlpha" type="matrix" values="0 0 0 0 0 0 0 0 0 0 0 0 0 0 0 0 0 0 127 0" result="hardAlpha"/>
<feOffset/>
<feGaussianBlur stdDeviation="2.4"/>
<feComposite in2="hardAlpha" operator="arithmetic" k2="-1" k3="1"/>
<feColorMatrix type="matrix" values="0 0 0 0 0.027451 0 0 0 0 0.129412 0 0 0 0 0.164706 0 0 0 1 0"/>
<feBlend mode="normal" in2="shape" result="effect1_innerShadow"/>
</filter>
<linearGradient id="paint0_linear" x1="1.96612" y1="-34.9281" x2="10.7038" y2="96.2599" gradientUnits="userSpaceOnUse">
<stop stop-color="#00BCB0"/>
<stop offset="1" stop-color="#F7D542"/>
</linearGradient>
<linearGradient id="paint1_linear" x1="20.5" y1="5.35346" x2="11.7531" y2="59.7395" gradientUnits="userSpaceOnUse">
<stop stop-color="#00BCB0"/>
<stop offset="1" stop-color="#F7D542"/>
</linearGradient>
</defs>
</svg>
