<svg width="22" height="26" viewBox="0 0 22 26" fill="none" xmlns="http://www.w3.org/2000/svg">
<path d="M8.62481 5.76356C8.35041 5.72437 8.33736 5.71129 8.468 5.69823C8.71631 5.65902 9.29129 5.71129 9.6964 5.80277C10.6373 6.02493 11.4867 6.59991 12.3884 7.60617L12.6237 7.88058L12.9634 7.8283C14.4139 7.59305 15.9037 7.77603 17.1451 8.35101C17.4849 8.50783 18.0207 8.82145 18.0861 8.8999C18.1122 8.92599 18.1514 9.09593 18.1775 9.26579C18.269 9.87999 18.2298 10.3374 18.0338 10.6902C17.9293 10.8862 17.9293 10.9385 17.9946 11.1084C18.0469 11.239 18.2037 11.3305 18.3474 11.3305C18.6611 11.3305 18.9877 10.8339 19.1445 10.1413L19.2099 9.86694L19.3275 9.99759C19.994 10.7424 20.5167 11.7748 20.5951 12.5067L20.6213 12.7026L20.5036 12.5328C20.3076 12.2322 20.1246 12.0362 19.8763 11.8663C19.4321 11.5657 18.9616 11.4743 17.7201 11.4089C16.5963 11.3436 15.9559 11.2521 15.3287 11.043C14.2571 10.6902 13.7083 10.2328 12.4407 8.54705C11.8787 7.80221 11.5259 7.39709 11.1731 7.05729C10.4021 6.31242 9.63108 5.92039 8.62481 5.76356Z" fill="url(#paint0_linear)"/>
<path d="M18.3587 7.42266C18.3848 6.92605 18.4501 6.59938 18.5939 6.29882C18.6461 6.1812 18.6984 6.07666 18.7115 6.07666C18.7246 6.07666 18.6984 6.16814 18.6593 6.27268C18.5546 6.56018 18.5416 6.96527 18.6069 7.42266C18.6984 8.01069 18.7376 8.08914 19.3649 8.72944C19.6524 9.03001 19.9921 9.40896 20.1228 9.56584L20.345 9.8533L20.1228 9.64421C19.8484 9.38286 19.2211 8.88625 19.0774 8.82093C18.9859 8.76866 18.9729 8.76866 18.9075 8.83398C18.8552 8.88625 18.8422 8.96469 18.8422 9.34364C18.8291 9.93174 18.7507 10.2976 18.5546 10.6766C18.4501 10.8726 18.437 10.8334 18.5285 10.6113C18.5939 10.4413 18.6069 10.363 18.6069 9.80103C18.6069 8.66412 18.4763 8.38971 17.6792 7.93232C17.4831 7.81473 17.1433 7.6448 16.9473 7.55338C16.7382 7.46188 16.5814 7.38344 16.5945 7.38344C16.6206 7.35734 17.3916 7.57948 17.6922 7.71019C18.1496 7.8931 18.228 7.90615 18.2802 7.8931C18.3195 7.85388 18.3456 7.74934 18.3587 7.42266Z" fill="url(#paint1_linear)"/>
<path d="M9.15832 9.36967C8.60951 8.61177 8.25666 7.43564 8.3351 6.56007L8.3612 6.28564L8.49192 6.31178C8.7271 6.35099 9.13222 6.5078 9.32825 6.62541C9.85096 6.93903 10.0861 7.37025 10.3084 8.44184C10.3737 8.75546 10.4652 9.12136 10.5044 9.23903C10.5697 9.43499 10.818 9.89238 11.0271 10.1799C11.1708 10.389 11.0794 10.4935 10.7526 10.4674C10.2561 10.4151 9.58961 9.95777 9.15832 9.36967Z" fill="url(#paint2_linear)"/>
<path d="M17.6956 15.054C15.1081 14.0086 14.1934 13.1069 14.1934 11.5779C14.1934 11.3558 14.2064 11.1729 14.2064 11.1729C14.2195 11.1729 14.311 11.2512 14.4286 11.3427C14.9513 11.7609 15.5394 11.9439 17.1729 12.179C18.1268 12.3228 18.6757 12.4274 19.1723 12.5972C20.7535 13.1199 21.7336 14.1915 21.9688 15.6421C22.0341 16.0602 21.9949 16.8574 21.8904 17.2756C21.799 17.6023 21.5375 18.2034 21.4722 18.2165C21.4592 18.2165 21.433 18.1511 21.433 18.0466C21.4069 17.4977 21.1325 16.975 20.6751 16.5699C20.1262 16.0994 19.4205 15.7466 17.6956 15.054Z" fill="url(#paint3_linear)"/>
<path d="M15.8657 15.4861C15.8395 15.29 15.7742 15.0417 15.7349 14.9372L15.6696 14.7412L15.7872 14.8849C15.9572 15.0809 16.0878 15.3162 16.2055 15.6429C16.2969 15.8912 16.2969 15.9695 16.2969 16.3747C16.2969 16.7667 16.2838 16.8582 16.2055 17.0804C16.0747 17.4332 15.9179 17.6814 15.6566 17.9559C15.1861 18.4394 14.5719 18.7008 13.6964 18.8183C13.5396 18.8315 13.0952 18.8707 12.7032 18.8968C11.7231 18.9491 11.0697 19.0536 10.4817 19.2627C10.4032 19.2889 10.3249 19.315 10.3117 19.3019C10.2856 19.2757 10.6908 19.0406 11.0174 18.8837C11.4748 18.6615 11.9453 18.5439 12.9776 18.361C13.4873 18.2826 14.01 18.178 14.1407 18.1258C15.4344 17.7207 16.0747 16.7145 15.8657 15.4861Z" fill="url(#paint4_linear)"/>
<path d="M17.0539 17.5899C16.7141 16.8451 16.6358 16.1394 16.8187 15.4729C16.8449 15.4076 16.871 15.3423 16.8971 15.3423C16.9232 15.3423 17.0017 15.3814 17.08 15.4337C17.2369 15.5382 17.5636 15.7212 18.3999 16.1786C19.4584 16.7536 20.0596 17.1979 20.4777 17.7075C20.8436 18.1519 21.0658 18.6615 21.1703 19.2888C21.2357 19.6416 21.1965 20.491 21.105 20.8439C20.8175 21.9547 20.1641 22.8433 19.2101 23.3529C19.0664 23.4313 18.9487 23.4836 18.9357 23.4836C18.9226 23.4836 18.9749 23.3529 19.0533 23.1961C19.3669 22.5297 19.4061 21.8893 19.171 21.1706C19.0272 20.7263 18.7266 20.1905 18.1255 19.2888C17.4067 18.2434 17.2369 17.969 17.0539 17.5899Z" fill="url(#paint5_linear)"/>
<path d="M7.3174 21.589C8.28444 20.7788 9.47363 20.2039 10.5713 20.0209C11.0418 19.9425 11.8258 19.9686 12.2571 20.0862C12.9497 20.2692 13.5769 20.6613 13.9037 21.1447C14.2173 21.6152 14.361 22.0203 14.5048 22.922C14.557 23.2748 14.6224 23.6407 14.6355 23.7191C14.74 24.1896 14.9491 24.5555 15.2105 24.7515C15.6156 25.0521 16.3212 25.0651 17.0138 24.8038C17.1314 24.7646 17.236 24.7253 17.236 24.7385C17.2621 24.7646 16.9093 24.9998 16.674 25.1174C16.3474 25.2873 16.086 25.3395 15.7332 25.3395C15.1059 25.3395 14.5701 25.0129 14.1389 24.3594C14.0474 24.2288 13.8645 23.8498 13.7076 23.4969C13.2503 22.4385 13.015 22.1248 12.4792 21.772C12.0088 21.4714 11.4077 21.4061 10.9503 21.6282C10.3492 21.9158 10.1924 22.6868 10.6105 23.1572C10.7804 23.3532 11.094 23.5101 11.3554 23.5492C11.8389 23.6146 12.2571 23.2356 12.2571 22.7521C12.2571 22.4385 12.1394 22.2555 11.8258 22.1118C11.4077 21.9288 10.9503 22.1379 10.9634 22.543C10.9634 22.7129 11.0418 22.8174 11.2116 22.8959C11.3162 22.9481 11.3162 22.9481 11.2378 22.9351C10.8588 22.8566 10.7674 22.3862 11.0679 22.0856C11.4338 21.7197 12.2048 21.8765 12.4662 22.3862C12.5707 22.5953 12.5838 23.0134 12.4923 23.2748C12.2702 23.8498 11.6429 24.1504 11.0025 23.9805C10.5713 23.8629 10.3883 23.7452 9.86562 23.2095C8.95092 22.2686 8.59807 22.0856 7.29126 21.8896L7.04297 21.8504L7.3174 21.589Z" fill="url(#paint6_linear)"/>
<path fill-rule="evenodd" clip-rule="evenodd" d="M0.444892 0.561924C3.48973 4.26016 8.18114 10.01 8.41632 10.3237C8.61236 10.585 8.53399 10.8333 8.20724 11.0163C8.02433 11.1209 7.64531 11.2254 7.4624 11.2254C7.2533 11.2254 7.00501 11.1209 6.83513 10.9509C6.71752 10.8333 6.20786 10.0885 5.05789 8.29816C4.18233 6.92599 3.43746 5.78911 3.42439 5.77604C3.37212 5.74991 3.37212 5.74991 4.96641 8.59873C5.97264 10.3891 6.29934 11.0294 6.29934 11.1077C6.29934 11.2777 6.24707 11.3692 6.03798 11.6043C5.68515 11.9964 5.52833 12.4407 5.41072 13.3685C5.28004 14.4009 4.9272 15.1327 3.92097 16.3741C3.33291 17.106 3.24144 17.2366 3.09769 17.5372C2.91474 17.9031 2.86246 18.1122 2.83633 18.5826C2.81019 19.0792 2.86246 19.3929 3.00621 19.8633C3.1369 20.2815 3.28064 20.5559 3.63348 21.0917C3.93404 21.5621 4.11699 21.915 4.11699 22.0456C4.11699 22.1502 4.14312 22.1502 4.61358 22.0456C5.73742 21.7843 6.66524 21.34 7.1749 20.7911C7.48849 20.4513 7.56694 20.2684 7.56694 19.798C7.56694 19.4974 7.55389 19.4321 7.47544 19.2491C7.3448 18.9616 7.09649 18.7264 6.5607 18.3605C5.85503 17.877 5.55447 17.4849 5.47606 16.9622C5.41072 16.5179 5.48913 16.2173 5.88117 15.3941C6.28628 14.5446 6.39082 14.1918 6.45616 13.3293C6.49536 12.7805 6.5607 12.5583 6.71752 12.3884C6.8874 12.2055 7.03115 12.1401 7.43622 12.0878C8.1027 11.9964 8.53399 11.8265 8.87371 11.4998C9.17429 11.2254 9.305 10.9509 9.31805 10.5459L9.3311 10.2453L9.16124 10.0623C8.54704 9.3567 0.0397852 0 0.000581273 0C-0.0124867 0 0.1966 0.248291 0.444892 0.561924ZM4.45676 19.1446C4.60051 18.8963 4.5221 18.5826 4.28687 18.4258C4.06472 18.2821 3.72495 18.3474 3.72495 18.5435C3.72495 18.5958 3.75108 18.648 3.8295 18.6741C3.9471 18.7394 3.96018 18.8048 3.8687 18.9485C3.77723 19.0923 3.77723 19.223 3.89483 19.3144C4.07779 19.4582 4.32608 19.3798 4.45676 19.1446Z" fill="url(#paint7_linear)"/>
<path fill-rule="evenodd" clip-rule="evenodd" d="M9.74795 12.2707C9.43433 12.3622 9.13375 12.702 9.04226 13.0417C8.98999 13.2508 9.01616 13.6298 9.10758 13.7474C9.25134 13.9304 9.38206 13.9827 9.74795 13.9827C10.4667 13.9827 11.0809 13.669 11.1462 13.29C11.2115 12.9764 10.9371 12.5452 10.5582 12.3491C10.3622 12.2446 9.95704 12.2054 9.74795 12.2707ZM10.5843 12.9241C10.6888 12.7673 10.6496 12.5974 10.4536 12.4798C10.1008 12.2576 9.56497 12.4406 9.56497 12.7804C9.56497 12.9503 9.83944 13.1332 10.1008 13.1332C10.2707 13.1332 10.5059 13.0287 10.5843 12.9241Z" fill="url(#paint8_linear)"/>
<defs>
<linearGradient id="paint0_linear" x1="8.3877" y1="1.13199" x2="6.52897" y2="17.2406" gradientUnits="userSpaceOnUse">
<stop stop-color="#00BCB0"/>
<stop offset="1" stop-color="#F7D542"/>
</linearGradient>
<linearGradient id="paint1_linear" x1="16.5937" y1="3.01005" x2="13.9755" y2="13.3405" gradientUnits="userSpaceOnUse">
<stop stop-color="#00BCB0"/>
<stop offset="1" stop-color="#F7D542"/>
</linearGradient>
<linearGradient id="paint2_linear" x1="8.32422" y1="3.56994" x2="5.61417" y2="12.4818" gradientUnits="userSpaceOnUse">
<stop stop-color="#00BCB0"/>
<stop offset="1" stop-color="#F7D542"/>
</linearGradient>
<linearGradient id="paint3_linear" x1="14.1934" y1="6.6029" x2="11.315" y2="22.4641" gradientUnits="userSpaceOnUse">
<stop stop-color="#00BCB0"/>
<stop offset="1" stop-color="#F7D542"/>
</linearGradient>
<linearGradient id="paint4_linear" x1="10.3105" y1="11.7799" x2="8.71979" y2="22.1523" gradientUnits="userSpaceOnUse">
<stop stop-color="#00BCB0"/>
<stop offset="1" stop-color="#F7D542"/>
</linearGradient>
<linearGradient id="paint5_linear" x1="16.7227" y1="10.0601" x2="10.6165" y2="26.765" gradientUnits="userSpaceOnUse">
<stop stop-color="#00BCB0"/>
<stop offset="1" stop-color="#F7D542"/>
</linearGradient>
<linearGradient id="paint6_linear" x1="7.04297" y1="16.4962" x2="5.7373" y2="28.8336" gradientUnits="userSpaceOnUse">
<stop stop-color="#00BCB0"/>
<stop offset="1" stop-color="#F7D542"/>
</linearGradient>
<linearGradient id="paint7_linear" x1="-1.90893e-07" y1="-14.3543" x2="-19.9952" y2="27.5705" gradientUnits="userSpaceOnUse">
<stop stop-color="#00BCB0"/>
<stop offset="1" stop-color="#F7D542"/>
</linearGradient>
<linearGradient id="paint8_linear" x1="9.01562" y1="11.1073" x2="8.36818" y2="15.0575" gradientUnits="userSpaceOnUse">
<stop stop-color="#00BCB0"/>
<stop offset="1" stop-color="#F7D542"/>
</linearGradient>
</defs>
</svg>
