<svg width="158" height="210" viewBox="0 0 158 210" fill="none" xmlns="http://www.w3.org/2000/svg">
<path d="M127.201 101.195C142.963 91.5106 150.82 77.0329 150.82 57.7129C150.82 40.4682 144.643 26.5341 132.34 15.9106C120.036 5.28706 103.829 0 83.8172 0H0.014842V26.3365C0.014842 35.3294 1.29955 43.4329 10.0454 45.6071C11.5772 46.0024 13.0595 46.1506 14.2948 46.1012C21.6572 45.6071 69.2407 32.4141 82.3348 31.6729C85.3984 31.5247 88.3137 33.2541 89.549 36.0706C90.8831 38.9859 92.909 42.5929 95.2807 43.3835C99.3819 44.7671 119.937 42.4447 122.408 51.3388C124.78 59.9859 121.222 69.8188 116.627 72.3388L112.229 79.9977L107.881 75.0071C107.732 75.0071 107.634 75.0071 107.485 75.0565L103.384 82.1718L99.036 77.1812C98.789 77.1812 98.7395 77.2306 98.4925 77.2306L94.2925 84.5929L89.8454 79.5035C89.6972 79.5035 89.6478 79.5035 89.4995 79.5529L80.9513 82.2212C77.3937 83.4565 74.9725 84.6423 74.8243 85.6306C74.676 86.52 76.3066 88.5953 78.9254 91.2141L85.1513 97.0941C85.2501 97.2423 85.2995 97.2918 85.3984 97.44L93.6007 96.9953L91.8219 103.122C92.0195 103.369 92.1184 103.468 92.316 103.715L100.568 103.271L98.789 109.398C98.9866 109.645 99.0854 109.793 99.2831 110.04L107.584 109.595L105.657 116.365C106.25 117.106 106.596 117.699 106.645 118.094C107.436 122.442 104.076 128.372 92.5631 127.384C81.0501 126.395 83.076 117.649 57.4807 125.358C33.6148 132.572 18.396 142.948 8.26661 163.998C-0.726335 182.527 0.014842 210 0.014842 210C0.014842 210 51.8478 210 64.2501 210H88.8572C110.302 210 127.151 206.788 139.405 196.066C151.66 185.344 157.836 170.52 157.836 151.447C157.836 128.668 147.608 111.918 127.201 101.195Z" fill="#1788FB"/>
</svg>
