<svg width="687" height="109" viewBox="0 0 687 109" fill="none" xmlns="http://www.w3.org/2000/svg">
<path fill-rule="evenodd" clip-rule="evenodd" d="M225.216 107V0.151978H202.752V107H225.216ZM23.328 107V79.208H43.632C52.56 79.208 60.312 77.744 66.888 74.816C73.464 71.888 78.528 67.664 82.08 62.144C85.632 56.624 87.408 50.168 87.408 42.776C87.408 35.288 85.632 28.808 82.08 23.336C78.528 17.864 73.464 13.64 66.888 10.664C60.312 7.68798 52.56 6.19998 43.632 6.19998H0V107H23.328ZM42.336 60.2H23.328V25.208H42.336C49.344 25.208 54.672 26.72 58.32 29.744C61.968 32.768 63.792 37.112 63.792 42.776C63.792 48.344 61.968 52.64 58.32 55.664C54.672 58.688 49.344 60.2 42.336 60.2ZM149.904 105.488C145.776 107.264 141.312 108.152 136.512 108.152C126.336 108.152 118.272 105.224 112.32 99.368C106.368 93.512 103.392 84.824 103.392 73.304V29.528H125.856V69.992C125.856 82.472 131.088 88.712 141.552 88.712C146.928 88.712 151.248 86.96 154.512 83.456C157.776 79.952 159.408 74.744 159.408 67.832V29.528H181.872V107H160.56V97.784C157.584 101.144 154.032 103.712 149.904 105.488ZM291.816 105.056C286.296 107.12 279.744 108.152 272.16 108.152C265.728 108.152 259.44 107.36 253.296 105.776C247.152 104.192 242.256 102.2 238.608 99.8L246.096 83.672C249.552 85.88 253.728 87.68 258.624 89.072C263.52 90.464 268.32 91.16 273.024 91.16C282.528 91.16 287.28 88.808 287.28 84.104C287.28 81.896 285.984 80.312 283.392 79.352C280.8 78.392 276.816 77.576 271.44 76.904C265.104 75.944 259.872 74.84 255.744 73.592C251.616 72.344 248.04 70.136 245.016 66.968C241.992 63.8 240.48 59.288 240.48 53.432C240.48 48.536 241.896 44.192 244.728 40.4C247.56 36.608 251.688 33.656 257.112 31.544C262.536 29.432 268.944 28.376 276.336 28.376C281.808 28.376 287.256 28.976 292.68 30.176C298.104 31.376 302.592 33.032 306.144 35.144L298.656 51.128C291.84 47.288 284.4 45.368 276.336 45.368C271.536 45.368 267.936 46.04 265.536 47.384C263.136 48.728 261.936 50.456 261.936 52.568C261.936 54.968 263.232 56.648 265.824 57.608C268.416 58.568 272.544 59.48 278.208 60.344C284.544 61.4 289.728 62.528 293.76 63.728C297.792 64.928 301.296 67.112 304.272 70.28C307.248 73.448 308.736 77.864 308.736 83.528C308.736 88.328 307.296 92.6 304.416 96.344C301.536 100.088 297.336 102.992 291.816 105.056ZM361.008 108.152C375.024 108.152 385.68 103.976 392.976 95.624L381.024 82.664C378.336 85.256 375.432 87.152 372.312 88.352C369.192 89.552 365.616 90.152 361.584 90.152C355.728 90.152 350.832 88.76 346.896 85.976C342.96 83.192 340.464 79.4 339.408 74.6H398.016C398.304 70.856 398.448 68.84 398.448 68.552C398.448 60.488 396.696 53.408 393.192 47.312C389.688 41.216 384.864 36.536 378.72 33.272C372.576 30.008 365.712 28.376 358.128 28.376C350.352 28.376 343.32 30.08 337.032 33.488C330.744 36.896 325.8 41.648 322.2 47.744C318.6 53.84 316.8 60.68 316.8 68.264C316.8 75.944 318.624 82.808 322.272 88.856C325.92 94.904 331.104 99.632 337.824 103.04C344.544 106.448 352.272 108.152 361.008 108.152ZM339.12 61.496H377.28C376.512 56.6 374.4 52.688 370.944 49.76C367.488 46.832 363.264 45.368 358.272 45.368C353.184 45.368 348.912 46.808 345.456 49.688C342 52.568 339.888 56.504 339.12 61.496ZM438.336 107V79.208H458.64C467.568 79.208 475.32 77.744 481.896 74.816C488.472 71.888 493.536 67.664 497.088 62.144C500.64 56.624 502.416 50.168 502.416 42.776C502.416 35.288 500.64 28.808 497.088 23.336C493.536 17.864 488.472 13.64 481.896 10.664C475.32 7.68798 467.568 6.19998 458.64 6.19998H415.008V107H438.336ZM438.336 60.2H457.344C464.352 60.2 469.68 58.688 473.328 55.664C476.976 52.64 478.8 48.344 478.8 42.776C478.8 37.112 476.976 32.768 473.328 29.744C469.68 26.72 464.352 25.208 457.344 25.208H438.336V60.2ZM542.736 108.152C554.256 108.152 562.128 104.552 566.352 97.352V107H587.376V62.792C587.376 51.272 584.16 42.656 577.728 36.944C571.296 31.232 562.08 28.376 550.08 28.376C543.84 28.376 537.768 29.192 531.864 30.824C525.96 32.456 520.896 34.76 516.672 37.736L524.736 53.432C527.52 51.224 530.904 49.472 534.888 48.176C538.872 46.88 542.928 46.232 547.056 46.232C553.008 46.232 557.472 47.552 560.448 50.192C563.424 52.832 564.912 56.6 564.912 61.496H547.056C535.728 61.496 527.352 63.56 521.928 67.688C516.504 71.816 513.792 77.48 513.792 84.68C513.792 89.192 514.944 93.224 517.248 96.776C519.552 100.328 522.888 103.112 527.256 105.128C531.624 107.144 536.784 108.152 542.736 108.152ZM539.064 90.512C541.32 92.192 544.416 93.032 548.352 93.032C552.192 93.032 555.6 92.144 558.576 90.368C561.552 88.592 563.664 85.976 564.912 82.52V74.6H549.504C540.288 74.6 535.68 77.624 535.68 83.672C535.68 86.552 536.808 88.832 539.064 90.512ZM640.944 108.152C651.504 108.152 659.568 104.792 665.136 98.072V107H686.592V0.151978H664.128V37.736C658.56 31.496 650.832 28.376 640.944 28.376C633.648 28.376 627.048 30.008 621.144 33.272C615.24 36.536 610.608 41.192 607.248 47.24C603.888 53.288 602.208 60.296 602.208 68.264C602.208 76.232 603.888 83.24 607.248 89.288C610.608 95.336 615.24 99.992 621.144 103.256C627.048 106.52 633.648 108.152 640.944 108.152ZM630.576 83.888C634.32 87.776 639.072 89.72 644.832 89.72C650.496 89.72 655.2 87.776 658.944 83.888C662.688 80 664.56 74.792 664.56 68.264C664.56 61.736 662.688 56.528 658.944 52.64C655.2 48.752 650.496 46.808 644.832 46.808C639.072 46.808 634.32 48.752 630.576 52.64C626.832 56.528 624.96 61.736 624.96 68.264C624.96 74.792 626.832 80 630.576 83.888Z" fill="#00001E"/>
<mask id="mask0" style="mask-type:alpha" maskUnits="userSpaceOnUse" x="0" y="0" width="687" height="109">
<path fill-rule="evenodd" clip-rule="evenodd" d="M225.216 107V0.151978H202.752V107H225.216ZM23.328 107V79.208H43.632C52.56 79.208 60.312 77.744 66.888 74.816C73.464 71.888 78.528 67.664 82.08 62.144C85.632 56.624 87.408 50.168 87.408 42.776C87.408 35.288 85.632 28.808 82.08 23.336C78.528 17.864 73.464 13.64 66.888 10.664C60.312 7.68798 52.56 6.19998 43.632 6.19998H0V107H23.328ZM42.336 60.2H23.328V25.208H42.336C49.344 25.208 54.672 26.72 58.32 29.744C61.968 32.768 63.792 37.112 63.792 42.776C63.792 48.344 61.968 52.64 58.32 55.664C54.672 58.688 49.344 60.2 42.336 60.2ZM149.904 105.488C145.776 107.264 141.312 108.152 136.512 108.152C126.336 108.152 118.272 105.224 112.32 99.368C106.368 93.512 103.392 84.824 103.392 73.304V29.528H125.856V69.992C125.856 82.472 131.088 88.712 141.552 88.712C146.928 88.712 151.248 86.96 154.512 83.456C157.776 79.952 159.408 74.744 159.408 67.832V29.528H181.872V107H160.56V97.784C157.584 101.144 154.032 103.712 149.904 105.488ZM291.816 105.056C286.296 107.12 279.744 108.152 272.16 108.152C265.728 108.152 259.44 107.36 253.296 105.776C247.152 104.192 242.256 102.2 238.608 99.8L246.096 83.672C249.552 85.88 253.728 87.68 258.624 89.072C263.52 90.464 268.32 91.16 273.024 91.16C282.528 91.16 287.28 88.808 287.28 84.104C287.28 81.896 285.984 80.312 283.392 79.352C280.8 78.392 276.816 77.576 271.44 76.904C265.104 75.944 259.872 74.84 255.744 73.592C251.616 72.344 248.04 70.136 245.016 66.968C241.992 63.8 240.48 59.288 240.48 53.432C240.48 48.536 241.896 44.192 244.728 40.4C247.56 36.608 251.688 33.656 257.112 31.544C262.536 29.432 268.944 28.376 276.336 28.376C281.808 28.376 287.256 28.976 292.68 30.176C298.104 31.376 302.592 33.032 306.144 35.144L298.656 51.128C291.84 47.288 284.4 45.368 276.336 45.368C271.536 45.368 267.936 46.04 265.536 47.384C263.136 48.728 261.936 50.456 261.936 52.568C261.936 54.968 263.232 56.648 265.824 57.608C268.416 58.568 272.544 59.48 278.208 60.344C284.544 61.4 289.728 62.528 293.76 63.728C297.792 64.928 301.296 67.112 304.272 70.28C307.248 73.448 308.736 77.864 308.736 83.528C308.736 88.328 307.296 92.6 304.416 96.344C301.536 100.088 297.336 102.992 291.816 105.056ZM361.008 108.152C375.024 108.152 385.68 103.976 392.976 95.624L381.024 82.664C378.336 85.256 375.432 87.152 372.312 88.352C369.192 89.552 365.616 90.152 361.584 90.152C355.728 90.152 350.832 88.76 346.896 85.976C342.96 83.192 340.464 79.4 339.408 74.6H398.016C398.304 70.856 398.448 68.84 398.448 68.552C398.448 60.488 396.696 53.408 393.192 47.312C389.688 41.216 384.864 36.536 378.72 33.272C372.576 30.008 365.712 28.376 358.128 28.376C350.352 28.376 343.32 30.08 337.032 33.488C330.744 36.896 325.8 41.648 322.2 47.744C318.6 53.84 316.8 60.68 316.8 68.264C316.8 75.944 318.624 82.808 322.272 88.856C325.92 94.904 331.104 99.632 337.824 103.04C344.544 106.448 352.272 108.152 361.008 108.152ZM339.12 61.496H377.28C376.512 56.6 374.4 52.688 370.944 49.76C367.488 46.832 363.264 45.368 358.272 45.368C353.184 45.368 348.912 46.808 345.456 49.688C342 52.568 339.888 56.504 339.12 61.496ZM438.336 107V79.208H458.64C467.568 79.208 475.32 77.744 481.896 74.816C488.472 71.888 493.536 67.664 497.088 62.144C500.64 56.624 502.416 50.168 502.416 42.776C502.416 35.288 500.64 28.808 497.088 23.336C493.536 17.864 488.472 13.64 481.896 10.664C475.32 7.68798 467.568 6.19998 458.64 6.19998H415.008V107H438.336ZM438.336 60.2H457.344C464.352 60.2 469.68 58.688 473.328 55.664C476.976 52.64 478.8 48.344 478.8 42.776C478.8 37.112 476.976 32.768 473.328 29.744C469.68 26.72 464.352 25.208 457.344 25.208H438.336V60.2ZM542.736 108.152C554.256 108.152 562.128 104.552 566.352 97.352V107H587.376V62.792C587.376 51.272 584.16 42.656 577.728 36.944C571.296 31.232 562.08 28.376 550.08 28.376C543.84 28.376 537.768 29.192 531.864 30.824C525.96 32.456 520.896 34.76 516.672 37.736L524.736 53.432C527.52 51.224 530.904 49.472 534.888 48.176C538.872 46.88 542.928 46.232 547.056 46.232C553.008 46.232 557.472 47.552 560.448 50.192C563.424 52.832 564.912 56.6 564.912 61.496H547.056C535.728 61.496 527.352 63.56 521.928 67.688C516.504 71.816 513.792 77.48 513.792 84.68C513.792 89.192 514.944 93.224 517.248 96.776C519.552 100.328 522.888 103.112 527.256 105.128C531.624 107.144 536.784 108.152 542.736 108.152ZM539.064 90.512C541.32 92.192 544.416 93.032 548.352 93.032C552.192 93.032 555.6 92.144 558.576 90.368C561.552 88.592 563.664 85.976 564.912 82.52V74.6H549.504C540.288 74.6 535.68 77.624 535.68 83.672C535.68 86.552 536.808 88.832 539.064 90.512ZM640.944 108.152C651.504 108.152 659.568 104.792 665.136 98.072V107H686.592V0.151978H664.128V37.736C658.56 31.496 650.832 28.376 640.944 28.376C633.648 28.376 627.048 30.008 621.144 33.272C615.24 36.536 610.608 41.192 607.248 47.24C603.888 53.288 602.208 60.296 602.208 68.264C602.208 76.232 603.888 83.24 607.248 89.288C610.608 95.336 615.24 99.992 621.144 103.256C627.048 106.52 633.648 108.152 640.944 108.152ZM630.576 83.888C634.32 87.776 639.072 89.72 644.832 89.72C650.496 89.72 655.2 87.776 658.944 83.888C662.688 80 664.56 74.792 664.56 68.264C664.56 61.736 662.688 56.528 658.944 52.64C655.2 48.752 650.496 46.808 644.832 46.808C639.072 46.808 634.32 48.752 630.576 52.64C626.832 56.528 624.96 61.736 624.96 68.264C624.96 74.792 626.832 80 630.576 83.888Z" fill="white"/>
</mask>
<g mask="url(#mask0)">
<g filter="url(#filter0_f)">
<circle cx="595.504" cy="81" r="129" fill="#D102A7"/>
</g>
<g filter="url(#filter1_f)">
<circle cx="334.504" cy="-5.00002" r="129" fill="#C164FF"/>
</g>
<g filter="url(#filter2_f)">
<circle cx="693.504" cy="-21" r="129" fill="#FF6464"/>
</g>
<g filter="url(#filter3_f)">
<circle cx="156.504" cy="161" r="129" fill="#029ED1"/>
</g>
<g filter="url(#filter4_f)">
<circle cx="-6.49609" cy="-9.00002" r="129" fill="#02D1BB"/>
</g>
</g>
<defs>
<filter id="filter0_f" x="330.59" y="-183.914" width="529.828" height="529.828" filterUnits="userSpaceOnUse" color-interpolation-filters="sRGB">
<feFlood flood-opacity="0" result="BackgroundImageFix"/>
<feBlend mode="normal" in="SourceGraphic" in2="BackgroundImageFix" result="shape"/>
<feGaussianBlur stdDeviation="67.957" result="effect1_foregroundBlur"/>
</filter>
<filter id="filter1_f" x="69.5898" y="-269.914" width="529.828" height="529.828" filterUnits="userSpaceOnUse" color-interpolation-filters="sRGB">
<feFlood flood-opacity="0" result="BackgroundImageFix"/>
<feBlend mode="normal" in="SourceGraphic" in2="BackgroundImageFix" result="shape"/>
<feGaussianBlur stdDeviation="67.957" result="effect1_foregroundBlur"/>
</filter>
<filter id="filter2_f" x="428.59" y="-285.914" width="529.828" height="529.828" filterUnits="userSpaceOnUse" color-interpolation-filters="sRGB">
<feFlood flood-opacity="0" result="BackgroundImageFix"/>
<feBlend mode="normal" in="SourceGraphic" in2="BackgroundImageFix" result="shape"/>
<feGaussianBlur stdDeviation="67.957" result="effect1_foregroundBlur"/>
</filter>
<filter id="filter3_f" x="-108.41" y="-103.914" width="529.828" height="529.828" filterUnits="userSpaceOnUse" color-interpolation-filters="sRGB">
<feFlood flood-opacity="0" result="BackgroundImageFix"/>
<feBlend mode="normal" in="SourceGraphic" in2="BackgroundImageFix" result="shape"/>
<feGaussianBlur stdDeviation="67.957" result="effect1_foregroundBlur"/>
</filter>
<filter id="filter4_f" x="-271.41" y="-273.914" width="529.828" height="529.828" filterUnits="userSpaceOnUse" color-interpolation-filters="sRGB">
<feFlood flood-opacity="0" result="BackgroundImageFix"/>
<feBlend mode="normal" in="SourceGraphic" in2="BackgroundImageFix" result="shape"/>
<feGaussianBlur stdDeviation="67.957" result="effect1_foregroundBlur"/>
</filter>
</defs>
</svg>
