<svg width="31" height="37" viewBox="0 0 31 37" fill="none" xmlns="http://www.w3.org/2000/svg">
<circle cx="15.187" cy="21.4599" r="11.3303" fill="white"/>
<path d="M15.187 6.45993C6.90273 6.45993 0.187012 13.1757 0.187012 21.4599C0.187012 29.7442 6.90273 36.4599 15.187 36.4599C23.4713 36.4599 30.187 29.7442 30.187 21.4599C30.187 13.1757 23.4713 6.45993 15.187 6.45993ZM22.9834 15.9484L20.3193 28.667C20.2871 28.8208 20.2167 28.9641 20.1146 29.0836C20.0126 29.2031 19.8821 29.2951 19.7353 29.3511C19.5884 29.407 19.4298 29.4252 19.2741 29.4039C19.1184 29.3825 18.9705 29.3224 18.8441 29.229L14.9689 26.3661L12.6212 28.5809C12.5905 28.6099 12.5543 28.6325 12.5147 28.6474C12.4752 28.6622 12.433 28.669 12.3908 28.6674C12.3486 28.6658 12.3071 28.6558 12.2688 28.638C12.2305 28.6202 12.1961 28.595 12.1677 28.5637L12.1172 28.5083L12.5252 24.5605L19.8777 17.8427C19.9141 17.8095 19.9367 17.7639 19.9411 17.7149C19.9455 17.6659 19.9314 17.617 19.9015 17.5779C19.8716 17.5388 19.8282 17.5123 19.7797 17.5036C19.7313 17.495 19.6814 17.5048 19.6398 17.5312L10.2367 23.4825L6.18701 22.1225C6.07933 22.0863 5.98548 22.0177 5.91834 21.926C5.8512 21.8344 5.81405 21.7243 5.812 21.6107C5.80994 21.4971 5.84308 21.3857 5.90687 21.2917C5.97065 21.1977 6.06196 21.1257 6.16826 21.0857L22.0132 15.1168C22.1354 15.0708 22.2677 15.0585 22.3964 15.0811C22.525 15.1038 22.6451 15.1606 22.7443 15.2456C22.8435 15.3306 22.918 15.4406 22.96 15.5642C23.0021 15.6879 23.0102 15.8205 22.9834 15.9484Z" fill="#0A79A3"/>
<rect x="3.24072" y="0.399902" width="24.4579" height="11.6" rx="5.8" fill="white"/>
<path d="M10.6647 7.7999H8.06472L7.56872 8.9999H6.24072L8.73672 3.3999H10.0167L12.5207 8.9999H11.1607L10.6647 7.7999ZM10.2567 6.8159L9.36872 4.6719L8.48072 6.8159H10.2567Z" fill="#0A79A3"/>
<path d="M18.2377 3.3999V8.9999H17.1737L14.3817 5.5999V8.9999H13.1017V3.3999H14.1737L16.9577 6.7999V3.3999H18.2377Z" fill="#0A79A3"/>
<path d="M24.6987 3.3999V8.9999H23.6347L20.8427 5.5999V8.9999H19.5627V3.3999H20.6347L23.4187 6.7999V3.3999H24.6987Z" fill="#0A79A3"/>
</svg>
