<svg width="30" height="30" viewBox="0 0 30 30" fill="none" xmlns="http://www.w3.org/2000/svg">
<circle cx="15" cy="15" r="12.7332" fill="white"/>
<path fill-rule="evenodd" clip-rule="evenodd" d="M15 0C6.71575 0 0 6.71575 0 15C0 23.2843 6.71575 30 15 30C23.2843 30 30 23.2843 30 15C30 6.71575 23.2843 0 15 0ZM14.5823 12.7113L14.5508 12.1922C14.4563 10.8469 15.2852 9.61825 16.5968 9.14157C17.0794 8.97207 17.8978 8.95088 18.4329 9.09919C18.6427 9.16275 19.0414 9.37457 19.3247 9.56525L19.8388 9.91482L20.4054 9.73475C20.7202 9.63938 21.1399 9.4805 21.3287 9.37457C21.5071 9.27925 21.6644 9.22632 21.6644 9.25807C21.6644 9.43813 21.2763 10.0525 20.951 10.3915C20.5103 10.8681 20.6363 10.9105 21.5281 10.5928C22.0632 10.4127 22.0736 10.4127 21.9688 10.6139C21.9058 10.7198 21.5805 11.0906 21.2343 11.4296C20.6467 12.0121 20.6153 12.0757 20.6153 12.5629C20.6153 13.315 20.2585 14.8827 19.9018 15.7407C19.2408 17.3508 17.8243 19.0138 16.4079 19.8506C14.4144 21.0264 11.7598 21.3229 9.525 20.6344C8.78006 20.4014 7.5 19.8083 7.5 19.7023C7.5 19.6705 7.88819 19.6282 8.36038 19.6176C9.34663 19.5964 10.3329 19.321 11.1723 18.8337L11.7389 18.4948L11.0883 18.2723C10.165 17.9546 9.33613 17.2236 9.12631 16.5351C9.06331 16.3127 9.08431 16.3021 9.67188 16.3021L10.2804 16.2915L9.76631 16.0479C9.15775 15.7407 8.60169 15.2217 8.32887 14.6921C8.12956 14.3107 7.87775 13.3468 7.95119 13.2726C7.97213 13.2409 8.1925 13.3044 8.44431 13.3892C9.16825 13.654 9.26269 13.5904 8.843 13.1455C8.05606 12.3405 7.81475 11.1436 8.1925 10.0101L8.37088 9.50169L9.06331 10.1902C10.4798 11.5778 12.1481 12.4041 14.0576 12.6477L14.5823 12.7113Z" fill="#AB1A83"/>
</svg>
