<svg width="30" height="30" viewBox="0 0 30 30" fill="none" xmlns="http://www.w3.org/2000/svg">
<circle cx="15" cy="15" r="12.7332" fill="white"/>
<path fill-rule="evenodd" clip-rule="evenodd" d="M15 0.0292969C23.2682 0.0292969 29.9707 6.73184 29.9707 15C29.9707 23.2682 23.2682 29.9707 15 29.9707C6.73184 29.9707 0.0292969 23.2682 0.0292969 15C0.0292969 6.73184 6.73184 0.0292969 15 0.0292969ZM10.6025 9.3498C13.7232 9.3498 16.2527 11.8799 16.2527 15C16.2527 18.1201 13.7232 20.6502 10.6025 20.6502C7.48242 20.6502 4.95293 18.1201 4.95293 15C4.95293 11.8799 7.48242 9.3498 10.6025 9.3498ZM19.643 9.79629C21.2221 9.79629 22.5018 12.126 22.5018 15C22.5018 17.874 21.2221 20.2037 19.643 20.2037C18.0639 20.2037 16.7842 17.874 16.7842 15C16.7842 12.126 18.0639 9.79629 19.643 9.79629ZM24.0516 10.2422C24.6012 10.2422 25.0471 12.3721 25.0471 15C25.0471 17.6279 24.6012 19.7578 24.0516 19.7578C23.5014 19.7578 23.0555 17.6279 23.0555 15C23.0555 12.3721 23.5014 10.2422 24.0516 10.2422Z" fill="#E85069"/>
</svg>
