<svg width="366" height="234" viewBox="0 0 366 234" fill="none" xmlns="http://www.w3.org/2000/svg">
<mask id="mask0" style="mask-type:alpha" maskUnits="userSpaceOnUse" x="0" y="0" width="366" height="234">
<rect width="366" height="234" fill="url(#paint0_linear)"/>
</mask>
<g mask="url(#mask0)">
<path fill-rule="evenodd" clip-rule="evenodd" d="M201.961 43.348L202.623 43.346L203.038 43.347L203.042 42.266L202.623 42.265L201.957 42.267L201.961 43.348ZM206.271 43.385L206.294 42.304L205.21 42.285L205.194 43.366L206.271 43.385ZM198.728 43.391L199.805 43.37L199.787 42.289L198.702 42.31L198.728 43.391ZM209.5 43.484L209.545 42.404L208.462 42.364L208.425 43.444L209.5 43.484ZM195.495 43.495L196.572 43.453L196.535 42.373L195.45 42.415L195.495 43.495ZM212.728 43.645L212.792 42.566L211.709 42.506L211.652 43.585L212.728 43.645ZM192.264 43.66L193.341 43.598L193.282 42.519L192.197 42.581L192.264 43.66ZM215.949 43.867L216.035 42.79L214.954 42.708L214.876 43.786L215.949 43.867ZM189.037 43.887L190.112 43.805L190.034 42.727L188.951 42.81L189.037 43.887ZM219.167 44.151L219.272 43.075L218.193 42.973L218.096 44.049L219.167 44.151ZM185.814 44.177L186.889 44.073L186.787 42.997L185.707 43.102L185.814 44.177ZM222.377 44.497L222.504 43.424L221.428 43.301L221.309 44.375L222.377 44.497ZM182.596 44.529L183.668 44.405L183.547 43.331L182.467 43.456L182.596 44.529ZM225.577 44.906L225.726 43.836L224.652 43.691L224.512 44.762L225.577 44.906ZM179.385 44.946L180.455 44.8L180.312 43.729L179.236 43.876L179.385 44.946ZM228.77 45.38L228.939 44.312L227.87 44.146L227.708 45.214L228.77 45.38ZM176.185 45.426L177.251 45.259L177.087 44.191L176.013 44.359L176.185 45.426ZM231.949 45.918L232.141 44.855L231.074 44.666L230.891 45.732L231.949 45.918ZM172.993 45.973L174.056 45.783L173.87 44.719L172.8 44.909L172.993 45.973ZM235.117 46.522L235.33 45.462L234.27 45.253L234.063 46.313L235.117 46.522ZM169.812 46.586L170.871 46.374L170.662 45.314L169.597 45.526L169.812 46.586ZM238.27 47.193L238.506 46.139L237.449 45.906L237.221 46.963L238.27 47.193ZM166.646 47.268L167.7 47.033L167.47 45.977L166.407 46.213L166.646 47.268ZM241.406 47.932L241.666 46.883L240.615 46.627L240.363 47.678L241.406 47.932ZM163.494 48.019L164.544 47.76L164.288 46.71L163.231 46.97L163.494 48.019ZM244.524 48.742L244.81 47.699C244.462 47.604 244.113 47.511 243.765 47.42L243.489 48.464L244.524 48.742ZM160.361 48.841L161.405 48.558L161.126 47.514L160.074 47.799L160.361 48.841ZM247.622 49.623L247.931 48.587L246.892 48.283L246.593 49.322L247.622 49.623ZM157.252 49.735L158.283 49.429L157.98 48.391L156.939 48.7L157.252 49.735ZM250.707 50.582L251.039 49.553L250.005 49.223L249.681 50.254L250.707 50.582ZM154.17 50.702L155.194 50.371L154.866 49.341L153.834 49.674L154.17 50.702ZM253.767 51.615L254.126 50.596L253.101 50.239L252.749 51.262L253.767 51.615ZM151.115 51.745L152.13 51.389L151.776 50.367L150.752 50.727L151.115 51.745ZM256.796 52.728L257.183 51.718L256.167 51.336L255.79 52.348L256.796 52.728ZM148.085 52.867L149.093 52.484L148.712 51.472L147.698 51.858L148.085 52.867ZM259.796 53.921L260.21 52.922C259.876 52.784 259.54 52.647 259.204 52.511L258.8 53.514C259.134 53.648 259.466 53.784 259.796 53.921ZM145.091 54.07L146.087 53.66L145.679 52.659L144.675 53.072L145.091 54.07ZM262.76 55.197L263.201 54.211C262.871 54.063 262.541 53.917 262.207 53.771L261.775 54.762C262.105 54.906 262.434 55.051 262.76 55.197ZM142.132 55.356L143.115 54.918L142.68 53.928L141.688 54.37L142.132 55.356ZM265.685 56.559L266.155 55.586C265.829 55.429 265.503 55.273 265.175 55.118L264.714 56.096C265.038 56.249 265.362 56.403 265.685 56.559ZM139.212 56.729C139.533 56.571 139.856 56.416 140.181 56.261L139.716 55.285C139.389 55.441 139.062 55.599 138.737 55.757L139.212 56.729ZM268.565 58.009L269.067 57.052C268.747 56.884 268.425 56.718 268.102 56.553L267.611 57.516C267.931 57.679 268.249 57.843 268.565 58.009ZM136.337 58.19C136.653 58.022 136.971 57.857 137.29 57.693L136.796 56.731C136.473 56.898 136.151 57.065 135.831 57.235L136.337 58.19ZM271.398 59.551L271.93 58.61C271.615 58.432 271.299 58.255 270.981 58.08L270.459 59.026C270.773 59.2 271.086 59.375 271.398 59.551ZM133.512 59.743C133.821 59.566 134.134 59.389 134.447 59.215L133.922 58.27C133.605 58.447 133.288 58.625 132.975 58.804L133.512 59.743ZM274.176 61.187L274.74 60.266C274.433 60.077 274.122 59.889 273.81 59.703L273.257 60.632C273.565 60.815 273.872 61.001 274.176 61.187ZM130.74 61.391C131.043 61.203 131.349 61.017 131.656 60.831L131.1 59.905C130.786 60.093 130.477 60.282 130.17 60.472L130.74 61.391ZM276.892 62.921L277.489 62.021C277.188 61.82 276.886 61.621 276.579 61.424L275.993 62.332C276.296 62.527 276.595 62.724 276.892 62.921ZM128.033 63.135C128.328 62.937 128.627 62.739 128.928 62.542L128.336 61.638C128.031 61.838 127.729 62.038 127.43 62.239L128.033 63.135ZM279.536 64.757L280.171 63.882C279.879 63.67 279.583 63.459 279.284 63.249L278.663 64.134C278.958 64.341 279.248 64.548 279.536 64.757ZM125.395 64.985C125.684 64.774 125.974 64.565 126.267 64.357L125.64 63.476C125.343 63.687 125.049 63.9 124.758 64.112L125.395 64.985ZM282.103 66.701L282.772 65.854C282.489 65.63 282.203 65.406 281.914 65.184L281.256 66.041C281.541 66.26 281.823 66.48 282.103 66.701ZM122.843 66.941C123.119 66.718 123.4 66.497 123.683 66.277L123.021 65.423C122.731 65.648 122.445 65.873 122.165 66.099L122.843 66.941ZM284.577 68.757L285.286 67.941C285.014 67.704 284.738 67.468 284.46 67.233L283.763 68.059C284.037 68.29 284.309 68.523 284.577 68.757ZM120.378 69.01C120.645 68.775 120.915 68.541 121.189 68.307L120.485 67.486C120.208 67.723 119.934 67.961 119.663 68.2L120.378 69.01ZM286.946 70.928L287.696 70.15C287.437 69.9 287.173 69.649 286.906 69.401L286.168 70.191C286.431 70.436 286.691 70.682 286.946 70.928ZM118.023 71.196C118.276 70.948 118.533 70.701 118.795 70.454L118.053 69.668C117.787 69.919 117.524 70.171 117.267 70.423L118.023 71.196ZM289.197 73.22L289.988 72.485C289.742 72.219 289.492 71.955 289.239 71.692L288.46 72.442C288.709 72.7 288.955 72.96 289.197 73.22ZM115.788 73.502C116.026 73.24 116.27 72.98 116.518 72.72L115.734 71.974C115.482 72.239 115.233 72.505 114.989 72.773L115.788 73.502ZM291.311 75.634L292.145 74.948C291.915 74.668 291.681 74.389 291.44 74.111L290.622 74.817C290.856 75.089 291.085 75.361 291.311 75.634ZM113.689 75.931C113.912 75.656 114.14 75.382 114.371 75.108L113.547 74.409C113.31 74.689 113.078 74.969 112.85 75.251L113.689 75.931ZM293.269 78.172L294.146 77.542C293.935 77.248 293.718 76.955 293.498 76.662L292.635 77.313C292.851 77.598 293.062 77.885 293.269 78.172ZM111.751 78.484C111.955 78.195 112.165 77.907 112.378 77.62L111.511 76.975C111.292 77.269 111.078 77.564 110.868 77.86L111.751 78.484ZM295.05 80.834L295.97 80.266C295.778 79.957 295.583 79.65 295.384 79.343L294.478 79.933C294.673 80.233 294.864 80.533 295.05 80.834ZM109.991 81.162C110.176 80.859 110.363 80.557 110.557 80.256L109.647 79.672C109.449 79.981 109.256 80.29 109.067 80.6L109.991 81.162ZM296.632 83.617L297.591 83.119C297.424 82.797 297.252 82.476 297.075 82.154L296.128 82.676C296.301 82.989 296.469 83.303 296.632 83.617ZM108.436 83.957C108.596 83.642 108.761 83.326 108.931 83.012L107.979 82.498C107.806 82.82 107.637 83.144 107.473 83.467L108.436 83.957ZM297.988 86.512L298.984 86.094C298.844 85.758 298.698 85.423 298.547 85.089L297.563 85.536C297.71 85.861 297.852 86.186 297.988 86.512ZM107.108 86.864C107.242 86.537 107.382 86.209 107.525 85.883L106.535 85.447C106.388 85.783 106.246 86.119 106.108 86.456L107.108 86.864ZM299.095 89.507L300.124 89.177C300.013 88.83 299.896 88.482 299.773 88.137L298.755 88.498C298.874 88.834 298.987 89.17 299.095 89.507ZM106.033 89.869C106.137 89.531 106.246 89.194 106.361 88.858L105.34 88.508C105.221 88.855 105.107 89.203 105 89.553L106.033 89.869ZM299.93 92.586L300.984 92.352C300.905 91.996 300.82 91.641 300.732 91.286L299.683 91.55C299.77 91.895 299.853 92.24 299.93 92.586ZM105.23 92.959C105.303 92.613 105.382 92.267 105.466 91.921L104.415 91.667C104.329 92.023 104.248 92.379 104.173 92.736L105.23 92.959ZM300.473 95.726L301.545 95.593C301.5 95.232 301.45 94.869 301.393 94.508L300.325 94.678C300.38 95.027 300.43 95.376 300.473 95.726ZM104.722 96.11C104.761 95.757 104.807 95.405 104.857 95.054L103.787 94.899C103.734 95.263 103.689 95.626 103.647 95.991L104.722 96.11ZM300.711 98.901L301.791 98.872C301.781 98.507 301.766 98.143 301.745 97.778L300.665 97.84C300.686 98.193 300.701 98.548 300.711 98.901ZM104.521 99.293C104.527 98.939 104.538 98.584 104.555 98.229L103.475 98.18C103.458 98.545 103.447 98.911 103.441 99.275L104.521 99.293ZM301.717 102.165C301.742 101.8 301.763 101.436 301.777 101.069L300.697 101.026C300.683 101.381 300.664 101.734 300.639 102.089L301.717 102.165ZM103.554 102.565L104.632 102.477C104.603 102.122 104.578 101.77 104.561 101.416L103.481 101.473C103.5 101.836 103.524 102.199 103.554 102.565ZM301.322 105.439C301.384 105.076 301.439 104.714 301.488 104.351L300.418 104.204C300.37 104.556 300.315 104.906 300.256 105.257L301.322 105.439ZM103.987 105.828L105.05 105.633C104.985 105.284 104.928 104.935 104.876 104.586L103.808 104.744C103.861 105.107 103.921 105.468 103.987 105.828ZM300.618 108.652C300.714 108.298 300.803 107.943 300.887 107.587L299.834 107.341C299.754 107.685 299.667 108.028 299.575 108.371L300.618 108.652ZM104.726 109.034L105.767 108.741C105.67 108.399 105.58 108.057 105.495 107.714L104.446 107.972C104.533 108.326 104.627 108.681 104.726 109.034ZM299.625 111.786C299.751 111.442 299.871 111.097 299.986 110.751L298.961 110.409C298.85 110.745 298.731 111.08 298.609 111.415L299.625 111.786ZM105.753 112.157L106.765 111.775C106.638 111.442 106.517 111.107 106.401 110.774L105.38 111.127C105.499 111.471 105.624 111.815 105.753 112.157ZM298.364 114.821C298.519 114.489 298.668 114.156 298.813 113.823L297.82 113.394C297.68 113.719 297.534 114.042 297.384 114.366L298.364 114.821ZM107.045 115.179L108.02 114.712C107.865 114.391 107.718 114.068 107.574 113.745L106.586 114.183C106.733 114.516 106.887 114.848 107.045 115.179ZM296.86 117.74C297.04 117.421 297.215 117.102 297.386 116.782L296.433 116.273C296.266 116.586 296.095 116.898 295.919 117.209L296.86 117.74ZM108.575 118.083L109.511 117.542C109.331 117.233 109.158 116.922 108.989 116.612L108.04 117.128C108.213 117.447 108.392 117.766 108.575 118.083ZM295.141 120.534C295.345 120.229 295.543 119.923 295.737 119.617L294.823 119.039C294.635 119.339 294.44 119.637 294.242 119.935L295.141 120.534ZM110.318 120.861L111.213 120.256C111.012 119.959 110.817 119.661 110.624 119.364L109.716 119.95C109.912 120.255 110.113 120.559 110.318 120.861ZM293.232 123.198C293.455 122.908 293.675 122.617 293.889 122.324L293.018 121.686C292.808 121.971 292.594 122.256 292.375 122.54L293.232 123.198ZM112.248 123.509L113.102 122.845C112.881 122.562 112.665 122.278 112.453 121.994L111.586 122.641C111.802 122.931 112.024 123.22 112.248 123.509ZM291.155 125.731C291.395 125.455 291.633 125.179 291.865 124.901L291.037 124.207C290.809 124.48 290.577 124.75 290.341 125.02L291.155 125.731ZM114.344 126.027L115.154 125.311C114.917 125.043 114.683 124.773 114.453 124.503L113.629 125.202C113.864 125.479 114.103 125.754 114.344 126.027ZM288.934 128.133C289.189 127.871 289.441 127.609 289.689 127.346L288.901 126.606C288.658 126.863 288.411 127.121 288.16 127.377L288.934 128.133ZM116.583 128.414L117.351 127.652C117.097 127.398 116.849 127.142 116.604 126.886L115.822 127.632C116.071 127.894 116.325 128.153 116.583 128.414ZM286.585 130.406C286.853 130.159 287.118 129.911 287.38 129.662L286.636 128.879C286.378 129.124 286.117 129.368 285.853 129.611L286.585 130.406ZM118.946 130.673L119.673 129.874C119.407 129.632 119.145 129.39 118.886 129.147L118.146 129.934C118.408 130.181 118.675 130.427 118.946 130.673ZM284.124 132.56C284.404 132.326 284.683 132.092 284.957 131.856L284.25 131.037C283.981 131.27 283.709 131.5 283.433 131.729L284.124 132.56ZM121.419 132.811L122.104 131.975C121.828 131.747 121.554 131.518 121.282 131.287L120.583 132.111C120.858 132.346 121.137 132.579 121.419 132.811ZM281.567 134.593C281.857 134.372 282.145 134.151 282.43 133.927L281.762 133.077C281.482 133.297 281.199 133.515 280.913 133.731L281.567 134.593ZM123.983 134.83L124.632 133.965C124.345 133.75 124.062 133.533 123.78 133.316L123.118 134.169C123.403 134.391 123.692 134.611 123.983 134.83ZM278.929 136.511C279.227 136.303 279.522 136.094 279.816 135.885L279.189 135.004C278.897 135.211 278.605 135.418 278.31 135.624L278.929 136.511ZM126.634 136.736L127.247 135.846C126.95 135.642 126.657 135.437 126.367 135.232L125.742 136.112C126.036 136.321 126.333 136.528 126.634 136.736ZM276.214 138.322C276.52 138.126 276.823 137.929 277.125 137.73L276.532 136.826C276.233 137.023 275.934 137.218 275.63 137.412L276.214 138.322ZM129.356 138.533L129.936 137.621C129.631 137.428 129.33 137.235 129.03 137.04L128.442 137.946C128.744 138.143 129.049 138.338 129.356 138.533ZM273.434 140.031C273.747 139.846 274.059 139.66 274.368 139.473L273.806 138.549C273.502 138.734 273.194 138.918 272.885 139.1L273.434 140.031ZM132.143 140.231L132.688 139.297C132.377 139.115 132.069 138.933 131.764 138.749L131.207 139.677C131.517 139.862 131.828 140.047 132.143 140.231ZM133.544 141.033L134.073 140.092C133.761 139.916 133.449 139.738 133.139 139.56L132.6 140.495C132.912 140.676 133.228 140.856 133.544 141.033ZM270.598 141.642C270.917 141.468 271.235 141.292 271.551 141.115L271.022 140.172C270.71 140.347 270.396 140.521 270.08 140.693L270.598 141.642ZM136.41 142.585L136.91 141.626L135.958 141.125L135.45 142.079L136.41 142.585ZM267.711 143.156L268.677 142.662L268.183 141.701L267.223 142.192L267.711 143.156ZM139.326 144.043L139.795 143.068C139.471 142.913 139.149 142.756 138.828 142.598L138.35 143.567C138.674 143.727 139 143.886 139.326 144.043ZM264.779 144.58C265.107 144.427 265.436 144.272 265.762 144.115L265.295 143.141C264.973 143.295 264.648 143.448 264.322 143.6L264.779 144.58ZM142.284 145.412L142.722 144.424C142.394 144.278 142.067 144.131 141.742 143.983L141.293 144.965C141.622 145.115 141.952 145.265 142.284 145.412ZM261.806 145.914C262.139 145.772 262.47 145.626 262.801 145.48L262.363 144.491C262.036 144.636 261.707 144.779 261.378 144.922L261.806 145.914ZM145.278 146.693L145.691 145.693L144.696 145.279L144.276 146.275L145.278 146.693ZM258.798 147.162L259.806 146.755L259.395 145.755L258.398 146.158L258.798 147.162ZM148.307 147.89L148.691 146.88L147.687 146.493L147.294 147.499L148.307 147.89ZM255.757 148.327L256.774 147.948L256.391 146.937L255.382 147.314L255.757 148.327ZM151.367 149.005L151.725 147.986L150.711 147.625L150.344 148.643L151.367 149.005ZM252.686 149.412L253.712 149.06L253.357 148.038L252.338 148.389L252.686 149.412ZM154.454 150.041L154.786 149.012L153.763 148.679L153.423 149.704L154.454 150.041ZM249.59 150.419C249.936 150.312 250.281 150.202 250.625 150.092L250.293 149.063C249.953 149.173 249.611 149.28 249.268 149.388L249.59 150.419ZM157.562 151L157.867 149.963C157.523 149.862 157.182 149.76 156.84 149.656L156.525 150.69C156.869 150.795 157.215 150.898 157.562 151ZM246.469 151.35L247.513 151.048L247.208 150.011L246.174 150.311L246.469 151.35ZM160.685 151.882L160.968 150.839L159.933 150.556L159.644 151.597L160.685 151.882ZM243.318 152.209C243.67 152.117 244.022 152.025 244.372 151.93L244.091 150.887L243.047 151.162L243.318 152.209ZM163.829 152.692L164.087 151.644L163.046 151.383L162.78 152.432L163.829 152.692ZM240.151 152.995C240.506 152.911 240.859 152.827 241.212 152.739L240.952 151.691C240.604 151.777 240.254 151.86 239.903 151.942L240.151 152.995ZM166.991 153.432L167.226 152.377L166.179 152.141L165.937 153.194L166.991 153.432ZM236.968 153.71C237.323 153.635 237.679 153.558 238.033 153.479L237.797 152.424C237.446 152.503 237.095 152.578 236.743 152.653L236.968 153.71ZM170.169 154.104L170.38 153.043L169.328 152.829L169.107 153.888L170.169 154.104ZM233.77 154.357L234.838 154.149L234.627 153.088L233.568 153.294L233.77 154.357ZM173.36 154.705L173.548 153.641L172.491 153.449L172.294 154.512L173.36 154.705ZM230.562 154.935L231.633 154.749L231.445 153.685L230.38 153.868L230.562 154.935ZM176.563 155.241L176.731 154.173L175.67 154.003L175.494 155.069L176.563 155.241ZM227.341 155.444L228.416 155.281L228.25 154.213L227.183 154.376L227.341 155.444ZM179.777 155.711L179.922 154.641L178.857 154.492L178.705 155.563L179.777 155.711ZM224.113 155.891L225.192 155.748L225.046 154.678L223.977 154.818L224.113 155.891ZM183 156.12L183.123 155.046L182.057 154.919L181.924 155.991L183 156.12ZM220.878 156.272L221.957 156.151L221.834 155.077L220.761 155.197L220.878 156.272ZM186.234 156.463L186.333 155.387C185.977 155.354 185.62 155.318 185.265 155.281L185.153 156.356C185.513 156.394 185.873 156.43 186.234 156.463ZM217.634 156.59L218.716 156.491L218.614 155.415L217.54 155.514L217.634 156.59ZM189.47 156.743L189.552 155.665L188.481 155.58L188.389 156.656L189.47 156.743ZM214.388 156.845L215.472 156.767L215.39 155.689L214.315 155.767L214.388 156.845ZM192.711 156.963L192.775 155.885L191.7 155.818L191.63 156.897L192.711 156.963ZM211.138 157.037C211.5 157.02 211.862 157.001 212.225 156.979L212.16 155.901C211.802 155.921 211.443 155.94 211.085 155.957L211.138 157.037ZM195.96 157.12L196.003 156.04L194.928 155.994L194.877 157.074L195.96 157.12ZM207.886 157.167L208.972 157.131L208.931 156.051L207.855 156.087L207.886 157.167ZM199.198 157.214L199.233 156.134L198.156 156.109L198.127 157.189L199.198 157.214ZM204.633 157.236L205.719 157.22L205.698 156.14L204.621 156.155L204.633 157.236ZM202.463 157.248L202.467 156.168L201.389 156.163L201.38 157.243L202.463 157.248Z" fill="#D24566"/>
<path fill-rule="evenodd" clip-rule="evenodd" d="M94.9955 24.15C95.0045 24.247 95.0115 24.344 95.0285 24.44L95.0825 24.658L95.1595 24.927L95.2475 25.139C95.2875 25.232 95.3285 25.325 95.3775 25.417L95.4945 25.615C95.5585 25.717 95.6265 25.819 95.7005 25.921L95.8425 26.1C95.9635 26.247 96.0985 26.392 96.2455 26.533L96.3535 26.642C96.4415 26.722 96.5425 26.8 96.6415 26.879L96.8655 27.061C96.9755 27.14 97.0965 27.216 97.2135 27.293C97.3045 27.352 97.3885 27.413 97.4845 27.471L113.717 37.128C113.993 37.293 114.29 37.441 114.595 37.58L114.784 37.665C115.085 37.795 115.397 37.914 115.718 38.019L115.98 38.098C116.14 38.146 116.3 38.192 116.463 38.235C116.566 38.261 116.67 38.285 116.774 38.309C116.933 38.346 117.093 38.38 117.254 38.411C117.35 38.43 117.446 38.447 117.543 38.464C117.874 38.521 118.208 38.57 118.548 38.604L118.593 38.607C118.874 38.634 119.157 38.652 119.441 38.664C119.543 38.668 119.646 38.669 119.748 38.671C119.928 38.674 120.107 38.676 120.287 38.673C120.401 38.671 120.515 38.669 120.628 38.664C120.79 38.658 120.953 38.649 121.115 38.638C121.229 38.63 121.345 38.622 121.459 38.611C121.623 38.596 121.785 38.577 121.948 38.556C122.057 38.543 122.166 38.53 122.274 38.514C122.465 38.486 122.655 38.451 122.844 38.415L123.092 38.369C123.38 38.308 123.663 38.239 123.941 38.16L124.087 38.115C124.378 38.029 124.662 37.933 124.941 37.827C125.055 37.783 125.172 37.743 125.283 37.696L136.248 33.093C136.633 32.932 136.989 32.756 137.316 32.567C139.02 31.583 139.936 30.256 139.932 28.905L139.968 41.528C139.972 42.879 139.056 44.206 137.353 45.19C137.025 45.378 136.669 45.555 136.284 45.716L125.319 50.319L125.107 50.406L124.976 50.45C124.697 50.556 124.413 50.653 124.122 50.738L124.022 50.772L123.978 50.783C123.699 50.861 123.415 50.931 123.128 50.991L123.085 51.002L122.88 51.038C122.69 51.074 122.501 51.108 122.31 51.137L122.21 51.154L121.984 51.179C121.821 51.2 121.658 51.219 121.494 51.234L121.35 51.25L121.152 51.261C120.989 51.272 120.826 51.281 120.662 51.287L120.479 51.297L120.324 51.296C120.144 51.299 119.964 51.297 119.783 51.294L119.57 51.293L119.477 51.287C119.191 51.275 118.906 51.257 118.623 51.23L118.589 51.227H118.584C118.244 51.192 117.909 51.143 117.577 51.087L117.453 51.069L117.291 51.034C117.129 51.003 116.969 50.969 116.81 50.932C116.705 50.908 116.602 50.884 116.499 50.857C116.335 50.816 116.175 50.769 116.016 50.721L115.807 50.662L115.754 50.642C115.432 50.537 115.121 50.418 114.82 50.288L114.631 50.203C114.326 50.064 114.029 49.916 113.753 49.751L97.5195 40.094L97.4745 40.066L97.2485 39.915C97.1305 39.839 97.0105 39.763 96.9015 39.684L96.6755 39.501C96.5775 39.422 96.4785 39.345 96.3895 39.264L96.3565 39.238L96.2805 39.156C96.1335 39.015 95.9995 38.87 95.8775 38.723L95.8055 38.644L95.7365 38.544C95.6615 38.443 95.5945 38.34 95.5305 38.237L95.4495 38.118L95.4135 38.04C95.3635 37.947 95.3225 37.855 95.2825 37.762L95.2135 37.614L95.1955 37.55L95.1185 37.281L95.0705 37.115L95.0645 37.063C95.0475 36.967 95.0405 36.87 95.0315 36.774L95.0125 36.606L95.0115 36.528L94.9765 23.905L94.9955 24.15Z" fill="url(#paint1_linear)"/>
<path fill-rule="evenodd" clip-rule="evenodd" d="M97.5834 20.247C94.2014 22.199 94.0464 25.425 97.4844 27.471L113.717 37.128C116.784 38.957 121.71 39.196 125.284 37.696L136.248 33.093C136.633 32.932 136.989 32.756 137.316 32.567C140.031 31 140.743 28.562 138.928 26.545L128.173 14.589C125.671 11.807 119.49 10.969 115.095 12.814L98.6614 19.715C98.2724 19.879 97.9124 20.057 97.5834 20.247Z" fill="#D24566"/>
<path fill-rule="evenodd" clip-rule="evenodd" d="M54.9745 53.169L54.9845 53.327C54.9905 53.445 55.0045 53.563 55.0245 53.679L55.0515 53.816C55.0795 53.944 55.1155 54.071 55.1605 54.196L55.1845 54.269C55.2415 54.421 55.3135 54.571 55.3955 54.72L55.4595 54.828C55.5435 54.97 55.6365 55.109 55.7415 55.247L55.7925 55.316C55.9385 55.5 56.1075 55.678 56.2905 55.852L56.3835 55.94C56.5265 56.07 56.6795 56.198 56.8445 56.321L56.9025 56.361C57.0525 56.47 57.2115 56.576 57.3775 56.678L57.5165 56.761C57.7735 56.913 58.0485 57.057 58.3405 57.19L58.4725 57.248C58.7725 57.38 59.0905 57.503 59.4255 57.614L59.5715 57.66C59.8875 57.759 60.2125 57.852 60.5555 57.931L82.1855 62.916C82.5155 62.992 82.8515 63.046 83.1875 63.098C83.3555 63.123 83.5225 63.148 83.6895 63.168C83.9715 63.201 84.2535 63.227 84.5365 63.244C84.6345 63.25 84.7315 63.259 84.8305 63.263C85.2095 63.279 85.5875 63.281 85.9625 63.269L86.2015 63.255C86.5145 63.24 86.8225 63.215 87.1295 63.182C87.2215 63.171 87.3135 63.163 87.4035 63.151C87.7745 63.103 88.1395 63.044 88.4955 62.969L88.6845 62.922C88.9765 62.857 89.2625 62.782 89.5415 62.699C89.7185 62.647 89.8865 62.585 90.0565 62.525C90.2625 62.453 90.4705 62.383 90.6665 62.301L90.8765 62.21C91.1805 62.075 91.4765 61.932 91.7505 61.774C92.2905 61.462 92.7695 61.106 93.1675 60.708L99.9655 53.928C100.577 53.318 100.951 52.661 101.099 51.997C101.147 51.776 101.172 51.554 101.171 51.332L101.207 63.955C101.209 64.841 100.817 65.737 100.001 66.551L93.2035 73.331C92.8045 73.729 92.3255 74.085 91.7855 74.397C91.5115 74.555 91.2165 74.698 90.9125 74.833L90.7025 74.924L90.5105 75.007C90.3765 75.06 90.2315 75.1 90.0935 75.148C89.9225 75.208 89.7545 75.27 89.5765 75.322L89.4335 75.371C89.2025 75.437 88.9625 75.491 88.7235 75.545L88.5305 75.592L88.4935 75.601C88.2035 75.661 87.9085 75.713 87.6095 75.755L87.4395 75.774C87.3495 75.786 87.2575 75.795 87.1645 75.804C87.0245 75.82 86.8875 75.84 86.7465 75.851C86.5785 75.865 86.4085 75.87 86.2385 75.879L85.9985 75.891L85.8785 75.898C85.5785 75.905 85.2775 75.904 84.9765 75.894L84.8655 75.886C84.7685 75.882 84.6715 75.873 84.5735 75.867C84.3825 75.856 84.1905 75.848 83.9995 75.829C83.9075 75.819 83.8165 75.801 83.7255 75.791C83.5575 75.771 83.3915 75.746 83.2245 75.721C83.1035 75.702 82.9815 75.692 82.8615 75.67C82.6465 75.631 82.4335 75.587 82.2215 75.539L60.5915 70.554C60.2475 70.475 59.9225 70.382 59.6075 70.283L59.5105 70.256L59.4615 70.237C59.1255 70.126 58.8095 70.003 58.5075 69.871L58.3765 69.813C58.0835 69.679 57.8095 69.536 57.5525 69.384L57.4855 69.35L57.4125 69.301C57.2465 69.199 57.0885 69.093 56.9385 68.984L56.8805 68.944C56.7155 68.821 56.5635 68.693 56.4185 68.563L56.3715 68.524L56.3255 68.475C56.1435 68.301 55.9745 68.123 55.8275 67.939L55.8135 67.922L55.7765 67.87C55.6725 67.733 55.5785 67.593 55.4955 67.451L55.4515 67.386L55.4315 67.342C55.3505 67.194 55.2775 67.044 55.2195 66.892L55.2135 66.878L55.1965 66.819C55.1515 66.693 55.1155 66.567 55.0875 66.439L55.0685 66.376L55.0615 66.302C55.0405 66.185 55.0265 66.068 55.0195 65.95L55.0115 65.869L55.0105 65.792L54.9745 53.169Z" fill="url(#paint2_linear)"/>
<path fill-rule="evenodd" clip-rule="evenodd" d="M67.7965 39.339C67.2575 39.65 66.7765 40.008 66.3745 40.41L56.1805 50.578C53.4595 53.298 55.5235 56.772 60.5555 57.931L82.1855 62.916C85.5415 63.688 89.2875 63.195 91.7505 61.774C92.2905 61.462 92.7695 61.106 93.1675 60.708L99.9655 53.928C102.182 51.717 101.271 48.902 97.8205 47.319L79.5835 38.944C75.9705 37.288 70.9025 37.546 67.7965 39.339Z" fill="#D24566"/>
<path fill-rule="evenodd" clip-rule="evenodd" d="M46.3845 106.347L46.2165 106.957L46.2825 106.334C45.9835 106.303 45.6915 106.26 45.4045 106.211L45.0355 106.14C44.8925 106.111 44.7495 106.082 44.6105 106.049L44.3135 105.973C44.1055 105.916 43.9715 105.879 43.8395 105.838L43.5085 106.395L43.6995 105.798L43.5755 105.75C43.2945 105.654 43.0265 105.554 42.7715 105.443L42.3875 105.961L42.6455 105.39C42.3645 105.264 42.1035 105.125 41.8545 104.979L41.6255 104.838C41.5215 104.772 41.4255 104.709 41.3335 104.644L41.1035 104.471L40.8535 104.264L40.7745 104.199L40.6735 104.098C40.5535 103.983 40.4385 103.859 40.3325 103.731L40.2555 103.648C40.1575 103.518 40.0925 103.412 40.0275 103.307L39.9665 103.217L39.8935 103.069L39.7155 102.622C39.6755 102.493 39.6585 102.443 39.6475 102.392L39.6165 102.108L39.6035 101.993L39.5745 92.181L39.7765 92.385L39.9925 92.585C40.0905 92.67 40.1905 92.754 40.2965 92.835C40.3835 92.903 40.4755 92.973 40.5695 93.041C40.6805 93.119 40.7955 93.194 40.9135 93.27C40.9985 93.324 41.0905 93.381 41.1855 93.437C41.4705 93.604 41.7715 93.764 42.0935 93.909L42.1875 93.948C42.5215 94.093 42.8215 94.207 43.1335 94.313L43.4315 94.411C43.5785 94.457 43.7275 94.498 43.8755 94.539L44.2825 94.645C44.4315 94.68 44.5855 94.711 44.7375 94.742C44.8845 94.773 45.0185 94.799 45.1555 94.822C45.4685 94.877 45.7875 94.922 46.1145 94.957L46.2255 94.972C46.5495 95.003 46.8805 95.026 47.2155 95.037C47.5285 95.049 47.8485 95.052 48.1705 95.043L71.6185 94.488C71.9345 94.475 72.1535 94.465 72.3695 94.447L72.6805 94.415C72.9155 94.391 73.0865 94.373 73.2525 94.35L73.5255 94.305C73.7725 94.265 73.9535 94.235 74.1305 94.2L74.3965 94.14C74.6175 94.091 74.8325 94.039 75.0415 93.983L75.2715 93.915C75.6345 93.808 75.9485 93.703 76.2495 93.587C76.4845 93.496 76.6285 93.432 76.7725 93.366L77.0345 93.251C77.2605 93.143 77.4795 93.027 77.6875 92.907C79.2855 91.984 80.3055 90.733 80.5575 89.381L80.8455 87.843L80.8605 93.535C80.8615 93.685 80.8485 93.834 80.8195 93.984L79.3595 101.775C79.1775 102.76 78.3735 103.708 77.0955 104.445C76.9145 104.551 76.7255 104.651 76.5275 104.744L76.3185 104.835C76.1455 104.914 76.0285 104.966 75.9075 105.015C75.5635 105.146 75.2805 105.239 74.9905 105.325L74.8935 105.358L74.9105 106.001L74.7465 105.397C74.5575 105.447 74.3635 105.494 74.1675 105.538L73.9075 105.597C73.7365 105.631 73.5535 105.661 73.3695 105.69L73.1495 105.728C72.9415 105.756 72.7655 105.774 72.5895 105.791L72.3205 105.821C72.1045 105.838 71.8995 105.846 71.6945 105.855L71.4695 105.866L48.1785 106.414C47.8835 106.42 47.5975 106.42 47.3135 106.409C46.9865 106.397 46.6835 106.376 46.3845 106.347ZM47.8395 107.671C47.9625 107.671 48.0845 107.669 48.2065 107.666L71.6605 107.111C71.9675 107.098 72.1885 107.088 72.4055 107.071L72.7045 107.039C72.9055 107.019 73.0995 106.999 73.2865 106.973L73.4865 106.942C73.7665 106.896 73.9675 106.863 74.1645 106.823L74.3725 106.777C74.6545 106.713 74.8675 106.662 75.0745 106.606L75.3175 106.537C75.6695 106.431 75.9825 106.327 76.2815 106.212L76.3915 106.17C76.5085 106.124 76.6425 106.064 76.7755 106.004L77.0685 105.874C77.2955 105.766 77.5145 105.651 77.7225 105.53C79.3215 104.608 80.3415 103.355 80.5925 102.004L82.0515 94.216C82.0945 93.986 82.1155 93.757 82.1145 93.53L82.0785 80.92V80.907L80.8245 80.913V80.916L80.8255 80.921C80.8255 81.068 80.8115 81.215 80.7835 81.364L79.3245 89.151C79.1415 90.137 78.3375 91.085 77.0605 91.822C76.8795 91.927 76.6895 92.027 76.4925 92.121L76.2765 92.216C76.1295 92.282 76.0035 92.34 75.8695 92.393C75.5265 92.524 75.2455 92.616 74.9555 92.702L74.7065 92.775C74.5205 92.826 74.3265 92.872 74.1295 92.916L73.8825 92.972C73.7205 93.005 73.5565 93.031 73.3925 93.058L73.0775 93.109C72.9265 93.131 72.7715 93.146 72.6185 93.161L72.2715 93.198C72.0695 93.215 71.8655 93.223 71.6615 93.232L71.4345 93.243L48.1425 93.791C47.8445 93.797 47.5505 93.795 47.2605 93.785C46.9505 93.774 46.6455 93.753 46.3465 93.724C45.9475 93.68 45.6555 93.637 45.3685 93.588C45.2445 93.567 45.1245 93.542 45.0025 93.518C44.8475 93.486 44.7085 93.458 44.5745 93.426L44.2705 93.348C44.0705 93.293 43.9365 93.256 43.8045 93.215L43.5385 93.126C43.2595 93.031 42.9915 92.931 42.7365 92.819L42.3515 93.338L42.6085 92.767C42.3285 92.641 42.0675 92.502 41.8185 92.356L41.5885 92.213C41.4825 92.148 41.3875 92.084 41.2955 92.019L41.0665 91.848L40.8145 91.64L40.6465 91.483C40.5195 91.36 40.4035 91.236 40.2985 91.109L39.7055 91.379L40.2015 90.996C40.1225 90.895 40.0565 90.789 39.9915 90.684L39.5705 90.822V90.77L39.9125 90.566L39.7735 90.266L39.7265 90.16L39.6845 90.01C39.6485 89.896 39.6255 89.825 39.6115 89.753L39.5855 89.519L39.5655 89.309L38.3135 89.316L38.3495 101.939C38.3545 102.118 38.3645 102.202 38.3765 102.286L39.0155 102.354L38.3915 102.409L38.4155 102.607C38.4405 102.739 38.4685 102.83 38.4965 102.92L39.1415 102.891L38.5345 103.049L38.5835 103.213C38.6175 103.305 38.6505 103.373 38.6845 103.441L38.7445 103.57L38.8575 103.805L38.9505 103.95C39.0455 104.104 39.1385 104.246 39.2445 104.385L39.3655 104.529C39.5075 104.696 39.6525 104.856 39.8125 105.008L39.9055 105.106L39.9995 105.184C40.1235 105.291 40.2265 105.376 40.3325 105.458C40.4195 105.526 40.5095 105.595 40.6045 105.663C40.7125 105.74 40.8295 105.817 40.9495 105.893L41.1275 106.011L41.2205 106.061C41.5055 106.227 41.8085 106.387 42.1295 106.532L42.2245 106.571C42.5585 106.716 42.8585 106.83 43.1695 106.936L43.3165 106.991L43.4195 107.022C43.6135 107.08 43.7625 107.121 43.9135 107.162C44.0985 107.212 44.2075 107.241 44.3195 107.268C44.4725 107.305 44.6305 107.336 44.7875 107.368L45.1755 107.443C45.5045 107.5 45.8235 107.545 46.1495 107.58C46.2445 107.594 46.2795 107.597 46.3215 107.597C46.5835 107.626 46.9145 107.649 47.2505 107.66C47.4515 107.667 47.6465 107.671 47.8395 107.671Z" fill="url(#paint3_linear)"/>
<path fill-rule="evenodd" clip-rule="evenodd" d="M50.0484 73.082C50.7474 73.082 51.4514 73.132 52.1434 73.234L74.7044 76.579C77.2294 76.952 79.3114 77.981 80.2734 79.331C80.7414 79.987 80.9134 80.671 80.7834 81.362L79.3234 89.151C79.1414 90.137 78.3374 91.085 77.0604 91.822C75.5634 92.687 73.5654 93.192 71.4334 93.243L48.1424 93.791C44.8164 93.849 41.7524 92.832 40.3214 91.151C39.7004 90.421 39.4604 89.65 39.6084 88.858L41.7934 77.174C41.9774 76.189 42.7774 75.242 44.0494 74.508C45.6464 73.586 47.8244 73.082 50.0484 73.082ZM47.7824 95.048C47.9114 95.048 48.0414 95.046 48.1714 95.043L71.4634 94.495C73.8024 94.439 76.0124 93.875 77.6874 92.908C79.2864 91.984 80.3054 90.732 80.5564 89.381L82.0164 81.593C82.2074 80.568 81.9584 79.534 81.2944 78.603C80.1194 76.957 77.7854 75.768 74.8884 75.339L52.3264 71.995C49.1184 71.521 45.7924 72.055 43.4224 73.423C41.8064 74.356 40.8164 75.573 40.5614 76.944L38.3764 88.627C38.1594 89.792 38.5024 90.945 39.3674 91.963C40.9994 93.882 44.1994 95.048 47.7824 95.048Z" fill="#02B0A4"/>
<path fill-rule="evenodd" clip-rule="evenodd" d="M104.863 180.26L104.652 180.867L104.749 180.248L104.649 180.234C104.386 180.206 104.126 180.169 103.866 180.125L103.764 180.111L103.601 180.721L103.663 180.094L103.563 180.072C103.421 180.045 103.28 180.014 103.142 179.982C102.996 179.948 102.896 179.926 102.798 179.9C102.674 179.868 102.561 179.835 102.446 179.801L102.145 179.715C101.887 179.625 101.719 179.562 101.553 179.497L101.306 179.402C101.069 179.303 100.836 179.196 100.61 179.077L85.5844 171.221C85.4405 171.146 85.3024 171.068 85.1704 170.988L85.0604 170.913C84.9684 170.857 84.8834 170.798 84.7984 170.739C84.6964 170.67 84.6024 170.602 84.5114 170.532L84.2934 170.351L84.2064 170.28L84.0744 170.152C83.9634 170.045 83.8554 169.928 83.7575 169.809L83.6704 169.716C83.5784 169.595 83.5244 169.508 83.4714 169.421L83.3924 169.305C83.3315 169.201 83.3134 169.159 83.2944 169.116L83.0454 168.414L83.0364 168.304L83.0145 168.113L82.3794 168.057L83.0054 167.978L82.9774 158.235L83.1774 158.439C83.2614 158.52 83.3484 158.599 83.4394 158.677C83.5265 158.752 83.6185 158.83 83.7164 158.904C83.8165 158.983 83.9295 159.063 84.0434 159.144C84.1715 159.231 84.2625 159.292 84.3584 159.354C84.5545 159.476 84.7534 159.596 84.9694 159.708L99.9925 167.565C100.249 167.699 100.516 167.822 100.789 167.937L100.97 168.007C101.247 168.113 101.434 168.184 101.625 168.248C101.727 168.282 101.832 168.314 101.938 168.344C102.138 168.404 102.289 168.449 102.443 168.489C102.572 168.523 102.702 168.553 102.832 168.581C102.98 168.616 103.136 168.651 103.293 168.68L103.608 168.735C103.903 168.786 104.188 168.825 104.476 168.858L104.713 168.885C105.023 168.915 105.34 168.937 105.656 168.947C106.011 168.956 106.287 168.957 106.561 168.952L106.903 168.937C107.081 168.93 107.264 168.921 107.443 168.908L107.81 168.871C107.981 168.855 108.151 168.837 108.321 168.815L108.673 168.76C108.854 168.731 109.032 168.701 109.209 168.666L109.542 168.595C109.745 168.55 109.944 168.501 110.142 168.447L110.438 168.365C110.782 168.264 111.118 168.153 111.439 168.026C111.589 167.969 111.735 167.903 111.882 167.837L112.134 167.727C112.368 167.615 112.592 167.498 112.806 167.375C113.258 167.114 113.669 166.824 114.028 166.513L127.015 155.276C127.186 155.127 127.346 154.974 127.492 154.818L127.519 164.551C127.521 165.389 127.076 166.219 126.23 166.951L113.244 178.189C112.944 178.448 112.598 178.692 112.216 178.913C112.03 179.02 111.836 179.121 111.636 179.217L111.335 179.348C111.238 179.392 111.141 179.436 111.039 179.476C110.728 179.597 110.427 179.695 110.12 179.786L109.845 179.863C109.673 179.909 109.491 179.954 109.307 179.995L109.194 180.023L109.259 180.651L109.091 180.045C108.841 180.092 108.677 180.119 108.514 180.146L108.19 180.194C108.034 180.216 107.876 180.232 107.718 180.248L107.453 180.278C107.219 180.294 107.053 180.301 106.885 180.308L106.61 180.323C106.315 180.327 106.062 180.326 105.808 180.319C105.444 180.308 105.153 180.287 104.863 180.26ZM106.249 181.578C106.369 181.578 106.484 181.577 106.599 181.574L106.936 181.56C107.117 181.553 107.301 181.544 107.483 181.53L107.847 181.494C108.017 181.478 108.188 181.46 108.36 181.437L108.626 181.398C108.89 181.354 109.067 181.324 109.244 181.289L109.507 181.235C109.78 181.173 109.979 181.124 110.178 181.071L110.464 180.992C110.817 180.887 111.153 180.776 111.475 180.65C111.618 180.594 111.734 180.542 111.85 180.49L112.17 180.35C112.404 180.238 112.628 180.121 112.842 179.998C113.293 179.737 113.703 179.447 114.063 179.136L127.051 167.899C128.181 166.92 128.775 165.761 128.772 164.547L128.737 151.924L127.483 151.927V151.928C127.485 152.767 127.039 153.597 126.194 154.328L113.208 165.566C112.908 165.825 112.563 166.068 112.18 166.289C111.994 166.397 111.8 166.498 111.6 166.594L111.389 166.685C111.241 166.751 111.115 166.809 110.983 166.859C110.692 166.974 110.392 167.072 110.085 167.163L109.816 167.237C109.636 167.286 109.454 167.331 109.271 167.372L108.965 167.438C108.806 167.469 108.643 167.496 108.478 167.522L108.153 167.572C108.001 167.593 107.843 167.609 107.685 167.625L107.346 167.659C107.186 167.671 107.019 167.678 106.851 167.685L106.532 167.7C106.283 167.705 106.026 167.702 105.771 167.696C105.41 167.685 105.119 167.665 104.83 167.637L104.697 167.622C104.35 167.583 104.089 167.546 103.832 167.503L103.531 167.449C103.388 167.422 103.248 167.392 103.11 167.359C102.987 167.332 102.871 167.306 102.757 167.276C102.619 167.24 102.483 167.199 102.347 167.158C102.202 167.116 102.111 167.089 102.022 167.06C101.85 167.002 101.681 166.938 101.513 166.873L101.273 166.78C101.033 166.68 100.798 166.572 100.572 166.454L85.5485 158.598C85.3605 158.5 85.1904 158.396 85.0244 158.292L84.7864 158.134C84.6674 158.051 84.5704 157.983 84.4814 157.912L84.2575 157.728L84.0464 157.535C83.9274 157.422 83.8195 157.305 83.7215 157.186L83.6054 157.053L83.4344 156.797L83.3615 156.688C83.2944 156.577 83.2755 156.533 83.2575 156.49L83.1795 156.32L83.1264 156.203L83.0745 156.019C83.0415 155.905 83.0234 155.851 83.0145 155.795L83.0014 155.686L82.9834 155.521L82.9694 155.359V155.353L81.7155 155.355V155.36L81.7534 168.08L81.7734 168.291L82.4124 168.36L81.7884 168.417L81.8185 168.651C81.8385 168.766 81.8615 168.842 81.8854 168.918L82.5285 168.89L81.9235 169.047L81.9855 169.257C82.0215 169.358 82.0534 169.424 82.0864 169.49L82.7215 169.369L82.1474 169.621L82.2584 169.85L82.3735 170.035C82.4845 170.206 82.5594 170.323 82.6465 170.439C82.7164 170.531 82.7484 170.566 82.7814 170.599C82.9224 170.764 83.0594 170.914 83.2124 171.062L83.2905 171.146L83.4314 171.264C83.5615 171.373 83.6484 171.448 83.7435 171.523C83.8574 171.609 83.9705 171.69 84.0844 171.77C84.1844 171.839 84.2884 171.909 84.3974 171.978L84.5285 172.064C84.6774 172.153 84.8374 172.243 85.0044 172.331L100.028 180.187C100.283 180.321 100.55 180.443 100.823 180.559L101.094 180.663C101.283 180.737 101.469 180.807 101.659 180.87L102.028 180.984C102.223 181.041 102.351 181.079 102.482 181.112C102.588 181.141 102.701 181.166 102.815 181.193C103.019 181.238 103.173 181.274 103.33 181.303L103.612 181.356C103.94 181.409 104.226 181.448 104.513 181.481L104.68 181.503C105.06 181.537 105.376 181.56 105.691 181.57C105.898 181.576 106.079 181.578 106.249 181.578Z" fill="url(#paint4_linear)"/>
<path fill-rule="evenodd" clip-rule="evenodd" d="M109.237 142.196C111.271 142.196 113.3 142.613 114.888 143.443L124.905 148.681C126.427 149.479 127.337 150.536 127.468 151.66C127.575 152.591 127.136 153.513 126.194 154.328L113.208 165.566C112.908 165.825 112.563 166.068 112.18 166.289C109.004 168.125 103.905 168.196 100.572 166.454L85.5484 158.598C83.9344 157.751 82.9934 156.584 82.9694 155.395C82.9454 154.231 83.7594 153.111 85.2614 152.244C85.4464 152.137 85.6424 152.035 85.8484 151.936L103.834 143.316C105.396 142.568 107.318 142.196 109.237 142.196ZM106.221 168.952C108.607 168.952 110.99 168.424 112.807 167.375C113.258 167.114 113.669 166.824 114.028 166.513L127.015 155.276C128.265 154.193 128.868 152.857 128.712 151.516C128.532 149.967 127.387 148.567 125.486 147.571L115.468 142.333C112.01 140.525 106.888 140.463 103.293 142.185L85.3054 150.806C85.0684 150.92 84.8464 151.037 84.6354 151.158H84.6344C82.7194 152.265 81.6834 153.778 81.7174 155.421C81.7514 157.105 82.9054 158.627 84.9674 159.707L99.9924 167.565C101.766 168.492 103.994 168.952 106.221 168.952Z" fill="#02B0A4"/>
<path fill-rule="evenodd" clip-rule="evenodd" d="M135.721 176.059L135.733 176.231C135.739 176.344 135.752 176.456 135.772 176.569L135.803 176.723C135.828 176.831 135.859 176.94 135.897 177.046L135.942 177.181C136.002 177.335 136.072 177.487 136.155 177.637L136.187 177.687C136.272 177.835 136.372 177.98 136.481 178.123L136.569 178.236C136.713 178.413 136.873 178.587 137.051 178.754L137.164 178.855C137.278 178.957 137.398 179.057 137.525 179.153L137.677 179.268C137.835 179.382 138 179.493 138.175 179.6L138.226 179.632C138.494 179.792 138.787 179.941 139.094 180.081L139.206 180.134C139.505 180.266 139.822 180.386 140.154 180.496L140.35 180.561C140.509 180.611 140.673 180.657 140.84 180.701L141.072 180.765C141.319 180.826 141.573 180.883 141.835 180.933L161.094 184.56C161.472 184.631 161.852 184.683 162.231 184.724L162.348 184.739C162.728 184.777 163.107 184.797 163.485 184.806C163.548 184.807 163.611 184.807 163.673 184.807C163.71 184.807 163.746 184.807 163.782 184.808C164.068 184.809 164.353 184.802 164.635 184.787C164.729 184.782 164.823 184.779 164.918 184.773C165.275 184.747 165.63 184.711 165.977 184.661L166.138 184.633C166.431 184.587 166.719 184.532 167.001 184.47C167.133 184.441 167.261 184.407 167.39 184.375C167.59 184.324 167.785 184.27 167.977 184.21C168.174 184.151 168.364 184.085 168.553 184.017C168.737 183.949 168.922 183.883 169.099 183.808L169.327 183.709C169.608 183.581 169.881 183.447 170.135 183.301C171.388 182.578 172.286 181.629 172.615 180.53L176.606 167.225C176.694 166.926 176.737 166.627 176.736 166.332L176.773 178.955C176.773 179.25 176.73 179.549 176.641 179.848L172.651 193.153C172.322 194.252 171.423 195.201 170.17 195.924C169.917 196.07 169.645 196.204 169.363 196.331L169.134 196.432L168.884 196.54C168.79 196.577 168.686 196.605 168.589 196.64C168.4 196.708 168.211 196.773 168.014 196.833L167.794 196.907C167.674 196.942 167.547 196.967 167.425 196.998C167.296 197.03 167.169 197.064 167.037 197.093L166.855 197.138C166.632 197.184 166.402 197.22 166.174 197.256L166.012 197.284L165.975 197.291C165.693 197.33 165.407 197.362 165.119 197.387L164.952 197.396C164.859 197.401 164.766 197.405 164.672 197.41C164.534 197.417 164.398 197.429 164.259 197.433C164.112 197.436 163.964 197.431 163.816 197.431C163.779 197.43 163.741 197.43 163.703 197.43C163.643 197.43 163.582 197.43 163.522 197.429H163.363C163.04 197.417 162.715 197.396 162.39 197.363L162.383 197.362L162.276 197.348C161.931 197.311 161.585 197.266 161.24 197.203L161.13 197.183L141.871 193.556C141.609 193.506 141.356 193.449 141.108 193.388L140.873 193.323C140.708 193.279 140.544 193.233 140.386 193.184L140.279 193.153L140.19 193.119C139.858 193.009 139.54 192.889 139.241 192.757L139.13 192.704C138.822 192.565 138.53 192.415 138.262 192.255L138.254 192.251L138.211 192.222C138.036 192.115 137.871 192.005 137.713 191.891L137.562 191.777C137.435 191.68 137.314 191.58 137.2 191.478L137.114 191.407L137.087 191.377C136.908 191.21 136.749 191.036 136.606 190.858L136.561 190.811L136.517 190.745C136.408 190.603 136.309 190.457 136.223 190.31L136.196 190.271L136.191 190.26C136.107 190.11 136.038 189.958 135.977 189.804L135.959 189.763L135.932 189.669C135.895 189.562 135.863 189.454 135.839 189.346L135.815 189.264L135.807 189.191C135.787 189.079 135.775 188.967 135.769 188.854L135.758 188.759L135.756 188.682L135.721 176.059Z" fill="url(#paint5_linear)"/>
<path fill-rule="evenodd" clip-rule="evenodd" d="M148.749 160.304C148.079 160.69 147.507 161.144 147.064 161.657L136.658 173.758C134.241 176.57 136.69 179.962 141.836 180.933L161.095 184.56C164.414 185.186 167.859 184.615 170.136 183.301C171.389 182.578 172.287 181.629 172.616 180.53L176.607 167.225C177.359 164.706 174.815 162.254 170.632 161.468L157.785 159.047C154.536 158.435 151.063 158.967 148.749 160.304Z" fill="#D24566"/>
<path fill-rule="evenodd" clip-rule="evenodd" d="M247.551 23.243L247.561 23.389C247.566 23.512 247.581 23.633 247.603 23.755L247.623 23.869C247.654 24.016 247.695 24.163 247.749 24.308L247.775 24.371C247.828 24.505 247.891 24.636 247.961 24.767L248.017 24.868C248.108 25.026 248.213 25.182 248.33 25.334L248.389 25.406C248.537 25.59 248.702 25.769 248.888 25.942L248.973 26.018C249.097 26.129 249.228 26.237 249.367 26.343L249.467 26.42C249.631 26.54 249.806 26.657 249.99 26.769L250.085 26.824C250.351 26.982 250.636 27.13 250.938 27.268L251.049 27.316C251.354 27.449 251.675 27.573 252.014 27.685C252.133 27.724 252.251 27.764 252.375 27.801L264.399 31.358C264.844 31.49 265.301 31.596 265.763 31.68C266.181 31.757 266.604 31.814 267.03 31.853L267.282 31.87C267.626 31.896 267.97 31.91 268.313 31.913C268.407 31.914 268.502 31.915 268.596 31.914C268.995 31.91 269.393 31.892 269.785 31.857L269.992 31.834C270.337 31.797 270.678 31.749 271.013 31.69L271.272 31.645C271.661 31.569 272.042 31.479 272.411 31.373C272.524 31.34 272.629 31.297 272.739 31.262C273.022 31.171 273.303 31.078 273.569 30.969L273.743 30.894C274.082 30.748 274.41 30.591 274.714 30.416C275.065 30.213 275.392 29.99 275.688 29.75L289.229 18.735C290.072 18.048 290.582 17.288 290.783 16.516C290.85 16.259 290.883 16 290.882 15.742L290.918 28.365C290.921 29.396 290.39 30.442 289.264 31.359L275.724 42.373C275.428 42.613 275.101 42.836 274.75 43.039C274.445 43.214 274.117 43.371 273.778 43.517L273.605 43.592L273.471 43.651C273.248 43.738 273.01 43.81 272.774 43.885C272.664 43.921 272.56 43.963 272.447 43.996L272.399 44.011C272.094 44.099 271.78 44.175 271.46 44.242L271.308 44.268L271.049 44.313C270.893 44.34 270.738 44.372 270.579 44.395C270.397 44.421 270.212 44.437 270.027 44.457L269.822 44.479L269.715 44.491C269.426 44.515 269.136 44.531 268.844 44.538L268.632 44.537C268.537 44.538 268.443 44.536 268.35 44.536C268.213 44.535 268.076 44.539 267.939 44.534C267.732 44.527 267.525 44.508 267.318 44.493L267.066 44.476L266.964 44.469C266.583 44.431 266.204 44.379 265.829 44.311L265.799 44.303C265.336 44.219 264.88 44.112 264.436 43.981L252.41 40.424C252.309 40.394 252.209 40.363 252.11 40.331L252.049 40.308C251.71 40.196 251.389 40.072 251.085 39.939L250.975 39.89C250.671 39.753 250.387 39.605 250.121 39.447L250.066 39.419L250.025 39.392C249.842 39.28 249.667 39.163 249.502 39.043L249.402 38.966C249.264 38.86 249.133 38.752 249.009 38.641L248.944 38.588L248.923 38.565C248.738 38.392 248.573 38.213 248.425 38.028L248.387 37.988L248.366 37.957C248.248 37.805 248.145 37.65 248.053 37.491L248.026 37.452L247.997 37.39C247.926 37.259 247.863 37.127 247.812 36.993L247.789 36.946L247.784 36.931C247.731 36.786 247.69 36.639 247.658 36.492L247.646 36.448L247.638 36.378C247.616 36.256 247.603 36.134 247.596 36.012L247.588 35.943L247.587 35.866L247.551 23.243Z" fill="url(#paint6_linear)"/>
<path fill-rule="evenodd" clip-rule="evenodd" d="M257.702 6.791C256.768 7.331 256.023 8.002 255.564 8.782L248.029 21.574C246.605 23.989 248.458 26.644 252.376 27.801L264.4 31.358C267.869 32.384 272.028 31.967 274.715 30.416C275.066 30.213 275.393 29.99 275.689 29.75L289.23 18.735C292.375 16.174 290.876 12.602 286.06 11.177L268.024 5.845C264.472 4.795 260.332 5.273 257.702 6.791Z" fill="#D24566"/>
<path fill-rule="evenodd" clip-rule="evenodd" d="M310.224 65.042L310.016 65.052C309.861 65.063 309.708 65.071 309.554 65.077L309.408 65.712L309.393 65.086L309.223 65.085C309.056 65.087 308.887 65.086 308.717 65.083H308.609L308.502 65.708L308.492 65.08C308.18 65.065 307.948 65.049 307.716 65.028L307.522 65.643L307.601 65.022C307.235 64.983 306.915 64.936 306.598 64.882L306.327 64.832C306.166 64.8 306.008 64.767 305.851 64.73L305.562 64.66C305.401 64.618 305.243 64.572 305.087 64.525L304.842 64.451C304.544 64.352 304.248 64.239 303.964 64.115L303.85 64.064C303.506 63.905 303.233 63.768 302.978 63.615C302.803 63.511 302.647 63.41 302.499 63.303L294.022 57.216C293.844 57.087 293.682 56.952 293.529 56.815L293.415 56.706C293.269 56.567 293.138 56.427 293.022 56.284L292.965 56.221C292.848 56.061 292.772 55.944 292.702 55.824L292.635 55.694L292.517 55.44L292.468 55.305L292.397 55.061L292.365 54.955C292.351 54.835 292.343 54.75 292.337 54.665L292.325 54.559L292.297 44.773L292.512 44.987L292.654 45.123C292.841 45.29 293.038 45.453 293.256 45.61L301.733 51.698C301.913 51.827 302.103 51.95 302.299 52.068C302.59 52.242 302.904 52.402 303.229 52.551L303.426 52.64C303.747 52.78 304.078 52.907 304.423 53.02L304.602 53.075C304.858 53.153 305.034 53.204 305.212 53.25L305.528 53.327C305.701 53.367 305.876 53.405 306.053 53.439L306.35 53.494C306.694 53.553 307.044 53.604 307.398 53.64L307.517 53.649C307.818 53.676 308.072 53.693 308.326 53.704L308.656 53.713C308.838 53.716 309.022 53.717 309.208 53.715L309.563 53.706C309.73 53.701 309.899 53.691 310.068 53.679L310.427 53.652C310.595 53.637 310.766 53.617 310.936 53.595L311.275 53.551C311.482 53.521 311.687 53.483 311.892 53.444L312.135 53.4C312.438 53.336 312.733 53.263 313.026 53.181C313.264 53.115 313.497 53.044 313.728 52.965L333.814 46.079C334.106 45.979 334.378 45.868 334.643 45.754L334.895 45.644C335.174 45.516 335.443 45.381 335.691 45.238C336.356 44.854 336.919 44.412 337.368 43.929L337.396 53.657C337.399 54.795 336.563 55.932 335.101 56.776C334.885 56.9 334.65 57.016 334.407 57.129L333.901 57.348C333.752 57.407 333.602 57.463 333.445 57.516L313.355 64.402C313.162 64.469 312.967 64.53 312.769 64.587C312.458 64.672 312.189 64.738 311.916 64.795L311.689 64.837C311.502 64.873 311.315 64.907 311.127 64.935L310.814 64.975C310.658 64.995 310.503 65.013 310.347 65.027L310.274 65.666L310.224 65.042ZM309.051 66.339L309.242 66.338L309.424 66.339L309.539 66.333C309.767 66.323 309.934 66.314 310.103 66.302L310.462 66.275C310.632 66.259 310.801 66.24 310.971 66.218L311.219 66.191C311.517 66.144 311.721 66.107 311.923 66.068L312.134 66.031C312.474 65.959 312.771 65.886 313.062 65.804C313.332 65.729 313.549 65.661 313.763 65.588L333.851 58.702C334.024 58.643 334.193 58.58 334.358 58.515L334.585 58.419L334.932 58.267C335.211 58.138 335.479 58.004 335.727 57.861C337.589 56.786 338.653 55.253 338.649 53.653L338.613 41.03L337.359 41.034C337.363 42.173 336.526 43.309 335.064 44.153C334.85 44.277 334.615 44.394 334.371 44.506L334.234 44.566C333.911 44.705 333.669 44.804 333.408 44.894L313.32 51.779C313.112 51.851 312.902 51.915 312.689 51.975C312.423 52.049 312.152 52.115 311.878 52.173L311.753 52.196C311.469 52.25 311.281 52.284 311.092 52.312L310.868 52.341C310.623 52.372 310.468 52.39 310.313 52.404L310.021 52.427C309.827 52.44 309.673 52.449 309.519 52.454L309.191 52.462C309.022 52.465 308.851 52.463 308.682 52.46L308.379 52.452C308.145 52.442 307.912 52.426 307.68 52.405L307.462 53.017L307.525 52.394C307.2 52.36 306.88 52.314 306.563 52.259L306.292 52.209C306.13 52.177 305.971 52.144 305.813 52.107L305.525 52.037C305.366 51.996 305.208 51.95 305.051 51.902L304.814 51.83C304.508 51.729 304.212 51.616 303.928 51.492L303.813 51.441C303.471 51.283 303.197 51.146 302.943 50.993C302.776 50.893 302.616 50.789 302.464 50.68L293.987 44.593C293.808 44.464 293.645 44.328 293.492 44.191L293.42 44.123C293.235 43.946 293.104 43.806 292.987 43.663C292.838 43.477 292.747 43.341 292.668 43.204L292.293 43.346V43.281L292.599 43.071L292.48 42.818L292.43 42.678L292.36 42.438L292.329 42.295L292.301 42.042L292.289 42.041V41.889L291.035 41.891V41.893L291.072 54.625L291.086 54.746C291.095 54.877 291.108 55.009 291.133 55.142C291.15 55.264 291.163 55.309 291.178 55.353C291.206 55.469 291.239 55.588 291.28 55.707L291.316 55.826L291.361 55.927C291.405 56.034 291.464 56.157 291.527 56.281L291.591 56.411C291.726 56.639 291.848 56.822 291.988 57.002L292.071 57.099C292.198 57.258 292.365 57.437 292.55 57.612L292.636 57.702C292.877 57.913 293.072 58.076 293.291 58.234L301.769 64.321C301.944 64.447 302.127 64.567 302.317 64.682C302.627 64.866 302.939 65.025 303.265 65.174L303.462 65.263C303.783 65.403 304.114 65.53 304.457 65.643L304.652 65.704C304.896 65.776 305.069 65.827 305.248 65.873L305.567 65.95C305.738 65.99 305.912 66.027 306.089 66.062L306.385 66.116C306.731 66.176 307.081 66.227 307.436 66.263L307.563 66.273C307.855 66.299 308.107 66.316 308.361 66.327L308.618 66.336C308.787 66.338 308.925 66.339 309.051 66.339Z" fill="url(#paint7_linear)"/>
<path fill-rule="evenodd" clip-rule="evenodd" d="M316.427 27.412C318.869 27.412 321.295 28.019 322.952 29.211L335.659 38.333C336.82 39.169 337.408 40.146 337.357 41.159C337.302 42.268 336.487 43.332 335.064 44.153C334.575 44.436 334.018 44.685 333.408 44.894L313.32 51.779C309.729 53.013 305.06 52.54 302.464 50.68L293.987 44.593C292.861 43.784 292.258 42.794 292.289 41.807C292.323 40.755 293.062 39.726 294.368 38.908L310.452 28.841C312.111 27.883 314.275 27.412 316.427 27.412ZM308.98 53.725C310.599 53.725 312.234 53.477 313.727 52.965L333.814 46.079C334.5 45.844 335.132 45.561 335.691 45.238C337.495 44.196 338.531 42.771 338.608 41.222C338.681 39.784 337.893 38.397 336.391 37.316L323.684 28.193C320.155 25.655 313.81 25.455 309.825 27.756C309.733 27.809 309.644 27.863 309.555 27.918L293.703 37.846C292.032 38.892 291.085 40.284 291.037 41.767C290.991 43.184 291.779 44.549 293.257 45.611L301.733 51.698C303.58 53.022 306.255 53.725 308.98 53.725Z" fill="#02B0A4"/>
<path fill-rule="evenodd" clip-rule="evenodd" d="M318.81 69.34C318.81 69.546 318.835 69.754 318.88 69.962L318.917 70.093C318.965 70.277 319.021 70.462 319.105 70.646L322.561 78.21C322.616 78.331 322.684 78.448 322.754 78.565C322.826 78.687 322.907 78.806 322.994 78.922L323.088 79.053C323.232 79.234 323.396 79.407 323.572 79.574L323.743 79.726C323.839 79.81 323.937 79.893 324.041 79.973L324.252 80.128C324.36 80.205 324.472 80.279 324.586 80.352L324.788 80.477C325.057 80.635 325.341 80.784 325.642 80.921L325.805 80.991C326.123 81.13 326.453 81.26 326.802 81.372L326.855 81.388C327.085 81.461 327.321 81.528 327.563 81.59L327.825 81.65C328.002 81.691 328.181 81.731 328.362 81.765L328.624 81.811C328.908 81.858 329.197 81.899 329.491 81.931L329.671 81.952C329.964 81.981 330.261 82.001 330.561 82.012L330.794 82.015C331.002 82.019 331.211 82.022 331.422 82.018C331.664 82.013 331.907 82.004 332.151 81.987L355.311 80.42C355.458 80.41 355.603 80.394 355.748 80.38C355.921 80.362 356.092 80.345 356.261 80.322C356.364 80.309 356.468 80.293 356.57 80.277C356.751 80.25 356.93 80.219 357.105 80.185C357.196 80.167 357.287 80.149 357.377 80.131C357.66 80.069 357.938 80.004 358.206 79.928L358.214 79.925C358.549 79.83 358.866 79.719 359.174 79.602L359.357 79.532C359.503 79.473 359.643 79.411 359.782 79.347L359.981 79.257C360.182 79.16 360.376 79.059 360.56 78.953C362.21 78 363.196 76.688 363.192 75.291L363.229 87.914C363.232 89.311 362.246 90.623 360.596 91.576C360.411 91.682 360.218 91.783 360.018 91.88L359.816 91.971C359.678 92.034 359.538 92.097 359.393 92.155L359.312 92.191L359.21 92.225C358.901 92.343 358.583 92.453 358.248 92.549L358.244 92.55H358.243C357.975 92.626 357.696 92.693 357.413 92.754L357.318 92.776L357.141 92.808C356.965 92.842 356.787 92.872 356.606 92.901L356.441 92.929L356.296 92.945C356.128 92.968 355.956 92.985 355.784 93.002L355.568 93.026L355.346 93.043L332.188 94.61C331.97 94.625 331.752 94.635 331.535 94.641L331.459 94.64C331.245 94.645 331.034 94.642 330.823 94.637L330.625 94.636L330.598 94.635C330.297 94.624 329.999 94.604 329.705 94.575L329.653 94.571L329.529 94.555C329.234 94.523 328.944 94.482 328.659 94.433L328.516 94.413L328.399 94.388C328.217 94.354 328.038 94.315 327.86 94.273L327.599 94.213C327.357 94.151 327.121 94.084 326.891 94.011L326.841 93.997L326.838 93.995C326.489 93.883 326.158 93.753 325.84 93.614L325.678 93.544C325.377 93.407 325.093 93.259 324.824 93.1L324.75 93.061L324.622 92.975C324.507 92.903 324.395 92.828 324.288 92.751L324.077 92.596C323.973 92.516 323.875 92.433 323.779 92.35L323.651 92.243L323.607 92.196C323.431 92.029 323.269 91.856 323.124 91.676L323.102 91.651L323.029 91.545C322.943 91.428 322.861 91.31 322.789 91.189L322.741 91.117C322.689 91.024 322.641 90.929 322.596 90.832L319.141 83.27L319.048 83.046C319.006 82.936 318.982 82.826 318.953 82.716L318.915 82.585L318.904 82.546C318.87 82.377 318.851 82.208 318.846 82.04L318.845 81.963L318.81 69.34Z" fill="url(#paint8_linear)"/>
<path fill-rule="evenodd" clip-rule="evenodd" d="M321.435 65.674C319.239 66.942 318.274 68.825 319.105 70.646L322.561 78.21C323.688 80.677 327.769 82.283 332.152 81.987L355.311 80.42C357.389 80.279 359.199 79.738 360.56 78.953C362.721 77.705 363.744 75.84 362.894 73.978L357.713 62.637C356.323 59.607 350.616 58.003 345.633 59.246L324.2 64.59C323.141 64.855 322.211 65.226 321.435 65.674Z" fill="#D24566"/>
</g>
<defs>
<linearGradient id="paint0_linear" x1="194.926" y1="96.8217" x2="187.09" y2="109.468" gradientUnits="userSpaceOnUse">
<stop stop-color="#EEEEEE" stop-opacity="0.01"/>
<stop offset="1" stop-color="#D8D8D8"/>
</linearGradient>
<linearGradient id="paint1_linear" x1="139.969" y1="23.905" x2="139.969" y2="51.2975" gradientUnits="userSpaceOnUse">
<stop stop-color="#7A0B77"/>
<stop offset="1" stop-color="#D74963"/>
</linearGradient>
<linearGradient id="paint2_linear" x1="101.207" y1="51.332" x2="101.207" y2="75.9025" gradientUnits="userSpaceOnUse">
<stop stop-color="#7A0B77"/>
<stop offset="1" stop-color="#D74963"/>
</linearGradient>
<linearGradient id="paint3_linear" x1="82.1145" y1="80.907" x2="82.1145" y2="107.671" gradientUnits="userSpaceOnUse">
<stop stop-color="#02B0A4"/>
<stop offset="1" stop-color="#2284C7"/>
</linearGradient>
<linearGradient id="paint4_linear" x1="128.772" y1="151.924" x2="128.772" y2="181.578" gradientUnits="userSpaceOnUse">
<stop stop-color="#02B0A4"/>
<stop offset="1" stop-color="#2284C7"/>
</linearGradient>
<linearGradient id="paint5_linear" x1="176.773" y1="166.332" x2="176.773" y2="197.434" gradientUnits="userSpaceOnUse">
<stop stop-color="#7A0B77"/>
<stop offset="1" stop-color="#D74963"/>
</linearGradient>
<linearGradient id="paint6_linear" x1="290.918" y1="15.742" x2="290.918" y2="44.538" gradientUnits="userSpaceOnUse">
<stop stop-color="#7A0B77"/>
<stop offset="1" stop-color="#D74963"/>
</linearGradient>
<linearGradient id="paint7_linear" x1="338.649" y1="41.03" x2="338.649" y2="66.339" gradientUnits="userSpaceOnUse">
<stop stop-color="#02B0A4"/>
<stop offset="1" stop-color="#2284C7"/>
</linearGradient>
<linearGradient id="paint8_linear" x1="363.229" y1="69.34" x2="363.229" y2="94.6426" gradientUnits="userSpaceOnUse">
<stop stop-color="#7A0B77"/>
<stop offset="1" stop-color="#D74963"/>
</linearGradient>
</defs>
</svg>
