<svg width="340" height="232" viewBox="0 0 340 232" fill="none" xmlns="http://www.w3.org/2000/svg">
<path fill-rule="evenodd" clip-rule="evenodd" d="M161.269 72.348L160.607 72.346L160.192 72.347L160.188 71.266L160.607 71.265L161.273 71.267L161.269 72.348ZM156.959 72.385L156.936 71.304L158.02 71.285L158.036 72.366L156.959 72.385ZM164.502 72.391L163.425 72.37L163.443 71.289L164.528 71.31L164.502 72.391ZM153.73 72.484L153.685 71.404L154.768 71.364L154.805 72.444L153.73 72.484ZM167.735 72.495L166.658 72.453L166.695 71.373L167.78 71.415L167.735 72.495ZM150.502 72.645L150.438 71.566L151.521 71.506L151.578 72.585L150.502 72.645ZM170.966 72.66L169.889 72.598L169.948 71.519L171.033 71.581L170.966 72.66ZM147.281 72.867L147.195 71.79L148.276 71.708L148.354 72.786L147.281 72.867ZM174.193 72.887L173.118 72.805L173.196 71.727L174.279 71.81L174.193 72.887ZM144.063 73.151L143.958 72.075L145.037 71.973L145.134 73.049L144.063 73.151ZM177.416 73.177L176.341 73.073L176.443 71.997L177.523 72.102L177.416 73.177ZM140.853 73.497L140.726 72.424L141.802 72.301L141.921 73.375L140.853 73.497ZM180.634 73.529L179.562 73.405L179.683 72.331L180.763 72.456L180.634 73.529ZM137.653 73.906L137.504 72.836L138.578 72.691L138.718 73.762L137.653 73.906ZM183.845 73.946L182.775 73.8L182.918 72.729L183.994 72.876L183.845 73.946ZM134.46 74.38L134.291 73.312L135.36 73.146L135.522 74.214L134.46 74.38ZM187.045 74.426L185.979 74.259L186.143 73.191L187.217 73.359L187.045 74.426ZM131.281 74.918L131.089 73.855L132.156 73.666L132.339 74.732L131.281 74.918ZM190.237 74.973L189.174 74.783L189.36 73.719L190.43 73.909L190.237 74.973ZM128.113 75.522L127.9 74.462L128.96 74.253L129.167 75.313L128.113 75.522ZM193.418 75.586L192.359 75.374L192.568 74.314L193.633 74.526L193.418 75.586ZM124.96 76.193L124.724 75.139L125.781 74.906L126.009 75.963L124.96 76.193ZM196.584 76.268L195.53 76.033L195.76 74.977L196.823 75.213L196.584 76.268ZM121.824 76.932L121.564 75.883L122.615 75.627L122.867 76.678L121.824 76.932ZM199.736 77.019L198.686 76.76L198.942 75.71L199.999 75.97L199.736 77.019ZM118.706 77.742L118.42 76.699C118.768 76.604 119.117 76.511 119.465 76.42L119.741 77.464L118.706 77.742ZM202.869 77.841L201.825 77.558L202.104 76.514L203.156 76.799L202.869 77.841ZM115.608 78.623L115.299 77.587L116.338 77.283L116.637 78.322L115.608 78.623ZM205.978 78.735L204.947 78.429L205.25 77.391L206.291 77.7L205.978 78.735ZM112.523 79.582L112.191 78.553L113.225 78.223L113.549 79.254L112.523 79.582ZM209.06 79.702L208.036 79.371L208.364 78.341L209.396 78.674L209.06 79.702ZM109.463 80.615L109.104 79.596L110.129 79.239L110.481 80.262L109.463 80.615ZM212.115 80.745L211.1 80.389L211.454 79.367L212.478 79.727L212.115 80.745ZM106.434 81.728L106.047 80.718L107.063 80.336L107.44 81.348L106.434 81.728ZM215.145 81.867L214.137 81.484L214.518 80.472L215.532 80.858L215.145 81.867ZM103.434 82.921L103.02 81.922C103.354 81.784 103.69 81.647 104.026 81.511L104.43 82.514C104.096 82.648 103.764 82.784 103.434 82.921ZM218.139 83.07L217.143 82.66L217.551 81.659L218.555 82.072L218.139 83.07ZM100.47 84.197L100.029 83.211C100.359 83.063 100.689 82.917 101.023 82.771L101.455 83.762C101.125 83.906 100.796 84.051 100.47 84.197ZM221.098 84.356L220.115 83.918L220.55 82.928L221.542 83.37L221.098 84.356ZM97.545 85.559L97.075 84.586C97.401 84.429 97.727 84.273 98.055 84.118L98.516 85.096C98.192 85.249 97.868 85.403 97.545 85.559ZM224.018 85.729C223.697 85.571 223.374 85.416 223.049 85.261L223.514 84.285C223.841 84.441 224.168 84.599 224.493 84.757L224.018 85.729ZM94.665 87.009L94.163 86.052C94.483 85.884 94.805 85.718 95.128 85.553L95.619 86.516C95.299 86.679 94.981 86.843 94.665 87.009ZM226.893 87.19C226.577 87.022 226.259 86.857 225.94 86.693L226.434 85.731C226.757 85.898 227.079 86.065 227.399 86.235L226.893 87.19ZM91.832 88.551L91.3 87.61C91.615 87.432 91.931 87.255 92.249 87.08L92.771 88.026C92.457 88.2 92.144 88.375 91.832 88.551ZM229.718 88.743C229.409 88.566 229.096 88.389 228.783 88.215L229.308 87.27C229.625 87.447 229.942 87.625 230.255 87.804L229.718 88.743ZM89.054 90.187L88.49 89.266C88.797 89.077 89.108 88.889 89.42 88.703L89.973 89.632C89.665 89.815 89.358 90.001 89.054 90.187ZM232.49 90.391C232.187 90.203 231.881 90.017 231.574 89.831L232.13 88.905C232.444 89.093 232.753 89.282 233.06 89.472L232.49 90.391ZM86.338 91.921L85.741 91.021C86.042 90.82 86.344 90.621 86.651 90.424L87.237 91.332C86.934 91.527 86.635 91.724 86.338 91.921ZM235.197 92.135C234.902 91.937 234.603 91.739 234.302 91.542L234.894 90.638C235.199 90.838 235.501 91.038 235.8 91.239L235.197 92.135ZM83.694 93.757L83.059 92.882C83.351 92.67 83.647 92.459 83.946 92.249L84.567 93.134C84.272 93.341 83.982 93.548 83.694 93.757ZM237.835 93.985C237.546 93.774 237.256 93.565 236.963 93.357L237.59 92.476C237.887 92.687 238.181 92.9 238.472 93.112L237.835 93.985ZM81.127 95.701L80.458 94.854C80.741 94.63 81.027 94.406 81.316 94.184L81.974 95.041C81.689 95.26 81.407 95.48 81.127 95.701ZM240.387 95.941C240.111 95.718 239.83 95.497 239.547 95.277L240.209 94.423C240.499 94.648 240.785 94.873 241.065 95.099L240.387 95.941ZM78.653 97.757L77.944 96.941C78.216 96.704 78.492 96.468 78.77 96.233L79.467 97.059C79.193 97.29 78.921 97.523 78.653 97.757ZM242.852 98.01C242.585 97.775 242.315 97.541 242.041 97.307L242.745 96.486C243.022 96.723 243.296 96.961 243.567 97.2L242.852 98.01ZM76.284 99.928L75.534 99.15C75.793 98.9 76.057 98.649 76.324 98.401L77.062 99.191C76.799 99.436 76.539 99.682 76.284 99.928ZM245.207 100.196C244.954 99.948 244.697 99.701 244.435 99.454L245.177 98.668C245.443 98.919 245.706 99.171 245.963 99.423L245.207 100.196ZM74.033 102.22L73.242 101.485C73.488 101.219 73.738 100.955 73.991 100.692L74.77 101.442C74.521 101.7 74.275 101.96 74.033 102.22ZM247.442 102.502C247.204 102.24 246.96 101.98 246.712 101.72L247.496 100.974C247.748 101.239 247.997 101.505 248.241 101.773L247.442 102.502ZM71.919 104.634L71.085 103.948C71.315 103.668 71.549 103.389 71.79 103.111L72.608 103.817C72.374 104.089 72.145 104.361 71.919 104.634ZM249.541 104.931C249.318 104.656 249.09 104.382 248.859 104.108L249.683 103.409C249.92 103.689 250.152 103.969 250.38 104.251L249.541 104.931ZM69.961 107.172L69.084 106.542C69.295 106.248 69.512 105.955 69.732 105.662L70.595 106.313C70.379 106.598 70.168 106.885 69.961 107.172ZM251.479 107.484C251.275 107.195 251.065 106.907 250.852 106.62L251.719 105.975C251.938 106.269 252.152 106.564 252.362 106.86L251.479 107.484ZM68.18 109.834L67.26 109.266C67.452 108.957 67.647 108.65 67.846 108.343L68.752 108.933C68.557 109.233 68.366 109.533 68.18 109.834ZM253.239 110.162C253.054 109.859 252.867 109.557 252.673 109.256L253.583 108.672C253.781 108.981 253.974 109.29 254.163 109.6L253.239 110.162ZM66.598 112.617L65.639 112.119C65.806 111.797 65.978 111.476 66.155 111.154L67.102 111.676C66.929 111.989 66.761 112.303 66.598 112.617ZM254.794 112.957C254.634 112.642 254.469 112.326 254.299 112.012L255.251 111.498C255.424 111.82 255.593 112.144 255.757 112.467L254.794 112.957ZM65.242 115.512L64.246 115.094C64.386 114.758 64.532 114.423 64.683 114.089L65.667 114.536C65.52 114.861 65.378 115.186 65.242 115.512ZM256.122 115.864C255.988 115.537 255.848 115.209 255.705 114.883L256.695 114.447C256.842 114.783 256.984 115.119 257.122 115.456L256.122 115.864ZM64.135 118.507L63.106 118.177C63.217 117.83 63.334 117.482 63.457 117.137L64.475 117.498C64.356 117.834 64.243 118.17 64.135 118.507ZM257.197 118.869C257.093 118.531 256.984 118.194 256.869 117.858L257.89 117.508C258.009 117.855 258.123 118.203 258.23 118.553L257.197 118.869ZM63.3 121.586L62.246 121.352C62.325 120.996 62.41 120.641 62.498 120.286L63.547 120.55C63.46 120.895 63.377 121.24 63.3 121.586ZM258 121.959C257.927 121.613 257.848 121.267 257.764 120.921L258.815 120.667C258.901 121.023 258.982 121.379 259.057 121.736L258 121.959ZM62.757 124.726L61.685 124.593C61.73 124.232 61.78 123.869 61.837 123.508L62.905 123.678C62.85 124.027 62.8 124.376 62.757 124.726ZM258.508 125.11C258.469 124.757 258.423 124.405 258.373 124.054L259.443 123.899C259.496 124.263 259.541 124.626 259.583 124.991L258.508 125.11ZM62.519 127.901L61.439 127.872C61.449 127.507 61.464 127.143 61.485 126.778L62.565 126.84C62.544 127.193 62.529 127.548 62.519 127.901ZM258.709 128.293C258.703 127.939 258.692 127.584 258.675 127.229L259.755 127.18C259.772 127.545 259.783 127.911 259.789 128.275L258.709 128.293ZM61.513 131.165C61.488 130.8 61.467 130.436 61.453 130.069L62.533 130.026C62.547 130.381 62.566 130.734 62.591 131.089L61.513 131.165ZM259.676 131.565L258.598 131.477C258.627 131.122 258.652 130.77 258.669 130.416L259.749 130.473C259.73 130.836 259.706 131.199 259.676 131.565ZM61.908 134.439C61.846 134.076 61.791 133.714 61.742 133.351L62.812 133.204C62.86 133.556 62.915 133.906 62.974 134.257L61.908 134.439ZM259.243 134.828L258.18 134.633C258.245 134.284 258.302 133.935 258.354 133.586L259.422 133.744C259.369 134.107 259.309 134.468 259.243 134.828ZM62.612 137.652C62.516 137.298 62.427 136.943 62.343 136.587L63.396 136.341C63.476 136.685 63.563 137.028 63.655 137.371L62.612 137.652ZM258.504 138.034L257.463 137.741C257.56 137.399 257.65 137.057 257.735 136.714L258.784 136.972C258.697 137.326 258.603 137.681 258.504 138.034ZM63.605 140.786C63.479 140.442 63.359 140.097 63.244 139.751L64.269 139.409C64.38 139.745 64.499 140.08 64.621 140.415L63.605 140.786ZM257.477 141.157L256.465 140.775C256.592 140.442 256.713 140.107 256.829 139.774L257.85 140.127C257.731 140.471 257.606 140.815 257.477 141.157ZM64.866 143.821C64.711 143.489 64.562 143.156 64.417 142.823L65.41 142.394C65.55 142.719 65.696 143.042 65.846 143.366L64.866 143.821ZM256.185 144.179L255.21 143.712C255.365 143.391 255.512 143.068 255.656 142.745L256.644 143.183C256.497 143.516 256.343 143.848 256.185 144.179ZM66.37 146.74C66.19 146.421 66.015 146.102 65.844 145.782L66.797 145.273C66.964 145.586 67.135 145.898 67.311 146.209L66.37 146.74ZM254.655 147.083L253.719 146.542C253.899 146.233 254.072 145.922 254.241 145.612L255.19 146.128C255.017 146.447 254.838 146.766 254.655 147.083ZM68.089 149.534C67.885 149.229 67.687 148.923 67.493 148.617L68.407 148.039C68.595 148.339 68.79 148.637 68.988 148.935L68.089 149.534ZM252.912 149.861L252.017 149.256C252.218 148.959 252.413 148.661 252.606 148.364L253.514 148.95C253.318 149.255 253.117 149.559 252.912 149.861ZM69.998 152.198C69.775 151.908 69.555 151.617 69.341 151.324L70.212 150.686C70.422 150.971 70.636 151.256 70.855 151.54L69.998 152.198ZM250.982 152.509L250.128 151.845C250.349 151.562 250.565 151.278 250.777 150.994L251.644 151.641C251.428 151.931 251.206 152.22 250.982 152.509ZM72.075 154.731C71.835 154.455 71.597 154.179 71.365 153.901L72.193 153.207C72.421 153.48 72.653 153.75 72.889 154.02L72.075 154.731ZM248.886 155.027L248.076 154.311C248.313 154.043 248.547 153.773 248.777 153.503L249.601 154.202C249.366 154.479 249.127 154.754 248.886 155.027ZM74.296 157.133C74.041 156.871 73.789 156.609 73.541 156.346L74.329 155.606C74.572 155.863 74.819 156.121 75.07 156.377L74.296 157.133ZM246.647 157.414L245.879 156.652C246.133 156.398 246.381 156.142 246.626 155.886L247.408 156.632C247.159 156.894 246.905 157.153 246.647 157.414ZM76.645 159.406C76.377 159.159 76.112 158.911 75.85 158.662L76.594 157.879C76.852 158.124 77.113 158.368 77.377 158.611L76.645 159.406ZM244.284 159.673L243.557 158.874C243.823 158.632 244.085 158.39 244.344 158.147L245.084 158.934C244.822 159.181 244.555 159.427 244.284 159.673ZM79.106 161.56C78.826 161.326 78.547 161.092 78.273 160.856L78.98 160.037C79.249 160.27 79.521 160.5 79.797 160.729L79.106 161.56ZM241.811 161.811L241.126 160.975C241.402 160.747 241.676 160.518 241.948 160.287L242.647 161.111C242.372 161.346 242.093 161.579 241.811 161.811ZM81.663 163.593C81.373 163.372 81.085 163.151 80.8 162.927L81.468 162.077C81.748 162.297 82.031 162.515 82.317 162.731L81.663 163.593ZM239.247 163.83L238.598 162.965C238.885 162.75 239.168 162.533 239.45 162.316L240.112 163.169C239.827 163.391 239.538 163.611 239.247 163.83ZM84.301 165.511C84.003 165.303 83.708 165.094 83.414 164.885L84.041 164.004C84.333 164.211 84.625 164.418 84.92 164.624L84.301 165.511ZM236.596 165.736L235.983 164.846C236.28 164.642 236.573 164.437 236.863 164.232L237.488 165.112C237.194 165.321 236.897 165.528 236.596 165.736ZM87.016 167.322C86.71 167.126 86.407 166.929 86.105 166.73L86.698 165.826C86.997 166.023 87.296 166.218 87.6 166.412L87.016 167.322ZM233.874 167.533L233.294 166.621C233.599 166.428 233.9 166.235 234.2 166.04L234.788 166.946C234.486 167.143 234.181 167.338 233.874 167.533ZM89.796 169.031C89.483 168.846 89.171 168.66 88.862 168.473L89.424 167.549C89.728 167.734 90.036 167.918 90.345 168.1L89.796 169.031ZM231.087 169.231L230.542 168.297C230.853 168.115 231.161 167.933 231.466 167.749L232.023 168.677C231.713 168.862 231.402 169.047 231.087 169.231ZM229.686 170.033L229.157 169.092C229.469 168.916 229.781 168.738 230.091 168.56L230.63 169.495C230.318 169.676 230.002 169.856 229.686 170.033ZM92.632 170.642C92.313 170.468 91.995 170.292 91.679 170.115L92.208 169.172C92.52 169.347 92.834 169.521 93.15 169.693L92.632 170.642ZM226.82 171.585L226.32 170.626L227.272 170.125L227.78 171.079L226.82 171.585ZM95.519 172.156L94.553 171.662L95.047 170.701L96.007 171.192L95.519 172.156ZM223.904 173.043L223.435 172.068C223.759 171.913 224.081 171.756 224.402 171.598L224.88 172.567C224.556 172.727 224.23 172.886 223.904 173.043ZM98.451 173.58C98.123 173.427 97.794 173.272 97.468 173.115L97.935 172.141C98.257 172.295 98.582 172.448 98.908 172.6L98.451 173.58ZM220.946 174.412L220.508 173.424C220.836 173.278 221.163 173.131 221.488 172.983L221.937 173.965C221.608 174.115 221.278 174.265 220.946 174.412ZM101.424 174.914C101.091 174.772 100.76 174.626 100.429 174.48L100.867 173.491C101.194 173.636 101.523 173.779 101.852 173.922L101.424 174.914ZM217.952 175.693L217.539 174.693L218.534 174.279L218.954 175.275L217.952 175.693ZM104.432 176.162L103.424 175.755L103.835 174.755L104.832 175.158L104.432 176.162ZM214.923 176.89L214.539 175.88L215.543 175.493L215.936 176.499L214.923 176.89ZM107.473 177.327L106.456 176.948L106.839 175.937L107.848 176.314L107.473 177.327ZM211.863 178.005L211.505 176.986L212.519 176.625L212.886 177.643L211.863 178.005ZM110.544 178.412L109.518 178.06L109.873 177.038L110.892 177.389L110.544 178.412ZM208.776 179.041L208.444 178.012L209.467 177.679L209.807 178.704L208.776 179.041ZM113.64 179.419C113.294 179.312 112.949 179.202 112.605 179.092L112.937 178.063C113.277 178.173 113.619 178.28 113.962 178.388L113.64 179.419ZM205.668 180L205.363 178.963C205.707 178.862 206.048 178.76 206.39 178.656L206.705 179.69C206.361 179.795 206.015 179.898 205.668 180ZM116.761 180.35L115.717 180.048L116.022 179.011L117.056 179.311L116.761 180.35ZM202.545 180.882L202.262 179.839L203.297 179.556L203.586 180.597L202.545 180.882ZM119.912 181.209C119.56 181.117 119.208 181.025 118.858 180.93L119.139 179.887L120.183 180.162L119.912 181.209ZM199.401 181.692L199.143 180.644L200.184 180.383L200.45 181.432L199.401 181.692ZM123.079 181.995C122.724 181.911 122.371 181.827 122.018 181.739L122.278 180.691C122.626 180.777 122.976 180.86 123.327 180.942L123.079 181.995ZM196.239 182.432L196.004 181.377L197.051 181.141L197.293 182.194L196.239 182.432ZM126.262 182.71C125.907 182.635 125.551 182.558 125.197 182.479L125.433 181.424C125.784 181.503 126.135 181.578 126.487 181.653L126.262 182.71ZM193.061 183.104L192.85 182.043L193.902 181.829L194.123 182.888L193.061 183.104ZM129.46 183.357L128.392 183.149L128.603 182.088L129.662 182.294L129.46 183.357ZM189.87 183.705L189.682 182.641L190.739 182.449L190.936 183.512L189.87 183.705ZM132.668 183.935L131.597 183.749L131.785 182.685L132.85 182.868L132.668 183.935ZM186.667 184.241L186.499 183.173L187.56 183.003L187.736 184.069L186.667 184.241ZM135.889 184.444L134.814 184.281L134.98 183.213L136.047 183.376L135.889 184.444ZM183.453 184.711L183.308 183.641L184.373 183.492L184.525 184.563L183.453 184.711ZM139.117 184.891L138.038 184.748L138.184 183.678L139.253 183.818L139.117 184.891ZM180.23 185.12L180.107 184.046L181.173 183.919L181.306 184.991L180.23 185.12ZM142.352 185.272L141.273 185.151L141.396 184.077L142.469 184.197L142.352 185.272ZM176.996 185.463L176.897 184.387C177.253 184.354 177.61 184.318 177.965 184.281L178.077 185.356C177.717 185.394 177.357 185.43 176.996 185.463ZM145.596 185.59L144.514 185.491L144.616 184.415L145.69 184.514L145.596 185.59ZM173.76 185.743L173.678 184.665L174.749 184.58L174.841 185.656L173.76 185.743ZM148.842 185.845L147.758 185.767L147.84 184.689L148.915 184.767L148.842 185.845ZM170.519 185.963L170.455 184.885L171.53 184.818L171.6 185.897L170.519 185.963ZM152.092 186.037C151.73 186.02 151.368 186.001 151.005 185.979L151.07 184.901C151.428 184.921 151.787 184.94 152.145 184.957L152.092 186.037ZM167.27 186.12L167.227 185.04L168.302 184.994L168.353 186.074L167.27 186.12ZM155.344 186.167L154.258 186.131L154.299 185.051L155.375 185.087L155.344 186.167ZM164.032 186.214L163.997 185.134L165.074 185.109L165.103 186.189L164.032 186.214ZM158.597 186.236L157.511 186.22L157.532 185.14L158.609 185.155L158.597 186.236ZM160.767 186.248L160.763 185.168L161.841 185.163L161.85 186.243L160.767 186.248Z" fill="#D24566"/>
<path fill-rule="evenodd" clip-rule="evenodd" d="M268.234 53.15C268.225 53.247 268.218 53.344 268.201 53.44L268.147 53.658L268.07 53.927L267.982 54.139C267.942 54.232 267.901 54.325 267.852 54.417L267.735 54.615C267.671 54.717 267.603 54.819 267.529 54.921L267.387 55.1C267.266 55.247 267.131 55.392 266.984 55.533L266.876 55.642C266.788 55.722 266.687 55.8 266.588 55.879L266.364 56.061C266.254 56.14 266.133 56.216 266.016 56.293C265.925 56.352 265.841 56.413 265.745 56.471L249.512 66.128C249.236 66.293 248.939 66.441 248.634 66.58L248.445 66.665C248.144 66.795 247.832 66.914 247.511 67.019L247.249 67.098C247.089 67.146 246.929 67.192 246.766 67.235C246.663 67.261 246.559 67.285 246.455 67.309C246.296 67.346 246.136 67.38 245.975 67.411C245.879 67.43 245.783 67.447 245.686 67.464C245.355 67.521 245.021 67.57 244.681 67.604L244.636 67.607C244.355 67.634 244.072 67.652 243.788 67.664C243.686 67.668 243.583 67.669 243.481 67.671C243.301 67.674 243.122 67.676 242.942 67.673C242.828 67.671 242.714 67.669 242.601 67.664C242.439 67.658 242.276 67.649 242.114 67.638C242 67.63 241.884 67.622 241.77 67.611C241.606 67.596 241.444 67.577 241.281 67.556C241.172 67.543 241.063 67.53 240.955 67.514C240.764 67.486 240.574 67.451 240.385 67.415L240.137 67.369C239.849 67.308 239.566 67.239 239.288 67.16L239.142 67.115C238.851 67.029 238.567 66.933 238.288 66.827C238.174 66.783 238.057 66.743 237.946 66.696L226.981 62.093C226.596 61.932 226.24 61.756 225.913 61.567C224.209 60.583 223.293 59.256 223.297 57.905L223.261 70.528C223.257 71.879 224.173 73.206 225.876 74.19C226.204 74.378 226.56 74.555 226.945 74.716L237.91 79.319L238.122 79.406L238.253 79.45C238.532 79.556 238.816 79.653 239.107 79.738L239.207 79.772L239.251 79.783C239.53 79.861 239.814 79.931 240.101 79.991L240.144 80.002L240.349 80.038C240.539 80.074 240.728 80.108 240.919 80.137L241.019 80.154L241.245 80.179C241.408 80.2 241.571 80.219 241.735 80.234L241.879 80.25L242.077 80.261C242.24 80.272 242.403 80.281 242.567 80.287L242.75 80.297L242.905 80.296C243.085 80.299 243.265 80.297 243.446 80.294L243.659 80.293L243.752 80.287C244.038 80.275 244.323 80.257 244.606 80.23L244.64 80.227H244.645C244.985 80.192 245.32 80.143 245.652 80.087L245.776 80.069L245.938 80.034C246.1 80.003 246.26 79.969 246.419 79.932C246.524 79.908 246.627 79.884 246.73 79.857C246.894 79.816 247.054 79.769 247.213 79.721L247.422 79.662L247.475 79.642C247.797 79.537 248.108 79.418 248.409 79.288L248.598 79.203C248.903 79.064 249.2 78.916 249.476 78.751L265.71 69.094L265.755 69.066L265.981 68.915C266.099 68.839 266.219 68.763 266.328 68.684L266.554 68.501C266.652 68.422 266.751 68.345 266.84 68.264L266.873 68.238L266.949 68.156C267.096 68.015 267.23 67.87 267.352 67.723L267.424 67.644L267.493 67.544C267.568 67.443 267.635 67.34 267.699 67.237L267.78 67.118L267.816 67.04C267.866 66.947 267.907 66.855 267.947 66.762L268.016 66.614L268.034 66.55L268.111 66.281L268.159 66.115L268.165 66.063C268.182 65.967 268.189 65.87 268.198 65.774L268.217 65.606L268.218 65.528L268.253 52.905L268.234 53.15Z" fill="url(#paint0_linear)"/>
<path fill-rule="evenodd" clip-rule="evenodd" d="M265.646 49.247C269.028 51.199 269.183 54.425 265.745 56.471L249.512 66.128C246.445 67.957 241.519 68.196 237.945 66.696L226.981 62.093C226.596 61.932 226.24 61.756 225.913 61.567C223.198 60 222.486 57.562 224.301 55.545L235.056 43.589C237.558 40.807 243.739 39.969 248.134 41.814L264.568 48.715C264.957 48.879 265.317 49.057 265.646 49.247Z" fill="#D24566"/>
<path fill-rule="evenodd" clip-rule="evenodd" d="M308.255 82.169L308.245 82.327C308.239 82.445 308.225 82.563 308.205 82.679L308.178 82.816C308.15 82.944 308.114 83.071 308.069 83.196L308.045 83.269C307.988 83.421 307.916 83.571 307.834 83.72L307.77 83.828C307.686 83.97 307.593 84.109 307.488 84.247L307.437 84.316C307.291 84.5 307.122 84.678 306.939 84.852L306.846 84.94C306.703 85.07 306.55 85.198 306.385 85.321L306.327 85.361C306.177 85.47 306.018 85.576 305.852 85.678L305.713 85.761C305.456 85.913 305.181 86.057 304.889 86.19L304.757 86.248C304.457 86.38 304.139 86.503 303.804 86.614L303.658 86.66C303.342 86.759 303.017 86.852 302.674 86.931L281.044 91.916C280.714 91.992 280.378 92.046 280.042 92.098C279.874 92.123 279.707 92.148 279.54 92.168C279.258 92.201 278.976 92.227 278.693 92.244C278.595 92.25 278.498 92.259 278.399 92.263C278.02 92.279 277.642 92.281 277.267 92.269L277.028 92.255C276.715 92.24 276.407 92.215 276.1 92.182C276.008 92.171 275.916 92.163 275.826 92.151C275.455 92.103 275.09 92.044 274.734 91.969L274.545 91.922C274.253 91.857 273.967 91.782 273.688 91.699C273.511 91.647 273.343 91.585 273.173 91.525C272.967 91.453 272.759 91.383 272.563 91.301L272.353 91.21C272.049 91.075 271.753 90.932 271.479 90.774C270.939 90.462 270.46 90.106 270.062 89.708L263.264 82.928C262.653 82.318 262.279 81.661 262.131 80.997C262.083 80.776 262.058 80.554 262.059 80.332L262.023 92.955C262.021 93.841 262.413 94.737 263.229 95.551L270.026 102.331C270.425 102.729 270.904 103.085 271.444 103.397C271.718 103.555 272.013 103.698 272.317 103.833L272.527 103.924L272.719 104.007C272.853 104.06 272.998 104.1 273.136 104.148C273.307 104.208 273.475 104.27 273.653 104.322L273.796 104.371C274.027 104.437 274.267 104.491 274.506 104.545L274.699 104.592L274.736 104.601C275.026 104.661 275.321 104.713 275.62 104.755L275.79 104.774C275.88 104.786 275.972 104.795 276.065 104.804C276.205 104.82 276.342 104.84 276.483 104.851C276.651 104.865 276.821 104.87 276.991 104.879L277.231 104.891L277.351 104.898C277.651 104.905 277.952 104.904 278.253 104.894L278.364 104.886C278.461 104.882 278.558 104.873 278.656 104.867C278.847 104.856 279.039 104.848 279.23 104.829C279.322 104.819 279.413 104.801 279.504 104.791C279.672 104.771 279.838 104.746 280.005 104.721C280.126 104.702 280.248 104.692 280.368 104.67C280.583 104.631 280.796 104.587 281.008 104.539L302.638 99.554C302.982 99.475 303.307 99.382 303.622 99.283L303.719 99.256L303.768 99.237C304.104 99.126 304.42 99.003 304.722 98.871L304.853 98.813C305.146 98.679 305.42 98.536 305.677 98.384L305.744 98.35L305.817 98.301C305.983 98.199 306.141 98.093 306.291 97.984L306.349 97.944C306.514 97.821 306.666 97.693 306.811 97.563L306.858 97.524L306.904 97.475C307.086 97.301 307.255 97.123 307.402 96.939L307.416 96.922L307.453 96.87C307.557 96.733 307.651 96.593 307.734 96.451L307.778 96.386L307.798 96.342C307.879 96.194 307.952 96.044 308.01 95.892L308.016 95.878L308.033 95.819C308.078 95.693 308.114 95.567 308.142 95.439L308.161 95.376L308.168 95.302C308.189 95.185 308.203 95.068 308.21 94.95L308.218 94.869L308.219 94.792L308.255 82.169Z" fill="url(#paint1_linear)"/>
<path fill-rule="evenodd" clip-rule="evenodd" d="M295.433 68.339C295.972 68.65 296.453 69.008 296.855 69.41L307.049 79.578C309.77 82.298 307.706 85.772 302.674 86.931L281.044 91.916C277.688 92.688 273.942 92.195 271.479 90.774C270.939 90.462 270.46 90.106 270.062 89.708L263.264 82.928C261.048 80.717 261.959 77.902 265.409 76.319L283.646 67.944C287.259 66.288 292.327 66.546 295.433 68.339Z" fill="#D24566"/>
<path fill-rule="evenodd" clip-rule="evenodd" d="M316.845 135.347L317.013 135.957L316.947 135.334C317.246 135.303 317.538 135.26 317.825 135.211L318.194 135.14C318.337 135.111 318.48 135.082 318.619 135.049L318.916 134.973C319.124 134.916 319.258 134.879 319.39 134.838L319.721 135.395L319.53 134.798L319.654 134.75C319.935 134.654 320.203 134.554 320.458 134.443L320.842 134.961L320.584 134.39C320.865 134.264 321.126 134.125 321.375 133.979L321.604 133.838C321.708 133.772 321.804 133.709 321.896 133.644L322.126 133.471L322.376 133.264L322.455 133.199L322.556 133.098C322.676 132.983 322.791 132.859 322.897 132.731L322.974 132.648C323.072 132.518 323.137 132.412 323.202 132.307L323.263 132.217L323.336 132.069L323.514 131.622C323.554 131.493 323.571 131.443 323.582 131.392L323.613 131.108L323.626 130.993L323.655 121.181L323.453 121.385L323.237 121.585C323.139 121.67 323.039 121.754 322.933 121.835C322.846 121.903 322.754 121.973 322.66 122.041C322.549 122.119 322.434 122.194 322.316 122.27C322.231 122.324 322.139 122.381 322.044 122.437C321.759 122.604 321.458 122.764 321.136 122.909L321.042 122.948C320.708 123.093 320.408 123.207 320.096 123.313L319.798 123.411C319.651 123.457 319.502 123.498 319.354 123.539L318.947 123.645C318.798 123.68 318.644 123.711 318.492 123.742C318.345 123.773 318.211 123.799 318.074 123.822C317.761 123.877 317.442 123.922 317.115 123.957L317.004 123.972C316.68 124.003 316.349 124.026 316.014 124.037C315.701 124.049 315.381 124.052 315.059 124.043L291.611 123.488C291.295 123.475 291.076 123.465 290.86 123.447L290.549 123.415C290.314 123.391 290.143 123.373 289.977 123.35L289.704 123.305C289.457 123.265 289.276 123.235 289.099 123.2L288.833 123.14C288.612 123.091 288.397 123.039 288.188 122.983L287.958 122.915C287.595 122.808 287.281 122.703 286.98 122.587C286.745 122.496 286.601 122.432 286.457 122.366L286.195 122.251C285.969 122.143 285.75 122.027 285.542 121.907C283.944 120.984 282.924 119.733 282.672 118.381L282.384 116.843L282.369 122.535C282.368 122.685 282.381 122.834 282.41 122.984L283.87 130.775C284.052 131.76 284.856 132.708 286.134 133.445C286.315 133.551 286.504 133.651 286.702 133.744L286.911 133.835C287.084 133.914 287.201 133.966 287.322 134.015C287.666 134.146 287.949 134.239 288.239 134.325L288.336 134.358L288.319 135.001L288.483 134.397C288.672 134.447 288.866 134.494 289.062 134.538L289.322 134.597C289.493 134.631 289.676 134.661 289.86 134.69L290.08 134.728C290.288 134.756 290.464 134.774 290.64 134.791L290.909 134.821C291.125 134.838 291.33 134.846 291.535 134.855L291.76 134.866L315.051 135.414C315.346 135.42 315.632 135.42 315.916 135.409C316.243 135.397 316.546 135.376 316.845 135.347ZM315.39 136.671C315.267 136.671 315.145 136.669 315.023 136.666L291.569 136.111C291.262 136.098 291.041 136.088 290.824 136.071L290.525 136.039C290.324 136.019 290.13 135.999 289.943 135.973L289.743 135.942C289.463 135.896 289.262 135.863 289.065 135.823L288.857 135.777C288.575 135.713 288.362 135.662 288.155 135.606L287.912 135.537C287.56 135.431 287.247 135.327 286.948 135.212L286.838 135.17C286.721 135.124 286.587 135.064 286.454 135.004L286.161 134.874C285.934 134.766 285.715 134.651 285.507 134.53C283.908 133.608 282.888 132.355 282.637 131.004L281.178 123.216C281.135 122.986 281.114 122.757 281.115 122.53L281.151 109.92V109.907L282.405 109.913V109.916L282.404 109.921C282.404 110.068 282.418 110.215 282.446 110.364L283.905 118.151C284.088 119.137 284.892 120.085 286.169 120.822C286.35 120.927 286.54 121.027 286.737 121.121L286.953 121.216C287.1 121.282 287.226 121.34 287.36 121.393C287.703 121.524 287.984 121.616 288.274 121.702L288.523 121.775C288.709 121.826 288.903 121.872 289.1 121.916L289.347 121.972C289.509 122.005 289.673 122.031 289.837 122.058L290.152 122.109C290.303 122.131 290.458 122.146 290.611 122.161L290.958 122.198C291.16 122.215 291.364 122.223 291.568 122.232L291.795 122.243L315.087 122.791C315.385 122.797 315.679 122.795 315.969 122.785C316.279 122.774 316.584 122.753 316.883 122.724C317.282 122.68 317.574 122.637 317.861 122.588C317.985 122.567 318.105 122.542 318.227 122.518C318.382 122.486 318.521 122.458 318.655 122.426L318.959 122.348C319.159 122.293 319.293 122.256 319.425 122.215L319.691 122.126C319.97 122.031 320.238 121.931 320.493 121.819L320.878 122.338L320.621 121.767C320.901 121.641 321.162 121.502 321.411 121.356L321.641 121.213C321.747 121.148 321.842 121.084 321.934 121.019L322.163 120.848L322.415 120.64L322.583 120.483C322.71 120.36 322.826 120.236 322.931 120.109L323.524 120.379L323.028 119.996C323.107 119.895 323.173 119.789 323.238 119.684L323.659 119.822V119.77L323.317 119.566L323.456 119.266L323.503 119.16L323.545 119.01C323.581 118.896 323.604 118.825 323.618 118.753L323.644 118.519L323.664 118.309L324.916 118.316L324.88 130.939C324.875 131.118 324.865 131.202 324.853 131.286L324.214 131.354L324.838 131.409L324.814 131.607C324.789 131.739 324.761 131.83 324.733 131.92L324.088 131.891L324.695 132.049L324.646 132.213C324.612 132.305 324.579 132.373 324.545 132.441L324.485 132.57L324.372 132.805L324.279 132.95C324.184 133.104 324.091 133.246 323.985 133.385L323.864 133.529C323.722 133.696 323.577 133.856 323.417 134.008L323.324 134.106L323.23 134.184C323.106 134.291 323.003 134.376 322.897 134.458C322.81 134.526 322.72 134.595 322.625 134.663C322.517 134.74 322.4 134.817 322.28 134.893L322.102 135.011L322.009 135.061C321.724 135.227 321.421 135.387 321.1 135.532L321.005 135.571C320.671 135.716 320.371 135.83 320.06 135.936L319.913 135.991L319.81 136.022C319.616 136.08 319.467 136.121 319.316 136.162C319.131 136.212 319.022 136.241 318.91 136.268C318.757 136.305 318.599 136.336 318.442 136.368L318.054 136.443C317.725 136.5 317.406 136.545 317.08 136.58C316.985 136.594 316.95 136.597 316.908 136.597C316.646 136.626 316.315 136.649 315.979 136.66C315.778 136.667 315.583 136.671 315.39 136.671Z" fill="url(#paint2_linear)"/>
<path fill-rule="evenodd" clip-rule="evenodd" d="M313.181 102.082C312.482 102.082 311.778 102.132 311.086 102.234L288.525 105.579C286 105.952 283.918 106.981 282.956 108.331C282.488 108.987 282.316 109.671 282.446 110.362L283.906 118.151C284.088 119.137 284.892 120.085 286.169 120.822C287.666 121.687 289.664 122.192 291.796 122.243L315.087 122.791C318.413 122.849 321.477 121.832 322.908 120.151C323.529 119.421 323.769 118.65 323.621 117.858L321.436 106.174C321.252 105.189 320.452 104.242 319.18 103.508C317.583 102.586 315.405 102.082 313.181 102.082ZM315.447 124.048C315.318 124.048 315.188 124.046 315.058 124.043L291.766 123.495C289.427 123.439 287.217 122.875 285.542 121.908C283.943 120.984 282.924 119.732 282.673 118.381L281.213 110.593C281.022 109.568 281.271 108.534 281.935 107.603C283.11 105.957 285.444 104.768 288.341 104.339L310.903 100.995C314.111 100.521 317.437 101.055 319.807 102.423C321.423 103.356 322.413 104.573 322.668 105.944L324.853 117.627C325.07 118.792 324.727 119.945 323.862 120.963C322.23 122.882 319.03 124.048 315.447 124.048Z" fill="#02B0A4"/>
<path fill-rule="evenodd" clip-rule="evenodd" d="M258.366 209.26L258.577 209.867L258.48 209.248L258.58 209.234C258.843 209.206 259.103 209.169 259.363 209.125L259.465 209.111L259.628 209.721L259.566 209.094L259.666 209.072C259.808 209.045 259.949 209.014 260.087 208.982C260.233 208.948 260.333 208.926 260.431 208.9C260.555 208.868 260.668 208.835 260.783 208.801L261.084 208.715C261.342 208.625 261.51 208.562 261.676 208.497L261.923 208.402C262.16 208.303 262.393 208.196 262.619 208.077L277.645 200.221C277.789 200.146 277.927 200.068 278.059 199.988L278.169 199.913C278.261 199.857 278.346 199.798 278.431 199.739C278.533 199.67 278.627 199.602 278.718 199.532L278.936 199.351L279.023 199.28L279.155 199.152C279.266 199.045 279.374 198.928 279.472 198.809L279.559 198.716C279.651 198.595 279.705 198.508 279.758 198.421L279.837 198.305C279.898 198.201 279.916 198.159 279.935 198.116L280.184 197.414L280.193 197.304L280.215 197.113L280.85 197.057L280.224 196.978L280.252 187.235L280.052 187.439C279.968 187.52 279.881 187.599 279.79 187.677C279.703 187.752 279.611 187.83 279.513 187.904C279.413 187.983 279.3 188.063 279.186 188.144C279.058 188.231 278.967 188.292 278.871 188.354C278.675 188.476 278.476 188.596 278.26 188.708L263.237 196.565C262.98 196.699 262.713 196.822 262.44 196.937L262.259 197.007C261.982 197.113 261.795 197.184 261.604 197.248C261.502 197.282 261.397 197.314 261.291 197.344C261.091 197.404 260.94 197.449 260.786 197.489C260.657 197.523 260.527 197.553 260.397 197.581C260.249 197.616 260.093 197.651 259.936 197.68L259.621 197.735C259.326 197.786 259.041 197.825 258.753 197.858L258.516 197.885C258.206 197.915 257.889 197.937 257.573 197.947C257.218 197.956 256.942 197.957 256.668 197.952L256.326 197.937C256.148 197.93 255.965 197.921 255.786 197.908L255.419 197.871C255.248 197.855 255.078 197.837 254.908 197.815L254.556 197.76C254.375 197.731 254.197 197.701 254.02 197.666L253.687 197.595C253.484 197.55 253.285 197.501 253.087 197.447L252.791 197.365C252.447 197.264 252.111 197.153 251.79 197.026C251.64 196.969 251.494 196.903 251.347 196.837L251.095 196.727C250.861 196.615 250.637 196.498 250.423 196.375C249.971 196.114 249.56 195.824 249.201 195.513L236.214 184.276C236.043 184.127 235.883 183.974 235.737 183.818L235.71 193.551C235.708 194.389 236.153 195.219 236.999 195.951L249.985 207.189C250.285 207.448 250.631 207.692 251.013 207.913C251.199 208.02 251.393 208.121 251.593 208.217L251.894 208.348C251.991 208.392 252.088 208.436 252.19 208.476C252.501 208.597 252.802 208.695 253.109 208.786L253.384 208.863C253.556 208.909 253.738 208.954 253.922 208.995L254.035 209.023L253.97 209.651L254.138 209.045C254.388 209.092 254.552 209.119 254.715 209.146L255.039 209.194C255.195 209.216 255.353 209.232 255.511 209.248L255.776 209.278C256.01 209.294 256.176 209.301 256.344 209.308L256.619 209.323C256.914 209.327 257.167 209.326 257.421 209.319C257.785 209.308 258.076 209.287 258.366 209.26ZM256.98 210.578C256.86 210.578 256.745 210.577 256.63 210.574L256.293 210.56C256.112 210.553 255.928 210.544 255.746 210.53L255.382 210.494C255.212 210.478 255.041 210.46 254.869 210.437L254.603 210.398C254.339 210.354 254.162 210.324 253.985 210.289L253.722 210.235C253.449 210.173 253.25 210.124 253.051 210.071L252.765 209.992C252.412 209.887 252.076 209.776 251.754 209.65C251.611 209.594 251.495 209.542 251.379 209.49L251.059 209.35C250.825 209.238 250.601 209.121 250.387 208.998C249.936 208.737 249.526 208.447 249.166 208.136L236.178 196.899C235.048 195.92 234.454 194.761 234.457 193.547L234.492 180.924L235.746 180.927V180.928C235.744 181.767 236.19 182.597 237.035 183.328L250.021 194.566C250.321 194.825 250.666 195.068 251.049 195.289C251.235 195.397 251.429 195.498 251.629 195.594L251.84 195.685C251.988 195.751 252.114 195.809 252.246 195.859C252.537 195.974 252.837 196.072 253.144 196.163L253.413 196.237C253.593 196.286 253.775 196.331 253.958 196.372L254.264 196.438C254.423 196.469 254.586 196.496 254.751 196.522L255.076 196.572C255.228 196.593 255.386 196.609 255.544 196.625L255.883 196.659C256.043 196.671 256.21 196.678 256.378 196.685L256.697 196.7C256.946 196.705 257.203 196.702 257.458 196.696C257.819 196.685 258.11 196.665 258.399 196.637L258.532 196.622C258.879 196.583 259.14 196.546 259.397 196.503L259.698 196.449C259.841 196.422 259.981 196.392 260.119 196.359C260.242 196.332 260.358 196.306 260.472 196.276C260.61 196.24 260.746 196.199 260.882 196.158C261.027 196.116 261.118 196.089 261.207 196.06C261.379 196.002 261.548 195.938 261.716 195.873L261.956 195.78C262.196 195.68 262.431 195.572 262.657 195.454L277.681 187.598C277.869 187.5 278.039 187.396 278.205 187.292L278.443 187.134C278.562 187.051 278.659 186.983 278.748 186.912L278.972 186.728L279.183 186.535C279.302 186.422 279.41 186.305 279.508 186.186L279.624 186.053L279.795 185.797L279.868 185.688C279.935 185.577 279.954 185.533 279.972 185.49L280.05 185.32L280.103 185.203L280.155 185.019C280.188 184.905 280.206 184.851 280.215 184.795L280.228 184.686L280.246 184.521L280.26 184.359V184.353L281.514 184.355V184.36L281.476 197.08L281.456 197.291L280.817 197.36L281.441 197.417L281.411 197.651C281.391 197.766 281.368 197.842 281.344 197.918L280.701 197.89L281.306 198.047L281.244 198.257C281.208 198.358 281.176 198.424 281.143 198.49L280.508 198.369L281.082 198.621L280.971 198.85L280.856 199.035C280.745 199.206 280.67 199.323 280.583 199.439C280.513 199.531 280.481 199.566 280.448 199.599C280.307 199.764 280.17 199.914 280.017 200.062L279.939 200.146L279.798 200.264C279.668 200.373 279.581 200.448 279.486 200.523C279.372 200.609 279.259 200.69 279.145 200.77C279.045 200.839 278.941 200.909 278.832 200.978L278.701 201.064C278.552 201.153 278.392 201.243 278.225 201.331L263.201 209.187C262.946 209.321 262.679 209.443 262.406 209.559L262.135 209.663C261.946 209.737 261.76 209.807 261.57 209.87L261.201 209.984C261.006 210.041 260.878 210.079 260.747 210.112C260.641 210.141 260.528 210.166 260.414 210.193C260.21 210.238 260.056 210.274 259.899 210.303L259.617 210.356C259.289 210.409 259.003 210.448 258.716 210.481L258.549 210.503C258.169 210.537 257.853 210.56 257.538 210.57C257.331 210.576 257.15 210.578 256.98 210.578Z" fill="url(#paint3_linear)"/>
<path fill-rule="evenodd" clip-rule="evenodd" d="M253.992 171.196C251.958 171.196 249.929 171.613 248.341 172.443L238.324 177.681C236.802 178.479 235.892 179.536 235.761 180.66C235.654 181.591 236.093 182.513 237.035 183.328L250.021 194.566C250.321 194.825 250.666 195.068 251.049 195.289C254.225 197.125 259.324 197.196 262.657 195.454L277.681 187.598C279.295 186.751 280.236 185.584 280.26 184.395C280.284 183.231 279.47 182.111 277.968 181.244C277.783 181.137 277.587 181.035 277.381 180.936L259.395 172.316C257.833 171.568 255.911 171.196 253.992 171.196ZM257.008 197.952C254.622 197.952 252.239 197.424 250.422 196.375C249.971 196.114 249.56 195.824 249.201 195.513L236.214 184.276C234.964 183.193 234.361 181.857 234.517 180.516C234.697 178.967 235.842 177.567 237.743 176.571L247.761 171.333C251.219 169.525 256.341 169.463 259.936 171.185L277.924 179.806C278.161 179.92 278.383 180.037 278.594 180.158H278.595C280.51 181.265 281.546 182.778 281.512 184.421C281.478 186.105 280.324 187.627 278.262 188.707L263.237 196.565C261.463 197.492 259.235 197.952 257.008 197.952Z" fill="#02B0A4"/>
<path fill-rule="evenodd" clip-rule="evenodd" d="M227.508 205.059L227.496 205.231C227.49 205.344 227.477 205.456 227.457 205.569L227.426 205.723C227.401 205.831 227.37 205.94 227.332 206.046L227.287 206.181C227.227 206.335 227.157 206.487 227.074 206.637L227.042 206.687C226.957 206.835 226.857 206.98 226.748 207.123L226.66 207.236C226.516 207.413 226.356 207.587 226.178 207.754L226.065 207.855C225.951 207.957 225.831 208.057 225.704 208.153L225.552 208.268C225.394 208.382 225.229 208.493 225.054 208.6L225.003 208.632C224.735 208.792 224.442 208.941 224.135 209.081L224.023 209.134C223.724 209.266 223.407 209.386 223.075 209.496L222.879 209.561C222.72 209.611 222.556 209.657 222.389 209.701L222.157 209.765C221.91 209.826 221.656 209.883 221.394 209.933L202.135 213.56C201.757 213.631 201.377 213.683 200.998 213.724L200.881 213.739C200.501 213.777 200.122 213.797 199.744 213.806C199.681 213.807 199.618 213.807 199.556 213.807C199.519 213.807 199.483 213.807 199.447 213.808C199.161 213.809 198.876 213.802 198.594 213.787C198.5 213.782 198.406 213.779 198.311 213.773C197.954 213.747 197.599 213.711 197.252 213.661L197.091 213.633C196.798 213.587 196.51 213.532 196.228 213.47C196.096 213.441 195.968 213.407 195.839 213.375C195.639 213.324 195.444 213.27 195.252 213.21C195.055 213.151 194.865 213.085 194.676 213.017C194.492 212.949 194.307 212.883 194.13 212.808L193.902 212.709C193.621 212.581 193.348 212.447 193.094 212.301C191.841 211.578 190.943 210.629 190.614 209.53L186.623 196.225C186.535 195.926 186.492 195.627 186.493 195.332L186.456 207.955C186.456 208.25 186.499 208.549 186.588 208.848L190.578 222.153C190.907 223.252 191.806 224.201 193.059 224.924C193.312 225.07 193.584 225.204 193.866 225.331L194.095 225.432L194.345 225.54C194.439 225.577 194.543 225.605 194.64 225.64C194.829 225.708 195.018 225.773 195.215 225.833L195.435 225.907C195.555 225.942 195.682 225.967 195.804 225.998C195.933 226.03 196.06 226.064 196.192 226.093L196.374 226.138C196.597 226.184 196.827 226.22 197.055 226.256L197.217 226.284L197.254 226.291C197.536 226.33 197.822 226.362 198.11 226.387L198.277 226.396C198.37 226.401 198.463 226.405 198.557 226.41C198.695 226.417 198.831 226.429 198.97 226.433C199.117 226.436 199.265 226.431 199.413 226.431C199.45 226.43 199.488 226.43 199.526 226.43C199.586 226.43 199.647 226.43 199.707 226.429H199.866C200.189 226.417 200.514 226.396 200.839 226.363L200.846 226.362L200.953 226.348C201.298 226.311 201.644 226.266 201.989 226.203L202.099 226.183L221.358 222.556C221.62 222.506 221.873 222.449 222.121 222.388L222.356 222.323C222.521 222.279 222.685 222.233 222.843 222.184L222.95 222.153L223.039 222.119C223.371 222.009 223.689 221.889 223.988 221.757L224.099 221.704C224.407 221.565 224.699 221.415 224.967 221.255L224.975 221.251L225.018 221.222C225.193 221.115 225.358 221.005 225.516 220.891L225.667 220.777C225.794 220.68 225.915 220.58 226.029 220.478L226.115 220.407L226.142 220.377C226.321 220.21 226.48 220.036 226.623 219.858L226.668 219.811L226.712 219.745C226.821 219.603 226.92 219.457 227.006 219.31L227.033 219.271L227.038 219.26C227.122 219.11 227.191 218.958 227.252 218.804L227.27 218.763L227.297 218.669C227.334 218.562 227.366 218.454 227.39 218.346L227.414 218.264L227.422 218.191C227.442 218.079 227.454 217.967 227.46 217.854L227.471 217.759L227.473 217.682L227.508 205.059Z" fill="url(#paint4_linear)"/>
<path fill-rule="evenodd" clip-rule="evenodd" d="M214.481 189.304C215.151 189.69 215.723 190.144 216.166 190.657L226.572 202.758C228.989 205.57 226.54 208.962 221.394 209.933L202.135 213.56C198.816 214.186 195.371 213.615 193.094 212.301C191.841 211.578 190.943 210.629 190.614 209.53L186.623 196.225C185.871 193.706 188.415 191.254 192.598 190.468L205.445 188.047C208.694 187.435 212.167 187.967 214.481 189.304Z" fill="#D24566"/>
<path fill-rule="evenodd" clip-rule="evenodd" d="M115.678 52.243L115.668 52.389C115.663 52.512 115.648 52.633 115.626 52.755L115.606 52.869C115.575 53.016 115.534 53.163 115.48 53.308L115.454 53.371C115.401 53.505 115.338 53.636 115.268 53.767L115.212 53.868C115.121 54.026 115.016 54.182 114.899 54.334L114.84 54.406C114.692 54.59 114.527 54.769 114.341 54.942L114.256 55.018C114.132 55.129 114.001 55.237 113.862 55.343L113.762 55.42C113.598 55.54 113.423 55.657 113.239 55.769L113.144 55.824C112.878 55.982 112.593 56.13 112.291 56.268L112.18 56.316C111.875 56.449 111.554 56.573 111.215 56.685C111.096 56.724 110.978 56.764 110.854 56.801L98.83 60.358C98.385 60.49 97.928 60.596 97.466 60.68C97.048 60.757 96.625 60.814 96.199 60.853L95.947 60.87C95.603 60.896 95.259 60.91 94.916 60.913C94.822 60.914 94.727 60.915 94.633 60.914C94.234 60.91 93.836 60.892 93.444 60.857L93.237 60.834C92.892 60.797 92.551 60.749 92.216 60.69L91.957 60.645C91.568 60.569 91.187 60.479 90.818 60.373C90.705 60.34 90.6 60.297 90.49 60.262C90.207 60.171 89.926 60.078 89.66 59.969L89.486 59.894C89.147 59.748 88.819 59.591 88.515 59.416C88.164 59.213 87.837 58.99 87.541 58.75L74 47.735C73.157 47.048 72.647 46.288 72.446 45.516C72.379 45.259 72.346 45 72.347 44.742L72.311 57.365C72.308 58.396 72.839 59.442 73.965 60.359L87.505 71.373C87.801 71.613 88.128 71.836 88.479 72.039C88.784 72.214 89.112 72.371 89.451 72.517L89.624 72.592L89.758 72.651C89.981 72.738 90.219 72.81 90.455 72.885C90.565 72.921 90.669 72.963 90.782 72.996L90.83 73.011C91.135 73.099 91.449 73.175 91.769 73.242L91.921 73.268L92.18 73.313C92.336 73.34 92.491 73.372 92.65 73.395C92.832 73.421 93.017 73.437 93.202 73.457L93.407 73.479L93.514 73.491C93.803 73.515 94.093 73.531 94.385 73.538L94.597 73.537C94.692 73.538 94.786 73.536 94.879 73.536C95.016 73.535 95.153 73.539 95.29 73.534C95.497 73.527 95.704 73.508 95.911 73.493L96.163 73.476L96.265 73.469C96.646 73.431 97.025 73.379 97.4 73.311L97.43 73.303C97.893 73.219 98.349 73.112 98.793 72.981L110.819 69.424C110.92 69.394 111.02 69.363 111.119 69.331L111.18 69.308C111.519 69.196 111.84 69.072 112.144 68.939L112.254 68.89C112.558 68.753 112.842 68.605 113.108 68.447L113.163 68.419L113.204 68.392C113.387 68.28 113.562 68.163 113.727 68.043L113.827 67.966C113.965 67.86 114.096 67.752 114.22 67.641L114.285 67.588L114.306 67.565C114.491 67.392 114.656 67.213 114.804 67.028L114.842 66.988L114.863 66.957C114.981 66.805 115.084 66.65 115.176 66.491L115.203 66.452L115.232 66.39C115.303 66.259 115.366 66.127 115.417 65.993L115.44 65.946L115.445 65.931C115.498 65.786 115.539 65.639 115.571 65.492L115.583 65.448L115.591 65.378C115.613 65.256 115.626 65.134 115.633 65.012L115.641 64.943L115.642 64.866L115.678 52.243Z" fill="url(#paint5_linear)"/>
<path fill-rule="evenodd" clip-rule="evenodd" d="M105.528 35.791C106.462 36.331 107.207 37.002 107.666 37.782L115.201 50.574C116.625 52.989 114.772 55.644 110.854 56.801L98.8302 60.358C95.3612 61.384 91.2022 60.967 88.5152 59.416C88.1642 59.213 87.8372 58.99 87.5412 58.75L74.0002 47.735C70.8552 45.174 72.3542 41.602 77.1702 40.177L95.2062 34.845C98.7582 33.795 102.898 34.273 105.528 35.791Z" fill="#D24566"/>
<path fill-rule="evenodd" clip-rule="evenodd" d="M53.0051 94.042L53.2131 94.052C53.3681 94.063 53.5211 94.071 53.6751 94.077L53.8211 94.712L53.8361 94.086L54.0061 94.085C54.1731 94.087 54.3421 94.086 54.5121 94.083H54.6201L54.7271 94.708L54.7371 94.08C55.0491 94.065 55.2811 94.049 55.5131 94.028L55.7071 94.643L55.6281 94.022C55.9941 93.983 56.3141 93.936 56.6311 93.882L56.9021 93.832C57.0631 93.8 57.2211 93.767 57.3781 93.73L57.6671 93.66C57.8281 93.618 57.9861 93.572 58.1421 93.525L58.3871 93.451C58.6851 93.352 58.9811 93.239 59.2651 93.115L59.3791 93.064C59.7231 92.905 59.9961 92.768 60.2511 92.615C60.4261 92.511 60.5821 92.41 60.7301 92.303L69.2071 86.216C69.3851 86.087 69.5471 85.952 69.7001 85.815L69.8141 85.706C69.9601 85.567 70.0911 85.427 70.2071 85.284L70.2641 85.221C70.3811 85.061 70.4571 84.944 70.5271 84.824L70.5941 84.694L70.7121 84.44L70.7611 84.305L70.8321 84.061L70.8641 83.955C70.8781 83.835 70.8861 83.75 70.8921 83.665L70.9041 83.559L70.9321 73.773L70.7171 73.987L70.5751 74.123C70.3881 74.29 70.1911 74.453 69.9731 74.61L61.4961 80.698C61.3161 80.827 61.1261 80.95 60.9301 81.068C60.6391 81.242 60.3251 81.402 60.0001 81.551L59.8031 81.64C59.4821 81.78 59.1511 81.907 58.8061 82.02L58.6271 82.075C58.3711 82.153 58.1951 82.204 58.0171 82.25L57.7011 82.327C57.5281 82.367 57.3531 82.405 57.1761 82.439L56.8791 82.494C56.5351 82.553 56.1851 82.604 55.8311 82.64L55.7121 82.649C55.4111 82.676 55.1571 82.693 54.9031 82.704L54.5731 82.713C54.3911 82.716 54.2071 82.717 54.0211 82.715L53.6661 82.706C53.4991 82.701 53.3301 82.691 53.1611 82.679L52.8021 82.652C52.6341 82.637 52.4631 82.617 52.2931 82.595L51.9541 82.551C51.7471 82.521 51.5421 82.483 51.3371 82.444L51.0941 82.4C50.7911 82.336 50.4961 82.263 50.2031 82.181C49.9651 82.115 49.7321 82.044 49.5011 81.965L29.4151 75.079C29.1231 74.979 28.8511 74.868 28.5861 74.754L28.3341 74.644C28.0551 74.516 27.7861 74.381 27.5381 74.238C26.8731 73.854 26.3101 73.412 25.8611 72.929L25.8331 82.657C25.8301 83.795 26.6661 84.932 28.1281 85.776C28.3441 85.9 28.5791 86.016 28.8221 86.129L29.3281 86.348C29.4771 86.407 29.6271 86.463 29.7841 86.516L49.8741 93.402C50.0671 93.469 50.2621 93.53 50.4601 93.587C50.7711 93.672 51.0401 93.738 51.3131 93.795L51.5401 93.837C51.7271 93.873 51.9141 93.907 52.1021 93.935L52.4151 93.975C52.5711 93.995 52.7261 94.013 52.8821 94.027L52.9551 94.666L53.0051 94.042ZM54.1781 95.339L53.9871 95.338L53.8051 95.339L53.6901 95.333C53.4621 95.323 53.2951 95.314 53.1261 95.302L52.7671 95.275C52.5971 95.259 52.4281 95.24 52.2581 95.218L52.0101 95.191C51.7121 95.144 51.5081 95.107 51.3061 95.068L51.0951 95.031C50.7551 94.959 50.4581 94.886 50.1671 94.804C49.8971 94.729 49.6801 94.661 49.4661 94.588L29.3781 87.702C29.2051 87.643 29.0361 87.58 28.8711 87.515L28.6441 87.419L28.2971 87.267C28.0181 87.138 27.7501 87.004 27.5021 86.861C25.6401 85.786 24.5761 84.253 24.5801 82.653L24.6161 70.03L25.8701 70.034C25.8661 71.173 26.7031 72.309 28.1651 73.153C28.3791 73.277 28.6141 73.394 28.8581 73.506L28.9951 73.566C29.3181 73.705 29.5601 73.804 29.8211 73.894L49.9091 80.779C50.1171 80.851 50.3271 80.915 50.5401 80.975C50.8061 81.049 51.0771 81.115 51.3511 81.173L51.4761 81.196C51.7601 81.25 51.9481 81.284 52.1371 81.312L52.3611 81.341C52.6061 81.372 52.7611 81.39 52.9161 81.404L53.2081 81.427C53.4021 81.44 53.5561 81.449 53.7101 81.454L54.0381 81.462C54.2071 81.465 54.3781 81.463 54.5471 81.46L54.8501 81.452C55.0841 81.442 55.3171 81.426 55.5491 81.405L55.7671 82.017L55.7041 81.394C56.0291 81.36 56.3491 81.314 56.6661 81.259L56.9371 81.209C57.0991 81.177 57.2581 81.144 57.4161 81.107L57.7041 81.037C57.8631 80.996 58.0211 80.95 58.1781 80.902L58.4151 80.83C58.7211 80.729 59.0171 80.616 59.3011 80.492L59.4161 80.441C59.7581 80.283 60.0321 80.146 60.2861 79.993C60.4531 79.893 60.6131 79.789 60.7651 79.68L69.2421 73.593C69.4211 73.464 69.5841 73.328 69.7371 73.191L69.8091 73.123C69.9941 72.946 70.1251 72.806 70.2421 72.663C70.3911 72.477 70.4821 72.341 70.5611 72.204L70.9361 72.346V72.281L70.6301 72.071L70.7491 71.818L70.7991 71.678L70.8691 71.438L70.9001 71.295L70.9281 71.042L70.9401 71.041V70.889L72.1941 70.891V70.893L72.1571 83.625L72.1431 83.746C72.1341 83.877 72.1211 84.009 72.0961 84.142C72.0791 84.264 72.0661 84.309 72.0511 84.353C72.0231 84.469 71.9901 84.588 71.9491 84.707L71.9131 84.826L71.8681 84.927C71.8241 85.034 71.7651 85.157 71.7021 85.281L71.6381 85.411C71.5031 85.639 71.3811 85.822 71.2411 86.002L71.1581 86.099C71.0311 86.258 70.8641 86.437 70.6791 86.612L70.5931 86.702C70.3521 86.913 70.1571 87.076 69.9381 87.234L61.4601 93.321C61.2851 93.447 61.1021 93.567 60.9121 93.682C60.6021 93.866 60.2901 94.025 59.9641 94.174L59.7671 94.263C59.4461 94.403 59.1151 94.53 58.7721 94.643L58.5771 94.704C58.3331 94.776 58.1601 94.827 57.9811 94.873L57.6621 94.95C57.4911 94.99 57.3171 95.027 57.1401 95.062L56.8441 95.116C56.4981 95.176 56.1481 95.227 55.7931 95.263L55.6661 95.273C55.3741 95.299 55.1221 95.316 54.8681 95.327L54.6111 95.336C54.4421 95.338 54.3041 95.339 54.1781 95.339Z" fill="url(#paint6_linear)"/>
<path fill-rule="evenodd" clip-rule="evenodd" d="M46.8019 56.412C44.3599 56.412 41.9339 57.019 40.2769 58.211L27.5699 67.333C26.4089 68.169 25.8209 69.146 25.8719 70.159C25.9269 71.268 26.7419 72.332 28.1649 73.153C28.6539 73.436 29.2109 73.685 29.8209 73.894L49.9089 80.779C53.4999 82.013 58.1689 81.54 60.7649 79.68L69.2419 73.593C70.3679 72.784 70.9709 71.794 70.9399 70.807C70.9059 69.755 70.1669 68.726 68.8609 67.908L52.7769 57.841C51.1179 56.883 48.9539 56.412 46.8019 56.412ZM54.2489 82.725C52.6299 82.725 50.9949 82.477 49.5019 81.965L29.4149 75.079C28.7289 74.844 28.0969 74.561 27.5379 74.238C25.7339 73.196 24.6979 71.771 24.6209 70.222C24.5479 68.784 25.3359 67.397 26.8379 66.316L39.5449 57.193C43.0739 54.655 49.4189 54.455 53.4039 56.756C53.4959 56.809 53.5849 56.863 53.6739 56.918L69.5259 66.846C71.1969 67.892 72.1439 69.284 72.1919 70.767C72.2379 72.184 71.4499 73.549 69.9719 74.611L61.4959 80.698C59.6489 82.022 56.9739 82.725 54.2489 82.725Z" fill="#02B0A4"/>
<path fill-rule="evenodd" clip-rule="evenodd" d="M44.419 98.34C44.419 98.546 44.394 98.754 44.349 98.962L44.312 99.093C44.264 99.277 44.208 99.462 44.124 99.646L40.668 107.21C40.613 107.331 40.545 107.448 40.475 107.565C40.403 107.687 40.322 107.806 40.235 107.922L40.141 108.053C39.997 108.234 39.833 108.407 39.657 108.574L39.486 108.726C39.39 108.81 39.292 108.893 39.188 108.973L38.977 109.128C38.869 109.205 38.757 109.279 38.643 109.352L38.441 109.477C38.172 109.635 37.888 109.784 37.587 109.921L37.424 109.991C37.106 110.13 36.776 110.26 36.427 110.372L36.374 110.388C36.144 110.461 35.908 110.528 35.666 110.59L35.404 110.65C35.227 110.691 35.048 110.731 34.867 110.765L34.605 110.811C34.321 110.858 34.032 110.899 33.738 110.931L33.558 110.952C33.265 110.981 32.968 111.001 32.668 111.012L32.435 111.015C32.227 111.019 32.018 111.022 31.807 111.018C31.565 111.013 31.322 111.004 31.078 110.987L7.91801 109.42C7.77101 109.41 7.62601 109.394 7.48101 109.38C7.30801 109.362 7.13701 109.345 6.96801 109.322C6.86501 109.309 6.76101 109.293 6.65901 109.277C6.47801 109.25 6.29901 109.219 6.12401 109.185C6.03301 109.167 5.94201 109.149 5.85201 109.131C5.56901 109.069 5.29101 109.004 5.02301 108.928L5.01501 108.925C4.68001 108.83 4.36301 108.719 4.05501 108.602L3.87201 108.532C3.72601 108.473 3.58601 108.411 3.44701 108.347L3.24801 108.257C3.04701 108.16 2.85301 108.059 2.66901 107.953C1.01901 107 0.0330068 105.688 0.0370068 104.291L6.82621e-06 116.914C-0.00299317 118.311 0.983007 119.623 2.63301 120.576C2.81801 120.682 3.01101 120.783 3.21101 120.88L3.41301 120.971C3.55101 121.034 3.69101 121.097 3.83601 121.155L3.91701 121.191L4.01901 121.225C4.32801 121.343 4.64601 121.453 4.98101 121.549L4.98501 121.55H4.98601C5.25401 121.626 5.53301 121.693 5.81601 121.754L5.91101 121.776L6.08801 121.808C6.26401 121.842 6.44201 121.872 6.62301 121.901L6.78801 121.929L6.93301 121.945C7.10101 121.968 7.27301 121.985 7.44501 122.002L7.66101 122.026L7.88301 122.043L31.041 123.61C31.259 123.625 31.477 123.635 31.694 123.641L31.77 123.64C31.984 123.645 32.195 123.642 32.406 123.637L32.604 123.636L32.631 123.635C32.932 123.624 33.23 123.604 33.524 123.575L33.576 123.571L33.7 123.555C33.995 123.523 34.285 123.482 34.57 123.433L34.713 123.413L34.83 123.388C35.012 123.354 35.191 123.315 35.369 123.273L35.63 123.213C35.872 123.151 36.108 123.084 36.338 123.011L36.388 122.997L36.391 122.995C36.74 122.883 37.071 122.753 37.389 122.614L37.551 122.544C37.852 122.407 38.136 122.259 38.405 122.1L38.479 122.061L38.607 121.975C38.722 121.903 38.834 121.828 38.941 121.751L39.152 121.596C39.256 121.516 39.354 121.433 39.45 121.35L39.578 121.243L39.622 121.196C39.798 121.029 39.96 120.856 40.105 120.676L40.127 120.651L40.2 120.545C40.286 120.428 40.368 120.31 40.44 120.189L40.488 120.117C40.54 120.024 40.588 119.929 40.633 119.832L44.088 112.27L44.181 112.046C44.223 111.936 44.247 111.826 44.276 111.716L44.314 111.585L44.325 111.546C44.359 111.377 44.378 111.208 44.383 111.04L44.384 110.963L44.419 98.34Z" fill="url(#paint7_linear)"/>
<path fill-rule="evenodd" clip-rule="evenodd" d="M41.7941 94.674C43.9901 95.942 44.9551 97.825 44.1241 99.646L40.6681 107.21C39.5411 109.677 35.4601 111.283 31.0771 110.987L7.91815 109.42C5.84015 109.279 4.03015 108.738 2.66915 107.953C0.508147 106.705 -0.514853 104.84 0.335147 102.978L5.51615 91.637C6.90615 88.607 12.6131 87.003 17.5961 88.246L39.0291 93.59C40.0882 93.855 41.0181 94.226 41.7941 94.674Z" fill="#D24566"/>
<path fill-rule="evenodd" clip-rule="evenodd" d="M176.322 145.306C176.621 145.15 176.915 144.989 177.204 144.822C177.415 144.7 177.621 144.577 177.823 144.451C177.621 144.577 177.415 144.7 177.204 144.822C176.915 144.989 176.621 145.15 176.322 145.306Z" fill="#79C9E6"/>
<path fill-rule="evenodd" clip-rule="evenodd" d="M142.568 143.907C142.287 143.712 142.017 143.514 141.757 143.313L141.758 143.312C142.017 143.514 142.287 143.712 142.568 143.907ZM140.248 141.984C140.006 141.741 139.779 141.495 139.566 141.245L139.57 141.242C139.782 141.492 140.009 141.738 140.251 141.981L140.248 141.984ZM138.393 139.614C138.22 139.32 138.065 139.023 137.928 138.725L137.94 138.719C138.076 139.018 138.23 139.315 138.402 139.609L138.393 139.614ZM137.301 136.818C137.235 136.486 137.189 136.154 137.165 135.822L137.185 135.82C137.209 136.152 137.254 136.484 137.32 136.814L137.301 136.818Z" fill="#79C9E6"/>
<path fill-rule="evenodd" clip-rule="evenodd" d="M183.337 138.625C183.462 138.344 183.571 138.061 183.664 137.776H183.665C183.571 138.061 183.462 138.344 183.337 138.625ZM184.056 135.81H184.055C184.069 135.62 184.076 135.431 184.076 135.242V135.149C184.078 135.369 184.072 135.59 184.056 135.81Z" fill="#79C9E6"/>
<path fill-rule="evenodd" clip-rule="evenodd" d="M159.755 148.782C159.42 148.775 159.085 148.763 158.75 148.748L158.775 148.246C159.105 148.262 159.436 148.273 159.766 148.279L159.755 148.782ZM161.765 148.774L161.751 148.272C162.082 148.262 162.414 148.249 162.745 148.232L162.771 148.733C162.436 148.751 162.101 148.765 161.765 148.774ZM156.743 148.606C156.408 148.574 156.075 148.538 155.743 148.497L155.804 147.998C156.132 148.038 156.461 148.074 156.79 148.106L156.743 148.606ZM164.776 148.577L164.725 148.076C165.054 148.042 165.382 148.004 165.71 147.961L165.775 148.46C165.443 148.503 165.11 148.542 164.776 148.577ZM153.752 148.202C153.42 148.144 153.09 148.081 152.763 148.014L152.863 147.522C153.186 147.587 153.512 147.65 153.839 147.707L153.752 148.202ZM167.763 148.149L167.671 147.655C167.999 147.594 168.323 147.529 168.646 147.461L168.75 147.953C168.423 148.023 168.094 148.088 167.763 148.149ZM150.804 147.555C150.478 147.469 150.156 147.378 149.836 147.282L149.979 146.802C150.294 146.896 150.613 146.985 150.933 147.069L150.804 147.555ZM170.704 147.477L170.571 146.992C170.891 146.905 171.207 146.813 171.521 146.716L171.669 147.196C171.35 147.294 171.028 147.388 170.704 147.477ZM147.928 146.645C147.613 146.528 147.3 146.405 146.992 146.278L147.124 145.961L147.185 145.814C147.236 145.835 147.286 145.856 147.337 145.876C147.584 145.977 147.834 146.074 148.087 146.168C148.092 146.17 148.098 146.172 148.103 146.174L147.928 146.645ZM173.57 146.54L173.391 146.071C173.7 145.953 174.004 145.83 174.305 145.701L174.502 146.164C174.196 146.294 173.884 146.42 173.57 146.54ZM145.163 145.442C144.862 145.289 144.565 145.132 144.275 144.969L144.521 144.53C144.806 144.69 145.095 144.844 145.39 144.993L145.163 145.442ZM176.322 145.306L176.089 144.86C176.382 144.708 176.669 144.551 176.952 144.387C177.16 144.268 177.361 144.147 177.557 144.025L177.823 144.451C177.621 144.577 177.415 144.7 177.204 144.822C176.915 144.989 176.621 145.15 176.322 145.306ZM142.568 143.907C142.287 143.712 142.017 143.514 141.758 143.312L142.067 142.916C142.318 143.112 142.581 143.305 142.854 143.493L142.568 143.907ZM179.474 143.304L179.165 142.906C179.427 142.703 179.677 142.496 179.916 142.286L180.249 142.663C180.002 142.88 179.744 143.094 179.474 143.304ZM140.251 141.981C140.009 141.738 139.782 141.492 139.57 141.242L139.948 140.917C140.154 141.157 140.372 141.395 140.606 141.629L140.251 141.981ZM181.663 141.236L181.28 140.909C181.494 140.659 181.692 140.406 181.875 140.151L182.284 140.445C182.092 140.712 181.885 140.975 181.663 141.236ZM138.402 139.609C138.23 139.315 138.076 139.018 137.94 138.719L138.384 138.514C138.419 138.59 138.455 138.666 138.493 138.742C138.583 138.924 138.68 139.106 138.784 139.286C138.798 139.311 138.812 139.335 138.827 139.359L138.689 139.44L138.402 139.609ZM183.298 138.712L182.841 138.503C182.974 138.211 183.089 137.916 183.187 137.62L183.664 137.776C183.571 138.061 183.462 138.344 183.337 138.625C183.324 138.654 183.311 138.683 183.298 138.712ZM137.32 136.814C137.254 136.484 137.209 136.152 137.185 135.82L137.667 135.784C137.69 136.097 137.733 136.408 137.795 136.719L137.32 136.814ZM184.055 135.81L183.554 135.774C183.567 135.597 183.574 135.42 183.574 135.242C183.573 135.108 183.569 134.97 183.562 134.832L184.064 134.805C184.07 134.92 184.074 135.034 184.076 135.149V135.242C184.076 135.431 184.069 135.62 184.055 135.81ZM137.768 133.91L137.702 133.898L137.272 133.819C137.332 133.493 137.411 133.168 137.512 132.844L137.901 132.963L137.993 132.991C137.98 133.032 137.968 133.072 137.956 133.112C137.879 133.378 137.816 133.643 137.768 133.91ZM183.223 132.98C183.131 132.683 183.02 132.388 182.89 132.094L183.35 131.891C183.488 132.202 183.605 132.516 183.704 132.831L183.325 132.948L183.223 132.98ZM138.754 131.252L138.316 131.003C138.478 130.718 138.658 130.435 138.854 130.155L139.266 130.444C139.08 130.71 138.909 130.98 138.754 131.252ZM181.946 130.435C181.765 130.177 181.57 129.923 181.36 129.671L181.746 129.348C181.966 129.611 182.17 129.877 182.359 130.146L181.946 130.435ZM140.5 128.962L140.139 128.611C140.368 128.376 140.61 128.144 140.865 127.915L141.201 128.291C140.954 128.511 140.721 128.735 140.5 128.962ZM180.007 128.281C179.772 128.069 179.523 127.859 179.263 127.654L179.575 127.26C179.843 127.472 180.1 127.688 180.345 127.907L180.007 128.281ZM142.731 127.077L142.667 126.987L142.474 126.713L142.441 126.666C142.709 126.477 142.988 126.291 143.277 126.108L143.319 126.174L143.546 126.532C143.503 126.56 143.46 126.587 143.417 126.615C143.236 126.731 143.059 126.849 142.887 126.969C142.834 127.005 142.782 127.041 142.731 127.077ZM177.664 126.527C177.607 126.492 177.55 126.456 177.493 126.421C177.453 126.397 177.414 126.373 177.374 126.348C177.239 126.266 177.101 126.185 176.961 126.104C176.958 126.102 176.954 126.1 176.951 126.098L176.822 126.023L177.069 125.586C177.113 125.611 177.158 125.637 177.203 125.662C177.453 125.807 177.696 125.953 177.932 126.103L177.877 126.19L177.757 126.38L177.664 126.527Z" fill="#02B0A4"/>
<path fill-rule="evenodd" clip-rule="evenodd" d="M160.609 101.933C154.648 101.933 148.689 103.242 144.151 105.862C139.806 108.371 137.414 111.69 137.414 115.208C137.414 118.727 139.807 122.045 144.152 124.554C153.228 129.794 167.993 129.795 177.069 124.554C181.414 122.046 183.806 118.728 183.806 115.209C183.806 111.691 181.413 108.371 177.068 105.862C172.53 103.243 166.569 101.933 160.609 101.933ZM160.61 129.017C154.552 129.017 148.494 127.685 143.882 125.023C139.362 122.413 136.873 118.928 136.873 115.208C136.873 111.488 139.362 108.004 143.881 105.394C153.105 100.069 168.114 100.068 177.337 105.395C181.857 108.004 184.346 111.489 184.346 115.209C184.346 118.929 181.858 122.413 177.338 125.023C172.727 127.685 166.668 129.017 160.61 129.017Z" fill="#02B0A4"/>
<path fill-rule="evenodd" clip-rule="evenodd" d="M139.26 111.368C139.26 112.009 138.742 112.527 138.101 112.527C137.46 112.527 136.941 112.009 136.941 111.368C136.941 110.728 137.46 110.208 138.101 110.208C138.742 110.208 139.26 110.728 139.26 111.368Z" fill="#02B0A4"/>
<path fill-rule="evenodd" clip-rule="evenodd" d="M175.559 104.297C175.559 104.938 175.041 105.457 174.4 105.457C173.759 105.457 173.24 104.938 173.24 104.297C173.24 103.657 173.759 103.138 174.4 103.138C175.041 103.138 175.559 103.657 175.559 104.297Z" fill="#02B0A4"/>
<path fill-rule="evenodd" clip-rule="evenodd" d="M163.556 88.112C163.556 88.752 163.037 89.271 162.397 89.271C161.756 89.271 161.237 88.752 161.237 88.112C161.237 87.471 161.756 86.952 162.397 86.952C163.037 86.952 163.556 87.471 163.556 88.112Z" fill="#02B0A4"/>
<path fill-rule="evenodd" clip-rule="evenodd" d="M145.317 78.474C145.317 79.114 144.797 79.634 144.157 79.634C143.517 79.634 142.998 79.114 142.998 78.474C142.998 77.834 143.517 77.315 144.157 77.315C144.797 77.315 145.317 77.834 145.317 78.474Z" fill="#02B0A4"/>
<path fill-rule="evenodd" clip-rule="evenodd" d="M172.923 76.358C172.923 76.998 172.405 77.517 171.764 77.517C171.124 77.517 170.604 76.998 170.604 76.358C170.604 75.717 171.124 75.198 171.764 75.198C172.405 75.198 172.923 75.717 172.923 76.358Z" fill="#02B0A4"/>
<path fill-rule="evenodd" clip-rule="evenodd" d="M182.742 68.521C182.742 69.162 182.222 69.681 181.582 69.681C180.941 69.681 180.422 69.162 180.422 68.521C180.422 67.881 180.941 67.361 181.582 67.361C182.222 67.361 182.742 67.881 182.742 68.521Z" fill="#02B0A4"/>
<path fill-rule="evenodd" clip-rule="evenodd" d="M159.458 61.015C159.458 61.655 158.939 62.175 158.298 62.175C157.658 62.175 157.138 61.655 157.138 61.015C157.138 60.375 157.658 59.856 158.298 59.856C158.939 59.856 159.458 60.375 159.458 61.015Z" fill="#02B0A4"/>
<defs>
<linearGradient id="paint0_linear" x1="223.261" y1="52.905" x2="223.261" y2="80.2975" gradientUnits="userSpaceOnUse">
<stop stop-color="#7A0B77"/>
<stop offset="1" stop-color="#D74963"/>
</linearGradient>
<linearGradient id="paint1_linear" x1="262.023" y1="80.332" x2="262.023" y2="104.903" gradientUnits="userSpaceOnUse">
<stop stop-color="#7A0B77"/>
<stop offset="1" stop-color="#D74963"/>
</linearGradient>
<linearGradient id="paint2_linear" x1="281.115" y1="109.907" x2="281.115" y2="136.671" gradientUnits="userSpaceOnUse">
<stop stop-color="#02B0A4"/>
<stop offset="1" stop-color="#2284C7"/>
</linearGradient>
<linearGradient id="paint3_linear" x1="234.457" y1="180.924" x2="234.457" y2="210.578" gradientUnits="userSpaceOnUse">
<stop stop-color="#02B0A4"/>
<stop offset="1" stop-color="#2284C7"/>
</linearGradient>
<linearGradient id="paint4_linear" x1="186.456" y1="195.332" x2="186.456" y2="226.434" gradientUnits="userSpaceOnUse">
<stop stop-color="#7A0B77"/>
<stop offset="1" stop-color="#D74963"/>
</linearGradient>
<linearGradient id="paint5_linear" x1="72.311" y1="44.742" x2="72.311" y2="73.538" gradientUnits="userSpaceOnUse">
<stop stop-color="#7A0B77"/>
<stop offset="1" stop-color="#D74963"/>
</linearGradient>
<linearGradient id="paint6_linear" x1="24.5801" y1="70.03" x2="24.5801" y2="95.339" gradientUnits="userSpaceOnUse">
<stop stop-color="#02B0A4"/>
<stop offset="1" stop-color="#2284C7"/>
</linearGradient>
<linearGradient id="paint7_linear" x1="0" y1="98.34" x2="0" y2="123.643" gradientUnits="userSpaceOnUse">
<stop stop-color="#7A0B77"/>
<stop offset="1" stop-color="#D74963"/>
</linearGradient>
</defs>
</svg>
