<svg width="624" height="593" viewBox="0 0 624 593" fill="none" xmlns="http://www.w3.org/2000/svg">
<g opacity="0.4" filter="url(#filter0_f)">
<circle cx="222.926" cy="369.926" r="105.926" transform="rotate(-180 222.926 369.926)" fill="#A62F89"/>
</g>
<path fill-rule="evenodd" clip-rule="evenodd" d="M236.9 472.658C233.931 472.658 231.098 472.059 228.981 470.84L163.264 432.975L163.633 433.188C162.578 432.113 162.098 430.879 162.191 429.606H162.179V338.13C162.505 338.389 162.865 338.633 163.264 338.865L228.981 376.729C229.047 376.768 229.113 376.803 229.183 376.842C231.276 377.987 234.024 378.547 236.9 378.547C240.454 378.547 244.202 377.689 247.14 376.014C247.163 376.002 247.187 375.987 247.21 375.975L310.311 339.619C312.4 338.412 313.768 336.969 314.388 335.496H314.772V428.102H314.749C314.605 430.071 313.113 432.113 310.311 433.73L247.21 470.086C244.26 471.788 240.481 472.658 236.9 472.658Z" fill="url(#paint0_linear)"/>
<mask id="mask0" style="mask-type:alpha" maskUnits="userSpaceOnUse" x="162" y="335" width="153" height="138">
<path fill-rule="evenodd" clip-rule="evenodd" d="M236.9 472.658C233.931 472.658 231.098 472.059 228.981 470.84L163.264 432.975L163.633 433.188C162.578 432.113 162.098 430.879 162.191 429.606H162.179V338.13C162.505 338.389 162.865 338.633 163.264 338.865L228.981 376.729C229.047 376.768 229.113 376.803 229.183 376.842C231.276 377.987 234.024 378.547 236.9 378.547C240.454 378.547 244.202 377.689 247.14 376.014C247.163 376.002 247.187 375.987 247.21 375.975L310.311 339.619C312.4 338.412 313.768 336.969 314.388 335.496H314.772V428.102H314.749C314.605 430.071 313.113 432.113 310.311 433.73L247.21 470.086C244.26 471.788 240.481 472.658 236.9 472.658Z" fill="white"/>
</mask>
<g mask="url(#mask0)">
</g>
<path fill-rule="evenodd" clip-rule="evenodd" d="M162.191 429.606H162.179V335.496H194.757L229.726 315.347C235.121 312.237 243.284 311.9 247.958 314.589L284.237 335.496H314.772V333.991H282.179L245.9 313.084C241.23 310.392 233.067 310.732 227.671 313.838L192.699 333.991H160.125V428.102H160.133C160.001 429.924 161.02 431.68 163.265 432.975L163.633 433.188C162.579 432.113 162.098 430.879 162.191 429.606Z" fill="#BE1879"/>
<path fill-rule="evenodd" clip-rule="evenodd" d="M164.466 342.107C157.286 337.968 158.188 330.75 166.475 325.977L223.415 293.106C231.702 288.333 244.237 287.816 251.411 291.948L310.507 325.965C317.681 330.097 316.786 337.322 308.498 342.095L251.552 374.96C243.271 379.733 230.736 380.25 223.562 376.118L164.466 342.107Z" fill="url(#paint1_linear)"/>
<path fill-rule="evenodd" clip-rule="evenodd" d="M232.877 357.041L197.431 336.617C194.912 335.167 195.226 332.629 198.136 330.954L232.171 311.343C235.082 309.668 239.485 309.483 242.005 310.937L277.45 331.361C279.97 332.811 279.656 335.349 276.745 337.027L242.71 356.635C239.799 358.313 235.4 358.495 232.877 357.041Z" fill="#7ECBDB"/>
<path fill-rule="evenodd" clip-rule="evenodd" d="M232.877 357.041L197.431 336.617C194.912 335.167 195.226 332.629 198.136 330.954L232.171 311.343C235.082 309.668 239.485 309.483 242.005 310.937L277.45 331.361C279.97 332.811 279.656 335.349 276.745 337.027L242.71 356.635C239.799 358.313 235.4 358.495 232.877 357.041Z" fill="url(#paint2_linear)"/>
<mask id="mask1" style="mask-type:alpha" maskUnits="userSpaceOnUse" x="195" y="309" width="85" height="50">
<path fill-rule="evenodd" clip-rule="evenodd" d="M232.877 357.041L197.431 336.617C194.912 335.167 195.226 332.629 198.136 330.954L232.171 311.343C235.082 309.668 239.485 309.483 242.005 310.937L277.45 331.361C279.97 332.811 279.656 335.349 276.745 337.027L242.71 356.635C239.799 358.313 235.4 358.495 232.877 357.041Z" fill="white"/>
</mask>
<g mask="url(#mask1)">
<path fill-rule="evenodd" clip-rule="evenodd" d="M198.121 333.717L232.167 314.098C235.082 312.423 239.485 312.241 242.004 313.692L277.466 334.123C278.024 334.444 278.423 334.827 278.706 335.237C279.555 333.848 279.19 332.351 277.466 331.361L242.004 310.93C239.485 309.475 235.082 309.657 232.167 311.336L198.121 330.951C195.857 332.258 195.187 334.076 196.175 335.508C196.57 334.865 197.202 334.247 198.121 333.717Z" fill="#446FA9"/>
<path fill-rule="evenodd" clip-rule="evenodd" d="M198.121 337.047L232.167 317.432C235.082 315.753 239.485 315.571 242.004 317.026L277.466 337.457C277.911 337.712 278.233 338.01 278.504 338.319C279.628 336.85 279.322 335.194 277.466 334.122L242.004 313.691C239.485 312.241 235.082 312.422 232.167 314.097L198.121 333.716C195.722 335.097 195.117 337.055 196.377 338.517C196.78 337.991 197.357 337.492 198.121 337.047Z" fill="#35B8DB"/>
</g>
<path fill-rule="evenodd" clip-rule="evenodd" d="M260.102 446.065L256.458 448.162C255.52 448.703 254.76 448.131 254.76 446.881V396.093C254.76 394.844 255.52 393.393 256.458 392.856L260.102 390.755C261.04 390.214 261.799 390.786 261.799 392.036V442.824C261.799 444.073 261.04 445.524 260.102 446.065Z" fill="#D24566"/>
<path fill-rule="evenodd" clip-rule="evenodd" d="M260.102 390.755L259.226 391.258V441.129C259.226 442.379 258.466 443.829 257.528 444.371L254.76 445.965V446.881C254.76 448.131 255.52 448.703 256.458 448.162L260.102 446.065C261.04 445.524 261.799 444.073 261.799 442.824V392.036C261.799 390.786 261.04 390.214 260.102 390.755Z" fill="#7E0D76"/>
<path fill-rule="evenodd" clip-rule="evenodd" d="M273.527 438.329L269.884 440.426C268.946 440.967 268.186 440.395 268.186 439.145V388.357C268.186 387.108 268.946 385.657 269.884 385.116L273.527 383.019C274.465 382.478 275.225 383.05 275.225 384.299V435.088C275.225 436.337 274.465 437.787 273.527 438.329Z" fill="#D24566"/>
<path fill-rule="evenodd" clip-rule="evenodd" d="M286.953 430.589L283.309 432.689C282.372 433.231 281.612 432.654 281.612 431.409V380.617C281.612 379.371 282.372 377.921 283.309 377.379L286.953 375.283C287.891 374.741 288.651 375.314 288.651 376.563V427.351C288.651 428.601 287.891 430.051 286.953 430.589Z" fill="#D24566"/>
<path fill-rule="evenodd" clip-rule="evenodd" d="M300.379 422.853L296.735 424.953C295.797 425.495 295.038 424.918 295.038 423.673V372.881C295.038 371.635 295.797 370.185 296.735 369.643L300.379 367.543C301.317 367.005 302.076 367.578 302.076 368.827V419.615C302.076 420.864 301.317 422.311 300.379 422.853Z" fill="#D24566"/>
<path fill-rule="evenodd" clip-rule="evenodd" d="M273.528 383.019L272.656 383.522V433.393C272.656 434.643 271.896 436.093 270.958 436.631L268.187 438.228V439.145C268.187 440.395 268.947 440.967 269.885 440.426L273.528 438.329C274.466 437.787 275.226 436.337 275.226 435.088V384.299C275.226 383.05 274.466 382.478 273.528 383.019Z" fill="#7E0D76"/>
<path fill-rule="evenodd" clip-rule="evenodd" d="M286.958 375.283L286.082 375.786V425.657C286.082 426.906 285.322 428.353 284.384 428.895L281.617 430.492V431.409C281.617 432.654 282.377 433.231 283.315 432.689L286.958 430.589C287.896 430.051 288.656 428.601 288.656 427.351V376.563C288.656 375.314 287.896 374.741 286.958 375.283Z" fill="#7E0D76"/>
<path fill-rule="evenodd" clip-rule="evenodd" d="M300.385 367.543L299.513 368.046V417.921C299.513 419.166 298.753 420.617 297.815 421.158L295.044 422.756V423.673C295.044 424.918 295.803 425.495 296.741 424.953L300.385 422.853C301.323 422.311 302.082 420.864 302.082 419.615V368.827C302.082 367.578 301.323 367.005 300.385 367.543Z" fill="#7E0D76"/>
<path fill-rule="evenodd" clip-rule="evenodd" d="M173.989 363.501L173.582 363.605C173.183 363.837 172.943 364.456 172.943 365.268V419.008C172.943 420.752 174.032 422.849 175.323 423.591L222.784 450.939C223.109 451.124 223.57 451.302 223.962 451.078C224.365 450.85 224.601 450.227 224.601 449.419V395.675C224.601 393.931 223.516 391.834 222.226 391.092L174.764 363.744L173.989 363.501ZM223.559 452.3C223.132 452.3 222.679 452.165 222.226 451.906L174.764 424.558C173.117 423.611 171.826 421.174 171.826 419.008V365.268C171.826 364.034 172.264 363.075 173.028 362.638C173.687 362.251 174.505 362.309 175.323 362.777L222.784 390.125C224.427 391.076 225.718 393.509 225.718 395.675V449.419C225.718 450.649 225.284 451.608 224.52 452.045L223.559 452.3Z" fill="url(#paint3_linear)"/>
<path fill-rule="evenodd" clip-rule="evenodd" d="M181.11 375.797C181.11 377.267 180.075 377.863 178.8 377.128C177.524 376.393 176.49 374.606 176.49 373.136C176.49 371.666 177.524 371.071 178.8 371.806C180.075 372.54 181.11 374.328 181.11 375.797Z" fill="url(#paint4_linear)"/>
<path fill-rule="evenodd" clip-rule="evenodd" d="M181.11 383.274C181.11 384.744 180.075 385.344 178.8 384.609C177.524 383.87 176.49 382.083 176.49 380.613C176.49 379.143 177.524 378.547 178.8 379.282C180.075 380.017 181.11 381.804 181.11 383.274Z" fill="url(#paint5_linear)"/>
<path fill-rule="evenodd" clip-rule="evenodd" d="M181.11 390.755C181.11 392.225 180.075 392.821 178.8 392.086C177.524 391.351 176.49 389.564 176.49 388.094C176.49 386.62 177.524 386.025 178.8 386.76C180.075 387.498 181.11 389.285 181.11 390.755Z" fill="url(#paint6_linear)"/>
<path fill-rule="evenodd" clip-rule="evenodd" d="M179.958 391.173C178.683 390.438 177.648 388.651 177.648 387.181L177.761 386.458C177.009 386.465 176.49 387.053 176.49 388.094C176.49 389.564 177.524 391.351 178.8 392.086C179.838 392.682 180.703 392.391 180.997 391.475C180.683 391.479 180.334 391.39 179.958 391.173Z" fill="#006888"/>
<path fill-rule="evenodd" clip-rule="evenodd" d="M179.958 383.692C178.683 382.957 177.648 381.166 177.648 379.696L177.761 378.977C177.009 378.981 176.49 379.572 176.49 380.609C176.49 382.079 177.524 383.866 178.8 384.601C179.838 385.201 180.703 384.907 180.997 383.994C180.683 383.994 180.334 383.909 179.958 383.692Z" fill="#006888"/>
<path fill-rule="evenodd" clip-rule="evenodd" d="M179.958 376.207C178.683 375.472 177.648 373.685 177.648 372.216L177.761 371.492C177.009 371.5 176.49 372.088 176.49 373.125C176.49 374.594 177.524 376.385 178.8 377.12C179.838 377.716 180.703 377.422 180.997 376.509C180.683 376.513 180.334 376.424 179.958 376.207Z" fill="#006888"/>
<path fill-rule="evenodd" clip-rule="evenodd" d="M219.284 425.468L217.757 424.586C217.28 424.315 216.896 423.58 216.896 422.946V415.615C216.896 414.985 217.28 414.695 217.757 414.966L219.284 415.848C219.761 416.122 220.144 416.857 220.144 417.488V424.818C220.144 425.452 219.761 425.742 219.284 425.468Z" fill="#1892BC"/>
<path fill-rule="evenodd" clip-rule="evenodd" d="M220.799 308.887C220.799 310.597 219.412 311.982 217.695 311.982C215.981 311.982 214.594 310.597 214.594 308.887C214.594 307.177 215.981 305.789 217.695 305.789C219.412 305.789 220.799 307.177 220.799 308.887Z" fill="#D24566"/>
<path fill-rule="evenodd" clip-rule="evenodd" d="M246.4 303.766C246.4 306.69 244.028 309.057 241.098 309.057C238.171 309.057 235.799 306.69 235.799 303.766C235.799 300.845 238.171 298.478 241.098 298.478C244.028 298.478 246.4 300.845 246.4 303.766Z" fill="#D24566"/>
<path fill-rule="evenodd" clip-rule="evenodd" d="M235.931 295.179C235.931 295.929 235.322 296.536 234.571 296.536C233.819 296.536 233.206 295.929 233.206 295.179C233.206 294.428 233.819 293.817 234.571 293.817C235.322 293.817 235.931 294.428 235.931 295.179Z" fill="#D24566"/>
<path fill-rule="evenodd" clip-rule="evenodd" d="M260.365 288.441C260.365 289.903 259.175 291.087 257.714 291.087C256.249 291.087 255.063 289.903 255.063 288.441C255.063 286.983 256.249 285.795 257.714 285.795C259.175 285.795 260.365 286.983 260.365 288.441Z" fill="#D24566"/>
<path fill-rule="evenodd" clip-rule="evenodd" d="M245.625 265.99C245.625 267.023 244.784 267.863 243.749 267.863C242.714 267.863 241.877 267.023 241.877 265.99C241.877 264.958 242.714 264.122 243.749 264.122C244.784 264.122 245.625 264.958 245.625 265.99Z" fill="#D24566"/>
<path fill-rule="evenodd" clip-rule="evenodd" d="M224.195 251.667C224.195 253.539 222.675 255.059 220.799 255.059C218.923 255.059 217.404 253.539 217.404 251.667C217.404 249.795 218.923 248.278 220.799 248.278C222.675 248.278 224.195 249.795 224.195 251.667Z" fill="#D24566"/>
<path fill-rule="evenodd" clip-rule="evenodd" d="M246.4 207.841C246.4 211.624 243.326 214.691 239.532 214.691C235.741 214.691 232.667 211.624 232.667 207.841C232.667 204.054 235.741 200.987 239.532 200.987C243.326 200.987 246.4 204.054 246.4 207.841Z" fill="#D24566"/>
<path fill-rule="evenodd" clip-rule="evenodd" d="M232.652 203.485C232.652 204.53 231.807 205.373 230.761 205.373C229.714 205.373 228.869 204.53 228.869 203.485C228.869 202.441 229.714 201.598 230.761 201.598C231.807 201.598 232.652 202.441 232.652 203.485Z" fill="#D24566"/>
<path fill-rule="evenodd" clip-rule="evenodd" d="M247.292 246.329C247.292 247.559 246.296 248.553 245.063 248.553C243.834 248.553 242.834 247.559 242.834 246.329C242.834 245.103 243.834 244.105 245.063 244.105C246.296 244.105 247.292 245.103 247.292 246.329Z" fill="#D24566"/>
<path fill-rule="evenodd" clip-rule="evenodd" d="M248.954 241.683C248.954 242.279 248.47 242.759 247.877 242.759C247.28 242.759 246.799 242.279 246.799 241.683C246.799 241.092 247.28 240.612 247.877 240.612C248.47 240.612 248.954 241.092 248.954 241.683Z" fill="#D24566"/>
<path fill-rule="evenodd" clip-rule="evenodd" d="M262.954 218.556C262.954 220.273 261.559 221.666 259.838 221.666C258.117 221.666 256.726 220.273 256.726 218.556C256.726 216.839 258.117 215.45 259.838 215.45C261.559 215.45 262.954 216.839 262.954 218.556Z" fill="#D24566"/>
<path fill-rule="evenodd" clip-rule="evenodd" d="M414.915 353.239C437.492 344.056 463.88 339.402 490.333 339.236C463.872 339.19 437.419 343.673 414.659 352.647L414.915 353.239Z" fill="#BE1879"/>
<path fill-rule="evenodd" clip-rule="evenodd" d="M568.256 353.076L577.585 332.575L576.48 330.896L566.655 352.484C567.182 352.689 567.732 352.867 568.256 353.076Z" fill="#BE1879"/>
<path fill-rule="evenodd" clip-rule="evenodd" d="M397.322 470.531C359.369 448.661 349.059 416.915 366.322 389.664L366.283 389.672L404.07 332.598L403.33 330.896L364.408 389.688L364.446 389.676C347.183 416.931 357.493 448.676 395.446 470.542C421.834 485.748 456.512 493.233 491.097 493.055C457.14 492.954 423.233 485.458 397.322 470.531Z" fill="#BE1879"/>
<path fill-rule="evenodd" clip-rule="evenodd" d="M564.19 353.092L564.508 352.395C541.648 343.495 515.125 339.101 488.632 339.244C515.109 339.348 541.547 343.947 564.19 353.092Z" fill="#85CDDD"/>
<path fill-rule="evenodd" clip-rule="evenodd" d="M410.849 353.254C411.466 353.003 412.113 352.794 412.733 352.55L403.865 332.123L402.586 334.219L410.849 353.254Z" fill="#85CDDD"/>
<path fill-rule="evenodd" clip-rule="evenodd" d="M611.682 384.473L611.713 384.477L576.481 330.896L575.586 332.861L609.527 384.477L609.496 384.473C631.659 412.803 622.57 447.268 582.175 470.546C556.372 485.411 522.632 492.9 488.811 493.059C523.365 493.221 558 485.732 584.365 470.546C624.76 447.268 633.849 412.803 611.682 384.473Z" fill="#85CDDD"/>
<mask id="mask2" style="mask-type:alpha" maskUnits="userSpaceOnUse" x="399" y="293" width="182" height="106">
<path fill-rule="evenodd" clip-rule="evenodd" d="M553.903 383.015C518.558 403.381 461.252 403.377 425.904 383.011C390.559 362.646 390.559 329.628 425.904 309.262C461.249 288.897 518.555 288.897 553.903 309.262C589.248 329.628 589.252 362.65 553.903 383.015Z" fill="white"/>
</mask>
<g mask="url(#mask2)">
<path fill-rule="evenodd" clip-rule="evenodd" d="M553.903 383.015C518.558 403.381 461.252 403.377 425.904 383.011C390.559 362.646 390.559 329.628 425.904 309.262C461.249 288.897 518.555 288.897 553.903 309.262C589.248 329.628 589.252 362.65 553.903 383.015Z" fill="url(#paint7_linear)"/>
</g>
<mask id="mask3" style="mask-type:alpha" maskUnits="userSpaceOnUse" x="432" y="313" width="115" height="66">
<path fill-rule="evenodd" clip-rule="evenodd" d="M530.213 369.365C507.954 382.191 471.857 382.191 449.593 369.365C427.33 356.534 427.33 335.739 449.593 322.913C471.857 310.082 507.95 310.086 530.213 322.913C552.477 335.739 552.477 356.538 530.213 369.365Z" fill="white"/>
</mask>
<g mask="url(#mask3)">
<path fill-rule="evenodd" clip-rule="evenodd" d="M530.213 369.365C507.954 382.191 471.857 382.191 449.593 369.365C427.33 356.534 427.33 335.739 449.593 322.913C471.857 310.082 507.95 310.086 530.213 322.913C552.477 335.739 552.477 356.538 530.213 369.365Z" fill="url(#paint8_linear)"/>
</g>
<path fill-rule="evenodd" clip-rule="evenodd" d="M530.213 369.365C507.954 382.191 471.857 382.191 449.593 369.365C427.33 356.534 427.33 335.739 449.593 322.913C471.857 310.082 507.95 310.086 530.213 322.913C552.477 335.739 552.477 356.538 530.213 369.365Z" fill="#7ECBDB"/>
<path fill-rule="evenodd" clip-rule="evenodd" d="M449.593 340.516C471.857 327.69 507.95 327.69 530.213 340.516C537.419 344.667 542.256 349.661 544.795 354.94C550.109 343.905 545.272 331.589 530.213 322.913C507.95 310.082 471.857 310.082 449.593 322.913C434.535 331.585 429.702 343.905 435.012 354.94C437.551 349.657 442.388 344.667 449.593 340.516Z" fill="#49BEDC"/>
<path fill-rule="evenodd" clip-rule="evenodd" d="M449.594 334.296C471.857 321.47 507.95 321.47 530.214 334.3C538.822 339.259 544.062 345.409 546.012 351.831C549.113 341.646 543.872 330.78 530.214 322.913C507.95 310.082 471.857 310.082 449.594 322.913C435.939 330.78 430.698 341.642 433.795 351.831C435.745 345.409 440.985 339.255 449.594 334.296Z" fill="#35B8DB"/>
<path fill-rule="evenodd" clip-rule="evenodd" d="M449.593 328.761C471.857 315.935 507.95 315.935 530.213 328.761C540.054 334.432 545.527 341.657 546.671 349.065C548.113 339.712 542.64 330.072 530.213 322.913C507.95 310.082 471.857 310.082 449.593 322.913C437.171 330.069 431.694 339.708 433.14 349.061C434.28 341.654 439.756 334.428 449.593 328.761Z" fill="#446FA9"/>
<path fill-rule="evenodd" clip-rule="evenodd" d="M427.423 311.134C462.768 290.769 520.078 290.769 555.423 311.134C562.023 314.937 567.384 319.18 571.515 323.698C567.202 318.484 561.395 313.579 553.903 309.262C518.554 288.897 461.248 288.897 425.903 309.262C397.155 325.825 391.795 350.759 409.81 370.448C393.764 351.069 399.57 327.183 427.423 311.134Z" fill="#BE1879"/>
<path fill-rule="evenodd" clip-rule="evenodd" d="M553.904 309.262C553.38 308.96 552.807 308.705 552.272 308.411C586.698 328.819 586.442 361.423 551.404 381.611C516.582 401.675 460.489 401.926 425.036 382.458L425.904 383.011C461.253 403.377 518.559 403.381 553.904 383.015C589.252 362.65 589.248 329.628 553.904 309.262Z" fill="#85CDDD"/>
<path fill-rule="evenodd" clip-rule="evenodd" d="M401.95 290.32V261.936H401.128V291.075C401.128 302.849 408.167 314.608 422.124 324.147C408.694 314.229 401.95 302.277 401.95 290.32Z" fill="#BE1879"/>
<path fill-rule="evenodd" clip-rule="evenodd" d="M578.132 261.936V290.092C578.151 303.263 569.446 316.438 552.008 326.483C517.171 346.555 460.69 346.555 425.853 326.483C424.078 325.462 422.458 324.387 420.865 323.303C422.853 324.723 424.969 326.1 427.26 327.419C462.097 347.491 518.578 347.491 553.415 327.419C570.853 317.374 579.558 304.199 579.535 291.028V261.936H578.132Z" fill="#85CDDD"/>
<path fill-rule="evenodd" clip-rule="evenodd" d="M429.667 226.125C447.361 215.929 470.477 210.781 493.667 210.63C469.737 210.115 445.524 215.066 427.256 225.591C400.117 241.23 393.88 264.725 409.373 283.4C396.035 264.288 402.791 241.609 429.667 226.125Z" fill="#BE1879"/>
<path fill-rule="evenodd" clip-rule="evenodd" d="M553.411 225.591C544.155 220.261 533.353 216.389 521.857 213.891C532.182 216.397 541.872 220.045 550.283 224.891C585.12 244.963 585.12 277.509 550.287 297.581C524.702 312.318 487.469 316.19 455.686 309.282C488.124 317.153 526.988 313.506 553.415 298.281C588.252 278.209 588.248 245.667 553.411 225.591Z" fill="#85CDDD"/>
<path fill-rule="evenodd" clip-rule="evenodd" d="M530.213 285.164C507.954 297.991 471.857 297.991 449.593 285.16C427.33 272.334 427.33 251.539 449.593 238.708C471.857 225.882 507.95 225.882 530.213 238.712C552.477 251.539 552.477 272.334 530.213 285.164Z" fill="#7ECBDB"/>
<path fill-rule="evenodd" clip-rule="evenodd" d="M449.593 256.316C471.857 243.489 507.95 243.489 530.213 256.316C537.419 260.466 542.256 265.46 544.795 270.74C550.109 259.704 545.272 247.388 530.213 238.712C507.95 225.882 471.857 225.882 449.593 238.708C434.535 247.384 429.702 259.7 435.012 270.74C437.551 265.456 442.388 260.466 449.593 256.316Z" fill="#49BEDC"/>
<path fill-rule="evenodd" clip-rule="evenodd" d="M449.594 250.096C471.857 237.269 507.95 237.269 530.214 250.096C538.822 255.059 544.062 261.209 546.012 267.63C549.113 257.445 543.872 246.58 530.214 238.712C507.95 225.882 471.857 225.882 449.594 238.708C435.939 246.576 430.698 257.441 433.795 267.63C435.745 261.209 440.985 255.055 449.594 250.096Z" fill="#35B8DB"/>
<path fill-rule="evenodd" clip-rule="evenodd" d="M449.593 244.561C471.857 231.73 507.95 231.73 530.213 244.561C540.054 250.227 545.527 257.457 546.671 264.864C548.113 255.511 542.64 245.868 530.213 238.712C507.95 225.882 471.857 225.882 449.593 238.708C437.171 245.868 431.694 255.507 433.14 264.86C434.28 257.453 439.756 250.227 449.593 244.561Z" fill="#446FA9"/>
<path fill-rule="evenodd" clip-rule="evenodd" d="M401.95 225.294V196.91H401.128V226.048C401.128 237.823 408.167 249.582 422.124 259.12C408.694 249.202 401.95 237.25 401.95 225.294Z" fill="#BE1879"/>
<path fill-rule="evenodd" clip-rule="evenodd" d="M578.128 196.91V225.066C578.151 238.236 569.446 251.411 552.008 261.457C517.171 281.528 460.69 281.528 425.853 261.457C424.078 260.435 422.458 259.36 420.869 258.277C422.853 259.697 424.97 261.074 427.256 262.393C462.097 282.464 518.578 282.464 553.415 262.393C570.853 252.347 579.558 239.172 579.539 226.002V196.91H578.128Z" fill="#85CDDD"/>
<path fill-rule="evenodd" clip-rule="evenodd" d="M429.667 161.099C447.361 150.902 470.477 145.754 493.667 145.603C469.737 145.089 445.524 150.04 427.256 160.565C400.117 176.204 393.88 199.698 409.373 218.374C396.035 199.261 402.791 176.583 429.667 161.099Z" fill="#BE1879"/>
<path fill-rule="evenodd" clip-rule="evenodd" d="M553.411 160.565C544.155 155.235 533.353 151.363 521.857 148.864C532.182 151.367 541.872 155.018 550.283 159.865C585.12 179.936 585.12 212.479 550.287 232.554C524.702 247.291 487.469 251.163 455.686 244.255C488.124 252.127 526.988 248.479 553.415 233.254C588.252 213.183 588.248 180.64 553.411 160.565Z" fill="#85CDDD"/>
<path fill-rule="evenodd" clip-rule="evenodd" d="M530.213 220.137C507.954 232.964 471.857 232.964 449.593 220.134C427.33 207.307 427.33 186.508 449.593 173.682C471.857 160.855 507.95 160.855 530.213 173.682C552.477 186.512 552.477 207.307 530.213 220.137Z" fill="#7ECBDB"/>
<path fill-rule="evenodd" clip-rule="evenodd" d="M449.593 191.289C471.857 178.459 507.95 178.463 530.213 191.289C537.419 195.44 542.256 200.433 544.795 205.713C550.109 194.678 545.272 182.358 530.213 173.682C507.95 160.855 471.857 160.855 449.593 173.682C434.535 182.358 429.702 194.674 435.012 205.709C437.551 200.429 442.388 195.44 449.593 191.289Z" fill="#49BEDC"/>
<path fill-rule="evenodd" clip-rule="evenodd" d="M449.594 185.069C471.857 172.243 507.95 172.243 530.214 185.069C538.822 190.028 544.062 196.182 546.012 202.603C549.113 192.415 543.872 181.553 530.214 173.682C507.95 160.855 471.857 160.855 449.594 173.682C435.939 181.549 430.698 192.415 433.795 202.603C435.745 196.182 440.985 190.028 449.594 185.069Z" fill="#35B8DB"/>
<path fill-rule="evenodd" clip-rule="evenodd" d="M449.593 179.534C471.857 166.704 507.95 166.704 530.213 179.534C540.054 185.201 545.527 192.43 546.671 199.838C548.113 190.485 542.64 180.841 530.213 173.682C507.95 160.855 471.857 160.855 449.593 173.682C437.171 180.841 431.694 190.481 433.14 199.83C434.28 192.426 439.756 185.201 449.593 179.534Z" fill="#446FA9"/>
<path fill-rule="evenodd" clip-rule="evenodd" d="M406.198 179.778C407.074 178.35 408.062 176.942 409.163 175.554C409.113 176.649 408.69 177.728 407.892 178.594C407.4 179.12 406.822 179.519 406.198 179.778Z" fill="#9086B3"/>
<path fill-rule="evenodd" clip-rule="evenodd" d="M411.528 172.8C412.043 172.243 412.578 171.69 413.129 171.144L418.47 168.901C417.749 169.516 417.051 170.139 416.381 170.765L411.528 172.8Z" fill="#995C96"/>
<path fill-rule="evenodd" clip-rule="evenodd" d="M290.741 212.014L253.268 233.641C247.819 236.782 239.57 237.122 234.85 234.403L195.962 212.022C193.691 210.715 192.664 208.935 192.795 207.094H192.788V208.618H192.795C192.664 210.456 193.691 212.235 195.962 213.542L234.85 235.923C239.57 238.642 247.819 238.302 253.268 235.161L290.741 213.535C293.574 211.902 295.082 209.837 295.225 207.845H295.253V206.324H295.225C295.082 208.317 293.574 210.382 290.741 212.014Z" fill="url(#paint9_linear)"/>
<path fill-rule="evenodd" clip-rule="evenodd" d="M234.85 213.86L195.962 191.479C191.237 188.756 191.83 184.006 197.284 180.865L234.753 159.234C240.206 156.093 248.454 155.753 253.175 158.472L292.063 180.857C296.784 183.576 296.194 188.33 290.741 191.471L253.268 213.098C247.819 216.238 239.571 216.579 234.85 213.86Z" fill="url(#paint10_linear)"/>
<path fill-rule="evenodd" clip-rule="evenodd" d="M292.062 180.857L253.175 158.472C250.729 157.064 247.338 156.484 243.88 156.681C246.396 156.832 248.749 157.42 250.578 158.472L289.466 180.857C294.187 183.576 293.594 188.33 288.14 191.471L250.671 213.098C248.043 214.61 244.764 215.469 241.547 215.65C245.535 215.89 249.927 215.024 253.268 213.098L290.741 191.471C296.194 188.33 296.783 183.576 292.062 180.857Z" fill="url(#paint11_linear)"/>
<path fill-rule="evenodd" clip-rule="evenodd" d="M237.826 213.86L198.939 191.479C194.218 188.756 194.811 184.006 200.261 180.865L237.733 159.234C240.323 157.745 243.54 156.894 246.714 156.693C242.664 156.403 238.164 157.273 234.753 159.234L197.284 180.865C191.83 184.006 191.237 188.756 195.962 191.479L234.85 213.86C237.33 215.287 240.78 215.863 244.292 215.643C241.861 215.469 239.598 214.877 237.826 213.86Z" fill="#BE1879"/>
<path fill-rule="evenodd" clip-rule="evenodd" d="M263.024 197.122C252.524 203.172 235.501 203.172 224.997 197.122C214.497 191.073 214.497 181.263 224.997 175.21C235.501 169.16 252.524 169.16 263.024 175.21C273.528 181.263 273.528 191.073 263.024 197.122Z" fill="url(#paint12_linear)"/>
<path fill-rule="evenodd" clip-rule="evenodd" d="M224.997 180.985C235.501 174.935 252.524 174.935 263.024 180.985C266.997 183.271 269.458 186.098 270.427 189.053C272.02 184.191 269.555 178.973 263.024 175.21C252.524 169.16 235.501 169.16 224.997 175.21C218.466 178.973 216.005 184.191 217.598 189.053C218.567 186.094 221.028 183.271 224.997 180.985Z" fill="#7E0D76"/>
<g opacity="0.3" filter="url(#filter1_f)">
<circle cx="252.616" cy="179.616" r="62.6163" transform="rotate(-180 252.616 179.616)" fill="#02B5A6"/>
</g>
<defs>
<filter id="filter0_f" x="0.690758" y="147.691" width="444.47" height="444.47" filterUnits="userSpaceOnUse" color-interpolation-filters="sRGB">
<feFlood flood-opacity="0" result="BackgroundImageFix"/>
<feBlend mode="normal" in="SourceGraphic" in2="BackgroundImageFix" result="shape"/>
<feGaussianBlur stdDeviation="58.1546" result="effect1_foregroundBlur"/>
</filter>
<filter id="filter1_f" x="73.6908" y="0.690758" width="357.851" height="357.851" filterUnits="userSpaceOnUse" color-interpolation-filters="sRGB">
<feFlood flood-opacity="0" result="BackgroundImageFix"/>
<feBlend mode="normal" in="SourceGraphic" in2="BackgroundImageFix" result="shape"/>
<feGaussianBlur stdDeviation="58.1546" result="effect1_foregroundBlur"/>
</filter>
<linearGradient id="paint0_linear" x1="314.772" y1="335.496" x2="162.179" y2="335.496" gradientUnits="userSpaceOnUse">
<stop stop-color="#7A0B77"/>
<stop offset="1" stop-color="#D74963"/>
</linearGradient>
<linearGradient id="paint1_linear" x1="159.619" y1="289.158" x2="159.619" y2="378.908" gradientUnits="userSpaceOnUse">
<stop stop-color="#7A0B77"/>
<stop offset="1" stop-color="#D74963"/>
</linearGradient>
<linearGradient id="paint2_linear" x1="195.729" y1="309.956" x2="195.729" y2="358.023" gradientUnits="userSpaceOnUse">
<stop stop-color="#2284C7"/>
<stop offset="1" stop-color="#02B0A4"/>
</linearGradient>
<linearGradient id="paint3_linear" x1="171.826" y1="362.383" x2="171.826" y2="452.3" gradientUnits="userSpaceOnUse">
<stop stop-color="#7A0B77"/>
<stop offset="1" stop-color="#D74963"/>
</linearGradient>
<linearGradient id="paint4_linear" x1="176.49" y1="371.491" x2="176.49" y2="377.443" gradientUnits="userSpaceOnUse">
<stop stop-color="#2284C7"/>
<stop offset="1" stop-color="#02B0A4"/>
</linearGradient>
<linearGradient id="paint5_linear" x1="176.49" y1="378.968" x2="176.49" y2="384.923" gradientUnits="userSpaceOnUse">
<stop stop-color="#2284C7"/>
<stop offset="1" stop-color="#02B0A4"/>
</linearGradient>
<linearGradient id="paint6_linear" x1="176.49" y1="386.445" x2="176.49" y2="392.401" gradientUnits="userSpaceOnUse">
<stop stop-color="#2284C7"/>
<stop offset="1" stop-color="#02B0A4"/>
</linearGradient>
<linearGradient id="paint7_linear" x1="399.395" y1="293.988" x2="399.395" y2="398.287" gradientUnits="userSpaceOnUse">
<stop stop-color="#7A0B77"/>
<stop offset="1" stop-color="#D74963"/>
</linearGradient>
<linearGradient id="paint8_linear" x1="409.282" y1="346.139" x2="449.471" y2="415.89" gradientUnits="userSpaceOnUse">
<stop stop-color="#782B7B"/>
<stop offset="1" stop-color="#446AA5"/>
</linearGradient>
<linearGradient id="paint9_linear" x1="192.784" y1="206.324" x2="192.784" y2="237.759" gradientUnits="userSpaceOnUse">
<stop stop-color="#7A0B77"/>
<stop offset="1" stop-color="#D74963"/>
</linearGradient>
<linearGradient id="paint10_linear" x1="192.772" y1="156.636" x2="192.772" y2="215.696" gradientUnits="userSpaceOnUse">
<stop stop-color="#7A0B77"/>
<stop offset="1" stop-color="#D74963"/>
</linearGradient>
<linearGradient id="paint11_linear" x1="241.547" y1="156.644" x2="241.547" y2="215.69" gradientUnits="userSpaceOnUse">
<stop stop-color="#7A0B77"/>
<stop offset="1" stop-color="#D74963"/>
</linearGradient>
<linearGradient id="paint12_linear" x1="217.122" y1="170.672" x2="217.122" y2="201.66" gradientUnits="userSpaceOnUse">
<stop stop-color="#2284C7"/>
<stop offset="1" stop-color="#02B0A4"/>
</linearGradient>
</defs>
</svg>
