<svg width="684" height="566" viewBox="0 0 684 566" fill="none" xmlns="http://www.w3.org/2000/svg">
<g opacity="0.3" filter="url(#filter0_f)">
<ellipse rx="111.188" ry="110.871" transform="matrix(1 0 0 -1 461.003 256.729)" fill="#A62F89"/>
</g>
<g opacity="0.35" filter="url(#filter1_f)">
<ellipse rx="51.1211" ry="50.9752" transform="matrix(1 0 0 -1 378.121 162.975)" fill="#02B5A6"/>
</g>
<g opacity="0.3" filter="url(#filter2_f)">
<ellipse rx="51.1211" ry="50.9752" transform="matrix(1 0 0 -1 163.223 320.873)" fill="#02B5A6"/>
</g>
<g opacity="0.3" filter="url(#filter3_f)">
<ellipse rx="51.1211" ry="50.9752" transform="matrix(1 0 0 -1 227.976 354.007)" fill="#02B5A6"/>
</g>
<g opacity="0.3" filter="url(#filter4_f)">
<ellipse rx="51.1211" ry="50.9752" transform="matrix(1 0 0 -1 298.693 403.283)" fill="#02B5A6"/>
</g>
<path d="M611.031 336.25V349.026C611.031 350.474 610.241 351.791 608.792 352.845L608.528 353.108C608.924 352.45 609.187 351.66 609.187 351.001V338.226L611.031 336.25Z" fill="#D4088C"/>
<path d="M161.971 251.432V263.681C161.971 264.866 162.366 266.051 163.289 267.105C161.181 265.656 160.127 263.681 160.259 261.969V249.72" fill="#6EE8FC"/>
<path d="M464.287 421.859L606.816 339.543C610.241 337.567 609.846 334.143 605.894 331.904L316.225 164.638C314.38 163.585 312.009 162.926 309.638 162.794C312.536 162.663 315.698 163.19 318.201 164.638L607.87 331.904C611.822 334.143 612.217 337.567 608.792 339.543L466.394 421.727C464.682 422.781 462.179 423.176 459.676 423.044C461.389 422.912 463.101 422.517 464.287 421.859Z" fill="url(#paint0_radial)"/>
<path d="M464.287 435.029L606.816 352.845C610.241 350.869 609.846 347.445 605.894 345.206L316.225 177.941C314.38 176.887 312.009 176.228 309.638 176.097C312.536 175.965 315.698 176.492 318.201 177.941L607.87 345.206C611.822 347.445 612.217 350.869 608.792 352.845L466.394 435.029C464.682 436.083 462.179 436.478 459.676 436.346C461.389 436.214 463.101 435.819 464.287 435.029Z" fill="url(#paint1_radial)"/>
<path d="M162.498 246.427L304.896 164.112C306.608 163.058 309.111 162.663 311.614 162.794C309.77 162.926 308.189 163.321 306.872 164.112L164.342 246.427C160.917 248.403 161.313 251.827 165.264 254.066L454.934 421.332C456.778 422.385 459.149 423.044 461.52 423.176C458.622 423.307 455.461 422.781 453.089 421.332L163.42 254.066C159.468 251.827 159.073 248.403 162.498 246.427Z" fill="url(#paint2_radial)"/>
<path d="M162.498 259.598L304.896 177.414C306.608 176.36 309.111 175.965 311.614 176.097C309.77 176.228 308.189 176.624 306.872 177.414L164.342 259.598C160.917 261.573 161.313 264.998 165.264 267.237L454.934 434.502C456.778 435.556 459.149 436.215 461.52 436.346C458.622 436.478 455.461 435.951 453.089 434.502L163.42 267.237C159.468 264.998 159.073 261.573 162.498 259.598Z" fill="url(#paint3_radial)"/>
<path d="M427.279 382.759C431.921 385.438 437.638 385.438 442.279 382.758L539.593 326.564C543.592 324.255 543.592 318.481 539.592 316.172L350.224 206.862C342.798 202.576 333.649 202.577 326.224 206.864L233.41 260.459C229.41 262.769 229.411 268.543 233.411 270.852L427.279 382.759Z" fill="url(#paint4_linear)"/>
<path d="M234.027 214.818L250.229 205.467C250.888 205.072 250.756 204.545 250.097 204.15C249.439 203.755 248.385 203.755 247.726 204.018L231.524 213.369C230.865 213.764 230.997 214.291 231.655 214.686C232.314 215.081 233.368 215.213 234.027 214.818Z" fill="url(#paint5_radial)"/>
<path d="M458.359 247.218C458.359 247.218 451.377 170.433 436.492 178.994C421.607 187.555 428.852 232.203 413.308 241.028C398.159 249.852 406.326 113.8 383.406 127.102C366.94 136.585 372.209 239.842 357.455 248.403C340.99 257.886 345.732 219.033 330.978 220.745C322.548 221.799 318.201 246.954 306.213 252.749C294.226 258.544 300.022 148.966 281.185 159.897C262.085 170.96 256.552 363.645 256.552 363.645L458.359 247.218Z" fill="url(#paint6_linear)"/>
<path d="M435.833 178.336C435.833 180.048 437.282 181.497 438.995 181.497C440.707 181.497 442.156 180.048 442.156 178.336C442.156 176.624 440.707 175.175 438.995 175.175C437.282 175.175 435.833 176.492 435.833 178.336Z" fill="#02B0A4"/>
<path d="M383.274 126.312C383.274 128.024 384.723 129.473 386.436 129.473C388.148 129.473 389.597 128.024 389.597 126.312C389.597 124.6 388.148 123.151 386.436 123.151C384.723 123.151 383.274 124.468 383.274 126.312Z" fill="#02B0A4"/>
<path d="M328.344 220.613C328.344 222.325 329.793 223.774 331.505 223.774C333.218 223.774 334.667 222.325 334.667 220.613C334.667 218.901 333.218 217.452 331.505 217.452C329.793 217.452 328.344 218.901 328.344 220.613Z" fill="#02B0A4"/>
<path d="M280.658 158.843C280.658 160.555 282.107 162.004 283.82 162.004C285.532 162.004 286.981 160.555 286.981 158.843C286.981 157.131 285.532 155.682 283.82 155.682C281.976 155.682 280.658 157.131 280.658 158.843Z" fill="#02B0A4"/>
<path d="M504.595 270.002C504.595 270.002 499.458 193.745 488.261 200.199C477.196 206.652 482.465 251.3 471.005 258.017C459.676 264.603 465.867 147.253 448.743 157.131C436.492 164.243 440.312 203.491 429.379 209.813C416.996 216.925 419.236 197.433 409.62 202.964C400.135 208.496 400.003 233.257 391.178 237.34C382.22 241.291 386.567 152.39 372.472 160.555C358.246 168.721 354.162 357.06 354.162 357.06L504.595 270.002Z" fill="url(#paint7_linear)"/>
<path d="M486.022 199.804C486.022 201.516 487.471 202.965 489.183 202.965C490.896 202.965 492.345 201.516 492.345 199.804C492.345 198.092 490.896 196.643 489.183 196.643C487.471 196.643 486.022 198.092 486.022 199.804Z" fill="#02B0A4"/>
<path d="M447.426 156.473C447.426 158.185 448.875 159.634 450.587 159.634C452.3 159.634 453.749 158.185 453.749 156.473C453.749 154.761 452.3 153.312 450.587 153.312C448.875 153.312 447.426 154.761 447.426 156.473Z" fill="#02B0A4"/>
<path d="M409.488 202.043C409.488 203.755 410.937 205.204 412.649 205.204C414.362 205.204 415.811 203.755 415.811 202.043C415.811 200.331 414.362 198.882 412.649 198.882C410.937 198.882 409.488 200.331 409.488 202.043Z" fill="#02B0A4"/>
<path d="M371.155 160.16C371.155 161.873 372.604 163.321 374.317 163.321C376.029 163.321 377.478 161.873 377.478 160.16C377.478 158.448 376.029 157 374.317 157C372.604 157 371.155 158.448 371.155 160.16Z" fill="#02B0A4"/>
<path d="M489.183 279.617C489.578 279.617 489.842 279.354 489.842 278.959V199.935C489.842 199.54 489.578 199.277 489.183 199.277C488.788 199.277 488.525 199.54 488.525 199.935V278.959C488.525 279.222 488.788 279.617 489.183 279.617Z" fill="url(#paint8_radial)"/>
<path d="M450.587 301.875C450.982 301.875 451.246 301.612 451.246 301.217V156.473C451.246 156.078 450.982 155.814 450.587 155.814C450.192 155.814 449.928 156.078 449.928 156.473V301.217C449.928 301.612 450.192 301.875 450.587 301.875Z" fill="url(#paint9_radial)"/>
<path d="M412.649 323.87C413.045 323.87 413.308 323.607 413.308 323.211V202.043C413.308 201.647 413.045 201.384 412.649 201.384C412.254 201.384 411.991 201.647 411.991 202.043V323.08C411.991 323.475 412.254 323.87 412.649 323.87Z" fill="url(#paint10_radial)"/>
<path d="M374.316 345.733C374.712 345.733 374.975 345.47 374.975 345.075V160.424C374.975 160.029 374.712 159.765 374.316 159.765C373.921 159.765 373.658 160.029 373.658 160.424V345.075C373.658 345.47 373.921 345.733 374.316 345.733Z" fill="url(#paint11_radial)"/>
<path d="M535.815 233.52C536.078 233.52 536.21 233.389 536.342 233.257C536.605 232.993 536.473 232.598 536.21 232.335L489.71 199.277L451.114 155.946C450.982 155.814 450.85 155.682 450.587 155.682C450.455 155.682 450.192 155.814 450.06 155.946L412.649 200.989L374.844 159.634L329.924 107.083C329.661 106.82 329.266 106.82 329.002 106.952C328.739 107.215 328.739 107.61 328.871 107.873L373.79 160.556L412.123 202.438C412.254 202.569 412.386 202.701 412.649 202.701C412.781 202.701 413.045 202.569 413.176 202.438L450.587 157.395L488.656 200.331L488.788 200.462L535.551 233.389C535.551 233.52 535.683 233.52 535.815 233.52Z" fill="url(#paint12_radial)"/>
<path d="M303.842 443.063C305.423 443.063 306.872 442.8 307.926 442.141L327.158 431.078C328.343 430.419 328.87 429.497 328.87 428.444C328.87 427.259 327.948 426.073 326.499 425.151L308.057 414.483C305.291 412.903 301.076 412.639 298.573 414.088L279.341 425.151C278.155 425.81 277.628 426.732 277.628 427.785C277.628 428.971 278.55 430.156 279.999 431.078L298.441 441.746C300.022 442.668 301.998 443.063 303.842 443.063ZM302.657 413.956C304.369 413.956 306.213 414.351 307.662 415.142L326.104 425.81C327.421 426.6 328.08 427.522 328.08 428.444C328.08 429.234 327.553 429.893 326.763 430.419L307.53 441.483C305.291 442.8 301.471 442.536 298.836 441.088L280.395 430.419C279.077 429.629 278.419 428.707 278.419 427.785C278.419 426.995 278.946 426.337 279.736 425.81L298.968 414.747C299.89 414.22 301.208 413.956 302.657 413.956Z" fill="url(#paint13_linear)"/>
<path d="M241.271 406.054C242.852 406.054 244.301 405.791 245.355 405.132L264.455 394.069C265.641 393.41 266.168 392.488 266.168 391.435C266.168 390.249 265.246 389.064 263.797 388.142L245.355 377.474C242.588 375.894 238.373 375.63 235.87 377.079L216.638 388.142C215.453 388.801 214.926 389.723 214.926 390.776C214.926 391.962 215.848 393.147 217.297 394.069L235.739 404.737C237.451 405.527 239.295 406.054 241.271 406.054ZM240.086 376.816C241.798 376.816 243.642 377.211 245.091 378.001L263.533 388.669C264.85 389.459 265.509 390.381 265.509 391.303C265.509 392.093 264.982 392.752 264.192 393.279L244.96 404.342C242.72 405.659 238.9 405.396 236.266 403.947L217.824 393.279C216.506 392.488 215.848 391.567 215.848 390.645C215.848 389.854 216.375 389.196 217.165 388.669L236.397 377.606C237.319 377.211 238.637 376.816 240.086 376.816Z" fill="url(#paint14_linear)"/>
<path d="M178.569 368.913C180.15 368.913 181.599 368.65 182.652 367.991L201.885 356.928C203.07 356.27 203.597 355.348 203.597 354.294C203.597 353.109 202.675 351.923 201.226 351.001L182.784 340.333C180.018 338.753 175.803 338.489 173.3 339.938L154.068 351.001C152.882 351.66 152.355 352.582 152.355 353.635C152.355 354.821 153.277 356.006 154.726 356.928L173.168 367.596C174.749 368.518 176.725 368.913 178.569 368.913ZM177.383 339.806C179.096 339.806 180.94 340.201 182.389 340.992L200.831 351.66C202.148 352.45 202.807 353.372 202.807 354.294C202.807 355.084 202.28 355.743 201.49 356.27L182.257 367.333C180.018 368.65 176.198 368.386 173.563 366.938L155.121 356.27C153.804 355.479 153.145 354.557 153.145 353.635C153.145 352.845 153.672 352.187 154.463 351.66L173.695 340.597C174.749 340.07 176.066 339.806 177.383 339.806Z" fill="url(#paint15_linear)"/>
<path d="M346.127 450.307C348.103 450.307 350.078 449.912 351.527 448.99L413.439 413.166L413.044 412.507L351.132 448.331C348.366 449.912 343.756 449.912 340.989 448.331L145.242 336.118C143.925 335.328 143.266 334.406 143.266 333.353C143.266 332.299 143.925 331.377 145.242 330.587L207.154 294.763L206.759 294.104L144.847 329.928C143.398 330.85 142.476 332.036 142.476 333.221C142.476 334.538 143.266 335.723 144.847 336.514L340.594 448.726C342.307 449.912 344.151 450.307 346.127 450.307Z" fill="url(#paint16_radial)"/>
<path d="M198.855 299.373C199.25 300.163 200.304 300.426 200.963 299.899C201.753 299.504 202.016 298.451 201.49 297.792C201.094 297.002 200.041 296.738 199.382 297.265C198.592 297.66 198.328 298.714 198.855 299.373Z" fill="#02B0A4"/>
<path d="M182.389 308.987C182.784 309.777 183.838 310.041 184.497 309.514C185.287 309.119 185.55 308.065 185.023 307.407C184.628 306.616 183.574 306.353 182.916 306.88C182.125 307.275 181.862 308.197 182.389 308.987Z" fill="#02B0A4"/>
<path d="M165.791 318.47C166.187 319.26 167.241 319.523 167.899 318.997C168.69 318.601 168.953 317.548 168.426 316.889C168.031 316.099 166.977 315.836 166.318 316.362C165.66 316.758 165.396 317.68 165.791 318.47Z" fill="#02B0A4"/>
<path d="M149.326 328.084C149.721 328.875 150.774 329.138 151.433 328.611C152.223 328.216 152.487 327.163 151.96 326.504C151.565 325.714 150.511 325.45 149.852 325.977C149.194 326.241 148.93 327.294 149.326 328.084Z" fill="#02B0A4"/>
<path d="M150.774 339.675C151.169 338.884 150.906 337.962 150.247 337.567C149.457 337.172 148.535 337.436 148.14 338.094C147.745 338.884 148.008 339.806 148.667 340.201C149.325 340.728 150.247 340.465 150.774 339.675Z" fill="#02B0A4"/>
<path d="M167.241 349.157C167.636 348.367 167.372 347.445 166.714 347.05C165.923 346.655 165.001 346.918 164.606 347.577C164.211 348.367 164.474 349.289 165.133 349.684C165.792 350.211 166.845 349.947 167.241 349.157Z" fill="white"/>
<path d="M175.539 353.898C175.934 353.108 175.671 352.186 175.012 351.791C174.222 351.396 173.3 351.659 172.905 352.318C172.51 353.108 172.773 354.03 173.432 354.425C174.09 354.952 175.144 354.689 175.539 353.898Z" fill="white"/>
<path d="M192.005 363.381C192.4 362.591 192.137 361.669 191.478 361.274C190.688 360.879 189.766 361.142 189.371 361.801C188.975 362.591 189.239 363.513 189.898 363.908C190.688 364.435 191.61 364.172 192.005 363.381Z" fill="#02B0A4"/>
<path d="M208.603 372.864C208.998 372.074 208.735 371.152 208.076 370.757C207.286 370.362 206.363 370.625 205.968 371.284C205.573 372.074 205.837 372.996 206.495 373.391C207.154 373.918 208.076 373.654 208.603 372.864Z" fill="#02B0A4"/>
<path d="M225.069 382.347C225.464 381.556 225.201 380.634 224.542 380.239C223.752 379.844 222.83 380.108 222.434 380.766C222.039 381.556 222.303 382.478 222.961 382.873C223.752 383.4 224.674 383.137 225.069 382.347Z" fill="white"/>
<path d="M233.368 387.088C233.763 386.298 233.5 385.376 232.841 384.981C232.05 384.586 231.128 384.849 230.733 385.508C230.338 386.298 230.601 387.22 231.26 387.615C231.919 388.142 232.973 387.879 233.368 387.088Z" fill="white"/>
<path d="M241.667 391.83C242.062 391.039 241.798 390.117 241.14 389.722C240.349 389.327 239.427 389.591 239.032 390.249C238.637 391.039 238.9 391.961 239.559 392.356C240.218 392.883 241.14 392.62 241.667 391.83Z" fill="white"/>
<path d="M258.132 401.312C258.528 400.522 258.264 399.6 257.605 399.205C256.815 398.81 255.893 399.073 255.498 399.732C255.103 400.522 255.366 401.444 256.025 401.839C256.815 402.366 257.737 402.103 258.132 401.312Z" fill="#02B0A4"/>
<path d="M274.73 410.795C275.126 410.005 274.862 409.083 274.203 408.688C273.413 408.293 272.491 408.556 272.096 409.215C271.701 410.005 271.964 410.927 272.623 411.322C273.281 411.717 274.203 411.454 274.73 410.795Z" fill="#02B0A4"/>
<path d="M291.196 420.278C291.591 419.488 291.328 418.566 290.669 418.171C289.879 417.776 288.957 418.039 288.562 418.698C288.166 419.488 288.43 420.41 289.088 420.805C289.747 421.2 290.801 420.937 291.196 420.278Z" fill="white"/>
<path d="M299.495 425.019C299.89 424.229 299.627 423.307 298.968 422.912C298.178 422.517 297.256 422.78 296.86 423.439C296.465 424.229 296.729 425.151 297.387 425.546C298.046 425.941 299.1 425.678 299.495 425.019Z" fill="white"/>
<path d="M307.794 429.761C308.189 428.97 307.926 428.049 307.267 427.653C306.477 427.258 305.554 427.522 305.159 428.18C304.764 428.97 305.028 429.892 305.686 430.287C306.345 430.683 307.267 430.419 307.794 429.761Z" fill="white"/>
<path d="M324.26 439.112C324.655 438.322 324.392 437.4 323.733 437.004C322.943 436.609 322.021 436.873 321.625 437.531C321.23 438.322 321.494 439.243 322.152 439.639C322.811 440.034 323.865 439.902 324.26 439.112Z" fill="#02B0A4"/>
<path d="M340.858 448.595C341.253 447.804 340.989 446.883 340.331 446.487C339.54 446.092 338.618 446.356 338.223 447.014C337.828 447.805 338.091 448.726 338.75 449.122C339.408 449.648 340.331 449.385 340.858 448.595Z" fill="#02B0A4"/>
<path d="M358.377 444.775C357.982 443.985 356.928 443.722 356.27 444.248C355.479 444.644 355.216 445.697 355.743 446.356C356.138 447.146 357.192 447.409 357.85 446.883C358.509 446.487 358.773 445.434 358.377 444.775Z" fill="#02B0A4"/>
<path d="M374.843 435.161C374.448 434.371 373.394 434.107 372.736 434.634C371.945 435.029 371.682 436.083 372.209 436.741C372.604 437.531 373.658 437.795 374.316 437.268C374.975 436.873 375.238 435.951 374.843 435.161Z" fill="#02B0A4"/>
<path d="M391.309 425.678C390.914 424.888 389.86 424.624 389.202 425.151C388.411 425.546 388.148 426.6 388.675 427.258C389.07 428.049 390.124 428.312 390.782 427.785C391.573 427.39 391.836 426.336 391.309 425.678Z" fill="#02B0A4"/>
<path d="M407.775 416.064C407.38 415.273 406.326 415.01 405.668 415.537C404.877 415.932 404.614 416.986 405.141 417.644C405.536 418.434 406.59 418.698 407.248 418.171C408.039 417.776 408.302 416.854 407.775 416.064Z" fill="#02B0A4"/>
<path d="M156.702 335.855H170.402L174.222 333.616C176.198 332.431 179.623 332.562 181.862 333.879L185.682 336.118H199.382V345.338C199.382 346.128 198.987 346.787 198.065 347.445L181.862 356.796C179.886 357.981 176.461 357.85 174.222 356.533L158.678 347.577C157.493 346.918 156.834 345.996 156.834 345.206V335.855H156.702Z" fill="#00001E"/>
<path d="M158.546 346.786L174.09 355.742C176.33 357.059 179.755 357.191 181.73 356.006L197.933 346.655C198.855 346.128 199.25 345.338 199.25 344.547V345.206C199.25 345.996 198.855 346.655 197.933 347.313L181.73 356.664C179.755 357.85 176.33 357.718 174.09 356.401L158.546 347.445C157.361 346.786 156.702 345.865 156.702 345.074V344.416C156.834 345.206 157.361 345.996 158.546 346.786Z" fill="url(#paint17_linear)"/>
<path d="M181.862 347.445L198.065 338.094C200.041 336.909 199.777 334.933 197.538 333.616L181.994 324.66C179.754 323.343 176.33 323.211 174.354 324.397L158.151 333.748C156.175 334.933 156.439 336.909 158.678 338.226L174.222 347.182C176.461 348.499 179.886 348.631 181.862 347.445Z" fill="url(#paint18_linear)"/>
<path d="M180.545 347.445L196.747 338.094C198.723 336.909 198.46 334.933 196.22 333.616L180.677 324.66C179.623 324.002 178.305 323.738 176.988 323.607C178.701 323.475 180.545 323.87 181.994 324.66L197.538 333.616C199.777 334.933 200.041 336.909 198.065 338.094L181.862 347.445C180.808 348.104 179.359 348.235 177.91 348.235C178.964 348.235 179.886 347.972 180.545 347.445Z" fill="#D4088C"/>
<path d="M170.138 340.597C174.485 343.099 181.599 343.099 185.946 340.597C190.293 338.094 190.293 334.011 185.946 331.509C181.599 329.006 174.485 329.006 170.138 331.509C165.791 333.88 165.791 337.962 170.138 340.597Z" fill="url(#paint19_linear)"/>
<g style="mix-blend-mode:lighten" opacity="0.15">
<path d="M188.123 337.875L188.109 287.813C188.068 287.961 187.972 288.096 187.807 288.19L178.472 293.416C177.977 293.699 177.372 293.712 176.877 293.47L167.666 288.244C167.405 288.096 167.267 287.907 167.226 287.719V337.714C167.171 337.97 167.309 338.239 167.666 338.455L176.877 343.681C177.386 343.923 177.991 343.91 178.472 343.627L187.807 338.401C188.013 338.279 188.109 338.077 188.123 337.875Z" fill="url(#paint20_linear)"/>
</g>
<g style="mix-blend-mode:lighten" opacity="0.15">
<path d="M250.849 374.029L250.835 323.966C250.794 324.115 250.698 324.249 250.533 324.343L241.198 329.57C240.703 329.852 240.098 329.866 239.603 329.623L230.392 324.397C230.131 324.249 229.993 324.061 229.952 323.872V373.867C229.897 374.123 230.035 374.393 230.392 374.608L239.603 379.834C240.112 380.077 240.717 380.063 241.198 379.78L250.533 374.554C250.739 374.433 250.835 374.231 250.849 374.029Z" fill="url(#paint21_linear)"/>
</g>
<g style="mix-blend-mode:lighten" opacity="0.15">
<path d="M313.575 410.182L313.562 360.12C313.52 360.268 313.424 360.403 313.259 360.497L303.924 365.723C303.429 366.006 302.825 366.019 302.33 365.777L293.118 360.551C292.857 360.403 292.72 360.214 292.678 360.025V410.021C292.623 410.277 292.761 410.546 293.118 410.761L302.33 415.988C302.838 416.23 303.443 416.217 303.924 415.934L313.259 410.708C313.465 410.586 313.562 410.384 313.575 410.182Z" fill="url(#paint22_linear)"/>
</g>
<path d="M185.946 333.748C181.599 331.245 174.485 331.245 170.138 333.748C168.426 334.67 167.504 335.855 167.109 337.172C166.45 335.196 167.504 332.957 170.138 331.377C174.485 328.875 181.599 328.875 185.946 331.377C188.712 332.957 189.634 335.065 188.975 337.172C188.58 335.987 187.526 334.801 185.946 333.748Z" fill="#35B8DB"/>
<path d="M219.404 372.864H233.104L236.924 370.625C238.9 369.44 242.325 369.572 244.564 370.889L248.385 373.128H262.084V382.347C262.084 383.137 261.689 383.796 260.767 384.454L244.564 393.805C242.589 394.991 239.164 394.859 236.924 393.542L221.38 384.586C220.195 383.928 219.536 383.006 219.536 382.215V372.864H219.404Z" fill="#00001E"/>
<path d="M221.249 383.796L236.793 392.752C239.032 394.069 242.457 394.201 244.433 393.015L260.635 383.664C261.557 383.137 261.953 382.347 261.953 381.557V382.215C261.953 383.006 261.557 383.664 260.635 384.323L244.433 393.674C242.457 394.859 239.032 394.727 236.793 393.41L221.249 384.454C220.063 383.796 219.405 382.874 219.405 382.084V381.425C219.405 382.215 220.063 383.137 221.249 383.796Z" fill="url(#paint23_linear)"/>
<path d="M244.433 384.586L260.635 375.235C262.611 374.05 262.348 372.074 260.109 370.757L244.565 361.801C242.325 360.484 238.9 360.352 236.924 361.538L220.722 370.889C218.746 372.074 219.009 374.05 221.249 375.367L236.793 384.323C239.032 385.508 242.457 385.771 244.433 384.586Z" fill="url(#paint24_linear)"/>
<path d="M243.247 384.586L259.45 375.235C261.426 374.05 261.162 372.074 258.923 370.757L243.379 361.801C242.325 361.142 241.008 360.879 239.691 360.747C241.403 360.616 243.247 361.011 244.696 361.801L260.24 370.757C262.479 372.074 262.743 374.05 260.767 375.235L244.565 384.586C243.511 385.244 242.062 385.376 240.613 385.376C241.535 385.244 242.457 384.981 243.247 384.586Z" fill="#D4088C"/>
<path d="M232.709 377.606C237.056 380.108 244.169 380.108 248.516 377.606C252.863 375.103 252.863 371.02 248.516 368.518C244.169 366.016 237.056 366.016 232.709 368.518C228.362 371.02 228.362 375.103 232.709 377.606Z" fill="url(#paint25_linear)"/>
<path d="M248.516 370.889C244.169 368.386 237.056 368.386 232.709 370.889C230.996 371.811 230.074 372.996 229.679 374.313C229.021 372.337 230.074 370.098 232.709 368.518C237.056 366.016 244.169 366.016 248.516 368.518C251.283 370.098 252.205 372.206 251.546 374.313C251.151 372.996 250.229 371.811 248.516 370.889Z" fill="#35B8DB"/>
<path d="M281.975 410.005H295.675L299.495 407.766C301.471 406.581 304.896 406.713 307.135 408.03L310.955 410.269H324.655V419.488C324.655 420.278 324.26 420.937 323.338 421.595L307.135 430.946C305.159 432.132 301.734 432 299.495 430.683L283.951 421.727C282.766 421.068 282.107 420.146 282.107 419.356V410.005H281.975Z" fill="#00001E"/>
<path d="M283.819 420.937L299.363 429.893C301.603 431.21 305.027 431.341 307.003 430.156L323.206 420.805C324.128 420.278 324.523 419.488 324.523 418.698V419.356C324.523 420.146 324.128 420.805 323.206 421.463L307.003 430.815C305.027 432 301.603 431.868 299.363 430.551L283.819 421.595C282.634 420.937 281.975 420.015 281.975 419.224V418.566C281.975 419.356 282.634 420.278 283.819 420.937Z" fill="url(#paint26_linear)"/>
<path d="M307.003 421.727L323.206 412.376C325.182 411.19 324.918 409.215 322.679 407.898L307.135 398.942C304.896 397.625 301.471 397.493 299.495 398.678L283.292 408.029C281.317 409.215 281.58 411.19 283.819 412.507L299.363 421.463C301.734 422.649 305.159 422.78 307.003 421.727Z" fill="url(#paint27_linear)"/>
<path d="M305.818 421.727L322.021 412.376C323.996 411.19 323.733 409.215 321.494 407.898L305.95 398.942C304.896 398.283 303.579 398.02 302.261 397.888C303.974 397.757 305.818 398.152 307.267 398.942L322.811 407.898C325.05 409.215 325.314 411.19 323.338 412.376L307.135 421.727C306.081 422.385 304.632 422.517 303.183 422.517C304.105 422.385 305.028 422.122 305.818 421.727Z" fill="#D4088C"/>
<path d="M295.411 414.746C299.758 417.249 306.872 417.249 311.219 414.746C315.566 412.244 315.566 408.161 311.219 405.659C306.872 403.156 299.758 403.156 295.411 405.659C290.933 408.029 290.933 412.112 295.411 414.746Z" fill="url(#paint28_linear)"/>
<path d="M311.219 408.029C306.872 405.527 299.758 405.527 295.411 408.029C293.699 408.951 292.777 410.137 292.382 411.454C291.723 409.478 292.777 407.239 295.411 405.659C299.758 403.156 306.872 403.156 311.219 405.659C313.985 407.239 314.907 409.347 314.248 411.454C313.853 410.137 312.799 408.951 311.219 408.029Z" fill="#35B8DB"/>
<defs>
<filter id="filter0_f" x="238.365" y="34.4088" width="445.276" height="444.641" filterUnits="userSpaceOnUse" color-interpolation-filters="sRGB">
<feFlood flood-opacity="0" result="BackgroundImageFix"/>
<feBlend mode="normal" in="SourceGraphic" in2="BackgroundImageFix" result="shape"/>
<feGaussianBlur stdDeviation="55.7248" result="effect1_foregroundBlur"/>
</filter>
<filter id="filter1_f" x="215.55" y="0.550446" width="325.141" height="324.85" filterUnits="userSpaceOnUse" color-interpolation-filters="sRGB">
<feFlood flood-opacity="0" result="BackgroundImageFix"/>
<feBlend mode="normal" in="SourceGraphic" in2="BackgroundImageFix" result="shape"/>
<feGaussianBlur stdDeviation="55.7248" result="effect1_foregroundBlur"/>
</filter>
<filter id="filter2_f" x="0.652008" y="158.448" width="325.141" height="324.85" filterUnits="userSpaceOnUse" color-interpolation-filters="sRGB">
<feFlood flood-opacity="0" result="BackgroundImageFix"/>
<feBlend mode="normal" in="SourceGraphic" in2="BackgroundImageFix" result="shape"/>
<feGaussianBlur stdDeviation="55.7248" result="effect1_foregroundBlur"/>
</filter>
<filter id="filter3_f" x="65.4054" y="191.582" width="325.141" height="324.85" filterUnits="userSpaceOnUse" color-interpolation-filters="sRGB">
<feFlood flood-opacity="0" result="BackgroundImageFix"/>
<feBlend mode="normal" in="SourceGraphic" in2="BackgroundImageFix" result="shape"/>
<feGaussianBlur stdDeviation="55.7248" result="effect1_foregroundBlur"/>
</filter>
<filter id="filter4_f" x="136.123" y="240.858" width="325.141" height="324.85" filterUnits="userSpaceOnUse" color-interpolation-filters="sRGB">
<feFlood flood-opacity="0" result="BackgroundImageFix"/>
<feBlend mode="normal" in="SourceGraphic" in2="BackgroundImageFix" result="shape"/>
<feGaussianBlur stdDeviation="55.7248" result="effect1_foregroundBlur"/>
</filter>
<radialGradient id="paint0_radial" cx="0" cy="0" r="1" gradientUnits="userSpaceOnUse" gradientTransform="translate(601.862 333.856) rotate(-152.314) scale(357.551 227.32)">
<stop stop-color="#D4088C"/>
<stop offset="1" stop-color="#D4088C" stop-opacity="0"/>
</radialGradient>
<radialGradient id="paint1_radial" cx="0" cy="0" r="1" gradientUnits="userSpaceOnUse" gradientTransform="translate(601.862 347.158) rotate(-152.314) scale(357.551 227.32)">
<stop stop-color="#D4088C"/>
<stop offset="1" stop-color="#D4088C" stop-opacity="0"/>
</radialGradient>
<radialGradient id="paint2_radial" cx="0" cy="0" r="1" gradientUnits="userSpaceOnUse" gradientTransform="translate(167.938 253.629) rotate(-0.245815) scale(283.332 326.68)">
<stop stop-color="#6EE8FC"/>
<stop offset="1" stop-color="#6EE8FC" stop-opacity="0"/>
</radialGradient>
<radialGradient id="paint3_radial" cx="0" cy="0" r="1" gradientUnits="userSpaceOnUse" gradientTransform="translate(167.938 266.886) rotate(-0.245691) scale(283.332 326.515)">
<stop stop-color="#6EE8FC"/>
<stop offset="1" stop-color="#6EE8FC" stop-opacity="0"/>
</radialGradient>
<linearGradient id="paint4_linear" x1="548.566" y1="293.49" x2="224.398" y2="293.49" gradientUnits="userSpaceOnUse">
<stop stop-color="#A31FA9"/>
<stop offset="0.0667915" stop-color="#8B17A0"/>
<stop offset="0.1494" stop-color="#740F98"/>
<stop offset="0.2393" stop-color="#640A92"/>
<stop offset="0.3408" stop-color="#5B078F"/>
<stop offset="0.4785" stop-color="#58068E"/>
<stop offset="0.6264" stop-color="#4D22A3"/>
<stop offset="0.9436" stop-color="#3168DA"/>
<stop offset="1" stop-color="#2C75E4"/>
</linearGradient>
<radialGradient id="paint5_radial" cx="0" cy="0" r="1" gradientUnits="userSpaceOnUse" gradientTransform="translate(246.396 206.28) rotate(150.003) scale(16.8989 14.6339)">
<stop offset="0.0107527" stop-color="#2C35A2"/>
<stop offset="0.1635" stop-color="#252C88"/>
<stop offset="0.3975" stop-color="#1B2167"/>
<stop offset="0.621" stop-color="#15194F"/>
<stop offset="0.8273" stop-color="#101540"/>
<stop offset="1" stop-color="#0F133B"/>
</radialGradient>
<linearGradient id="paint6_linear" x1="357.501" y1="235.396" x2="361.95" y2="304.279" gradientUnits="userSpaceOnUse">
<stop stop-color="#7ECBDB"/>
<stop offset="1" stop-color="#7ECBDB" stop-opacity="0"/>
</linearGradient>
<linearGradient id="paint7_linear" x1="400.528" y1="183.937" x2="429.794" y2="334.253" gradientUnits="userSpaceOnUse">
<stop offset="0.560995" stop-color="#7A0B77"/>
<stop offset="1" stop-color="#D74963" stop-opacity="0"/>
</linearGradient>
<radialGradient id="paint8_radial" cx="0" cy="0" r="1" gradientUnits="userSpaceOnUse" gradientTransform="translate(489.183 239.447) rotate(90) scale(40.1701 0.658638)">
<stop stop-color="#6EE8FC"/>
<stop offset="1" stop-color="#6EE8FC" stop-opacity="0"/>
</radialGradient>
<radialGradient id="paint9_radial" cx="0" cy="0" r="1" gradientUnits="userSpaceOnUse" gradientTransform="translate(450.587 228.845) rotate(90) scale(73.0306 0.65863)">
<stop stop-color="#6EE8FC"/>
<stop offset="1" stop-color="#6EE8FC" stop-opacity="0"/>
</radialGradient>
<radialGradient id="paint10_radial" cx="0" cy="0" r="1" gradientUnits="userSpaceOnUse" gradientTransform="translate(412.649 262.627) rotate(90) scale(61.243 0.658646)">
<stop stop-color="#6EE8FC"/>
<stop offset="1" stop-color="#6EE8FC" stop-opacity="0"/>
</radialGradient>
<radialGradient id="paint11_radial" cx="0" cy="0" r="1" gradientUnits="userSpaceOnUse" gradientTransform="translate(374.316 252.749) rotate(90) scale(92.9839 0.658646)">
<stop stop-color="#6EE8FC"/>
<stop offset="1" stop-color="#6EE8FC" stop-opacity="0"/>
</radialGradient>
<radialGradient id="paint12_radial" cx="0" cy="0" r="1" gradientUnits="userSpaceOnUse" gradientTransform="translate(432.635 170.193) rotate(90) scale(63.3276 103.851)">
<stop stop-color="#6EE8FC"/>
<stop offset="1" stop-color="#6EE8FC" stop-opacity="0"/>
</radialGradient>
<linearGradient id="paint13_linear" x1="304.871" y1="382.66" x2="302.687" y2="444.11" gradientUnits="userSpaceOnUse">
<stop offset="0.6019" stop-color="#7A0B77"/>
<stop offset="1" stop-color="#D74963"/>
</linearGradient>
<linearGradient id="paint14_linear" x1="242.254" y1="345.578" x2="240.07" y2="407.029" gradientUnits="userSpaceOnUse">
<stop offset="0.6019" stop-color="#7A0B77"/>
<stop offset="1" stop-color="#D74963"/>
</linearGradient>
<linearGradient id="paint15_linear" x1="179.637" y1="308.498" x2="177.453" y2="369.949" gradientUnits="userSpaceOnUse">
<stop offset="0.6019" stop-color="#7A0B77"/>
<stop offset="1" stop-color="#D74963"/>
</linearGradient>
<radialGradient id="paint16_radial" cx="0" cy="0" r="1" gradientUnits="userSpaceOnUse" gradientTransform="translate(230.043 384.505) rotate(24.6136) scale(212.08 76.809)">
<stop stop-color="#6EE8FC"/>
<stop offset="1" stop-color="#6EE8FC" stop-opacity="0"/>
</radialGradient>
<linearGradient id="paint17_linear" x1="178.68" y1="327.028" x2="177.649" y2="354.858" gradientUnits="userSpaceOnUse">
<stop stop-color="#7A0B77"/>
<stop offset="1" stop-color="#D74963"/>
</linearGradient>
<linearGradient id="paint18_linear" x1="178.902" y1="326.043" x2="176.841" y2="349.235" gradientUnits="userSpaceOnUse">
<stop stop-color="#7A0B77"/>
<stop offset="1" stop-color="#D74963"/>
</linearGradient>
<linearGradient id="paint19_linear" x1="189.206" y1="329.632" x2="189.206" y2="342.473" gradientUnits="userSpaceOnUse">
<stop stop-color="#2284C7"/>
<stop offset="1" stop-color="#02B0A4"/>
</linearGradient>
<linearGradient id="paint20_linear" x1="177.758" y1="343.852" x2="177.097" y2="311.34" gradientUnits="userSpaceOnUse">
<stop stop-color="#4F24FF"/>
<stop offset="1" stop-color="#13FFE2" stop-opacity="0"/>
</linearGradient>
<linearGradient id="paint21_linear" x1="240.484" y1="380.006" x2="239.823" y2="347.493" gradientUnits="userSpaceOnUse">
<stop stop-color="#4F24FF"/>
<stop offset="1" stop-color="#13FFE2" stop-opacity="0"/>
</linearGradient>
<linearGradient id="paint22_linear" x1="303.21" y1="416.159" x2="302.55" y2="383.647" gradientUnits="userSpaceOnUse">
<stop stop-color="#4F24FF"/>
<stop offset="1" stop-color="#13FFE2" stop-opacity="0"/>
</linearGradient>
<linearGradient id="paint23_linear" x1="241.087" y1="363.578" x2="240.314" y2="395.016" gradientUnits="userSpaceOnUse">
<stop stop-color="#7A0B77"/>
<stop offset="1" stop-color="#D74963"/>
</linearGradient>
<linearGradient id="paint24_linear" x1="240.636" y1="362.823" x2="240.636" y2="387.046" gradientUnits="userSpaceOnUse">
<stop stop-color="#7A0B77"/>
<stop offset="1" stop-color="#D74963"/>
</linearGradient>
<linearGradient id="paint25_linear" x1="251.777" y1="366.641" x2="251.777" y2="379.482" gradientUnits="userSpaceOnUse">
<stop stop-color="#2284C7"/>
<stop offset="1" stop-color="#02B0A4"/>
</linearGradient>
<linearGradient id="paint26_linear" x1="302.997" y1="406.577" x2="303.512" y2="431.83" gradientUnits="userSpaceOnUse">
<stop stop-color="#7A0B77"/>
<stop offset="1" stop-color="#D74963"/>
</linearGradient>
<linearGradient id="paint27_linear" x1="303.617" y1="400.196" x2="302.844" y2="421.326" gradientUnits="userSpaceOnUse">
<stop stop-color="#7A0B77"/>
<stop offset="1" stop-color="#D74963"/>
</linearGradient>
<linearGradient id="paint28_linear" x1="314.479" y1="403.782" x2="314.479" y2="416.623" gradientUnits="userSpaceOnUse">
<stop stop-color="#2284C7"/>
<stop offset="1" stop-color="#02B0A4"/>
</linearGradient>
</defs>
</svg>
