<svg width="488" height="340" viewBox="0 0 488 340" fill="none" xmlns="http://www.w3.org/2000/svg">
<mask id="mask0" style="mask-type:alpha" maskUnits="userSpaceOnUse" x="122" y="101" width="366" height="234">
<rect x="122" y="101" width="366" height="234" fill="url(#paint0_linear)"/>
</mask>
<g mask="url(#mask0)">
<path fill-rule="evenodd" clip-rule="evenodd" d="M323.96 144.348L324.622 144.346L325.037 144.347L325.041 143.266L324.622 143.265L323.956 143.267L323.96 144.348ZM328.27 144.385L328.293 143.304L327.209 143.285L327.193 144.366L328.27 144.385ZM320.727 144.391L321.804 144.37L321.786 143.289L320.701 143.31L320.727 144.391ZM331.499 144.484L331.544 143.404L330.461 143.364L330.424 144.444L331.499 144.484ZM317.494 144.495L318.571 144.453L318.534 143.373L317.449 143.415L317.494 144.495ZM334.727 144.645L334.791 143.566L333.708 143.506L333.651 144.585L334.727 144.645ZM314.263 144.66L315.34 144.598L315.281 143.519L314.196 143.581L314.263 144.66ZM337.948 144.867L338.034 143.79L336.953 143.708L336.875 144.786L337.948 144.867ZM311.036 144.887L312.111 144.805L312.033 143.727L310.95 143.81L311.036 144.887ZM341.166 145.151L341.271 144.075L340.192 143.973L340.095 145.049L341.166 145.151ZM307.813 145.177L308.888 145.073L308.786 143.997L307.706 144.102L307.813 145.177ZM344.376 145.497L344.503 144.424L343.427 144.301L343.308 145.375L344.376 145.497ZM304.595 145.529L305.667 145.405L305.546 144.331L304.466 144.456L304.595 145.529ZM347.576 145.906L347.725 144.836L346.651 144.691L346.511 145.762L347.576 145.906ZM301.384 145.946L302.454 145.8L302.311 144.729L301.235 144.876L301.384 145.946ZM350.769 146.38L350.938 145.312L349.869 145.146L349.707 146.214L350.769 146.38ZM298.184 146.426L299.25 146.259L299.086 145.191L298.012 145.359L298.184 146.426ZM353.948 146.918L354.14 145.855L353.073 145.666L352.89 146.732L353.948 146.918ZM294.992 146.973L296.055 146.783L295.869 145.719L294.799 145.909L294.992 146.973ZM357.116 147.522L357.329 146.462L356.269 146.253L356.062 147.313L357.116 147.522ZM291.811 147.586L292.87 147.374L292.661 146.314L291.596 146.526L291.811 147.586ZM360.269 148.193L360.505 147.139L359.448 146.906L359.22 147.963L360.269 148.193ZM288.645 148.268L289.699 148.033L289.469 146.977L288.406 147.213L288.645 148.268ZM363.405 148.932L363.665 147.883L362.614 147.627L362.362 148.678L363.405 148.932ZM285.493 149.019L286.543 148.76L286.287 147.71L285.23 147.97L285.493 149.019ZM366.523 149.742L366.809 148.699C366.461 148.604 366.112 148.511 365.764 148.42L365.488 149.464L366.523 149.742ZM282.36 149.841L283.404 149.558L283.125 148.514L282.073 148.799L282.36 149.841ZM369.621 150.623L369.93 149.587L368.891 149.283L368.592 150.322L369.621 150.623ZM279.251 150.735L280.282 150.429L279.979 149.391L278.938 149.7L279.251 150.735ZM372.706 151.582L373.038 150.553L372.004 150.223L371.68 151.254L372.706 151.582ZM276.169 151.702L277.193 151.371L276.865 150.341L275.833 150.674L276.169 151.702ZM375.766 152.615L376.125 151.596L375.1 151.239L374.748 152.262L375.766 152.615ZM273.114 152.745L274.129 152.389L273.775 151.367L272.751 151.727L273.114 152.745ZM378.795 153.728L379.182 152.718L378.166 152.336L377.789 153.348L378.795 153.728ZM270.084 153.867L271.092 153.484L270.711 152.472L269.697 152.858L270.084 153.867ZM381.795 154.921L382.209 153.922C381.875 153.784 381.539 153.647 381.203 153.511L380.799 154.514C381.133 154.648 381.465 154.784 381.795 154.921ZM267.09 155.07L268.086 154.66L267.678 153.659L266.674 154.072L267.09 155.07ZM384.759 156.197L385.2 155.211C384.87 155.063 384.54 154.917 384.206 154.771L383.774 155.762C384.104 155.906 384.433 156.051 384.759 156.197ZM264.131 156.356L265.114 155.918L264.679 154.928L263.687 155.37L264.131 156.356ZM387.684 157.559L388.154 156.586C387.828 156.429 387.502 156.273 387.174 156.118L386.713 157.096C387.037 157.249 387.361 157.403 387.684 157.559ZM261.211 157.729C261.532 157.571 261.855 157.416 262.18 157.261L261.715 156.285C261.388 156.441 261.061 156.599 260.736 156.757L261.211 157.729ZM390.564 159.009L391.066 158.052C390.746 157.884 390.424 157.718 390.101 157.553L389.61 158.516C389.93 158.679 390.248 158.843 390.564 159.009ZM258.336 159.19C258.652 159.022 258.97 158.857 259.289 158.693L258.795 157.731C258.472 157.898 258.15 158.065 257.83 158.235L258.336 159.19ZM393.397 160.551L393.929 159.61C393.614 159.432 393.298 159.255 392.98 159.08L392.458 160.026C392.772 160.2 393.085 160.375 393.397 160.551ZM255.511 160.743C255.82 160.566 256.133 160.389 256.446 160.215L255.921 159.27C255.604 159.447 255.287 159.625 254.974 159.804L255.511 160.743ZM396.175 162.187L396.739 161.266C396.432 161.077 396.121 160.889 395.809 160.703L395.256 161.632C395.564 161.815 395.871 162.001 396.175 162.187ZM252.739 162.391C253.042 162.203 253.348 162.017 253.655 161.831L253.099 160.905C252.785 161.093 252.476 161.282 252.169 161.472L252.739 162.391ZM398.891 163.921L399.488 163.021C399.187 162.82 398.885 162.621 398.578 162.424L397.992 163.332C398.295 163.527 398.594 163.724 398.891 163.921ZM250.032 164.135C250.327 163.937 250.626 163.739 250.927 163.542L250.335 162.638C250.03 162.838 249.728 163.038 249.429 163.239L250.032 164.135ZM401.535 165.757L402.17 164.882C401.878 164.67 401.582 164.459 401.283 164.249L400.662 165.134C400.957 165.341 401.247 165.548 401.535 165.757ZM247.394 165.985C247.683 165.774 247.973 165.565 248.266 165.357L247.639 164.476C247.342 164.687 247.048 164.9 246.757 165.112L247.394 165.985ZM404.102 167.701L404.771 166.854C404.488 166.63 404.202 166.406 403.913 166.184L403.255 167.041C403.54 167.26 403.822 167.48 404.102 167.701ZM244.842 167.941C245.118 167.718 245.399 167.497 245.682 167.277L245.02 166.423C244.73 166.648 244.444 166.873 244.164 167.099L244.842 167.941ZM406.576 169.757L407.285 168.941C407.013 168.704 406.737 168.468 406.459 168.233L405.762 169.059C406.036 169.29 406.308 169.523 406.576 169.757ZM242.377 170.01C242.644 169.775 242.914 169.541 243.188 169.307L242.484 168.486C242.207 168.723 241.933 168.961 241.662 169.2L242.377 170.01ZM408.945 171.928L409.695 171.15C409.436 170.9 409.172 170.649 408.905 170.401L408.167 171.191C408.43 171.436 408.69 171.682 408.945 171.928ZM240.022 172.196C240.275 171.948 240.532 171.701 240.794 171.454L240.052 170.668C239.786 170.919 239.523 171.171 239.266 171.423L240.022 172.196ZM411.196 174.22L411.987 173.485C411.741 173.219 411.491 172.955 411.238 172.692L410.459 173.442C410.708 173.7 410.954 173.96 411.196 174.22ZM237.787 174.502C238.025 174.24 238.269 173.98 238.517 173.72L237.733 172.974C237.481 173.239 237.232 173.505 236.988 173.773L237.787 174.502ZM413.31 176.634L414.144 175.948C413.914 175.668 413.68 175.389 413.439 175.111L412.621 175.817C412.855 176.089 413.084 176.361 413.31 176.634ZM235.688 176.931C235.911 176.656 236.139 176.382 236.37 176.108L235.546 175.409C235.309 175.689 235.077 175.969 234.849 176.251L235.688 176.931ZM415.268 179.172L416.145 178.542C415.934 178.248 415.717 177.955 415.497 177.662L414.634 178.313C414.85 178.598 415.061 178.885 415.268 179.172ZM233.75 179.484C233.954 179.195 234.164 178.907 234.377 178.62L233.51 177.975C233.291 178.269 233.077 178.564 232.867 178.86L233.75 179.484ZM417.049 181.834L417.969 181.266C417.777 180.957 417.582 180.65 417.383 180.343L416.477 180.933C416.672 181.233 416.863 181.533 417.049 181.834ZM231.99 182.162C232.175 181.859 232.362 181.557 232.556 181.256L231.646 180.672C231.448 180.981 231.255 181.29 231.066 181.6L231.99 182.162ZM418.631 184.617L419.59 184.119C419.423 183.797 419.251 183.476 419.074 183.154L418.127 183.676C418.3 183.989 418.468 184.303 418.631 184.617ZM230.435 184.957C230.595 184.642 230.76 184.326 230.93 184.012L229.978 183.498C229.805 183.82 229.636 184.144 229.472 184.467L230.435 184.957ZM419.987 187.512L420.983 187.094C420.843 186.758 420.697 186.423 420.546 186.089L419.562 186.536C419.709 186.861 419.851 187.186 419.987 187.512ZM229.107 187.864C229.241 187.537 229.381 187.209 229.524 186.883L228.534 186.447C228.387 186.783 228.245 187.119 228.107 187.456L229.107 187.864ZM421.094 190.507L422.123 190.177C422.012 189.83 421.895 189.482 421.772 189.137L420.754 189.498C420.873 189.834 420.986 190.17 421.094 190.507ZM228.032 190.869C228.136 190.531 228.245 190.194 228.36 189.858L227.339 189.508C227.22 189.855 227.106 190.203 226.999 190.553L228.032 190.869ZM421.929 193.586L422.983 193.352C422.904 192.996 422.819 192.641 422.731 192.286L421.682 192.55C421.769 192.895 421.852 193.24 421.929 193.586ZM227.229 193.959C227.302 193.613 227.381 193.267 227.465 192.921L226.414 192.667C226.328 193.023 226.247 193.379 226.172 193.736L227.229 193.959ZM422.472 196.726L423.544 196.593C423.499 196.232 423.449 195.869 423.392 195.508L422.324 195.678C422.379 196.027 422.429 196.376 422.472 196.726ZM226.721 197.11C226.76 196.757 226.806 196.405 226.856 196.054L225.786 195.899C225.733 196.263 225.688 196.626 225.646 196.991L226.721 197.11ZM422.71 199.901L423.79 199.872C423.78 199.507 423.765 199.143 423.744 198.778L422.664 198.84C422.685 199.193 422.7 199.548 422.71 199.901ZM226.52 200.293C226.526 199.939 226.537 199.584 226.554 199.229L225.474 199.18C225.457 199.545 225.446 199.911 225.44 200.275L226.52 200.293ZM423.716 203.165C423.741 202.8 423.762 202.436 423.776 202.069L422.696 202.026C422.682 202.381 422.663 202.734 422.638 203.089L423.716 203.165ZM225.553 203.565L226.631 203.477C226.602 203.122 226.577 202.77 226.56 202.416L225.48 202.473C225.499 202.836 225.523 203.199 225.553 203.565ZM423.321 206.439C423.383 206.076 423.438 205.714 423.487 205.351L422.417 205.204C422.369 205.556 422.314 205.906 422.255 206.257L423.321 206.439ZM225.986 206.828L227.049 206.633C226.984 206.284 226.927 205.935 226.875 205.586L225.807 205.744C225.86 206.107 225.92 206.468 225.986 206.828ZM422.617 209.652C422.713 209.298 422.802 208.943 422.886 208.587L421.833 208.341C421.753 208.685 421.666 209.028 421.574 209.371L422.617 209.652ZM226.725 210.034L227.766 209.741C227.669 209.399 227.579 209.057 227.494 208.714L226.445 208.972C226.532 209.326 226.626 209.681 226.725 210.034ZM421.624 212.786C421.75 212.442 421.87 212.097 421.985 211.751L420.96 211.409C420.849 211.745 420.73 212.08 420.608 212.415L421.624 212.786ZM227.752 213.157L228.764 212.775C228.637 212.442 228.516 212.107 228.4 211.774L227.379 212.127C227.498 212.471 227.623 212.815 227.752 213.157ZM420.363 215.821C420.518 215.489 420.667 215.156 420.812 214.823L419.819 214.394C419.679 214.719 419.533 215.042 419.383 215.366L420.363 215.821ZM229.044 216.179L230.019 215.712C229.864 215.391 229.717 215.068 229.573 214.745L228.585 215.183C228.732 215.516 228.886 215.848 229.044 216.179ZM418.859 218.74C419.039 218.421 419.214 218.102 419.385 217.782L418.432 217.273C418.265 217.586 418.094 217.898 417.918 218.209L418.859 218.74ZM230.574 219.083L231.51 218.542C231.33 218.233 231.157 217.922 230.988 217.612L230.039 218.128C230.212 218.447 230.391 218.766 230.574 219.083ZM417.14 221.534C417.344 221.229 417.542 220.923 417.736 220.617L416.822 220.039C416.634 220.339 416.439 220.637 416.241 220.935L417.14 221.534ZM232.317 221.861L233.212 221.256C233.011 220.959 232.816 220.661 232.623 220.364L231.715 220.95C231.911 221.255 232.112 221.559 232.317 221.861ZM415.231 224.198C415.454 223.908 415.674 223.617 415.888 223.324L415.017 222.686C414.807 222.971 414.593 223.256 414.374 223.54L415.231 224.198ZM234.247 224.509L235.101 223.845C234.88 223.562 234.664 223.278 234.452 222.994L233.585 223.641C233.801 223.931 234.023 224.22 234.247 224.509ZM413.154 226.731C413.394 226.455 413.632 226.179 413.864 225.901L413.036 225.207C412.808 225.48 412.576 225.75 412.34 226.02L413.154 226.731ZM236.343 227.027L237.153 226.311C236.916 226.043 236.682 225.773 236.452 225.503L235.628 226.202C235.863 226.479 236.102 226.754 236.343 227.027ZM410.933 229.133C411.188 228.871 411.44 228.609 411.688 228.346L410.9 227.606C410.657 227.863 410.41 228.121 410.159 228.377L410.933 229.133ZM238.582 229.414L239.35 228.652C239.096 228.398 238.848 228.142 238.603 227.886L237.821 228.632C238.07 228.894 238.324 229.153 238.582 229.414ZM408.584 231.406C408.852 231.159 409.117 230.911 409.379 230.662L408.635 229.879C408.377 230.124 408.116 230.368 407.852 230.611L408.584 231.406ZM240.945 231.673L241.672 230.874C241.406 230.632 241.144 230.39 240.885 230.147L240.145 230.934C240.407 231.181 240.674 231.427 240.945 231.673ZM406.123 233.56C406.403 233.326 406.682 233.092 406.956 232.856L406.249 232.037C405.98 232.27 405.708 232.5 405.432 232.729L406.123 233.56ZM243.418 233.811L244.103 232.975C243.827 232.747 243.553 232.518 243.281 232.287L242.582 233.111C242.857 233.346 243.136 233.579 243.418 233.811ZM403.566 235.593C403.856 235.372 404.144 235.151 404.429 234.927L403.761 234.077C403.481 234.297 403.198 234.515 402.912 234.731L403.566 235.593ZM245.982 235.83L246.631 234.965C246.344 234.75 246.061 234.533 245.779 234.316L245.117 235.169C245.402 235.391 245.691 235.611 245.982 235.83ZM400.928 237.511C401.226 237.303 401.521 237.094 401.815 236.885L401.188 236.004C400.896 236.211 400.604 236.418 400.309 236.624L400.928 237.511ZM248.633 237.736L249.246 236.846C248.949 236.642 248.656 236.437 248.366 236.232L247.741 237.112C248.035 237.321 248.332 237.528 248.633 237.736ZM398.213 239.322C398.519 239.126 398.822 238.929 399.124 238.73L398.531 237.826C398.232 238.023 397.933 238.218 397.629 238.412L398.213 239.322ZM251.355 239.533L251.935 238.621C251.63 238.428 251.329 238.235 251.029 238.04L250.441 238.946C250.743 239.143 251.048 239.338 251.355 239.533ZM395.433 241.031C395.746 240.846 396.058 240.66 396.367 240.473L395.805 239.549C395.501 239.734 395.193 239.918 394.884 240.1L395.433 241.031ZM254.142 241.231L254.687 240.297C254.376 240.115 254.068 239.933 253.763 239.749L253.206 240.677C253.516 240.862 253.827 241.047 254.142 241.231ZM255.543 242.033L256.072 241.092C255.76 240.916 255.448 240.738 255.138 240.56L254.599 241.495C254.911 241.676 255.227 241.856 255.543 242.033ZM392.597 242.642C392.916 242.468 393.234 242.292 393.55 242.115L393.021 241.172C392.709 241.347 392.395 241.521 392.079 241.693L392.597 242.642ZM258.409 243.585L258.909 242.626L257.957 242.125L257.449 243.079L258.409 243.585ZM389.71 244.156L390.676 243.662L390.182 242.701L389.222 243.192L389.71 244.156ZM261.325 245.043L261.794 244.068C261.47 243.913 261.148 243.756 260.827 243.598L260.349 244.567C260.673 244.727 260.999 244.886 261.325 245.043ZM386.778 245.58C387.106 245.427 387.435 245.272 387.761 245.115L387.294 244.141C386.972 244.295 386.647 244.448 386.321 244.6L386.778 245.58ZM264.283 246.412L264.721 245.424C264.393 245.278 264.066 245.131 263.741 244.983L263.292 245.965C263.621 246.115 263.951 246.265 264.283 246.412ZM383.805 246.914C384.138 246.772 384.469 246.626 384.8 246.48L384.362 245.491C384.035 245.636 383.706 245.779 383.377 245.922L383.805 246.914ZM267.277 247.693L267.69 246.693L266.695 246.279L266.275 247.275L267.277 247.693ZM380.797 248.162L381.805 247.755L381.394 246.755L380.397 247.158L380.797 248.162ZM270.306 248.89L270.69 247.88L269.686 247.493L269.293 248.499L270.306 248.89ZM377.756 249.327L378.773 248.948L378.39 247.937L377.381 248.314L377.756 249.327ZM273.366 250.005L273.724 248.986L272.71 248.625L272.343 249.643L273.366 250.005ZM374.685 250.412L375.711 250.06L375.356 249.038L374.337 249.389L374.685 250.412ZM276.453 251.041L276.785 250.012L275.762 249.679L275.422 250.704L276.453 251.041ZM371.589 251.419C371.935 251.312 372.28 251.202 372.624 251.092L372.292 250.063C371.952 250.173 371.61 250.28 371.267 250.388L371.589 251.419ZM279.561 252L279.866 250.963C279.522 250.862 279.181 250.76 278.839 250.656L278.524 251.69C278.868 251.795 279.214 251.898 279.561 252ZM368.468 252.35L369.512 252.048L369.207 251.011L368.173 251.311L368.468 252.35ZM282.684 252.882L282.967 251.839L281.932 251.556L281.643 252.597L282.684 252.882ZM365.317 253.209C365.669 253.117 366.021 253.025 366.371 252.93L366.09 251.887L365.046 252.162L365.317 253.209ZM285.828 253.692L286.086 252.644L285.045 252.383L284.779 253.432L285.828 253.692ZM362.15 253.995C362.505 253.911 362.858 253.827 363.211 253.739L362.951 252.691C362.603 252.777 362.253 252.86 361.902 252.942L362.15 253.995ZM288.99 254.432L289.225 253.377L288.178 253.141L287.936 254.194L288.99 254.432ZM358.967 254.71C359.322 254.635 359.678 254.558 360.032 254.479L359.796 253.424C359.445 253.503 359.094 253.578 358.742 253.653L358.967 254.71ZM292.168 255.104L292.379 254.043L291.327 253.829L291.106 254.888L292.168 255.104ZM355.769 255.357L356.837 255.149L356.626 254.088L355.567 254.294L355.769 255.357ZM295.359 255.705L295.547 254.641L294.49 254.449L294.293 255.512L295.359 255.705ZM352.561 255.935L353.632 255.749L353.444 254.685L352.379 254.868L352.561 255.935ZM298.562 256.241L298.73 255.173L297.669 255.003L297.493 256.069L298.562 256.241ZM349.34 256.444L350.415 256.281L350.249 255.213L349.182 255.376L349.34 256.444ZM301.776 256.711L301.921 255.641L300.856 255.492L300.704 256.563L301.776 256.711ZM346.112 256.891L347.191 256.748L347.045 255.678L345.976 255.818L346.112 256.891ZM304.999 257.12L305.122 256.046L304.056 255.919L303.923 256.991L304.999 257.12ZM342.877 257.272L343.956 257.151L343.833 256.077L342.76 256.197L342.877 257.272ZM308.233 257.463L308.332 256.387C307.976 256.354 307.619 256.318 307.264 256.281L307.152 257.356C307.512 257.394 307.872 257.43 308.233 257.463ZM339.633 257.59L340.715 257.491L340.613 256.415L339.539 256.514L339.633 257.59ZM311.469 257.743L311.551 256.665L310.48 256.58L310.388 257.656L311.469 257.743ZM336.387 257.845L337.471 257.767L337.389 256.689L336.314 256.767L336.387 257.845ZM314.71 257.963L314.774 256.885L313.699 256.818L313.629 257.897L314.71 257.963ZM333.137 258.037C333.499 258.02 333.861 258.001 334.224 257.979L334.159 256.901C333.801 256.921 333.442 256.94 333.084 256.957L333.137 258.037ZM317.959 258.12L318.002 257.04L316.927 256.994L316.876 258.074L317.959 258.12ZM329.885 258.167L330.971 258.131L330.93 257.051L329.854 257.087L329.885 258.167ZM321.197 258.214L321.232 257.134L320.155 257.109L320.126 258.189L321.197 258.214ZM326.632 258.236L327.718 258.22L327.697 257.14L326.62 257.155L326.632 258.236ZM324.462 258.248L324.466 257.168L323.388 257.163L323.379 258.243L324.462 258.248Z" fill="#D24566"/>
<path fill-rule="evenodd" clip-rule="evenodd" d="M216.995 125.15C217.004 125.247 217.011 125.344 217.028 125.44L217.082 125.658L217.159 125.927L217.247 126.139C217.287 126.232 217.328 126.325 217.377 126.417L217.494 126.615C217.558 126.717 217.626 126.819 217.7 126.921L217.842 127.1C217.963 127.247 218.098 127.392 218.245 127.533L218.353 127.642C218.441 127.722 218.542 127.8 218.641 127.879L218.865 128.061C218.975 128.14 219.096 128.216 219.213 128.293C219.304 128.352 219.388 128.413 219.484 128.471L235.717 138.128C235.993 138.293 236.29 138.441 236.595 138.58L236.784 138.665C237.085 138.795 237.397 138.914 237.718 139.019L237.98 139.098C238.14 139.146 238.3 139.192 238.463 139.235C238.566 139.261 238.67 139.285 238.774 139.309C238.933 139.346 239.093 139.38 239.254 139.411C239.35 139.43 239.446 139.447 239.543 139.464C239.874 139.521 240.208 139.57 240.548 139.604L240.593 139.607C240.874 139.634 241.157 139.652 241.441 139.664C241.543 139.668 241.646 139.669 241.748 139.671C241.928 139.674 242.107 139.676 242.287 139.673C242.401 139.671 242.515 139.669 242.628 139.664C242.79 139.658 242.953 139.649 243.115 139.638C243.229 139.63 243.345 139.622 243.459 139.611C243.623 139.596 243.785 139.577 243.948 139.556C244.057 139.543 244.166 139.53 244.274 139.514C244.465 139.486 244.655 139.451 244.844 139.415L245.092 139.369C245.38 139.308 245.663 139.239 245.941 139.16L246.087 139.115C246.378 139.029 246.662 138.933 246.941 138.827C247.055 138.783 247.172 138.743 247.283 138.696L258.248 134.093C258.633 133.932 258.989 133.756 259.316 133.567C261.02 132.583 261.936 131.256 261.932 129.905L261.968 142.528C261.972 143.879 261.056 145.206 259.353 146.19C259.025 146.378 258.669 146.555 258.284 146.716L247.319 151.319L247.107 151.406L246.976 151.45C246.697 151.556 246.413 151.653 246.122 151.738L246.022 151.772L245.978 151.783C245.699 151.861 245.415 151.931 245.128 151.991L245.085 152.002L244.88 152.038C244.69 152.074 244.501 152.108 244.31 152.137L244.21 152.154L243.984 152.179C243.821 152.2 243.658 152.219 243.494 152.234L243.35 152.25L243.152 152.261C242.989 152.272 242.826 152.281 242.662 152.287L242.479 152.297L242.324 152.296C242.144 152.299 241.964 152.297 241.783 152.294L241.57 152.293L241.477 152.287C241.191 152.275 240.906 152.257 240.623 152.23L240.589 152.227H240.584C240.244 152.192 239.909 152.143 239.577 152.087L239.453 152.069L239.291 152.034C239.129 152.003 238.969 151.969 238.81 151.932C238.705 151.908 238.602 151.884 238.499 151.857C238.335 151.816 238.175 151.769 238.016 151.721L237.807 151.662L237.754 151.642C237.432 151.537 237.121 151.418 236.82 151.288L236.631 151.203C236.326 151.064 236.029 150.916 235.753 150.751L219.519 141.094L219.474 141.066L219.248 140.915C219.13 140.839 219.01 140.763 218.901 140.684L218.675 140.501C218.577 140.422 218.478 140.345 218.389 140.264L218.356 140.238L218.28 140.156C218.133 140.015 217.999 139.87 217.877 139.723L217.805 139.644L217.736 139.544C217.661 139.443 217.594 139.34 217.53 139.237L217.449 139.118L217.413 139.04C217.363 138.947 217.322 138.855 217.282 138.762L217.213 138.614L217.195 138.55L217.118 138.281L217.07 138.115L217.064 138.063C217.047 137.967 217.04 137.87 217.031 137.774L217.012 137.606L217.011 137.528L216.976 124.905L216.995 125.15Z" fill="url(#paint1_linear)"/>
<path fill-rule="evenodd" clip-rule="evenodd" d="M219.583 121.247C216.201 123.199 216.046 126.425 219.484 128.471L235.717 138.128C238.784 139.957 243.71 140.196 247.284 138.696L258.248 134.093C258.633 133.932 258.989 133.756 259.316 133.567C262.031 132 262.743 129.562 260.928 127.545L250.173 115.589C247.671 112.807 241.49 111.969 237.095 113.814L220.661 120.715C220.272 120.879 219.912 121.057 219.583 121.247Z" fill="#D24566"/>
<path fill-rule="evenodd" clip-rule="evenodd" d="M176.974 154.169L176.984 154.327C176.99 154.445 177.004 154.563 177.024 154.679L177.051 154.816C177.079 154.944 177.115 155.071 177.16 155.196L177.184 155.269C177.241 155.421 177.313 155.571 177.395 155.72L177.459 155.828C177.543 155.97 177.636 156.109 177.741 156.247L177.792 156.316C177.938 156.5 178.107 156.678 178.29 156.852L178.383 156.94C178.526 157.07 178.679 157.198 178.844 157.321L178.902 157.361C179.052 157.47 179.211 157.576 179.377 157.678L179.516 157.761C179.773 157.913 180.048 158.057 180.34 158.19L180.472 158.248C180.772 158.38 181.09 158.503 181.425 158.614L181.571 158.66C181.887 158.759 182.212 158.852 182.555 158.931L204.185 163.916C204.515 163.992 204.851 164.046 205.187 164.098C205.355 164.123 205.522 164.148 205.689 164.168C205.971 164.201 206.253 164.227 206.536 164.244C206.634 164.25 206.731 164.259 206.83 164.263C207.209 164.279 207.587 164.281 207.962 164.269L208.201 164.255C208.514 164.24 208.822 164.215 209.129 164.182C209.221 164.171 209.313 164.163 209.403 164.151C209.774 164.103 210.139 164.044 210.495 163.969L210.684 163.922C210.976 163.857 211.262 163.782 211.541 163.699C211.718 163.647 211.886 163.585 212.056 163.525C212.262 163.453 212.47 163.383 212.666 163.301L212.876 163.21C213.18 163.075 213.476 162.932 213.75 162.774C214.29 162.462 214.769 162.106 215.167 161.708L221.965 154.928C222.576 154.318 222.95 153.661 223.098 152.997C223.146 152.776 223.171 152.554 223.17 152.332L223.206 164.955C223.208 165.841 222.816 166.737 222 167.551L215.203 174.331C214.804 174.729 214.325 175.085 213.785 175.397C213.511 175.555 213.216 175.698 212.912 175.833L212.702 175.924L212.51 176.007C212.376 176.06 212.231 176.1 212.093 176.148C211.922 176.208 211.754 176.27 211.576 176.322L211.433 176.371C211.202 176.437 210.962 176.491 210.723 176.545L210.53 176.592L210.493 176.601C210.203 176.661 209.908 176.713 209.609 176.755L209.439 176.774C209.349 176.786 209.257 176.795 209.164 176.804C209.024 176.82 208.887 176.84 208.746 176.851C208.578 176.865 208.408 176.87 208.238 176.879L207.998 176.891L207.878 176.898C207.578 176.905 207.277 176.904 206.976 176.894L206.865 176.886C206.768 176.882 206.671 176.873 206.573 176.867C206.382 176.856 206.19 176.848 205.999 176.829C205.907 176.819 205.816 176.801 205.725 176.791C205.557 176.771 205.391 176.746 205.224 176.721C205.103 176.702 204.981 176.692 204.861 176.67C204.646 176.631 204.433 176.587 204.221 176.539L182.591 171.554C182.247 171.475 181.922 171.382 181.607 171.283L181.51 171.256L181.461 171.237C181.125 171.126 180.809 171.003 180.507 170.871L180.376 170.813C180.083 170.679 179.809 170.536 179.552 170.384L179.485 170.35L179.412 170.301C179.246 170.199 179.088 170.093 178.938 169.984L178.88 169.944C178.715 169.821 178.563 169.693 178.418 169.563L178.371 169.524L178.325 169.475C178.143 169.301 177.974 169.123 177.827 168.939L177.813 168.922L177.776 168.87C177.672 168.733 177.578 168.593 177.495 168.451L177.451 168.386L177.431 168.342C177.35 168.194 177.277 168.044 177.219 167.892L177.213 167.878L177.196 167.819C177.151 167.693 177.115 167.567 177.087 167.439L177.068 167.376L177.061 167.302C177.04 167.185 177.026 167.068 177.019 166.95L177.011 166.869L177.01 166.792L176.974 154.169Z" fill="url(#paint2_linear)"/>
<path fill-rule="evenodd" clip-rule="evenodd" d="M189.796 140.339C189.257 140.65 188.776 141.008 188.374 141.41L178.18 151.578C175.459 154.298 177.523 157.772 182.555 158.931L204.185 163.916C207.541 164.688 211.287 164.195 213.75 162.774C214.29 162.462 214.769 162.106 215.167 161.708L221.965 154.928C224.181 152.717 223.27 149.902 219.82 148.319L201.583 139.944C197.97 138.288 192.902 138.546 189.796 140.339Z" fill="#D24566"/>
<path fill-rule="evenodd" clip-rule="evenodd" d="M168.384 207.347L168.216 207.957L168.282 207.334C167.983 207.303 167.691 207.26 167.404 207.211L167.035 207.14C166.892 207.111 166.749 207.082 166.61 207.049L166.313 206.973C166.105 206.916 165.971 206.879 165.839 206.838L165.508 207.395L165.699 206.798L165.575 206.75C165.294 206.654 165.026 206.554 164.771 206.443L164.387 206.961L164.645 206.39C164.364 206.264 164.103 206.125 163.854 205.979L163.625 205.838C163.521 205.772 163.425 205.709 163.333 205.644L163.103 205.471L162.853 205.264L162.774 205.199L162.673 205.098C162.553 204.983 162.438 204.859 162.332 204.731L162.255 204.648C162.157 204.518 162.092 204.412 162.027 204.307L161.966 204.217L161.893 204.069L161.715 203.622C161.675 203.493 161.658 203.443 161.647 203.392L161.616 203.108L161.603 202.993L161.574 193.181L161.776 193.385L161.992 193.585C162.09 193.67 162.19 193.754 162.296 193.835C162.383 193.903 162.475 193.973 162.569 194.041C162.68 194.119 162.795 194.194 162.913 194.27C162.998 194.324 163.09 194.381 163.185 194.437C163.47 194.604 163.771 194.764 164.093 194.909L164.187 194.948C164.521 195.093 164.821 195.207 165.133 195.313L165.431 195.411C165.578 195.457 165.727 195.498 165.875 195.539L166.282 195.645C166.431 195.68 166.585 195.711 166.737 195.742C166.884 195.773 167.018 195.799 167.155 195.822C167.468 195.877 167.787 195.922 168.114 195.957L168.225 195.972C168.549 196.003 168.88 196.026 169.215 196.037C169.528 196.049 169.848 196.052 170.17 196.043L193.618 195.488C193.934 195.475 194.153 195.465 194.369 195.447L194.68 195.415C194.915 195.391 195.086 195.373 195.252 195.35L195.525 195.305C195.772 195.265 195.953 195.235 196.13 195.2L196.396 195.14C196.617 195.091 196.832 195.039 197.041 194.983L197.271 194.915C197.634 194.808 197.948 194.703 198.249 194.587C198.484 194.496 198.628 194.432 198.772 194.366L199.034 194.251C199.26 194.143 199.479 194.027 199.687 193.907C201.285 192.984 202.305 191.733 202.557 190.381L202.845 188.843L202.86 194.535C202.861 194.685 202.848 194.834 202.819 194.984L201.359 202.775C201.177 203.76 200.373 204.708 199.095 205.445C198.914 205.551 198.725 205.651 198.527 205.744L198.318 205.835C198.145 205.914 198.028 205.966 197.907 206.015C197.563 206.146 197.28 206.239 196.99 206.325L196.893 206.358L196.91 207.001L196.746 206.397C196.557 206.447 196.363 206.494 196.167 206.538L195.907 206.597C195.736 206.631 195.553 206.661 195.369 206.69L195.149 206.728C194.941 206.756 194.765 206.774 194.589 206.791L194.32 206.821C194.104 206.838 193.899 206.846 193.694 206.855L193.469 206.866L170.178 207.414C169.883 207.42 169.597 207.42 169.313 207.409C168.986 207.397 168.683 207.376 168.384 207.347ZM169.839 208.671C169.962 208.671 170.084 208.669 170.206 208.666L193.66 208.111C193.967 208.098 194.188 208.088 194.405 208.071L194.704 208.039C194.905 208.019 195.099 207.999 195.286 207.973L195.486 207.942C195.766 207.896 195.967 207.863 196.164 207.823L196.372 207.777C196.654 207.713 196.867 207.662 197.074 207.606L197.317 207.537C197.669 207.431 197.982 207.327 198.281 207.212L198.391 207.17C198.508 207.124 198.642 207.064 198.775 207.004L199.068 206.874C199.295 206.766 199.514 206.651 199.722 206.53C201.321 205.608 202.341 204.355 202.592 203.004L204.051 195.216C204.094 194.986 204.115 194.757 204.114 194.53L204.078 181.92V181.907L202.824 181.913V181.916L202.825 181.921C202.825 182.068 202.811 182.215 202.783 182.364L201.324 190.151C201.141 191.137 200.337 192.085 199.06 192.822C198.879 192.927 198.689 193.027 198.492 193.121L198.276 193.216C198.129 193.282 198.003 193.34 197.869 193.393C197.526 193.524 197.245 193.616 196.955 193.702L196.706 193.775C196.52 193.826 196.326 193.872 196.129 193.916L195.882 193.972C195.72 194.005 195.556 194.031 195.392 194.058L195.077 194.109C194.926 194.131 194.771 194.146 194.618 194.161L194.271 194.198C194.069 194.215 193.865 194.223 193.661 194.232L193.434 194.243L170.142 194.791C169.844 194.797 169.55 194.795 169.26 194.785C168.95 194.774 168.645 194.753 168.346 194.724C167.947 194.68 167.655 194.637 167.368 194.588C167.244 194.567 167.124 194.542 167.002 194.518C166.847 194.486 166.708 194.458 166.574 194.426L166.27 194.348C166.07 194.293 165.936 194.256 165.804 194.215L165.538 194.126C165.259 194.031 164.991 193.931 164.736 193.819L164.351 194.338L164.608 193.767C164.328 193.641 164.067 193.502 163.818 193.356L163.588 193.213C163.482 193.148 163.387 193.084 163.295 193.019L163.066 192.848L162.814 192.64L162.646 192.483C162.519 192.36 162.403 192.236 162.298 192.109L161.705 192.379L162.201 191.996C162.122 191.895 162.056 191.789 161.991 191.684L161.57 191.822V191.77L161.912 191.566L161.773 191.266L161.726 191.16L161.684 191.01C161.648 190.896 161.625 190.825 161.611 190.753L161.585 190.519L161.565 190.309L160.313 190.316L160.349 202.939C160.354 203.118 160.364 203.202 160.376 203.286L161.015 203.354L160.391 203.409L160.415 203.607C160.44 203.739 160.468 203.83 160.496 203.92L161.141 203.891L160.534 204.049L160.583 204.213C160.617 204.305 160.65 204.373 160.684 204.441L160.744 204.57L160.857 204.805L160.95 204.95C161.045 205.104 161.138 205.246 161.244 205.385L161.365 205.529C161.507 205.696 161.652 205.856 161.812 206.008L161.905 206.106L161.999 206.184C162.123 206.291 162.226 206.376 162.332 206.458C162.419 206.526 162.509 206.595 162.604 206.663C162.712 206.74 162.829 206.817 162.949 206.893L163.127 207.011L163.22 207.061C163.505 207.227 163.808 207.387 164.129 207.532L164.224 207.571C164.558 207.716 164.858 207.83 165.169 207.936L165.316 207.991L165.419 208.022C165.613 208.08 165.762 208.121 165.913 208.162C166.098 208.212 166.207 208.241 166.319 208.268C166.472 208.305 166.63 208.336 166.787 208.368L167.175 208.443C167.504 208.5 167.823 208.545 168.149 208.58C168.244 208.594 168.279 208.597 168.321 208.597C168.583 208.626 168.914 208.649 169.25 208.66C169.451 208.667 169.646 208.671 169.839 208.671Z" fill="url(#paint3_linear)"/>
<path fill-rule="evenodd" clip-rule="evenodd" d="M172.048 174.082C172.747 174.082 173.451 174.132 174.143 174.234L196.704 177.579C199.229 177.952 201.311 178.981 202.273 180.331C202.741 180.987 202.913 181.671 202.783 182.362L201.323 190.151C201.141 191.137 200.337 192.085 199.06 192.822C197.563 193.687 195.565 194.192 193.433 194.243L170.142 194.791C166.816 194.849 163.752 193.832 162.321 192.151C161.7 191.421 161.46 190.65 161.608 189.858L163.793 178.174C163.977 177.189 164.777 176.242 166.049 175.508C167.646 174.586 169.824 174.082 172.048 174.082ZM169.782 196.048C169.911 196.048 170.041 196.046 170.171 196.043L193.463 195.495C195.802 195.439 198.012 194.875 199.687 193.908C201.286 192.984 202.305 191.732 202.556 190.381L204.016 182.593C204.207 181.568 203.958 180.534 203.294 179.603C202.119 177.957 199.785 176.768 196.888 176.339L174.326 172.995C171.118 172.521 167.792 173.055 165.422 174.423C163.806 175.356 162.816 176.573 162.561 177.944L160.376 189.627C160.159 190.792 160.502 191.945 161.367 192.963C162.999 194.882 166.199 196.048 169.782 196.048Z" fill="#02B0A4"/>
<path fill-rule="evenodd" clip-rule="evenodd" d="M226.863 281.26L226.652 281.867L226.749 281.248L226.649 281.234C226.386 281.206 226.126 281.169 225.866 281.125L225.764 281.111L225.601 281.721L225.663 281.094L225.563 281.072C225.421 281.045 225.28 281.014 225.142 280.982C224.996 280.948 224.896 280.926 224.798 280.9C224.674 280.868 224.561 280.835 224.446 280.801L224.145 280.715C223.887 280.625 223.719 280.562 223.553 280.497L223.306 280.402C223.069 280.303 222.836 280.196 222.61 280.077L207.584 272.221C207.44 272.146 207.302 272.068 207.17 271.988L207.06 271.913C206.968 271.857 206.883 271.798 206.798 271.739C206.696 271.67 206.602 271.602 206.511 271.532L206.293 271.351L206.206 271.28L206.074 271.152C205.963 271.045 205.855 270.928 205.757 270.809L205.67 270.716C205.578 270.595 205.524 270.508 205.471 270.421L205.392 270.305C205.331 270.201 205.313 270.159 205.294 270.116L205.045 269.414L205.036 269.304L205.014 269.113L204.379 269.057L205.005 268.978L204.977 259.235L205.177 259.439C205.261 259.52 205.348 259.599 205.439 259.677C205.526 259.752 205.618 259.83 205.716 259.904C205.816 259.983 205.929 260.063 206.043 260.144C206.171 260.231 206.262 260.292 206.358 260.354C206.554 260.476 206.753 260.596 206.969 260.708L221.992 268.565C222.249 268.699 222.516 268.822 222.789 268.937L222.97 269.007C223.247 269.113 223.434 269.184 223.625 269.248C223.727 269.282 223.832 269.314 223.938 269.344C224.138 269.404 224.289 269.449 224.443 269.489C224.572 269.523 224.702 269.553 224.832 269.581C224.98 269.616 225.136 269.651 225.293 269.68L225.608 269.735C225.903 269.786 226.188 269.825 226.476 269.858L226.713 269.885C227.023 269.915 227.34 269.937 227.656 269.947C228.011 269.956 228.287 269.957 228.561 269.952L228.903 269.937C229.081 269.93 229.264 269.921 229.443 269.908L229.81 269.871C229.981 269.855 230.151 269.837 230.321 269.815L230.673 269.76C230.854 269.731 231.032 269.701 231.209 269.666L231.542 269.595C231.745 269.55 231.944 269.501 232.142 269.447L232.438 269.365C232.782 269.264 233.118 269.153 233.439 269.026C233.589 268.969 233.735 268.903 233.882 268.837L234.134 268.727C234.368 268.615 234.592 268.498 234.806 268.375C235.258 268.114 235.669 267.824 236.028 267.513L249.015 256.276C249.186 256.127 249.346 255.974 249.492 255.818L249.519 265.551C249.521 266.389 249.076 267.219 248.23 267.951L235.244 279.189C234.944 279.448 234.598 279.692 234.216 279.913C234.03 280.02 233.836 280.121 233.636 280.217L233.335 280.348C233.238 280.392 233.141 280.436 233.039 280.476C232.728 280.597 232.427 280.695 232.12 280.786L231.845 280.863C231.673 280.909 231.491 280.954 231.307 280.995L231.194 281.023L231.259 281.651L231.091 281.045C230.841 281.092 230.677 281.119 230.514 281.146L230.19 281.194C230.034 281.216 229.876 281.232 229.718 281.248L229.453 281.278C229.219 281.294 229.053 281.301 228.885 281.308L228.61 281.323C228.315 281.327 228.062 281.326 227.808 281.319C227.444 281.308 227.153 281.287 226.863 281.26ZM228.249 282.578C228.369 282.578 228.484 282.577 228.599 282.574L228.936 282.56C229.117 282.553 229.301 282.544 229.483 282.53L229.847 282.494C230.017 282.478 230.188 282.46 230.36 282.437L230.626 282.398C230.89 282.354 231.067 282.324 231.244 282.289L231.507 282.235C231.78 282.173 231.979 282.124 232.178 282.071L232.464 281.992C232.817 281.887 233.153 281.776 233.475 281.65C233.618 281.594 233.734 281.542 233.85 281.49L234.17 281.35C234.404 281.238 234.628 281.121 234.842 280.998C235.293 280.737 235.703 280.447 236.063 280.136L249.051 268.899C250.181 267.92 250.775 266.761 250.772 265.547L250.737 252.924L249.483 252.927V252.928C249.485 253.767 249.039 254.597 248.194 255.328L235.208 266.566C234.908 266.825 234.563 267.068 234.18 267.289C233.994 267.397 233.8 267.498 233.6 267.594L233.389 267.685C233.241 267.751 233.115 267.809 232.983 267.859C232.692 267.974 232.392 268.072 232.085 268.163L231.816 268.237C231.636 268.286 231.454 268.331 231.271 268.372L230.965 268.438C230.806 268.469 230.643 268.496 230.478 268.522L230.153 268.572C230.001 268.593 229.843 268.609 229.685 268.625L229.346 268.659C229.186 268.671 229.019 268.678 228.851 268.685L228.532 268.7C228.283 268.705 228.026 268.702 227.771 268.696C227.41 268.685 227.119 268.665 226.83 268.637L226.697 268.622C226.35 268.583 226.089 268.546 225.832 268.503L225.531 268.449C225.388 268.422 225.248 268.392 225.11 268.359C224.987 268.332 224.871 268.306 224.757 268.276C224.619 268.24 224.483 268.199 224.347 268.158C224.202 268.116 224.111 268.089 224.022 268.06C223.85 268.002 223.681 267.938 223.513 267.873L223.273 267.78C223.033 267.68 222.798 267.572 222.572 267.454L207.548 259.598C207.36 259.5 207.19 259.396 207.024 259.292L206.786 259.134C206.667 259.051 206.57 258.983 206.481 258.912L206.257 258.728L206.046 258.535C205.927 258.422 205.819 258.305 205.721 258.186L205.605 258.053L205.434 257.797L205.361 257.688C205.294 257.577 205.275 257.533 205.257 257.49L205.179 257.32L205.126 257.203L205.074 257.019C205.041 256.905 205.023 256.851 205.014 256.795L205.001 256.686L204.983 256.521L204.969 256.359V256.353L203.715 256.355V256.36L203.753 269.08L203.773 269.291L204.412 269.36L203.788 269.417L203.818 269.651C203.838 269.766 203.861 269.842 203.885 269.918L204.528 269.89L203.923 270.047L203.985 270.257C204.021 270.358 204.053 270.424 204.086 270.49L204.721 270.369L204.147 270.621L204.258 270.85L204.373 271.035C204.484 271.206 204.559 271.323 204.646 271.439C204.716 271.531 204.748 271.566 204.781 271.599C204.922 271.764 205.059 271.914 205.212 272.062L205.29 272.146L205.431 272.264C205.561 272.373 205.648 272.448 205.743 272.523C205.857 272.609 205.97 272.69 206.084 272.77C206.184 272.839 206.288 272.909 206.397 272.978L206.528 273.064C206.677 273.153 206.837 273.243 207.004 273.331L222.028 281.187C222.283 281.321 222.55 281.443 222.823 281.559L223.094 281.663C223.283 281.737 223.469 281.807 223.659 281.87L224.028 281.984C224.223 282.041 224.351 282.079 224.482 282.112C224.588 282.141 224.701 282.166 224.815 282.193C225.019 282.238 225.173 282.274 225.33 282.303L225.612 282.356C225.94 282.409 226.226 282.448 226.513 282.481L226.68 282.503C227.06 282.537 227.376 282.56 227.691 282.57C227.898 282.576 228.079 282.578 228.249 282.578Z" fill="url(#paint4_linear)"/>
<path fill-rule="evenodd" clip-rule="evenodd" d="M231.237 243.196C233.271 243.196 235.3 243.613 236.888 244.443L246.905 249.681C248.427 250.479 249.337 251.536 249.468 252.66C249.575 253.591 249.136 254.513 248.194 255.328L235.208 266.566C234.908 266.825 234.563 267.068 234.18 267.289C231.004 269.125 225.905 269.196 222.572 267.454L207.548 259.598C205.934 258.751 204.993 257.584 204.969 256.395C204.945 255.231 205.759 254.111 207.261 253.244C207.446 253.137 207.642 253.035 207.848 252.936L225.834 244.316C227.396 243.568 229.318 243.196 231.237 243.196ZM228.221 269.952C230.607 269.952 232.99 269.424 234.807 268.375C235.258 268.114 235.669 267.824 236.028 267.513L249.015 256.276C250.265 255.193 250.868 253.857 250.712 252.516C250.532 250.967 249.387 249.567 247.486 248.571L237.468 243.333C234.01 241.525 228.888 241.463 225.293 243.185L207.305 251.806C207.068 251.92 206.846 252.037 206.635 252.158H206.634C204.719 253.265 203.683 254.778 203.717 256.421C203.751 258.105 204.905 259.627 206.967 260.707L221.992 268.565C223.766 269.492 225.994 269.952 228.221 269.952Z" fill="#02B0A4"/>
<path fill-rule="evenodd" clip-rule="evenodd" d="M257.721 277.059L257.733 277.231C257.739 277.344 257.752 277.456 257.772 277.569L257.803 277.723C257.828 277.831 257.859 277.94 257.897 278.046L257.942 278.181C258.002 278.335 258.072 278.487 258.155 278.637L258.187 278.687C258.272 278.835 258.372 278.98 258.481 279.123L258.569 279.236C258.713 279.413 258.873 279.587 259.051 279.754L259.164 279.855C259.278 279.957 259.398 280.057 259.525 280.153L259.677 280.268C259.835 280.382 260 280.493 260.175 280.6L260.226 280.632C260.494 280.792 260.787 280.941 261.094 281.081L261.206 281.134C261.505 281.266 261.822 281.386 262.154 281.496L262.35 281.561C262.509 281.611 262.673 281.657 262.84 281.701L263.072 281.765C263.319 281.826 263.573 281.883 263.835 281.933L283.094 285.56C283.472 285.631 283.852 285.683 284.231 285.724L284.348 285.739C284.728 285.777 285.107 285.797 285.485 285.806C285.548 285.807 285.611 285.807 285.673 285.807C285.71 285.807 285.746 285.807 285.782 285.808C286.068 285.809 286.353 285.802 286.635 285.787C286.729 285.782 286.823 285.779 286.918 285.773C287.275 285.747 287.63 285.711 287.977 285.661L288.138 285.633C288.431 285.587 288.719 285.532 289.001 285.47C289.133 285.441 289.261 285.407 289.39 285.375C289.59 285.324 289.785 285.27 289.977 285.21C290.174 285.151 290.364 285.085 290.553 285.017C290.737 284.949 290.922 284.883 291.099 284.808L291.327 284.709C291.608 284.581 291.881 284.447 292.135 284.301C293.388 283.578 294.286 282.629 294.615 281.53L298.606 268.225C298.694 267.926 298.737 267.627 298.736 267.332L298.773 279.955C298.773 280.25 298.73 280.549 298.641 280.848L294.651 294.153C294.322 295.252 293.423 296.201 292.17 296.924C291.917 297.07 291.645 297.204 291.363 297.331L291.134 297.432L290.884 297.54C290.79 297.577 290.686 297.605 290.589 297.64C290.4 297.708 290.211 297.773 290.014 297.833L289.794 297.907C289.674 297.942 289.547 297.967 289.425 297.998C289.296 298.03 289.169 298.064 289.037 298.093L288.855 298.138C288.632 298.184 288.402 298.22 288.174 298.256L288.012 298.284L287.975 298.291C287.693 298.33 287.407 298.362 287.119 298.387L286.952 298.396C286.859 298.401 286.766 298.405 286.672 298.41C286.534 298.417 286.398 298.429 286.259 298.433C286.112 298.436 285.964 298.431 285.816 298.431C285.779 298.43 285.741 298.43 285.703 298.43C285.643 298.43 285.582 298.43 285.522 298.429H285.363C285.04 298.417 284.715 298.396 284.39 298.363L284.383 298.362L284.276 298.348C283.931 298.311 283.585 298.266 283.24 298.203L283.13 298.183L263.871 294.556C263.609 294.506 263.356 294.449 263.108 294.388L262.873 294.323C262.708 294.279 262.544 294.233 262.386 294.184L262.279 294.153L262.19 294.119C261.858 294.009 261.54 293.889 261.241 293.757L261.13 293.704C260.822 293.565 260.53 293.415 260.262 293.255L260.254 293.251L260.211 293.222C260.036 293.115 259.871 293.005 259.713 292.891L259.562 292.777C259.435 292.68 259.314 292.58 259.2 292.478L259.114 292.407L259.087 292.377C258.908 292.21 258.749 292.036 258.606 291.858L258.561 291.811L258.517 291.745C258.408 291.603 258.309 291.457 258.223 291.31L258.196 291.271L258.191 291.26C258.107 291.11 258.038 290.958 257.977 290.804L257.959 290.763L257.932 290.669C257.895 290.562 257.863 290.454 257.839 290.346L257.815 290.264L257.807 290.191C257.787 290.079 257.775 289.967 257.769 289.854L257.758 289.759L257.756 289.682L257.721 277.059Z" fill="url(#paint5_linear)"/>
<path fill-rule="evenodd" clip-rule="evenodd" d="M270.748 261.304C270.078 261.69 269.506 262.144 269.063 262.657L258.657 274.758C256.24 277.57 258.689 280.962 263.835 281.933L283.094 285.56C286.413 286.186 289.858 285.615 292.135 284.301C293.388 283.578 294.286 282.629 294.615 281.53L298.606 268.225C299.358 265.706 296.814 263.254 292.631 262.468L279.784 260.047C276.535 259.435 273.062 259.967 270.748 261.304Z" fill="#D24566"/>
<path fill-rule="evenodd" clip-rule="evenodd" d="M369.551 124.243L369.561 124.389C369.566 124.512 369.581 124.633 369.603 124.755L369.623 124.869C369.654 125.016 369.695 125.163 369.749 125.308L369.775 125.371C369.828 125.505 369.891 125.636 369.961 125.767L370.017 125.868C370.108 126.026 370.213 126.182 370.33 126.334L370.389 126.406C370.537 126.59 370.702 126.769 370.888 126.942L370.973 127.018C371.097 127.129 371.228 127.237 371.367 127.343L371.467 127.42C371.631 127.54 371.806 127.657 371.99 127.769L372.085 127.824C372.351 127.982 372.636 128.13 372.938 128.268L373.049 128.316C373.354 128.449 373.675 128.573 374.014 128.685C374.133 128.724 374.251 128.764 374.375 128.801L386.399 132.358C386.844 132.49 387.301 132.596 387.763 132.68C388.181 132.757 388.604 132.814 389.03 132.853L389.282 132.87C389.626 132.896 389.97 132.91 390.313 132.913C390.407 132.914 390.502 132.915 390.596 132.914C390.995 132.91 391.393 132.892 391.785 132.857L391.992 132.834C392.337 132.797 392.678 132.749 393.013 132.69L393.272 132.645C393.661 132.569 394.042 132.479 394.411 132.373C394.524 132.34 394.629 132.297 394.739 132.262C395.022 132.171 395.303 132.078 395.569 131.969L395.743 131.894C396.082 131.748 396.41 131.591 396.714 131.416C397.065 131.213 397.392 130.99 397.688 130.75L411.229 119.735C412.072 119.048 412.582 118.288 412.783 117.516C412.85 117.259 412.883 117 412.882 116.742L412.918 129.365C412.921 130.396 412.39 131.442 411.264 132.359L397.724 143.373C397.428 143.613 397.101 143.836 396.75 144.039C396.445 144.214 396.117 144.371 395.778 144.517L395.605 144.592L395.471 144.651C395.248 144.738 395.01 144.81 394.774 144.885C394.664 144.921 394.56 144.963 394.447 144.996L394.399 145.011C394.094 145.099 393.78 145.175 393.46 145.242L393.308 145.268L393.049 145.313C392.893 145.34 392.738 145.372 392.579 145.395C392.397 145.421 392.212 145.437 392.027 145.457L391.822 145.479L391.715 145.491C391.426 145.515 391.136 145.531 390.844 145.538L390.632 145.537C390.537 145.538 390.443 145.536 390.35 145.536C390.213 145.535 390.076 145.539 389.939 145.534C389.732 145.527 389.525 145.508 389.318 145.493L389.066 145.476L388.964 145.469C388.583 145.431 388.204 145.379 387.829 145.311L387.799 145.303C387.336 145.219 386.88 145.112 386.436 144.981L374.41 141.424C374.309 141.394 374.209 141.363 374.11 141.331L374.049 141.308C373.71 141.196 373.389 141.072 373.085 140.939L372.975 140.89C372.671 140.753 372.387 140.605 372.121 140.447L372.066 140.419L372.025 140.392C371.842 140.28 371.667 140.163 371.502 140.043L371.402 139.966C371.264 139.86 371.133 139.752 371.009 139.641L370.944 139.588L370.923 139.565C370.738 139.392 370.573 139.213 370.425 139.028L370.387 138.988L370.366 138.957C370.248 138.805 370.145 138.65 370.053 138.491L370.026 138.452L369.997 138.39C369.926 138.259 369.863 138.127 369.812 137.993L369.789 137.946L369.784 137.931C369.731 137.786 369.69 137.639 369.658 137.492L369.646 137.448L369.638 137.378C369.616 137.256 369.603 137.134 369.596 137.012L369.588 136.943L369.587 136.866L369.551 124.243Z" fill="url(#paint6_linear)"/>
<path fill-rule="evenodd" clip-rule="evenodd" d="M379.701 107.791C378.767 108.331 378.022 109.002 377.563 109.782L370.028 122.574C368.604 124.989 370.457 127.644 374.375 128.801L386.399 132.358C389.868 133.384 394.027 132.967 396.714 131.416C397.065 131.213 397.392 130.99 397.688 130.75L411.229 119.735C414.374 117.174 412.875 113.602 408.059 112.177L390.023 106.845C386.471 105.795 382.331 106.273 379.701 107.791Z" fill="#D24566"/>
<path fill-rule="evenodd" clip-rule="evenodd" d="M432.224 166.042L432.016 166.052C431.861 166.063 431.708 166.071 431.554 166.077L431.408 166.712L431.393 166.086L431.223 166.085C431.056 166.087 430.887 166.086 430.717 166.083H430.609L430.502 166.708L430.492 166.08C430.18 166.065 429.948 166.049 429.716 166.028L429.522 166.643L429.601 166.022C429.235 165.983 428.915 165.936 428.598 165.882L428.327 165.832C428.166 165.8 428.008 165.767 427.851 165.73L427.562 165.66C427.401 165.618 427.243 165.572 427.087 165.525L426.842 165.451C426.544 165.352 426.248 165.239 425.964 165.115L425.85 165.064C425.506 164.905 425.233 164.768 424.978 164.615C424.803 164.511 424.647 164.41 424.499 164.303L416.022 158.216C415.844 158.087 415.682 157.952 415.529 157.815L415.415 157.706C415.269 157.567 415.138 157.427 415.022 157.284L414.965 157.221C414.848 157.061 414.772 156.944 414.702 156.824L414.635 156.694L414.517 156.44L414.468 156.305L414.397 156.061L414.365 155.955C414.351 155.835 414.343 155.75 414.337 155.665L414.325 155.559L414.297 145.773L414.512 145.987L414.654 146.123C414.841 146.29 415.038 146.453 415.256 146.61L423.733 152.698C423.913 152.827 424.103 152.95 424.299 153.068C424.59 153.242 424.904 153.402 425.229 153.551L425.426 153.64C425.747 153.78 426.078 153.907 426.423 154.02L426.602 154.075C426.858 154.153 427.034 154.204 427.212 154.25L427.528 154.327C427.701 154.367 427.876 154.405 428.053 154.439L428.35 154.494C428.694 154.553 429.044 154.604 429.398 154.64L429.517 154.649C429.818 154.676 430.072 154.693 430.326 154.704L430.656 154.713C430.838 154.716 431.022 154.717 431.208 154.715L431.563 154.706C431.73 154.701 431.899 154.691 432.068 154.679L432.427 154.652C432.595 154.637 432.766 154.617 432.936 154.595L433.275 154.551C433.482 154.521 433.687 154.483 433.892 154.444L434.135 154.4C434.438 154.336 434.733 154.263 435.026 154.181C435.264 154.115 435.497 154.044 435.728 153.965L455.814 147.079C456.106 146.979 456.378 146.868 456.643 146.754L456.895 146.644C457.174 146.516 457.443 146.381 457.691 146.238C458.356 145.854 458.919 145.412 459.368 144.929L459.396 154.657C459.399 155.795 458.563 156.932 457.101 157.776C456.885 157.9 456.65 158.016 456.407 158.129L455.901 158.348C455.752 158.407 455.602 158.463 455.445 158.516L435.355 165.402C435.162 165.469 434.967 165.53 434.769 165.587C434.458 165.672 434.189 165.738 433.916 165.795L433.689 165.837C433.502 165.873 433.315 165.907 433.127 165.935L432.814 165.975C432.658 165.995 432.503 166.013 432.347 166.027L432.274 166.666L432.224 166.042ZM431.051 167.339L431.242 167.338L431.424 167.339L431.539 167.333C431.767 167.323 431.934 167.314 432.103 167.302L432.462 167.275C432.632 167.259 432.801 167.24 432.971 167.218L433.219 167.191C433.517 167.144 433.721 167.107 433.923 167.068L434.134 167.031C434.474 166.959 434.771 166.886 435.062 166.804C435.332 166.729 435.549 166.661 435.763 166.588L455.851 159.702C456.024 159.643 456.193 159.58 456.358 159.515L456.585 159.419L456.932 159.267C457.211 159.138 457.479 159.004 457.727 158.861C459.589 157.786 460.653 156.253 460.649 154.653L460.613 142.03L459.359 142.034C459.363 143.173 458.526 144.309 457.064 145.153C456.85 145.277 456.615 145.394 456.371 145.506L456.234 145.566C455.911 145.705 455.669 145.804 455.408 145.894L435.32 152.779C435.112 152.851 434.902 152.915 434.689 152.975C434.423 153.049 434.152 153.115 433.878 153.173L433.753 153.196C433.469 153.25 433.281 153.284 433.092 153.312L432.868 153.341C432.623 153.372 432.468 153.39 432.313 153.404L432.021 153.427C431.827 153.44 431.673 153.449 431.519 153.454L431.191 153.462C431.022 153.465 430.851 153.463 430.682 153.46L430.379 153.452C430.145 153.442 429.912 153.426 429.68 153.405L429.462 154.017L429.525 153.394C429.2 153.36 428.88 153.314 428.563 153.259L428.292 153.209C428.13 153.177 427.971 153.144 427.813 153.107L427.525 153.037C427.366 152.996 427.208 152.95 427.051 152.902L426.814 152.83C426.508 152.729 426.212 152.616 425.928 152.492L425.813 152.441C425.471 152.283 425.197 152.146 424.943 151.993C424.776 151.893 424.616 151.789 424.464 151.68L415.987 145.593C415.808 145.464 415.645 145.328 415.492 145.191L415.42 145.123C415.235 144.946 415.104 144.806 414.987 144.663C414.838 144.477 414.747 144.341 414.668 144.204L414.293 144.346V144.281L414.599 144.071L414.48 143.818L414.43 143.678L414.36 143.438L414.329 143.295L414.301 143.042L414.289 143.041V142.889L413.035 142.891V142.893L413.072 155.625L413.086 155.746C413.095 155.877 413.108 156.009 413.133 156.142C413.15 156.264 413.163 156.309 413.178 156.353C413.206 156.469 413.239 156.588 413.28 156.707L413.316 156.826L413.361 156.927C413.405 157.034 413.464 157.157 413.527 157.281L413.591 157.411C413.726 157.639 413.848 157.822 413.988 158.002L414.071 158.099C414.198 158.258 414.365 158.437 414.55 158.612L414.636 158.702C414.877 158.913 415.072 159.076 415.291 159.234L423.769 165.321C423.944 165.447 424.127 165.567 424.317 165.682C424.627 165.866 424.939 166.025 425.265 166.174L425.462 166.263C425.783 166.403 426.114 166.53 426.457 166.643L426.652 166.704C426.896 166.776 427.069 166.827 427.248 166.873L427.567 166.95C427.738 166.99 427.912 167.027 428.089 167.062L428.385 167.116C428.731 167.176 429.081 167.227 429.436 167.263L429.563 167.273C429.855 167.299 430.107 167.316 430.361 167.327L430.618 167.336C430.787 167.338 430.925 167.339 431.051 167.339Z" fill="url(#paint7_linear)"/>
<path fill-rule="evenodd" clip-rule="evenodd" d="M438.427 128.412C440.869 128.412 443.295 129.019 444.952 130.211L457.659 139.333C458.82 140.169 459.408 141.146 459.357 142.159C459.302 143.268 458.487 144.332 457.064 145.153C456.575 145.436 456.018 145.685 455.408 145.894L435.32 152.779C431.729 154.013 427.06 153.54 424.464 151.68L415.987 145.593C414.861 144.784 414.258 143.794 414.289 142.807C414.323 141.755 415.062 140.726 416.368 139.908L432.452 129.841C434.111 128.883 436.275 128.412 438.427 128.412ZM430.98 154.725C432.599 154.725 434.234 154.477 435.727 153.965L455.814 147.079C456.5 146.844 457.132 146.561 457.691 146.238C459.495 145.196 460.531 143.771 460.608 142.222C460.681 140.784 459.893 139.397 458.391 138.316L445.684 129.193C442.155 126.655 435.81 126.455 431.825 128.756C431.733 128.809 431.644 128.863 431.555 128.918L415.703 138.846C414.032 139.892 413.085 141.284 413.037 142.767C412.991 144.184 413.779 145.549 415.257 146.611L423.733 152.698C425.58 154.022 428.255 154.725 430.98 154.725Z" fill="#02B0A4"/>
<path fill-rule="evenodd" clip-rule="evenodd" d="M440.81 170.34C440.81 170.546 440.835 170.754 440.88 170.962L440.917 171.093C440.965 171.277 441.021 171.462 441.105 171.646L444.561 179.21C444.616 179.331 444.684 179.448 444.754 179.565C444.826 179.687 444.907 179.806 444.994 179.922L445.088 180.053C445.232 180.234 445.396 180.407 445.572 180.574L445.743 180.726C445.839 180.81 445.937 180.893 446.041 180.973L446.252 181.128C446.36 181.205 446.472 181.279 446.586 181.352L446.788 181.477C447.057 181.635 447.341 181.784 447.642 181.921L447.805 181.991C448.123 182.13 448.453 182.26 448.802 182.372L448.855 182.388C449.085 182.461 449.321 182.528 449.563 182.59L449.825 182.65C450.002 182.691 450.181 182.731 450.362 182.765L450.624 182.811C450.908 182.858 451.197 182.899 451.491 182.931L451.671 182.952C451.964 182.981 452.261 183.001 452.561 183.012L452.794 183.015C453.002 183.019 453.211 183.022 453.422 183.018C453.664 183.013 453.907 183.004 454.151 182.987L477.311 181.42C477.458 181.41 477.603 181.394 477.748 181.38C477.921 181.362 478.092 181.345 478.261 181.322C478.364 181.309 478.468 181.293 478.57 181.277C478.751 181.25 478.93 181.219 479.105 181.185C479.196 181.167 479.287 181.149 479.377 181.131C479.66 181.069 479.938 181.004 480.206 180.928L480.214 180.925C480.549 180.83 480.866 180.719 481.174 180.602L481.357 180.532C481.503 180.473 481.643 180.411 481.782 180.347L481.981 180.257C482.182 180.16 482.376 180.059 482.56 179.953C484.21 179 485.196 177.688 485.192 176.291L485.229 188.914C485.232 190.311 484.246 191.623 482.596 192.576C482.411 192.682 482.218 192.783 482.018 192.88L481.816 192.971C481.678 193.034 481.538 193.097 481.393 193.155L481.312 193.191L481.21 193.225C480.901 193.343 480.583 193.453 480.248 193.549L480.244 193.55H480.243C479.975 193.626 479.696 193.693 479.413 193.754L479.318 193.776L479.141 193.808C478.965 193.842 478.787 193.872 478.606 193.901L478.441 193.929L478.296 193.945C478.128 193.968 477.956 193.985 477.784 194.002L477.568 194.026L477.346 194.043L454.188 195.61C453.97 195.625 453.752 195.635 453.535 195.641L453.459 195.64C453.245 195.645 453.034 195.642 452.823 195.637L452.625 195.636L452.598 195.635C452.297 195.624 451.999 195.604 451.705 195.575L451.653 195.571L451.529 195.555C451.234 195.523 450.944 195.482 450.659 195.433L450.516 195.413L450.399 195.388C450.217 195.354 450.038 195.315 449.86 195.273L449.599 195.213C449.357 195.151 449.121 195.084 448.891 195.011L448.841 194.997L448.838 194.995C448.489 194.883 448.158 194.753 447.84 194.614L447.678 194.544C447.377 194.407 447.093 194.259 446.824 194.1L446.75 194.061L446.622 193.975C446.507 193.903 446.395 193.828 446.288 193.751L446.077 193.596C445.973 193.516 445.875 193.433 445.779 193.35L445.651 193.243L445.607 193.196C445.431 193.029 445.269 192.856 445.124 192.676L445.102 192.651L445.029 192.545C444.943 192.428 444.861 192.31 444.789 192.189L444.741 192.117C444.689 192.024 444.641 191.929 444.596 191.832L441.141 184.27L441.048 184.046C441.006 183.936 440.982 183.826 440.953 183.716L440.915 183.585L440.904 183.546C440.87 183.377 440.851 183.208 440.846 183.04L440.845 182.963L440.81 170.34Z" fill="url(#paint8_linear)"/>
<path fill-rule="evenodd" clip-rule="evenodd" d="M443.435 166.674C441.239 167.942 440.274 169.825 441.105 171.646L444.561 179.21C445.688 181.677 449.769 183.283 454.152 182.987L477.311 181.42C479.389 181.279 481.199 180.738 482.56 179.953C484.721 178.705 485.744 176.84 484.894 174.978L479.713 163.637C478.323 160.607 472.616 159.003 467.633 160.246L446.2 165.59C445.141 165.855 444.211 166.226 443.435 166.674Z" fill="#D24566"/>
</g>
<g opacity="0.4" filter="url(#filter0_f)">
<circle cx="170" cy="170" r="58" transform="rotate(-180 170 170)" fill="#D64864"/>
</g>
<defs>
<filter id="filter0_f" x="0.550446" y="0.550446" width="338.899" height="338.899" filterUnits="userSpaceOnUse" color-interpolation-filters="sRGB">
<feFlood flood-opacity="0" result="BackgroundImageFix"/>
<feBlend mode="normal" in="SourceGraphic" in2="BackgroundImageFix" result="shape"/>
<feGaussianBlur stdDeviation="55.7248" result="effect1_foregroundBlur"/>
</filter>
<linearGradient id="paint0_linear" x1="316.926" y1="197.822" x2="309.09" y2="210.468" gradientUnits="userSpaceOnUse">
<stop stop-color="#EEEEEE" stop-opacity="0.01"/>
<stop offset="1" stop-color="#D8D8D8"/>
</linearGradient>
<linearGradient id="paint1_linear" x1="261.968" y1="124.905" x2="261.968" y2="152.297" gradientUnits="userSpaceOnUse">
<stop stop-color="#7A0B77"/>
<stop offset="1" stop-color="#D74963"/>
</linearGradient>
<linearGradient id="paint2_linear" x1="223.206" y1="152.332" x2="223.206" y2="176.903" gradientUnits="userSpaceOnUse">
<stop stop-color="#7A0B77"/>
<stop offset="1" stop-color="#D74963"/>
</linearGradient>
<linearGradient id="paint3_linear" x1="204.114" y1="181.907" x2="204.114" y2="208.671" gradientUnits="userSpaceOnUse">
<stop stop-color="#02B0A4"/>
<stop offset="1" stop-color="#2284C7"/>
</linearGradient>
<linearGradient id="paint4_linear" x1="250.772" y1="252.924" x2="250.772" y2="282.578" gradientUnits="userSpaceOnUse">
<stop stop-color="#02B0A4"/>
<stop offset="1" stop-color="#2284C7"/>
</linearGradient>
<linearGradient id="paint5_linear" x1="298.773" y1="267.332" x2="298.773" y2="298.434" gradientUnits="userSpaceOnUse">
<stop stop-color="#7A0B77"/>
<stop offset="1" stop-color="#D74963"/>
</linearGradient>
<linearGradient id="paint6_linear" x1="412.918" y1="116.742" x2="412.918" y2="145.538" gradientUnits="userSpaceOnUse">
<stop stop-color="#7A0B77"/>
<stop offset="1" stop-color="#D74963"/>
</linearGradient>
<linearGradient id="paint7_linear" x1="460.649" y1="142.03" x2="460.649" y2="167.339" gradientUnits="userSpaceOnUse">
<stop stop-color="#02B0A4"/>
<stop offset="1" stop-color="#2284C7"/>
</linearGradient>
<linearGradient id="paint8_linear" x1="485.229" y1="170.34" x2="485.229" y2="195.642" gradientUnits="userSpaceOnUse">
<stop stop-color="#7A0B77"/>
<stop offset="1" stop-color="#D74963"/>
</linearGradient>
</defs>
</svg>
