<svg width="874" height="355" viewBox="0 0 874 355" fill="none" xmlns="http://www.w3.org/2000/svg">
<g opacity="0.4" filter="url(#filter0_f)">
<circle cx="696.281" cy="177.484" r="65.401" transform="rotate(-180 696.281 177.484)" fill="#D64864"/>
</g>
<mask id="mask0" style="mask-type:alpha" maskUnits="userSpaceOnUse" x="358" y="10" width="433" height="315">
<rect width="433" height="314.602" transform="translate(358 10)" fill="url(#paint0_linear)"/>
</mask>
<g mask="url(#mask0)">
<path fill-rule="evenodd" clip-rule="evenodd" d="M589.462 103.983L588.716 103.981L588.248 103.982L588.243 102.763L588.716 102.762L589.467 102.764L589.462 103.983ZM584.602 104.025L584.576 102.806L585.799 102.784L585.817 104.003L584.602 104.025ZM593.108 104.032L591.893 104.009L591.914 102.79L593.137 102.813L593.108 104.032ZM580.961 104.136L580.911 102.919L582.132 102.873L582.174 104.091L580.961 104.136ZM596.753 104.15L595.539 104.102L595.581 102.884L596.804 102.932L596.753 104.15ZM577.321 104.319L577.249 103.102L578.47 103.034L578.535 104.251L577.321 104.319ZM600.397 104.335L599.182 104.265L599.249 103.049L600.472 103.118L600.397 104.335ZM573.689 104.569L573.592 103.355L574.811 103.262L574.899 104.478L573.689 104.569ZM604.035 104.591L602.823 104.499L602.911 103.283L604.132 103.377L604.035 104.591ZM570.061 104.889L569.942 103.676L571.159 103.561L571.268 104.774L570.061 104.889ZM607.67 104.919L606.458 104.801L606.573 103.588L607.79 103.706L607.67 104.919ZM566.441 105.279L566.298 104.069L567.511 103.931L567.646 105.142L566.441 105.279ZM611.298 105.316L610.09 105.176L610.226 103.965L611.444 104.106L611.298 105.316ZM562.833 105.74L562.665 104.533L563.876 104.37L564.034 105.578L562.833 105.74ZM614.919 105.785L613.712 105.621L613.874 104.413L615.087 104.579L614.919 105.785ZM559.232 106.275L559.042 105.07L560.247 104.883L560.43 106.087L559.232 106.275ZM618.527 106.326L617.325 106.138L617.51 104.934L618.721 105.123L618.527 106.326ZM555.648 106.882L555.431 105.683L556.634 105.47L556.841 106.672L555.648 106.882ZM622.127 106.943L620.928 106.729L621.138 105.529L622.344 105.744L622.127 106.943ZM552.075 107.563L551.835 106.367L553.03 106.132L553.264 107.327L552.075 107.563ZM625.714 107.634L624.519 107.395L624.755 106.2L625.956 106.439L625.714 107.634ZM548.52 108.319L548.254 107.13L549.446 106.867L549.703 108.059L548.52 108.319ZM629.284 108.404L628.095 108.139L628.355 106.948L629.553 107.214L629.284 108.404ZM544.984 109.153L544.691 107.97L545.876 107.681L546.16 108.866L544.984 109.153ZM632.838 109.251L631.654 108.959L631.943 107.775L633.134 108.068L632.838 109.251ZM541.468 110.066L541.146 108.89C541.538 108.783 541.931 108.678 542.324 108.575L542.635 109.753L541.468 110.066ZM636.371 110.177L635.193 109.858L635.508 108.681L636.694 109.002L636.371 110.177ZM537.975 111.059L537.626 109.89L538.798 109.548L539.135 110.719L537.975 111.059ZM639.876 111.185L638.714 110.84L639.055 109.67L640.229 110.018L639.876 111.185ZM534.496 112.141L534.122 110.98L535.288 110.608L535.653 111.771L534.496 112.141ZM643.352 112.276L642.197 111.903L642.567 110.741L643.73 111.117L643.352 112.276ZM531.046 113.305L530.641 112.156L531.797 111.753L532.194 112.907L531.046 113.305ZM646.796 113.451L645.652 113.05L646.051 111.898L647.206 112.304L646.796 113.451ZM527.63 114.561L527.194 113.422L528.339 112.991L528.764 114.132L527.63 114.561ZM650.213 114.717L649.076 114.285L649.506 113.144L650.649 113.579L650.213 114.717ZM524.247 115.906L523.781 114.779C524.157 114.624 524.536 114.469 524.915 114.316L525.37 115.447C524.994 115.598 524.619 115.751 524.247 115.906ZM653.589 116.073L652.466 115.611L652.926 114.482L654.058 114.948L653.589 116.073ZM520.905 117.344L520.408 116.232C520.78 116.066 521.152 115.901 521.529 115.736L522.016 116.854C521.644 117.016 521.273 117.18 520.905 117.344ZM656.926 117.524L655.817 117.03L656.308 115.914L657.426 116.412L656.926 117.524ZM517.607 118.88L517.077 117.783C517.444 117.605 517.812 117.43 518.182 117.255L518.702 118.358C518.336 118.53 517.971 118.704 517.607 118.88ZM660.218 119.071C659.856 118.893 659.492 118.718 659.126 118.544L659.65 117.443C660.019 117.619 660.388 117.797 660.754 117.975L660.218 119.071ZM514.359 120.515L513.793 119.436C514.154 119.247 514.517 119.06 514.882 118.874L515.435 119.959C515.074 120.143 514.716 120.328 514.359 120.515ZM663.46 120.719C663.104 120.53 662.745 120.344 662.386 120.159L662.943 119.074C663.307 119.262 663.67 119.451 664.031 119.642L663.46 120.719ZM511.165 122.254L510.565 121.193C510.92 120.993 511.277 120.793 511.635 120.596L512.224 121.662C511.87 121.859 511.517 122.056 511.165 122.254ZM666.646 122.47C666.297 122.271 665.944 122.071 665.591 121.875L666.183 120.809C666.541 121.009 666.898 121.21 667.251 121.412L666.646 122.47ZM508.032 124.099L507.396 123.061C507.743 122.848 508.093 122.636 508.445 122.426L509.069 123.473C508.721 123.68 508.375 123.89 508.032 124.099ZM669.771 124.328C669.43 124.116 669.085 123.907 668.738 123.697L669.365 122.653C669.72 122.865 670.068 123.078 670.414 123.292L669.771 124.328ZM504.97 126.054L504.297 125.039C504.636 124.813 504.977 124.588 505.323 124.366L505.983 125.39C505.642 125.61 505.305 125.832 504.97 126.054ZM672.824 126.295C672.491 126.072 672.154 125.849 671.815 125.627L672.482 124.607C672.826 124.833 673.167 125.058 673.504 125.285L672.824 126.295ZM501.989 128.125L501.272 127.138C501.602 126.899 501.936 126.661 502.273 126.424L502.973 127.422C502.64 127.656 502.313 127.889 501.989 128.125ZM675.798 128.381C675.472 128.143 675.145 127.908 674.815 127.673L675.522 126.68C675.857 126.918 676.188 127.158 676.517 127.397L675.798 128.381ZM499.094 130.316L498.34 129.361C498.659 129.109 498.981 128.856 499.307 128.606L500.049 129.572C499.728 129.819 499.41 130.067 499.094 130.316ZM678.676 130.587C678.365 130.336 678.048 130.087 677.729 129.838L678.475 128.875C678.802 129.129 679.125 129.383 679.44 129.638L678.676 130.587ZM496.304 132.634L495.505 131.714C495.811 131.447 496.122 131.181 496.436 130.916L497.222 131.847C496.913 132.108 496.606 132.371 496.304 132.634ZM681.456 132.92C681.155 132.655 680.85 132.391 680.541 132.127L681.335 131.201C681.647 131.468 681.956 131.737 682.262 132.006L681.456 132.92ZM493.633 135.082L492.787 134.205C493.079 133.923 493.377 133.64 493.678 133.361L494.51 134.251C494.214 134.528 493.92 134.805 493.633 135.082ZM684.111 135.385C683.826 135.106 683.536 134.827 683.241 134.549L684.077 133.662C684.377 133.945 684.674 134.229 684.964 134.514L684.111 135.385ZM491.095 137.667L490.203 136.838C490.48 136.538 490.762 136.241 491.047 135.944L491.926 136.79C491.645 137.081 491.367 137.374 491.095 137.667ZM686.631 137.985C686.363 137.69 686.088 137.397 685.808 137.103L686.692 136.262C686.976 136.561 687.257 136.861 687.532 137.163L686.631 137.985ZM488.711 140.389L487.77 139.615C488.03 139.3 488.294 138.985 488.565 138.672L489.488 139.468C489.224 139.774 488.966 140.081 488.711 140.389ZM688.998 140.724C688.747 140.414 688.49 140.105 688.229 139.796L689.158 139.007C689.425 139.323 689.687 139.639 689.944 139.957L688.998 140.724ZM486.503 143.252L485.514 142.541C485.752 142.21 485.997 141.879 486.245 141.549L487.218 142.283C486.974 142.604 486.736 142.928 486.503 143.252ZM691.184 143.603C690.954 143.277 690.717 142.952 690.477 142.629L691.454 141.901C691.701 142.233 691.942 142.565 692.179 142.899L691.184 143.603ZM484.495 146.253L483.457 145.612C483.674 145.264 483.894 144.918 484.118 144.572L485.14 145.237C484.92 145.575 484.705 145.914 484.495 146.253ZM693.168 146.623C692.959 146.281 692.748 145.941 692.53 145.601L693.556 144.943C693.779 145.291 693.997 145.64 694.21 145.989L693.168 146.623ZM482.711 149.391L481.629 148.829C481.818 148.466 482.012 148.104 482.211 147.741L483.279 148.329C483.084 148.682 482.895 149.036 482.711 149.391ZM694.922 149.775C694.741 149.42 694.555 149.063 694.363 148.709L695.437 148.13C695.632 148.493 695.823 148.858 696.007 149.222L694.922 149.775ZM481.182 152.656L480.059 152.184C480.216 151.805 480.381 151.428 480.551 151.051L481.661 151.555C481.495 151.921 481.335 152.288 481.182 152.656ZM696.419 153.052C696.268 152.683 696.11 152.313 695.949 151.946L697.065 151.454C697.231 151.833 697.391 152.212 697.547 152.592L696.419 153.052ZM479.934 156.033L478.773 155.66C478.898 155.269 479.03 154.877 479.169 154.488L480.317 154.895C480.183 155.274 480.055 155.653 479.934 156.033ZM697.631 156.441C697.514 156.06 697.391 155.68 697.261 155.301L698.412 154.906C698.547 155.297 698.675 155.69 698.796 156.085L697.631 156.441ZM478.992 159.505L477.803 159.241C477.892 158.84 477.988 158.439 478.088 158.039L479.27 158.337C479.172 158.726 479.079 159.115 478.992 159.505ZM698.536 159.925C698.454 159.535 698.365 159.145 698.27 158.755L699.456 158.468C699.552 158.87 699.644 159.271 699.728 159.674L698.536 159.925ZM478.38 163.045L477.171 162.895C477.222 162.488 477.278 162.079 477.342 161.672L478.547 161.864C478.485 162.257 478.428 162.651 478.38 163.045ZM699.109 163.478C699.065 163.08 699.014 162.683 698.957 162.287L700.164 162.112C700.224 162.523 700.274 162.932 700.322 163.344L699.109 163.478ZM478.111 166.625L476.894 166.592C476.905 166.181 476.922 165.77 476.945 165.359L478.163 165.428C478.14 165.827 478.123 166.227 478.111 166.625ZM699.336 167.067C699.329 166.668 699.317 166.268 699.298 165.867L700.516 165.812C700.535 166.224 700.547 166.637 700.554 167.047L699.336 167.067ZM476.977 170.305C476.949 169.894 476.925 169.483 476.909 169.07L478.127 169.021C478.143 169.421 478.164 169.819 478.192 170.22L476.977 170.305ZM700.426 170.757L699.211 170.658C699.243 170.258 699.272 169.861 699.291 169.462L700.509 169.526C700.487 169.935 700.46 170.344 700.426 170.757ZM477.422 173.998C477.352 173.589 477.29 173.18 477.235 172.771L478.442 172.605C478.496 173.002 478.558 173.397 478.624 173.793L477.422 173.998ZM699.938 174.436L698.739 174.217C698.813 173.823 698.877 173.429 698.936 173.036L700.14 173.214C700.08 173.623 700.013 174.03 699.938 174.436ZM478.216 177.621C478.108 177.221 478.008 176.821 477.913 176.42L479.1 176.142C479.191 176.53 479.289 176.917 479.392 177.304L478.216 177.621ZM699.105 178.051L697.931 177.721C698.04 177.335 698.142 176.95 698.238 176.563L699.421 176.854C699.322 177.253 699.216 177.653 699.105 178.051ZM479.336 181.154C479.194 180.766 479.058 180.377 478.929 179.987L480.085 179.601C480.21 179.98 480.344 180.358 480.482 180.736L479.336 181.154ZM697.947 181.572L696.806 181.142C696.949 180.766 697.085 180.388 697.216 180.013L698.367 180.411C698.233 180.799 698.092 181.187 697.947 181.572ZM480.758 184.577C480.583 184.202 480.415 183.827 480.252 183.451L481.371 182.967C481.529 183.334 481.694 183.698 481.863 184.063L480.758 184.577ZM696.49 184.981L695.391 184.454C695.565 184.092 695.731 183.728 695.893 183.364L697.008 183.858C696.842 184.233 696.668 184.608 696.49 184.981ZM482.454 187.868C482.251 187.508 482.054 187.149 481.861 186.788L482.935 186.214C483.124 186.567 483.316 186.918 483.515 187.269L482.454 187.868ZM694.765 188.255L693.709 187.645C693.912 187.296 694.107 186.945 694.298 186.596L695.368 187.178C695.173 187.537 694.971 187.897 694.765 188.255ZM484.392 191.019C484.162 190.675 483.939 190.33 483.72 189.985L484.751 189.333C484.963 189.672 485.183 190.008 485.406 190.344L484.392 191.019ZM692.799 191.387L691.79 190.705C692.017 190.37 692.237 190.034 692.454 189.699L693.478 190.36C693.257 190.704 693.031 191.046 692.799 191.387ZM486.545 194.022C486.293 193.695 486.045 193.367 485.804 193.037L486.786 192.318C487.023 192.639 487.264 192.96 487.511 193.281L486.545 194.022ZM690.623 194.373L689.66 193.624C689.909 193.305 690.153 192.985 690.392 192.664L691.369 193.394C691.126 193.721 690.876 194.047 690.623 194.373ZM488.887 196.879C488.616 196.568 488.348 196.257 488.086 195.943L489.02 195.161C489.277 195.469 489.539 195.773 489.805 196.078L488.887 196.879ZM688.26 197.213L687.346 196.406C687.613 196.103 687.877 195.799 688.137 195.494L689.066 196.283C688.801 196.595 688.531 196.905 688.26 197.213ZM491.391 199.587C491.104 199.292 490.82 198.996 490.54 198.7L491.428 197.865C491.702 198.155 491.981 198.446 492.264 198.735L491.391 199.587ZM685.735 199.904L684.869 199.045C685.155 198.759 685.435 198.47 685.711 198.181L686.593 199.022C686.312 199.318 686.026 199.61 685.735 199.904ZM494.04 202.151C493.738 201.872 493.439 201.592 493.143 201.312L493.982 200.429C494.273 200.705 494.567 200.98 494.865 201.254L494.04 202.151ZM683.07 202.451L682.25 201.55C682.55 201.277 682.846 201.005 683.138 200.731L683.972 201.618C683.677 201.896 683.376 202.174 683.07 202.451ZM496.815 204.58C496.499 204.316 496.185 204.052 495.876 203.786L496.673 202.862C496.976 203.125 497.283 203.384 497.594 203.643L496.815 204.58ZM680.282 204.863L679.509 203.92C679.821 203.663 680.13 203.405 680.436 203.144L681.224 204.073C680.914 204.338 680.6 204.601 680.282 204.863ZM499.698 206.871C499.371 206.622 499.047 206.373 498.725 206.12L499.478 205.162C499.794 205.41 500.113 205.656 500.436 205.899L499.698 206.871ZM677.391 207.139L676.659 206.163C676.982 205.921 677.301 205.676 677.619 205.431L678.366 206.393C678.045 206.644 677.719 206.892 677.391 207.139ZM502.673 209.035C502.337 208.8 502.004 208.564 501.673 208.329L502.38 207.335C502.709 207.569 503.038 207.802 503.371 208.034L502.673 209.035ZM674.401 209.288L673.71 208.284C674.045 208.054 674.375 207.823 674.702 207.592L675.407 208.584C675.076 208.82 674.741 209.053 674.401 209.288ZM505.734 211.076C505.389 210.855 505.048 210.633 504.707 210.408L505.376 209.389C505.713 209.611 506.05 209.831 506.393 210.05L505.734 211.076ZM671.332 211.315L670.678 210.286C671.022 210.069 671.361 209.851 671.7 209.631L672.363 210.653C672.022 210.875 671.678 211.095 671.332 211.315ZM508.869 213.004C508.516 212.795 508.164 212.585 507.816 212.375L508.45 211.333C508.792 211.541 509.14 211.749 509.488 211.954L508.869 213.004ZM668.189 213.229L667.575 212.176C667.926 211.971 668.273 211.766 668.617 211.558L669.245 212.605C668.895 212.813 668.545 213.022 668.189 213.229ZM666.61 214.133L666.013 213.072C666.365 212.874 666.717 212.673 667.066 212.472L667.674 213.527C667.322 213.731 666.966 213.934 666.61 214.133ZM512.067 214.82C511.707 214.624 511.349 214.426 510.992 214.226L511.589 213.163C511.941 213.36 512.295 213.556 512.651 213.75L512.067 214.82ZM663.378 215.884L662.814 214.802L663.888 214.238L664.46 215.313L663.378 215.884ZM515.322 216.527L514.233 215.97L514.79 214.886L515.873 215.44L515.322 216.527ZM660.09 217.528L659.561 216.428C659.926 216.253 660.289 216.076 660.651 215.898L661.19 216.991C660.825 217.171 660.457 217.35 660.09 217.528ZM518.629 218.133C518.259 217.96 517.888 217.786 517.52 217.609L518.047 216.51C518.41 216.684 518.776 216.857 519.144 217.028L518.629 218.133ZM656.754 219.071L656.261 217.957C656.63 217.792 656.999 217.626 657.366 217.46L657.872 218.567C657.501 218.736 657.129 218.905 656.754 219.071ZM521.981 219.637C521.605 219.477 521.232 219.312 520.859 219.147L521.353 218.032C521.721 218.196 522.092 218.357 522.463 218.518L521.981 219.637ZM653.378 220.515L652.913 219.388L654.035 218.921L654.508 220.044L653.378 220.515ZM525.373 221.045L524.236 220.586L524.7 219.458L525.824 219.913L525.373 221.045ZM649.963 221.865L649.53 220.726L650.662 220.29L651.105 221.424L649.963 221.865ZM528.802 222.358L527.655 221.931L528.087 220.791L529.225 221.216L528.802 222.358ZM646.512 223.123L646.109 221.974L647.252 221.567L647.666 222.715L646.512 223.123ZM532.265 223.582L531.108 223.185L531.508 222.033L532.657 222.429L532.265 223.582ZM643.031 224.291L642.657 223.131L643.81 222.755L644.194 223.911L643.031 224.291ZM535.756 224.717C535.365 224.596 534.976 224.472 534.589 224.348L534.963 223.188C535.346 223.312 535.732 223.433 536.119 223.554L535.756 224.717ZM639.527 225.372L639.183 224.202C639.571 224.089 639.955 223.974 640.341 223.856L640.696 225.022C640.308 225.141 639.918 225.257 639.527 225.372ZM539.275 225.767L538.098 225.426L538.442 224.257L539.608 224.595L539.275 225.767ZM636.005 226.367L635.686 225.191L636.853 224.872L637.179 226.045L636.005 226.367ZM542.828 226.736C542.431 226.632 542.034 226.528 541.639 226.421L541.956 225.245L543.133 225.555L542.828 226.736ZM632.46 227.28L632.169 226.099L633.343 225.804L633.643 226.987L632.46 227.28ZM546.399 227.622C545.999 227.527 545.601 227.432 545.203 227.333L545.496 226.151C545.888 226.248 546.283 226.342 546.679 226.434L546.399 227.622ZM628.895 228.115L628.63 226.925L629.81 226.659L630.083 227.846L628.895 228.115ZM549.988 228.428C549.588 228.344 549.187 228.257 548.787 228.168L549.054 226.978C549.449 227.067 549.845 227.152 550.242 227.236L549.988 228.428ZM625.311 228.873L625.073 227.676L626.259 227.435L626.508 228.629L625.311 228.873ZM553.594 229.158L552.39 228.923L552.628 227.727L553.822 227.959L553.594 229.158ZM621.713 229.55L621.501 228.35L622.693 228.133L622.915 229.332L621.713 229.55ZM557.212 229.809L556.004 229.6L556.216 228.4L557.417 228.606L557.212 229.809ZM618.101 230.155L617.912 228.95L619.108 228.759L619.307 229.961L618.101 230.155ZM560.844 230.384L559.632 230.2L559.819 228.996L561.022 229.179L560.844 230.384ZM614.477 230.684L614.313 229.477L615.514 229.309L615.686 230.517L614.477 230.684ZM564.484 230.887L563.267 230.726L563.432 229.52L564.637 229.678L564.484 230.887ZM610.843 231.146L610.704 229.935L611.906 229.792L612.056 231L610.843 231.146ZM568.131 231.316L566.915 231.18L567.053 229.969L568.263 230.104L568.131 231.316ZM607.196 231.532L607.084 230.319C607.486 230.281 607.888 230.241 608.289 230.199L608.415 231.411C608.009 231.454 607.603 231.495 607.196 231.532ZM571.789 231.676L570.569 231.564L570.684 230.351L571.895 230.463L571.789 231.676ZM603.547 231.849L603.455 230.633L604.662 230.537L604.766 231.75L603.547 231.849ZM575.45 231.963L574.227 231.875L574.32 230.659L575.532 230.747L575.45 231.963ZM599.893 232.096L599.821 230.88L601.033 230.805L601.112 232.021L599.893 232.096ZM579.114 232.179C578.706 232.16 578.298 232.139 577.888 232.114L577.962 230.898C578.365 230.921 578.77 230.942 579.174 230.961L579.114 232.179ZM596.229 232.273L596.181 231.055L597.393 231.003L597.45 232.221L596.229 232.273ZM582.781 232.326L581.557 232.286L581.603 231.068L582.816 231.109L582.781 232.326ZM592.578 232.379L592.538 231.161L593.753 231.133L593.786 232.351L592.578 232.379ZM586.449 232.404L585.225 232.386L585.248 231.168L586.463 231.185L586.449 232.404ZM588.896 232.418L588.892 231.2L590.107 231.195L590.117 232.412L588.896 232.418Z" fill="#D24566"/>
<path fill-rule="evenodd" clip-rule="evenodd" d="M710.077 82.3363C710.066 82.4457 710.058 82.5551 710.039 82.6633L709.978 82.9091L709.892 83.2125L709.792 83.4515C709.747 83.5564 709.701 83.6613 709.646 83.765L709.514 83.9883C709.442 84.1033 709.365 84.2183 709.282 84.3333L709.121 84.5351C708.985 84.7009 708.833 84.8644 708.667 85.0234L708.545 85.1463C708.446 85.2365 708.332 85.3245 708.22 85.4136L707.968 85.6188C707.844 85.7079 707.707 85.7936 707.575 85.8804C707.473 85.9469 707.378 86.0157 707.27 86.0811L688.965 96.9704C688.654 97.1564 688.319 97.3233 687.975 97.48L687.762 97.5759C687.423 97.7225 687.071 97.8567 686.709 97.9751L686.414 98.0641C686.233 98.1183 686.053 98.1701 685.869 98.2186C685.753 98.2479 685.636 98.275 685.518 98.3021C685.339 98.3438 685.159 98.3821 684.977 98.4171C684.869 98.4385 684.761 98.4577 684.651 98.4768C684.278 98.5411 683.901 98.5964 683.518 98.6347L683.467 98.6381C683.15 98.6685 682.831 98.6888 682.511 98.7024C682.396 98.7069 682.28 98.708 682.165 98.7103C681.962 98.7136 681.76 98.7159 681.557 98.7125C681.429 98.7103 681.3 98.708 681.173 98.7024C680.99 98.6956 680.806 98.6855 680.623 98.673C680.495 98.664 680.364 98.655 680.236 98.6426C680.051 98.6257 679.868 98.6043 679.684 98.5806C679.561 98.5659 679.438 98.5513 679.317 98.5332C679.101 98.5017 678.887 98.4622 678.674 98.4216L678.394 98.3697C678.069 98.3009 677.75 98.2231 677.437 98.1341L677.272 98.0833C676.944 97.9863 676.624 97.8781 676.309 97.7586C676.181 97.7089 676.049 97.6638 675.924 97.6108L663.559 92.4205C663.125 92.2389 662.724 92.0405 662.355 91.8274C660.434 90.7178 659.401 89.2215 659.405 87.6981L659.365 101.932C659.36 103.455 660.393 104.952 662.313 106.061C662.683 106.273 663.085 106.473 663.519 106.654L675.883 111.845L676.122 111.943L676.27 111.992C676.584 112.112 676.905 112.221 677.233 112.317L677.346 112.355L677.395 112.368C677.71 112.456 678.03 112.535 678.354 112.602L678.402 112.615L678.633 112.655C678.848 112.696 679.061 112.734 679.276 112.767L679.389 112.786L679.644 112.814C679.827 112.838 680.011 112.859 680.196 112.876L680.358 112.894L680.582 112.907C680.766 112.919 680.949 112.929 681.134 112.936L681.341 112.947L681.515 112.946C681.718 112.95 681.921 112.947 682.125 112.944L682.366 112.943L682.47 112.936C682.793 112.923 683.114 112.902 683.433 112.872L683.472 112.868H683.477C683.861 112.829 684.239 112.774 684.613 112.711L684.753 112.69L684.935 112.651C685.118 112.616 685.299 112.578 685.478 112.536C685.596 112.509 685.712 112.482 685.829 112.451C686.013 112.405 686.194 112.352 686.373 112.298L686.609 112.231L686.669 112.209C687.032 112.09 687.382 111.956 687.722 111.81L687.935 111.714C688.279 111.557 688.614 111.39 688.925 111.204L707.23 100.315L707.281 100.283L707.536 100.113C707.669 100.027 707.804 99.9416 707.927 99.8525L708.182 99.6462C708.293 99.5571 708.404 99.4703 708.505 99.3789L708.542 99.3496L708.628 99.2571C708.793 99.0982 708.944 98.9347 709.082 98.7689L709.163 98.6798L709.241 98.5671C709.326 98.4532 709.401 98.337 709.473 98.2209L709.565 98.0867L709.605 97.9987C709.662 97.8939 709.708 97.7901 709.753 97.6853L709.831 97.5184L709.851 97.4462L709.938 97.1429L709.992 96.9557L709.999 96.8971C710.018 96.7888 710.026 96.6794 710.036 96.5712L710.057 96.3818L710.058 96.2938L710.098 82.0601L710.077 82.3363Z" fill="url(#paint1_linear)"/>
<path fill-rule="evenodd" clip-rule="evenodd" d="M707.159 77.9348C710.972 80.1359 711.147 83.7736 707.27 86.0807L688.966 96.9699C685.507 99.0323 679.953 99.3018 675.923 97.6104L663.56 92.42C663.126 92.2385 662.724 92.04 662.355 91.8269C659.294 90.06 658.491 87.3109 660.538 85.0365L672.665 71.5549C675.486 68.4179 682.456 67.4729 687.412 69.5534L705.943 77.335C706.382 77.5199 706.788 77.7206 707.159 77.9348Z" fill="#D24566"/>
<path fill-rule="evenodd" clip-rule="evenodd" d="M755.204 115.058L755.193 115.236C755.186 115.369 755.17 115.502 755.148 115.633L755.117 115.787C755.086 115.932 755.045 116.075 754.994 116.216L754.967 116.298C754.903 116.469 754.822 116.639 754.729 116.807L754.657 116.928C754.563 117.089 754.458 117.245 754.339 117.401L754.282 117.479C754.117 117.686 753.927 117.887 753.72 118.083L753.615 118.182C753.454 118.329 753.282 118.473 753.096 118.612L753.03 118.657C752.861 118.78 752.682 118.899 752.495 119.015L752.338 119.108C752.048 119.279 751.738 119.442 751.409 119.592L751.26 119.657C750.922 119.806 750.563 119.945 750.185 120.07L750.021 120.122C749.664 120.233 749.298 120.338 748.911 120.427L724.521 126.048C724.149 126.134 723.77 126.195 723.391 126.254C723.202 126.282 723.013 126.31 722.825 126.333C722.507 126.37 722.189 126.399 721.87 126.418C721.759 126.425 721.65 126.435 721.538 126.44C721.111 126.458 720.685 126.46 720.262 126.447L719.992 126.431C719.64 126.414 719.292 126.386 718.946 126.348C718.842 126.336 718.739 126.327 718.637 126.313C718.219 126.259 717.807 126.193 717.406 126.108L717.193 126.055C716.863 125.982 716.541 125.897 716.226 125.804C716.027 125.745 715.837 125.675 715.646 125.608C715.413 125.526 715.179 125.447 714.958 125.355L714.721 125.252C714.378 125.1 714.044 124.939 713.735 124.761C713.126 124.409 712.586 124.008 712.138 123.559L704.472 115.914C703.783 115.226 703.361 114.485 703.195 113.736C703.14 113.487 703.112 113.237 703.113 112.986L703.073 127.22C703.071 128.219 703.513 129.229 704.433 130.147L712.097 137.792C712.547 138.241 713.087 138.643 713.696 138.995C714.005 139.173 714.338 139.334 714.68 139.486L714.917 139.589L715.134 139.682C715.285 139.742 715.448 139.787 715.604 139.841C715.797 139.909 715.986 139.979 716.187 140.038L716.348 140.093C716.609 140.167 716.879 140.228 717.149 140.289L717.366 140.342L717.408 140.352C717.735 140.42 718.068 140.478 718.405 140.526L718.596 140.547C718.698 140.561 718.802 140.571 718.907 140.581C719.064 140.599 719.219 140.622 719.378 140.634C719.567 140.65 719.759 140.655 719.951 140.666L720.221 140.679L720.357 140.687C720.695 140.695 721.034 140.694 721.374 140.683L721.499 140.674C721.608 140.669 721.718 140.659 721.828 140.652C722.044 140.64 722.26 140.631 722.475 140.609C722.579 140.598 722.682 140.578 722.784 140.566C722.974 140.544 723.161 140.516 723.349 140.487C723.486 140.466 723.623 140.455 723.759 140.43C724.001 140.386 724.241 140.336 724.48 140.282L748.87 134.661C749.258 134.572 749.625 134.467 749.98 134.356L750.089 134.325L750.145 134.304C750.523 134.179 750.88 134.04 751.22 133.891L751.368 133.826C751.698 133.674 752.007 133.513 752.297 133.342L752.373 133.303L752.455 133.248C752.642 133.133 752.82 133.014 752.99 132.891L753.055 132.846C753.241 132.707 753.412 132.563 753.576 132.416L753.629 132.372L753.681 132.317C753.886 132.121 754.077 131.92 754.242 131.712L754.258 131.693L754.3 131.635C754.417 131.48 754.523 131.322 754.617 131.162L754.666 131.089L754.689 131.039C754.78 130.872 754.862 130.703 754.928 130.532L754.935 130.516L754.954 130.45C755.005 130.307 755.045 130.165 755.077 130.021L755.098 129.95L755.106 129.867C755.13 129.735 755.146 129.603 755.153 129.47L755.162 129.378L755.164 129.291L755.204 115.058Z" fill="url(#paint2_linear)"/>
<path fill-rule="evenodd" clip-rule="evenodd" d="M740.746 99.4637C741.354 99.8144 741.897 100.218 742.35 100.671L753.845 112.137C756.913 115.204 754.585 119.121 748.911 120.428L724.521 126.049C720.737 126.92 716.513 126.364 713.736 124.761C713.127 124.41 712.587 124.008 712.138 123.559L704.472 115.914C701.974 113.421 703.001 110.247 706.891 108.462L727.455 99.0183C731.529 97.151 737.244 97.4419 740.746 99.4637Z" fill="#D24566"/>
<path fill-rule="evenodd" clip-rule="evenodd" d="M764.89 175.021L765.08 175.709L765.005 175.006C765.342 174.971 765.672 174.923 765.995 174.867L766.411 174.787C766.573 174.755 766.734 174.722 766.891 174.685L767.226 174.599C767.46 174.535 767.611 174.493 767.76 174.447L768.133 175.075L767.918 174.402L768.058 174.348C768.375 174.239 768.677 174.127 768.964 174.001L769.397 174.585L769.106 173.942C769.423 173.8 769.718 173.643 769.998 173.478L770.257 173.319C770.374 173.245 770.482 173.174 770.586 173.1L770.845 172.905L771.127 172.672L771.216 172.599L771.33 172.485C771.465 172.355 771.595 172.215 771.715 172.071L771.801 171.977C771.912 171.831 771.985 171.711 772.058 171.593L772.127 171.491L772.21 171.324L772.41 170.82C772.455 170.675 772.475 170.619 772.487 170.561L772.522 170.241L772.537 170.111L772.569 159.047L772.341 159.277L772.098 159.503C771.987 159.599 771.875 159.693 771.755 159.785C771.657 159.861 771.553 159.94 771.447 160.017C771.322 160.105 771.192 160.189 771.059 160.275C770.964 160.336 770.86 160.4 770.753 160.463C770.431 160.652 770.092 160.832 769.729 160.996L769.623 161.04C769.246 161.203 768.908 161.332 768.556 161.451L768.22 161.562C768.054 161.614 767.886 161.66 767.719 161.706L767.26 161.826C767.092 161.865 766.919 161.9 766.747 161.935C766.582 161.97 766.431 161.999 766.276 162.025C765.923 162.087 765.563 162.138 765.195 162.177L765.07 162.194C764.704 162.229 764.331 162.255 763.953 162.268C763.6 162.281 763.239 162.284 762.876 162.274L736.436 161.648C736.08 161.634 735.833 161.623 735.589 161.602L735.239 161.566C734.974 161.539 734.781 161.519 734.594 161.493L734.286 161.442C734.007 161.397 733.803 161.363 733.604 161.324L733.304 161.256C733.055 161.201 732.812 161.142 732.577 161.079L732.317 161.002C731.908 160.882 731.554 160.763 731.214 160.633C730.949 160.53 730.787 160.458 730.625 160.383L730.329 160.254C730.074 160.132 729.827 160.001 729.593 159.866C727.791 158.825 726.641 157.414 726.357 155.89L726.032 154.156L726.015 160.574C726.014 160.743 726.029 160.911 726.061 161.08L727.708 169.865C727.913 170.976 728.819 172.045 730.26 172.876C730.465 172.996 730.678 173.108 730.901 173.213L731.137 173.316C731.332 173.405 731.464 173.464 731.6 173.519C731.988 173.666 732.307 173.771 732.634 173.868L732.743 173.906L732.724 174.631L732.909 173.95C733.122 174.006 733.341 174.059 733.562 174.109L733.855 174.175C734.048 174.213 734.254 174.247 734.462 174.28L734.71 174.323C734.944 174.354 735.143 174.375 735.341 174.394L735.645 174.428C735.888 174.447 736.119 174.456 736.351 174.466L736.604 174.478L762.867 175.096C763.2 175.103 763.522 175.103 763.843 175.091C764.211 175.077 764.553 175.053 764.89 175.021ZM763.25 176.515C763.111 176.515 762.973 176.512 762.836 176.509L736.389 175.883C736.043 175.869 735.794 175.857 735.549 175.838L735.212 175.802C734.985 175.779 734.766 175.757 734.556 175.728L734.33 175.693C734.014 175.641 733.788 175.604 733.566 175.558L733.331 175.507C733.013 175.434 732.773 175.377 732.539 175.314L732.265 175.236C731.869 175.116 731.516 174.999 731.178 174.869L731.054 174.822C730.922 174.77 730.771 174.703 730.621 174.635L730.291 174.488C730.035 174.367 729.788 174.237 729.554 174.1C727.751 173.061 726.6 171.648 726.317 170.125L724.672 161.343C724.624 161.083 724.6 160.825 724.601 160.569L724.642 146.35V146.335L726.056 146.342V146.346L726.055 146.351C726.055 146.517 726.07 146.683 726.102 146.851L727.747 155.631C727.953 156.743 728.86 157.812 730.3 158.643C730.504 158.762 730.718 158.874 730.941 158.98L731.184 159.088C731.35 159.162 731.492 159.227 731.643 159.287C732.03 159.435 732.347 159.539 732.674 159.636L732.954 159.718C733.164 159.775 733.383 159.827 733.605 159.877L733.884 159.94C734.066 159.977 734.251 160.007 734.436 160.037L734.791 160.094C734.962 160.119 735.136 160.136 735.309 160.153L735.7 160.195C735.928 160.214 736.158 160.223 736.388 160.233L736.644 160.246L762.908 160.864C763.244 160.87 763.576 160.868 763.903 160.857C764.252 160.844 764.596 160.821 764.933 160.788C765.383 160.738 765.712 160.69 766.036 160.635C766.176 160.611 766.311 160.583 766.449 160.556C766.624 160.52 766.78 160.488 766.931 160.452L767.274 160.364C767.5 160.302 767.651 160.26 767.8 160.214L768.1 160.114C768.414 160.007 768.716 159.894 769.004 159.767L769.438 160.353L769.148 159.709C769.464 159.567 769.758 159.41 770.039 159.245L770.298 159.084C770.418 159.011 770.525 158.939 770.629 158.865L770.887 158.673L771.171 158.438L771.361 158.261C771.504 158.122 771.635 157.982 771.753 157.839L772.422 158.144L771.862 157.712C771.951 157.598 772.026 157.478 772.099 157.36L772.574 157.516V157.457L772.188 157.227L772.345 156.889L772.398 156.769L772.445 156.6C772.486 156.471 772.512 156.391 772.528 156.31L772.557 156.046L772.58 155.81L773.991 155.817L773.951 170.051C773.945 170.253 773.934 170.348 773.92 170.442L773.2 170.519L773.903 170.581L773.876 170.804C773.848 170.953 773.817 171.056 773.785 171.157L773.058 171.125L773.742 171.303L773.687 171.488C773.649 171.592 773.611 171.668 773.573 171.745L773.505 171.89L773.378 172.155L773.273 172.319C773.166 172.492 773.061 172.653 772.942 172.809L772.805 172.972C772.645 173.16 772.481 173.34 772.301 173.512L772.196 173.622L772.09 173.71C771.95 173.831 771.834 173.927 771.715 174.019C771.617 174.096 771.515 174.174 771.408 174.25C771.286 174.337 771.154 174.424 771.019 174.51L770.818 174.643L770.713 174.699C770.392 174.886 770.05 175.067 769.688 175.23L769.581 175.274C769.205 175.438 768.866 175.566 768.516 175.686L768.35 175.748L768.234 175.783C768.015 175.848 767.847 175.894 767.677 175.941C767.468 175.997 767.345 176.03 767.219 176.06C767.046 176.102 766.868 176.137 766.691 176.173L766.254 176.258C765.883 176.322 765.523 176.373 765.155 176.412C765.048 176.428 765.009 176.431 764.961 176.431C764.666 176.464 764.293 176.49 763.914 176.502C763.687 176.51 763.467 176.515 763.25 176.515Z" fill="url(#paint3_linear)"/>
<path fill-rule="evenodd" clip-rule="evenodd" d="M760.759 137.512C759.971 137.512 759.177 137.568 758.397 137.683L732.957 141.455C730.11 141.876 727.762 143.036 726.678 144.558C726.15 145.298 725.956 146.069 726.102 146.848L727.749 155.631C727.954 156.743 728.861 157.812 730.301 158.643C731.989 159.618 734.241 160.188 736.646 160.245L762.909 160.863C766.659 160.929 770.114 159.782 771.728 157.886C772.428 157.063 772.698 156.194 772.532 155.301L770.068 142.126C769.86 141.015 768.958 139.947 767.524 139.12C765.723 138.08 763.267 137.512 760.759 137.512ZM763.314 162.281C763.169 162.281 763.022 162.278 762.876 162.275L736.612 161.657C733.974 161.594 731.482 160.958 729.593 159.867C727.79 158.826 726.641 157.414 726.358 155.89L724.712 147.109C724.497 145.953 724.777 144.787 725.526 143.737C726.851 141.881 729.483 140.54 732.75 140.057L758.191 136.286C761.808 135.751 765.558 136.354 768.231 137.896C770.053 138.948 771.169 140.32 771.457 141.866L773.921 155.04C774.165 156.354 773.779 157.654 772.803 158.802C770.963 160.966 767.355 162.281 763.314 162.281Z" fill="#02B0A4"/>
<path fill-rule="evenodd" clip-rule="evenodd" d="M698.949 258.365L699.187 259.05L699.078 258.352L699.19 258.336C699.487 258.305 699.78 258.263 700.073 258.213L700.188 258.197L700.372 258.885L700.302 258.178L700.415 258.153C700.575 258.123 700.734 258.088 700.89 258.052C701.054 258.014 701.167 257.989 701.278 257.959C701.417 257.923 701.545 257.886 701.675 257.848L702.014 257.751C702.305 257.649 702.494 257.578 702.681 257.505L702.96 257.398C703.227 257.286 703.49 257.166 703.745 257.031L720.688 248.173C720.851 248.088 721.006 248 721.155 247.91L721.279 247.826C721.383 247.763 721.479 247.696 721.575 247.629C721.69 247.552 721.796 247.475 721.898 247.396L722.144 247.192L722.242 247.112L722.391 246.968C722.516 246.847 722.638 246.715 722.748 246.581L722.846 246.476C722.95 246.339 723.011 246.241 723.071 246.143L723.16 246.012C723.229 245.895 723.249 245.848 723.27 245.799L723.551 245.008L723.561 244.884L723.586 244.668L724.302 244.605L723.596 244.516L723.628 233.53L723.402 233.76C723.308 233.851 723.21 233.94 723.107 234.028C723.009 234.113 722.905 234.201 722.795 234.284C722.682 234.373 722.554 234.464 722.426 234.555C722.282 234.653 722.179 234.722 722.071 234.792C721.85 234.929 721.625 235.065 721.382 235.191L704.442 244.05C704.152 244.202 703.851 244.34 703.543 244.47L703.339 244.549C703.027 244.668 702.816 244.748 702.6 244.821C702.485 244.859 702.367 244.895 702.247 244.929C702.022 244.997 701.852 245.047 701.678 245.092C701.532 245.131 701.386 245.165 701.239 245.196C701.072 245.236 700.896 245.275 700.719 245.308L700.364 245.37C700.032 245.427 699.71 245.471 699.386 245.508L699.118 245.539C698.769 245.573 698.411 245.598 698.055 245.609C697.655 245.619 697.343 245.62 697.034 245.614L696.649 245.598C696.448 245.59 696.242 245.579 696.04 245.565L695.626 245.523C695.433 245.505 695.242 245.485 695.05 245.46L694.653 245.398C694.449 245.365 694.248 245.331 694.049 245.292L693.673 245.212C693.444 245.161 693.22 245.106 692.997 245.045L692.663 244.953C692.275 244.839 691.896 244.713 691.534 244.57C691.365 244.506 691.2 244.432 691.034 244.357L690.75 244.233C690.486 244.107 690.234 243.975 689.993 243.836C689.483 243.542 689.019 243.215 688.615 242.864L673.97 230.193C673.778 230.025 673.597 229.853 673.433 229.677L673.402 240.652C673.4 241.597 673.902 242.533 674.856 243.358L689.499 256.03C689.837 256.322 690.227 256.597 690.658 256.847C690.868 256.967 691.086 257.081 691.312 257.189L691.651 257.337C691.761 257.387 691.87 257.436 691.985 257.481C692.336 257.618 692.675 257.728 693.021 257.831L693.331 257.918C693.525 257.97 693.731 258.02 693.938 258.067L694.065 258.098L693.992 258.806L694.182 258.123C694.464 258.176 694.648 258.206 694.832 258.237L695.198 258.291C695.373 258.316 695.552 258.334 695.73 258.352L696.029 258.386C696.292 258.404 696.48 258.412 696.669 258.42L696.979 258.436C697.312 258.441 697.597 258.44 697.884 258.432C698.294 258.42 698.622 258.396 698.949 258.365ZM697.386 259.852C697.251 259.852 697.121 259.851 696.992 259.848L696.612 259.832C696.408 259.824 696.2 259.814 695.995 259.798L695.584 259.757C695.393 259.739 695.2 259.719 695.006 259.693L694.706 259.649C694.408 259.599 694.209 259.566 694.009 259.526L693.713 259.465C693.405 259.395 693.18 259.34 692.956 259.28L692.633 259.191C692.235 259.073 691.857 258.948 691.493 258.806C691.332 258.742 691.201 258.684 691.071 258.625L690.71 258.467C690.446 258.341 690.193 258.209 689.952 258.07C689.443 257.776 688.981 257.449 688.575 257.098L673.93 244.428C672.656 243.324 671.986 242.017 671.989 240.648L672.029 226.414L673.443 226.417V226.419C673.44 227.365 673.943 228.301 674.896 229.125L689.539 241.797C689.878 242.089 690.267 242.363 690.698 242.612C690.908 242.734 691.127 242.848 691.352 242.956L691.59 243.059C691.757 243.133 691.899 243.198 692.048 243.255C692.376 243.385 692.715 243.495 693.061 243.598L693.364 243.681C693.567 243.736 693.772 243.787 693.979 243.833L694.324 243.908C694.503 243.943 694.687 243.973 694.873 244.002L695.239 244.059C695.411 244.082 695.589 244.101 695.767 244.119L696.149 244.157C696.33 244.17 696.518 244.178 696.707 244.186L697.067 244.203C697.348 244.209 697.638 244.205 697.925 244.199C698.332 244.186 698.66 244.164 698.986 244.132L699.136 244.115C699.528 244.071 699.822 244.029 700.112 243.981L700.451 243.92C700.612 243.89 700.77 243.856 700.926 243.819C701.065 243.788 701.195 243.759 701.324 243.725C701.479 243.684 701.633 243.638 701.786 243.592C701.95 243.545 702.052 243.514 702.153 243.481C702.347 243.416 702.537 243.344 702.727 243.271L702.997 243.166C703.268 243.053 703.533 242.931 703.788 242.798L720.729 233.94C720.941 233.829 721.133 233.712 721.32 233.595L721.588 233.416C721.722 233.323 721.832 233.246 721.932 233.166L722.185 232.959L722.422 232.741C722.557 232.614 722.678 232.482 722.789 232.348L722.92 232.198L723.113 231.909L723.195 231.786C723.27 231.661 723.292 231.611 723.312 231.563L723.4 231.371L723.46 231.239L723.519 231.032C723.556 230.903 723.576 230.842 723.586 230.779L723.601 230.656L723.621 230.47L723.637 230.287V230.281L725.051 230.283V230.289L725.008 244.632L724.986 244.87L724.265 244.947L724.969 245.012L724.935 245.275C724.912 245.405 724.886 245.491 724.859 245.577L724.134 245.545L724.816 245.722L724.746 245.959C724.706 246.073 724.67 246.147 724.633 246.222L723.917 246.085L724.564 246.369L724.439 246.627L724.309 246.836C724.184 247.029 724.099 247.161 724.001 247.292C723.922 247.395 723.886 247.435 723.849 247.472C723.69 247.658 723.535 247.827 723.363 247.994L723.275 248.089L723.116 248.222C722.969 248.345 722.871 248.429 722.764 248.514C722.636 248.611 722.508 248.702 722.38 248.792C722.267 248.87 722.15 248.949 722.027 249.027L721.879 249.124C721.711 249.224 721.531 249.326 721.342 249.425L704.401 258.284C704.114 258.435 703.813 258.572 703.505 258.703L703.199 258.82C702.986 258.904 702.776 258.983 702.562 259.054L702.146 259.182C701.926 259.247 701.782 259.289 701.634 259.327C701.514 259.359 701.387 259.387 701.258 259.418C701.028 259.469 700.855 259.509 700.678 259.542L700.36 259.602C699.99 259.661 699.667 259.705 699.344 259.743L699.156 259.767C698.727 259.806 698.371 259.832 698.016 259.843C697.782 259.85 697.578 259.852 697.386 259.852Z" fill="url(#paint4_linear)"/>
<path fill-rule="evenodd" clip-rule="evenodd" d="M694.017 215.444C691.724 215.444 689.436 215.914 687.645 216.85L676.35 222.757C674.634 223.657 673.608 224.848 673.46 226.116C673.339 227.166 673.834 228.205 674.896 229.124L689.539 241.796C689.878 242.088 690.267 242.362 690.699 242.612C694.28 244.682 700.03 244.762 703.788 242.798L720.729 233.939C722.549 232.984 723.61 231.668 723.637 230.327C723.664 229.015 722.746 227.752 721.053 226.774C720.844 226.654 720.623 226.539 720.391 226.427L700.11 216.707C698.348 215.864 696.181 215.444 694.017 215.444ZM697.418 245.615C694.728 245.615 692.04 245.019 689.992 243.836C689.483 243.542 689.02 243.215 688.615 242.864L673.971 230.193C672.561 228.972 671.881 227.466 672.057 225.954C672.26 224.207 673.551 222.628 675.695 221.505L686.991 215.599C690.89 213.56 696.666 213.49 700.72 215.432L721.003 225.153C721.27 225.282 721.521 225.414 721.758 225.55H721.76C723.919 226.798 725.087 228.504 725.049 230.357C725.01 232.256 723.709 233.972 721.384 235.19L704.442 244.051C702.441 245.096 699.929 245.615 697.418 245.615Z" fill="#02B0A4"/>
<path fill-rule="evenodd" clip-rule="evenodd" d="M664.154 253.629L664.14 253.823C664.133 253.951 664.119 254.077 664.096 254.204L664.061 254.378C664.033 254.5 663.998 254.623 663.955 254.742L663.904 254.895C663.837 255.068 663.758 255.24 663.664 255.409L663.628 255.465C663.532 255.632 663.42 255.795 663.297 255.957L663.197 256.084C663.035 256.284 662.855 256.48 662.654 256.668L662.527 256.782C662.398 256.897 662.263 257.01 662.119 257.118L661.948 257.248C661.77 257.376 661.584 257.502 661.387 257.622L661.329 257.658C661.027 257.839 660.696 258.007 660.35 258.165L660.224 258.224C659.887 258.373 659.529 258.508 659.155 258.633L658.934 258.706C658.755 258.762 658.57 258.814 658.381 258.864L658.12 258.936C657.841 259.005 657.555 259.069 657.26 259.125L635.543 263.215C635.117 263.295 634.688 263.354 634.261 263.4L634.129 263.417C633.7 263.46 633.273 263.482 632.847 263.492C632.776 263.494 632.705 263.494 632.635 263.494C632.593 263.494 632.553 263.494 632.512 263.495C632.189 263.496 631.868 263.488 631.55 263.471C631.444 263.465 631.338 263.462 631.231 263.455C630.828 263.426 630.428 263.385 630.037 263.329L629.855 263.297C629.525 263.246 629.2 263.184 628.882 263.114C628.733 263.081 628.589 263.043 628.444 263.006C628.218 262.949 627.998 262.888 627.782 262.82C627.56 262.754 627.345 262.679 627.132 262.603C626.925 262.526 626.716 262.452 626.517 262.367L626.259 262.256C625.943 262.111 625.635 261.96 625.348 261.795C623.935 260.98 622.923 259.91 622.552 258.671L618.052 243.668C617.952 243.331 617.904 242.994 617.905 242.661L617.863 256.895C617.863 257.228 617.912 257.565 618.012 257.902L622.511 272.905C622.882 274.144 623.896 275.214 625.309 276.029C625.594 276.194 625.901 276.345 626.219 276.488L626.477 276.602L626.759 276.724C626.865 276.766 626.982 276.797 627.092 276.837C627.305 276.913 627.518 276.987 627.74 277.054L627.988 277.138C628.123 277.177 628.267 277.205 628.404 277.24C628.55 277.276 628.693 277.315 628.842 277.347L629.047 277.398C629.298 277.45 629.558 277.491 629.815 277.531L629.997 277.563L630.039 277.571C630.357 277.615 630.68 277.651 631.004 277.679L631.193 277.689C631.298 277.695 631.402 277.699 631.508 277.705C631.664 277.713 631.817 277.726 631.974 277.731C632.14 277.734 632.307 277.728 632.474 277.728C632.515 277.727 632.558 277.727 632.601 277.727C632.669 277.727 632.738 277.727 632.805 277.726H632.984C633.349 277.713 633.715 277.689 634.082 277.652L634.09 277.651L634.21 277.635C634.599 277.593 634.989 277.542 635.378 277.471L635.502 277.449L657.219 273.359C657.514 273.303 657.8 273.238 658.079 273.17L658.344 273.096C658.53 273.047 658.715 272.995 658.893 272.94L659.014 272.905L659.114 272.866C659.489 272.742 659.847 272.607 660.185 272.458L660.31 272.398C660.657 272.242 660.986 272.072 661.288 271.892L661.297 271.888L661.346 271.855C661.543 271.734 661.729 271.61 661.908 271.482L662.078 271.353C662.221 271.244 662.357 271.131 662.486 271.016L662.583 270.936L662.613 270.902C662.815 270.714 662.995 270.517 663.156 270.317L663.207 270.264L663.256 270.189C663.379 270.029 663.491 269.865 663.588 269.699L663.618 269.655L663.624 269.642C663.718 269.473 663.796 269.302 663.865 269.128L663.885 269.082L663.916 268.976C663.957 268.855 663.994 268.734 664.021 268.612L664.048 268.519L664.057 268.437C664.079 268.311 664.093 268.184 664.1 268.057L664.112 267.95L664.114 267.863L664.154 253.629Z" fill="url(#paint5_linear)"/>
<path fill-rule="evenodd" clip-rule="evenodd" d="M649.464 235.864C650.22 236.299 650.865 236.811 651.364 237.39L663.098 251.035C665.823 254.206 663.062 258.031 657.259 259.126L635.543 263.215C631.8 263.921 627.916 263.277 625.348 261.796C623.935 260.98 622.923 259.91 622.552 258.671L618.051 243.668C617.203 240.828 620.072 238.063 624.789 237.177L639.275 234.447C642.939 233.757 646.855 234.357 649.464 235.864Z" fill="#D24566"/>
<path fill-rule="evenodd" clip-rule="evenodd" d="M538.054 81.3136L538.042 81.4783C538.037 81.617 538.02 81.7534 537.995 81.891L537.972 82.0195C537.938 82.1853 537.891 82.351 537.83 82.5145L537.801 82.5856C537.741 82.7367 537.67 82.8844 537.591 83.0321L537.528 83.146C537.426 83.3241 537.307 83.5001 537.175 83.6714L537.109 83.7526C536.942 83.9601 536.756 84.162 536.546 84.357L536.45 84.4427C536.31 84.5679 536.163 84.6897 536.006 84.8092L535.893 84.896C535.708 85.0313 535.511 85.1633 535.303 85.2896L535.196 85.3516C534.896 85.5297 534.575 85.6966 534.234 85.8522L534.109 85.9064C533.765 86.0563 533.403 86.1962 533.021 86.3224C532.887 86.3664 532.754 86.4115 532.614 86.4532L519.056 90.4641C518.554 90.613 518.039 90.7325 517.518 90.8272C517.046 90.914 516.569 90.9783 516.089 91.0223L515.805 91.0415C515.417 91.0708 515.029 91.0866 514.642 91.09C514.536 91.0911 514.429 91.0922 514.323 91.0911C513.873 91.0866 513.425 91.0663 512.983 91.0268L512.749 91.0009C512.36 90.9592 511.976 90.905 511.598 90.8385L511.306 90.7878C510.867 90.7021 510.438 90.6006 510.021 90.481C509.894 90.4438 509.776 90.3954 509.652 90.3559C509.332 90.2533 509.016 90.1484 508.716 90.0255L508.519 89.9409C508.137 89.7763 507.767 89.5993 507.425 89.4019C507.029 89.173 506.66 88.9216 506.326 88.6509L491.057 76.2304C490.107 75.4557 489.532 74.5987 489.305 73.7282C489.23 73.4384 489.192 73.1464 489.193 72.8555L489.153 87.0892C489.149 88.2518 489.748 89.4312 491.018 90.4653L506.286 102.885C506.619 103.155 506.988 103.407 507.384 103.636C507.728 103.833 508.098 104.01 508.48 104.175L508.675 104.259L508.826 104.326C509.078 104.424 509.346 104.505 509.612 104.59C509.736 104.63 509.853 104.678 509.981 104.715L510.035 104.732C510.379 104.831 510.733 104.917 511.094 104.992L511.265 105.022L511.557 105.072C511.733 105.103 511.908 105.139 512.087 105.165C512.292 105.194 512.501 105.212 512.71 105.235L512.941 105.259L513.061 105.273C513.387 105.3 513.714 105.318 514.044 105.326L514.283 105.325C514.39 105.326 514.496 105.324 514.601 105.324C514.755 105.323 514.91 105.327 515.064 105.321C515.297 105.314 515.531 105.292 515.764 105.275L516.048 105.256L516.163 105.248C516.593 105.205 517.02 105.147 517.443 105.07L517.477 105.061C517.999 104.966 518.513 104.846 519.014 104.698L532.575 100.687C532.689 100.653 532.801 100.618 532.913 100.582L532.982 100.556C533.364 100.43 533.726 100.29 534.069 100.14L534.193 100.085C534.536 99.9304 534.856 99.7635 535.156 99.5853L535.218 99.5538L535.264 99.5233C535.47 99.397 535.668 99.2651 535.854 99.1298L535.966 99.0429C536.122 98.9234 536.27 98.8016 536.41 98.6765L536.483 98.6167L536.507 98.5908C536.715 98.3957 536.901 98.1939 537.068 97.9853L537.111 97.9402L537.135 97.9052C537.268 97.7338 537.384 97.559 537.488 97.3797L537.518 97.3358L537.551 97.2658C537.631 97.1181 537.702 96.9693 537.759 96.8182L537.785 96.7652L537.791 96.7483C537.851 96.5848 537.897 96.419 537.933 96.2533L537.947 96.2036L537.956 96.1247C537.98 95.9871 537.995 95.8496 538.003 95.712L538.012 95.6342L538.013 95.5474L538.054 81.3136Z" fill="url(#paint6_linear)"/>
<path fill-rule="evenodd" clip-rule="evenodd" d="M526.608 62.7618C527.662 63.3708 528.502 64.1274 529.019 65.0069L537.516 79.4312C539.121 82.1544 537.032 85.1482 532.614 86.4528L519.056 90.4637C515.144 91.6206 510.454 91.1504 507.425 89.4015C507.029 89.1726 506.66 88.9211 506.326 88.6505L491.057 76.23C487.511 73.3422 489.201 69.3144 494.632 67.7075L514.969 61.6951C518.975 60.5112 523.643 61.0501 526.608 62.7618Z" fill="#D24566"/>
<path fill-rule="evenodd" clip-rule="evenodd" d="M467.384 128.447L467.618 128.458C467.793 128.47 467.965 128.479 468.139 128.486L468.304 129.202L468.321 128.496L468.512 128.495C468.701 128.497 468.891 128.496 469.083 128.493H469.205L469.325 129.198L469.337 128.489C469.688 128.473 469.95 128.454 470.212 128.431L470.43 129.124L470.341 128.424C470.754 128.38 471.115 128.327 471.472 128.266L471.778 128.21C471.959 128.174 472.137 128.136 472.315 128.095L472.64 128.016C472.822 127.968 473 127.917 473.176 127.864L473.452 127.78C473.788 127.669 474.122 127.541 474.442 127.401L474.571 127.344C474.959 127.164 475.267 127.01 475.554 126.837C475.751 126.72 475.927 126.606 476.094 126.486L485.653 119.622C485.854 119.476 486.036 119.324 486.209 119.17L486.337 119.047C486.502 118.89 486.65 118.732 486.781 118.571L486.845 118.5C486.977 118.32 487.062 118.188 487.141 118.052L487.217 117.906L487.35 117.619L487.405 117.467L487.485 117.192L487.521 117.072C487.537 116.937 487.546 116.841 487.553 116.745L487.566 116.626L487.598 105.591L487.356 105.832L487.196 105.986C486.985 106.174 486.763 106.358 486.517 106.535L476.958 113.4C476.755 113.545 476.541 113.684 476.32 113.817C475.992 114.013 475.638 114.194 475.271 114.362L475.049 114.462C474.687 114.62 474.314 114.763 473.925 114.891L473.723 114.953C473.434 115.04 473.236 115.098 473.035 115.15L472.679 115.237C472.484 115.282 472.286 115.325 472.087 115.363L471.752 115.425C471.364 115.492 470.969 115.549 470.57 115.59L470.436 115.6C470.097 115.63 469.81 115.649 469.524 115.662L469.152 115.672C468.946 115.675 468.739 115.676 468.529 115.674L468.129 115.664C467.941 115.658 467.75 115.647 467.559 115.634L467.155 115.603C466.965 115.586 466.772 115.564 466.581 115.539L466.198 115.489C465.965 115.455 465.734 115.413 465.503 115.369L465.229 115.319C464.887 115.247 464.554 115.165 464.224 115.072C463.956 114.998 463.693 114.918 463.432 114.828L440.783 107.064C440.454 106.951 440.147 106.826 439.849 106.697L439.564 106.573C439.25 106.429 438.946 106.277 438.667 106.115C437.917 105.682 437.282 105.184 436.776 104.639L436.744 115.609C436.741 116.892 437.684 118.174 439.332 119.126C439.576 119.266 439.841 119.396 440.115 119.524L440.685 119.771C440.853 119.837 441.022 119.9 441.199 119.96L463.853 127.725C464.071 127.8 464.29 127.869 464.514 127.934C464.864 128.029 465.168 128.104 465.476 128.168L465.732 128.215C465.942 128.256 466.153 128.294 466.365 128.326L466.718 128.371C466.894 128.394 467.069 128.414 467.245 128.43L467.327 129.15L467.384 128.447ZM468.706 129.909L468.491 129.908L468.286 129.909L468.156 129.902C467.899 129.891 467.711 129.88 467.52 129.867L467.115 129.836C466.924 129.818 466.733 129.797 466.541 129.772L466.262 129.742C465.926 129.689 465.696 129.647 465.468 129.603L465.23 129.561C464.847 129.48 464.512 129.398 464.184 129.305C463.879 129.221 463.634 129.144 463.393 129.062L440.742 121.297C440.547 121.231 440.356 121.16 440.17 121.086L439.914 120.978L439.523 120.807C439.208 120.661 438.906 120.51 438.626 120.349C436.527 119.137 435.327 117.408 435.332 115.604L435.372 101.37L436.786 101.375C436.782 102.659 437.725 103.94 439.374 104.892C439.615 105.031 439.88 105.163 440.155 105.29L440.31 105.357C440.674 105.514 440.947 105.626 441.241 105.727L463.893 113.491C464.127 113.572 464.364 113.644 464.604 113.712C464.904 113.795 465.21 113.87 465.519 113.935L465.66 113.961C465.98 114.022 466.192 114.06 466.405 114.092L466.658 114.124C466.934 114.159 467.109 114.18 467.283 114.195L467.613 114.221C467.831 114.236 468.005 114.246 468.179 114.252L468.549 114.261C468.739 114.264 468.932 114.262 469.122 114.259L469.464 114.25C469.728 114.238 469.991 114.22 470.252 114.197L470.498 114.887L470.427 114.184C470.794 114.146 471.154 114.094 471.512 114.032L471.817 113.976C472 113.94 472.179 113.902 472.358 113.861L472.682 113.782C472.862 113.735 473.04 113.684 473.217 113.629L473.484 113.548C473.829 113.434 474.163 113.307 474.483 113.167L474.613 113.11C474.998 112.931 475.307 112.777 475.594 112.604C475.782 112.492 475.963 112.374 476.134 112.251L485.693 105.388C485.894 105.242 486.078 105.089 486.251 104.934L486.332 104.858C486.541 104.658 486.688 104.5 486.82 104.339C486.988 104.129 487.091 103.976 487.18 103.822L487.603 103.982V103.908L487.258 103.672L487.392 103.386L487.448 103.228L487.527 102.958L487.562 102.797L487.594 102.511L487.607 102.51V102.339L489.021 102.341V102.343L488.98 116.7L488.964 116.836C488.954 116.984 488.939 117.133 488.911 117.283C488.892 117.42 488.877 117.471 488.86 117.521C488.828 117.652 488.791 117.786 488.745 117.92L488.704 118.054L488.654 118.168C488.604 118.289 488.538 118.427 488.467 118.567L488.394 118.714C488.242 118.971 488.105 119.177 487.947 119.38L487.853 119.49C487.71 119.669 487.522 119.871 487.313 120.068L487.216 120.17C486.944 120.407 486.724 120.591 486.477 120.769L476.918 127.633C476.72 127.775 476.514 127.911 476.3 128.04C475.95 128.248 475.598 128.427 475.231 128.595L475.009 128.695C474.647 128.853 474.273 128.996 473.887 129.124L473.667 129.193C473.392 129.274 473.197 129.331 472.995 129.383L472.635 129.47C472.442 129.515 472.246 129.557 472.046 129.596L471.713 129.657C471.322 129.725 470.928 129.782 470.527 129.823L470.384 129.834C470.055 129.864 469.771 129.883 469.484 129.895L469.195 129.905C469.004 129.908 468.848 129.909 468.706 129.909Z" fill="url(#paint7_linear)"/>
<path fill-rule="evenodd" clip-rule="evenodd" d="M460.389 86.0142C457.636 86.0142 454.9 86.6986 453.032 88.0427L438.703 98.3287C437.394 99.2714 436.731 100.373 436.788 101.515C436.85 102.766 437.769 103.966 439.374 104.891C439.925 105.211 440.553 105.491 441.241 105.727L463.893 113.491C467.942 114.882 473.207 114.349 476.134 112.251L485.693 105.388C486.962 104.475 487.642 103.359 487.607 102.246C487.569 101.06 486.736 99.8995 485.263 98.9771L467.127 87.6255C465.256 86.5453 462.816 86.0142 460.389 86.0142ZM468.786 115.685C466.961 115.685 465.117 115.406 463.434 114.828L440.784 107.063C440.01 106.799 439.297 106.479 438.667 106.115C436.633 104.94 435.465 103.333 435.378 101.587C435.295 99.9652 436.184 98.4012 437.878 97.1823L452.206 86.8952C456.185 84.0333 463.34 83.8078 467.834 86.4024C467.937 86.4622 468.038 86.5231 468.138 86.5851L486.013 97.7799C487.897 98.9594 488.965 100.529 489.019 102.201C489.071 103.799 488.182 105.338 486.516 106.536L476.958 113.4C474.876 114.892 471.859 115.685 468.786 115.685Z" fill="#02B0A4"/>
<path fill-rule="evenodd" clip-rule="evenodd" d="M457.702 133.292C457.702 133.524 457.674 133.759 457.623 133.993L457.581 134.141C457.527 134.349 457.464 134.557 457.369 134.765L453.472 143.294C453.41 143.43 453.333 143.562 453.255 143.694C453.173 143.832 453.082 143.966 452.984 144.097L452.878 144.244C452.716 144.449 452.531 144.644 452.332 144.832L452.139 145.003C452.031 145.098 451.921 145.192 451.803 145.282L451.565 145.457C451.444 145.543 451.317 145.627 451.189 145.709L450.961 145.85C450.658 146.028 450.337 146.196 449.998 146.351L449.814 146.43C449.456 146.586 449.084 146.733 448.69 146.859L448.63 146.877C448.371 146.96 448.105 147.035 447.832 147.105L447.536 147.173C447.337 147.219 447.135 147.264 446.931 147.302L446.635 147.354C446.315 147.407 445.989 147.454 445.658 147.49L445.455 147.513C445.125 147.546 444.79 147.569 444.451 147.581L444.189 147.584C443.954 147.589 443.718 147.592 443.48 147.588C443.208 147.582 442.934 147.572 442.658 147.553L416.543 145.786C416.377 145.775 416.214 145.757 416.05 145.741C415.855 145.72 415.662 145.701 415.472 145.675C415.356 145.661 415.238 145.643 415.123 145.625C414.919 145.594 414.718 145.559 414.52 145.521C414.418 145.501 414.315 145.48 414.213 145.46C413.894 145.39 413.581 145.317 413.279 145.231L413.27 145.228C412.892 145.121 412.534 144.995 412.187 144.863L411.981 144.785C411.816 144.718 411.658 144.648 411.502 144.576L411.277 144.474C411.051 144.365 410.832 144.251 410.624 144.132C408.764 143.057 407.652 141.578 407.656 140.002L407.615 154.236C407.611 155.811 408.723 157.291 410.584 158.365C410.792 158.485 411.01 158.599 411.235 158.708L411.463 158.811C411.619 158.882 411.777 158.953 411.94 159.018L412.032 159.059L412.147 159.097C412.495 159.23 412.854 159.354 413.231 159.463L413.236 159.464H413.237C413.539 159.549 413.854 159.625 414.173 159.694L414.28 159.719L414.48 159.755C414.678 159.793 414.879 159.827 415.083 159.859L415.269 159.891L415.432 159.909C415.622 159.935 415.816 159.954 416.01 159.973L416.253 160L416.504 160.02L442.617 161.787C442.863 161.803 443.108 161.815 443.353 161.822L443.439 161.82C443.68 161.826 443.918 161.823 444.156 161.817L444.379 161.816L444.41 161.815C444.749 161.802 445.085 161.78 445.417 161.747L445.475 161.743L445.615 161.725C445.948 161.688 446.275 161.642 446.596 161.587L446.757 161.564L446.889 161.536C447.094 161.498 447.296 161.454 447.497 161.407L447.791 161.339C448.064 161.269 448.33 161.193 448.59 161.111L448.646 161.095L448.649 161.093C449.043 160.967 449.416 160.82 449.775 160.663L449.957 160.585C450.297 160.43 450.617 160.263 450.92 160.084L451.004 160.04L451.148 159.943C451.278 159.862 451.404 159.777 451.525 159.69L451.763 159.516C451.88 159.425 451.99 159.332 452.099 159.238L452.243 159.118L452.293 159.065C452.491 158.876 452.674 158.681 452.837 158.478L452.862 158.45L452.944 158.33C453.041 158.199 453.134 158.065 453.215 157.929L453.269 157.848C453.328 157.743 453.382 157.636 453.433 157.526L457.329 149L457.433 148.747C457.481 148.623 457.508 148.499 457.541 148.375L457.583 148.227L457.596 148.183C457.634 147.993 457.656 147.802 457.661 147.613L457.662 147.526L457.702 133.292Z" fill="url(#paint8_linear)"/>
<path fill-rule="evenodd" clip-rule="evenodd" d="M454.742 129.159C457.218 130.589 458.306 132.712 457.369 134.765L453.472 143.295C452.201 146.076 447.599 147.887 442.657 147.554L416.543 145.787C414.2 145.628 412.159 145.018 410.624 144.132C408.187 142.725 407.034 140.622 407.992 138.523L413.834 125.734C415.402 122.318 421.837 120.509 427.456 121.911L451.624 127.937C452.818 128.235 453.867 128.654 454.742 129.159Z" fill="#D24566"/>
<path fill-rule="evenodd" clip-rule="evenodd" d="M606.436 186.252C606.773 186.076 607.105 185.894 607.431 185.706C607.669 185.569 607.901 185.43 608.129 185.288C607.901 185.43 607.669 185.569 607.431 185.706C607.105 185.894 606.773 186.076 606.436 186.252Z" fill="#79C9E6"/>
<path fill-rule="evenodd" clip-rule="evenodd" d="M568.375 184.673C568.058 184.453 567.754 184.23 567.461 184.003L567.462 184.002C567.754 184.23 568.058 184.453 568.375 184.673ZM565.759 182.505C565.486 182.231 565.23 181.954 564.99 181.672L564.995 181.668C565.234 181.95 565.49 182.228 565.763 182.502L565.759 182.505ZM563.668 179.833C563.472 179.501 563.298 179.167 563.143 178.831L563.157 178.824C563.31 179.161 563.484 179.496 563.678 179.827L563.668 179.833ZM562.436 176.68C562.362 176.306 562.31 175.931 562.283 175.557L562.305 175.555C562.332 175.929 562.383 176.303 562.457 176.676L562.436 176.68Z" fill="#79C9E6"/>
<path fill-rule="evenodd" clip-rule="evenodd" d="M614.346 178.719C614.487 178.402 614.61 178.083 614.715 177.761H614.716C614.61 178.083 614.487 178.402 614.346 178.719ZM615.157 175.544H615.156C615.172 175.329 615.18 175.116 615.18 174.903V174.798C615.182 175.046 615.175 175.296 615.157 175.544Z" fill="#79C9E6"/>
<path fill-rule="evenodd" clip-rule="evenodd" d="M587.755 190.171C587.377 190.163 587 190.15 586.622 190.133L586.65 189.567C587.022 189.585 587.396 189.597 587.768 189.604L587.755 190.171ZM590.022 190.162L590.006 189.596C590.379 189.585 590.753 189.57 591.127 189.551L591.156 190.116C590.778 190.136 590.401 190.152 590.022 190.162ZM584.359 189.973C583.981 189.937 583.606 189.896 583.231 189.85L583.3 189.287C583.67 189.332 584.041 189.373 584.412 189.409L584.359 189.973ZM593.417 189.94L593.36 189.375C593.73 189.336 594.1 189.294 594.47 189.245L594.543 189.808C594.169 189.856 593.794 189.9 593.417 189.94ZM580.986 189.518C580.612 189.452 580.24 189.381 579.871 189.306L579.984 188.751C580.348 188.824 580.716 188.895 581.084 188.96L580.986 189.518ZM596.785 189.457L596.681 188.9C597.051 188.831 597.417 188.758 597.781 188.681L597.898 189.236C597.529 189.315 597.158 189.388 596.785 189.457ZM577.662 188.788C577.294 188.691 576.931 188.588 576.57 188.48L576.732 187.939C577.087 188.045 577.447 188.145 577.807 188.24L577.662 188.788ZM600.101 188.7L599.951 188.153C600.312 188.055 600.669 187.951 601.023 187.842L601.19 188.383C600.83 188.494 600.467 188.6 600.101 188.7ZM574.419 187.762C574.064 187.63 573.711 187.491 573.364 187.348L573.512 186.99L573.581 186.825C573.639 186.848 573.695 186.872 573.753 186.895C574.031 187.008 574.313 187.118 574.598 187.224C574.604 187.226 574.611 187.228 574.616 187.231L574.419 187.762ZM603.333 187.643L603.131 187.114C603.48 186.981 603.823 186.842 604.162 186.697L604.384 187.219C604.039 187.365 603.687 187.508 603.333 187.643ZM571.301 186.406C570.962 186.233 570.627 186.056 570.3 185.872L570.577 185.377C570.899 185.558 571.225 185.731 571.557 185.899L571.301 186.406ZM606.436 186.252L606.174 185.749C606.504 185.578 606.828 185.401 607.147 185.216C607.381 185.082 607.608 184.945 607.829 184.808L608.129 185.288C607.901 185.43 607.669 185.569 607.431 185.707C607.105 185.895 606.774 186.076 606.436 186.252ZM568.375 184.674C568.058 184.454 567.754 184.231 567.462 184.003L567.81 183.556C568.093 183.777 568.39 183.995 568.698 184.207L568.375 184.674ZM609.99 183.995L609.642 183.546C609.937 183.317 610.219 183.083 610.489 182.847L610.864 183.272C610.586 183.516 610.295 183.758 609.99 183.995ZM565.762 182.503C565.49 182.229 565.234 181.951 564.995 181.669L565.421 181.303C565.653 181.573 565.899 181.842 566.163 182.106L565.762 182.503ZM612.459 181.663L612.027 181.294C612.268 181.012 612.491 180.727 612.698 180.439L613.159 180.771C612.943 181.072 612.709 181.369 612.459 181.663ZM563.678 179.827C563.484 179.496 563.31 179.161 563.157 178.824L563.657 178.593C563.697 178.678 563.737 178.764 563.78 178.85C563.882 179.055 563.991 179.26 564.108 179.463C564.124 179.491 564.14 179.519 564.157 179.546L564.001 179.637L563.678 179.827ZM614.302 178.817L613.787 178.581C613.937 178.252 614.067 177.919 614.177 177.585L614.715 177.761C614.61 178.082 614.487 178.402 614.346 178.718C614.332 178.751 614.317 178.784 614.302 178.817ZM562.457 176.676C562.383 176.304 562.332 175.93 562.305 175.556L562.849 175.515C562.875 175.868 562.923 176.219 562.993 176.569L562.457 176.676ZM615.156 175.544L614.591 175.503C614.606 175.304 614.614 175.104 614.614 174.903C614.612 174.752 614.608 174.597 614.6 174.441L615.166 174.41C615.173 174.54 615.177 174.669 615.18 174.798V174.903C615.18 175.116 615.172 175.329 615.156 175.544ZM562.963 173.401L562.888 173.388L562.403 173.299C562.471 172.931 562.56 172.565 562.674 172.199L563.113 172.334L563.216 172.365C563.202 172.411 563.188 172.456 563.175 172.502C563.088 172.801 563.017 173.1 562.963 173.401ZM614.218 172.353C614.114 172.018 613.989 171.685 613.842 171.353L614.361 171.125C614.517 171.475 614.649 171.829 614.76 172.185L614.333 172.316L614.218 172.353ZM564.074 170.405L563.581 170.124C563.763 169.803 563.966 169.484 564.187 169.168L564.652 169.494C564.442 169.794 564.249 170.098 564.074 170.405ZM612.778 169.483C612.574 169.192 612.354 168.905 612.117 168.621L612.552 168.257C612.801 168.554 613.031 168.854 613.244 169.157L612.778 169.483ZM566.043 167.822L565.636 167.427C565.895 167.162 566.167 166.9 566.455 166.642L566.834 167.066C566.555 167.314 566.293 167.566 566.043 167.822ZM610.591 167.054C610.326 166.815 610.046 166.578 609.752 166.347L610.104 165.903C610.406 166.142 610.696 166.385 610.973 166.632L610.591 167.054ZM568.559 165.697L568.487 165.596L568.269 165.287L568.232 165.234C568.534 165.02 568.849 164.811 569.175 164.604L569.222 164.679L569.478 165.082C569.43 165.114 569.381 165.145 569.333 165.176C569.129 165.307 568.929 165.44 568.735 165.575C568.675 165.616 568.617 165.656 568.559 165.697ZM607.95 165.077C607.885 165.037 607.821 164.997 607.757 164.957C607.712 164.93 607.668 164.903 607.622 164.875C607.47 164.782 607.315 164.691 607.157 164.6C607.153 164.597 607.149 164.595 607.146 164.593L607 164.508L607.279 164.016C607.328 164.044 607.379 164.073 607.43 164.101C607.712 164.265 607.986 164.429 608.252 164.599L608.19 164.697L608.054 164.911L607.95 165.077Z" fill="#02B0A4"/>
<path fill-rule="evenodd" clip-rule="evenodd" d="M588.718 137.344C581.996 137.344 575.277 138.82 570.16 141.775C565.26 144.604 562.563 148.346 562.563 152.313C562.563 156.281 565.262 160.023 570.161 162.852C580.395 168.761 597.044 168.762 607.278 162.852C612.178 160.024 614.875 156.283 614.875 152.314C614.875 148.348 612.177 144.604 607.277 141.775C602.16 138.822 595.439 137.344 588.718 137.344ZM588.719 167.884C581.888 167.884 575.057 166.382 569.857 163.381C564.76 160.438 561.953 156.508 561.953 152.313C561.953 148.118 564.76 144.19 569.855 141.247C580.256 135.242 597.181 135.241 607.58 141.248C612.677 144.19 615.484 148.12 615.484 152.314C615.484 156.509 612.678 160.438 607.582 163.381C602.382 166.382 595.55 167.884 588.719 167.884Z" fill="#02B0A4"/>
<path fill-rule="evenodd" clip-rule="evenodd" d="M564.645 147.983C564.645 148.706 564.061 149.29 563.338 149.29C562.615 149.29 562.03 148.706 562.03 147.983C562.03 147.261 562.615 146.675 563.338 146.675C564.061 146.675 564.645 147.261 564.645 147.983Z" fill="#02B0A4"/>
<path fill-rule="evenodd" clip-rule="evenodd" d="M605.576 140.009C605.576 140.732 604.992 141.317 604.269 141.317C603.546 141.317 602.961 140.732 602.961 140.009C602.961 139.287 603.546 138.702 604.269 138.702C604.992 138.702 605.576 139.287 605.576 140.009Z" fill="#02B0A4"/>
<path fill-rule="evenodd" clip-rule="evenodd" d="M592.041 121.759C592.041 122.481 591.456 123.066 590.734 123.066C590.011 123.066 589.426 122.481 589.426 121.759C589.426 121.036 590.011 120.451 590.734 120.451C591.456 120.451 592.041 121.036 592.041 121.759Z" fill="#02B0A4"/>
<path fill-rule="evenodd" clip-rule="evenodd" d="M571.475 110.892C571.475 111.614 570.888 112.2 570.167 112.2C569.445 112.2 568.86 111.614 568.86 110.892C568.86 110.17 569.445 109.585 570.167 109.585C570.888 109.585 571.475 110.17 571.475 110.892Z" fill="#02B0A4"/>
<path fill-rule="evenodd" clip-rule="evenodd" d="M602.604 108.506C602.604 109.227 602.02 109.813 601.297 109.813C600.575 109.813 599.989 109.227 599.989 108.506C599.989 107.783 600.575 107.198 601.297 107.198C602.02 107.198 602.604 107.783 602.604 108.506Z" fill="#02B0A4"/>
<path fill-rule="evenodd" clip-rule="evenodd" d="M613.676 99.6689C613.676 100.392 613.089 100.977 612.368 100.977C611.645 100.977 611.06 100.392 611.06 99.6689C611.06 98.9472 611.645 98.3608 612.368 98.3608C613.089 98.3608 613.676 98.9472 613.676 99.6689Z" fill="#02B0A4"/>
<path fill-rule="evenodd" clip-rule="evenodd" d="M587.42 91.2048C587.42 91.9265 586.835 92.5129 586.112 92.5129C585.391 92.5129 584.804 91.9265 584.804 91.2048C584.804 90.4832 585.391 89.8979 586.112 89.8979C586.835 89.8979 587.42 90.4832 587.42 91.2048Z" fill="#02B0A4"/>
</g>
<defs>
<filter id="filter0_f" x="519.43" y="0.632965" width="353.701" height="353.701" filterUnits="userSpaceOnUse" color-interpolation-filters="sRGB">
<feFlood flood-opacity="0" result="BackgroundImageFix"/>
<feBlend mode="normal" in="SourceGraphic" in2="BackgroundImageFix" result="shape"/>
<feGaussianBlur stdDeviation="55.7248" result="effect1_foregroundBlur"/>
</filter>
<linearGradient id="paint0_linear" x1="408.757" y1="221.574" x2="160.852" y2="76.6984" gradientUnits="userSpaceOnUse">
<stop offset="0.380369" stop-color="white"/>
<stop offset="0.82349" stop-color="white" stop-opacity="0"/>
</linearGradient>
<linearGradient id="paint1_linear" x1="659.365" y1="82.0601" x2="659.365" y2="112.948" gradientUnits="userSpaceOnUse">
<stop stop-color="#7A0B77"/>
<stop offset="1" stop-color="#D74963"/>
</linearGradient>
<linearGradient id="paint2_linear" x1="703.073" y1="112.986" x2="703.073" y2="140.692" gradientUnits="userSpaceOnUse">
<stop stop-color="#7A0B77"/>
<stop offset="1" stop-color="#D74963"/>
</linearGradient>
<linearGradient id="paint3_linear" x1="724.601" y1="146.335" x2="724.601" y2="176.515" gradientUnits="userSpaceOnUse">
<stop stop-color="#02B0A4"/>
<stop offset="1" stop-color="#2284C7"/>
</linearGradient>
<linearGradient id="paint4_linear" x1="671.989" y1="226.414" x2="671.989" y2="259.852" gradientUnits="userSpaceOnUse">
<stop stop-color="#02B0A4"/>
<stop offset="1" stop-color="#2284C7"/>
</linearGradient>
<linearGradient id="paint5_linear" x1="617.863" y1="242.661" x2="617.863" y2="277.732" gradientUnits="userSpaceOnUse">
<stop stop-color="#7A0B77"/>
<stop offset="1" stop-color="#D74963"/>
</linearGradient>
<linearGradient id="paint6_linear" x1="489.153" y1="72.8555" x2="489.153" y2="105.326" gradientUnits="userSpaceOnUse">
<stop stop-color="#7A0B77"/>
<stop offset="1" stop-color="#D74963"/>
</linearGradient>
<linearGradient id="paint7_linear" x1="435.332" y1="101.37" x2="435.332" y2="129.909" gradientUnits="userSpaceOnUse">
<stop stop-color="#02B0A4"/>
<stop offset="1" stop-color="#2284C7"/>
</linearGradient>
<linearGradient id="paint8_linear" x1="407.615" y1="133.292" x2="407.615" y2="161.823" gradientUnits="userSpaceOnUse">
<stop stop-color="#7A0B77"/>
<stop offset="1" stop-color="#D74963"/>
</linearGradient>
</defs>
</svg>
