<svg width="170" height="113" viewBox="0 0 170 113" fill="none" xmlns="http://www.w3.org/2000/svg">
<g style="mix-blend-mode:overlay" opacity="0.8" filter="url(#filter0_d)">
<path d="M2 108L10.7019 95.3228C11.8198 93.6942 14.1465 93.4912 15.5295 94.9016L18.9841 98.4245C20.5218 99.9927 23.1535 99.5365 24.0738 97.5423L30.4536 83.717C31.7348 80.9405 35.8259 81.4497 36.3874 84.4557L37.886 92.4789C38.5158 95.8506 43.3266 95.9046 44.032 92.5479V92.5479C44.5835 89.9233 47.963 89.1597 49.5894 91.2922L52.3189 94.871C53.9182 96.9679 57.2338 96.2765 57.8618 93.7152L62.7619 73.7269C63.5303 70.5925 67.9607 70.52 68.8313 73.6276L71.5414 83.3022C72.3901 86.3319 76.6728 86.3666 77.5706 83.3511L82.908 65.4233C83.7859 62.4744 87.9423 62.4192 88.8982 65.3438L95.2676 84.8299C96.204 87.6946 100.247 87.7205 101.22 84.868L120.272 29.0117C121.212 26.2546 125.075 26.1553 126.156 28.8605L137.341 56.8577C138.367 59.4263 141.973 59.5073 143.113 56.9874L168 2" stroke="url(#paint0_linear)" stroke-width="3" stroke-linecap="round"/>
</g>
<defs>
<filter id="filter0_d" x="0.499756" y="0.499512" width="169.001" height="112.138" filterUnits="userSpaceOnUse" color-interpolation-filters="sRGB">
<feFlood flood-opacity="0" result="BackgroundImageFix"/>
<feColorMatrix in="SourceAlpha" type="matrix" values="0 0 0 0 0 0 0 0 0 0 0 0 0 0 0 0 0 0 127 0" result="hardAlpha"/>
<feOffset dy="3.13796"/>
<feColorMatrix type="matrix" values="0 0 0 0 0 0 0 0 0 0 0 0 0 0 0 0 0 0 0.1 0"/>
<feBlend mode="normal" in2="BackgroundImageFix" result="effect1_dropShadow"/>
<feBlend mode="normal" in="SourceGraphic" in2="effect1_dropShadow" result="shape"/>
</filter>
<linearGradient id="paint0_linear" x1="254.879" y1="50.3515" x2="12.4353" y2="41.8694" gradientUnits="userSpaceOnUse">
<stop stop-color="white"/>
<stop offset="1" stop-color="white" stop-opacity="0"/>
</linearGradient>
</defs>
</svg>
