<svg width="168" height="28" viewBox="0 0 168 28" fill="none" xmlns="http://www.w3.org/2000/svg">
<mask id="mask0" style="mask-type:alpha" maskUnits="userSpaceOnUse" x="0" y="13" width="167" height="15">
<rect y="13" width="167" height="15" fill="#C4C4C4"/>
</mask>
<g mask="url(#mask0)">
<path d="M20.0745 22L25.7995 4.5H30.0495L29.5745 22H26.2745L26.4495 19.2H24.1745L23.3745 22H20.0745ZM24.9745 16.4H26.6495L27.1245 8.9L24.9745 16.4ZM35.7728 22L38.8478 4.5H44.5728C45.3894 4.5 45.9894 4.74167 46.3728 5.225C46.7728 5.69167 46.8978 6.34167 46.7478 7.175L45.6228 13.475C45.3561 15.0917 44.4061 15.9 42.7728 15.9H40.1478L39.0728 22H35.7728ZM40.6478 13.1H41.9978C42.2644 13.1 42.4228 12.9583 42.4728 12.675L43.3728 7.675C43.4228 7.425 43.3228 7.3 43.0728 7.3H41.6478L40.6478 13.1ZM50.8431 22L53.9181 4.5H59.6431C60.4597 4.5 61.0597 4.74167 61.4431 5.225C61.8431 5.69167 61.9681 6.34167 61.8181 7.175L60.6931 13.475C60.4264 15.0917 59.4764 15.9 57.8431 15.9H55.2181L54.1431 22H50.8431ZM55.7181 13.1H57.0681C57.3347 13.1 57.4931 12.9583 57.5431 12.675L58.4431 7.675C58.4931 7.425 58.3931 7.3 58.1431 7.3H56.7181L55.7181 13.1ZM65.9134 22L68.9884 4.5H72.2884L69.7134 19.2H73.1134L72.6384 22H65.9134ZM80.1134 4.5H83.4384L83.4884 12L86.2384 4.5H89.6134L84.3884 16.55L83.4134 22H80.1134L81.0884 16.55L80.1134 4.5ZM101.188 22L104.263 4.5H107.563L108.563 10.85L109.713 4.5H113.013L109.938 22H106.638L107.463 17.45L106.438 11.1L104.488 22H101.188ZM119.443 22.1C118.627 22.1 118.018 21.8667 117.618 21.4C117.235 20.9167 117.118 20.2583 117.268 19.425L119.493 6.825C119.76 5.20833 120.718 4.4 122.368 4.4H125.693C126.51 4.4 127.11 4.64167 127.493 5.125C127.893 5.59167 128.018 6.24167 127.868 7.075L125.643 19.675C125.343 21.2917 124.385 22.1 122.768 22.1H119.443ZM120.968 19.3H122.018C122.268 19.3 122.427 19.1583 122.493 18.875L124.468 7.575C124.518 7.325 124.418 7.2 124.168 7.2H123.118C122.868 7.2 122.71 7.34167 122.643 7.625L120.668 18.925C120.618 19.175 120.718 19.3 120.968 19.3ZM134.487 4.5H137.762L136.987 16.225L140.262 4.5H143.562L142.687 16.225L146.062 4.5H149.387L144.012 22H139.962L140.587 12.2L137.762 22H133.712L134.487 4.5Z" fill="url(#paint0_linear)"/>
</g>
<mask id="mask1" style="mask-type:alpha" maskUnits="userSpaceOnUse" x="1" y="0" width="167" height="13">
<rect width="167" height="13" transform="matrix(1 0 0 -1 1 13)" fill="#C4C4C4"/>
</mask>
<g mask="url(#mask1)">
<path d="M21.0745 22L26.7995 4.5H31.0495L30.5745 22H27.2745L27.4495 19.2H25.1745L24.3745 22H21.0745ZM25.9745 16.4H27.6495L28.1245 8.9L25.9745 16.4ZM36.7728 22L39.8478 4.5H45.5728C46.3894 4.5 46.9894 4.74167 47.3728 5.225C47.7728 5.69167 47.8978 6.34167 47.7478 7.175L46.6228 13.475C46.3561 15.0917 45.4061 15.9 43.7728 15.9H41.1478L40.0728 22H36.7728ZM41.6478 13.1H42.9978C43.2644 13.1 43.4228 12.9583 43.4728 12.675L44.3728 7.675C44.4228 7.425 44.3228 7.3 44.0728 7.3H42.6478L41.6478 13.1ZM51.8431 22L54.9181 4.5H60.6431C61.4597 4.5 62.0597 4.74167 62.4431 5.225C62.8431 5.69167 62.9681 6.34167 62.8181 7.175L61.6931 13.475C61.4264 15.0917 60.4764 15.9 58.8431 15.9H56.2181L55.1431 22H51.8431ZM56.7181 13.1H58.0681C58.3347 13.1 58.4931 12.9583 58.5431 12.675L59.4431 7.675C59.4931 7.425 59.3931 7.3 59.1431 7.3H57.7181L56.7181 13.1ZM66.9134 22L69.9884 4.5H73.2884L70.7134 19.2H74.1134L73.6384 22H66.9134ZM81.1134 4.5H84.4384L84.4884 12L87.2384 4.5H90.6134L85.3884 16.55L84.4134 22H81.1134L82.0884 16.55L81.1134 4.5ZM102.188 22L105.263 4.5H108.563L109.563 10.85L110.713 4.5H114.013L110.938 22H107.638L108.463 17.45L107.438 11.1L105.488 22H102.188ZM120.443 22.1C119.627 22.1 119.018 21.8667 118.618 21.4C118.235 20.9167 118.118 20.2583 118.268 19.425L120.493 6.825C120.76 5.20833 121.718 4.4 123.368 4.4H126.693C127.51 4.4 128.11 4.64167 128.493 5.125C128.893 5.59167 129.018 6.24167 128.868 7.075L126.643 19.675C126.343 21.2917 125.385 22.1 123.768 22.1H120.443ZM121.968 19.3H123.018C123.268 19.3 123.427 19.1583 123.493 18.875L125.468 7.575C125.518 7.325 125.418 7.2 125.168 7.2H124.118C123.868 7.2 123.71 7.34167 123.643 7.625L121.668 18.925C121.618 19.175 121.718 19.3 121.968 19.3ZM135.487 4.5H138.762L137.987 16.225L141.262 4.5H144.562L143.687 16.225L147.062 4.5H150.387L145.012 22H140.962L141.587 12.2L138.762 22H134.712L135.487 4.5Z" fill="url(#paint1_linear)"/>
</g>
<defs>
<linearGradient id="paint0_linear" x1="21" y1="-8.97619" x2="19.5278" y2="37.4977" gradientUnits="userSpaceOnUse">
<stop stop-color="#00BCB0"/>
<stop offset="1" stop-color="#F7D542"/>
</linearGradient>
<linearGradient id="paint1_linear" x1="22" y1="-8.97619" x2="20.5278" y2="37.4977" gradientUnits="userSpaceOnUse">
<stop stop-color="#00BCB0"/>
<stop offset="1" stop-color="#F7D542"/>
</linearGradient>
</defs>
</svg>
