<svg width="149" height="28" viewBox="0 0 149 28" fill="none" xmlns="http://www.w3.org/2000/svg">
<mask id="mask0_319_5469" style="mask-type:alpha" maskUnits="userSpaceOnUse" x="0" y="13" width="149" height="15">
<rect y="13" width="149" height="15" fill="#C4C4C4"/>
</mask>
<g mask="url(#mask0_319_5469)">
<path d="M9.92461 22L12.9996 4.5H18.6996C19.5163 4.5 20.1163 4.74167 20.4996 5.225C20.8996 5.69167 21.0246 6.34167 20.8746 7.175L20.2246 10.925C20.1246 11.4917 19.9413 11.95 19.6746 12.3C19.4246 12.65 19.0413 12.9167 18.5246 13.1C19.3579 13.4333 19.6746 14.2083 19.4746 15.425L18.7496 19.575C18.4829 21.1917 17.5246 22 15.8746 22H9.92461ZM15.0496 11.65H16.4496C16.7163 11.65 16.8746 11.5083 16.9246 11.225L17.5496 7.675C17.5996 7.425 17.4996 7.3 17.2496 7.3H15.7996L15.0496 11.65ZM13.7496 19.2H15.1246C15.3913 19.2 15.5496 19.0583 15.5996 18.775L16.2996 14.825C16.3496 14.575 16.2496 14.45 15.9996 14.45H14.5496L13.7496 19.2ZM24.0658 22.125C23.2325 22.125 22.6158 21.8833 22.2158 21.4C21.8158 20.9167 21.6908 20.2583 21.8408 19.425L24.4658 4.5H27.7658L25.2158 18.95C25.1658 19.2 25.2658 19.325 25.5158 19.325H26.5408C26.8075 19.325 26.9658 19.1833 27.0158 18.9L29.5658 4.5H32.8658L30.1908 19.675C29.9242 21.3083 28.9575 22.125 27.2908 22.125H24.0658ZM35.3814 4.5H38.7064L38.7564 12L41.5064 4.5H44.8814L39.6564 16.55L38.6814 22H35.3814L36.3564 16.55L35.3814 4.5ZM51.5309 22.1C50.7142 22.1 50.1059 21.8667 49.7059 21.4C49.3225 20.9167 49.2059 20.2583 49.3559 19.425L51.5809 6.825C51.8475 5.20833 52.8059 4.4 54.4559 4.4H57.7809C58.5975 4.4 59.1975 4.64167 59.5809 5.125C59.9809 5.59167 60.1059 6.24167 59.9559 7.075L57.7309 19.675C57.4309 21.2917 56.4725 22.1 54.8559 22.1H51.5309ZM53.0559 19.3H54.1059C54.3559 19.3 54.5142 19.1583 54.5809 18.875L56.5559 7.575C56.6059 7.325 56.5059 7.2 56.2559 7.2H55.2059C54.9559 7.2 54.7975 7.34167 54.7309 7.625L52.7559 18.925C52.7059 19.175 52.8059 19.3 53.0559 19.3ZM60.4715 22L63.5465 4.5H66.8465L67.8465 10.85L68.9965 4.5H72.2965L69.2215 22H65.9215L66.7465 17.45L65.7215 11.1L63.7715 22H60.4715ZM79.6324 22.1C78.8158 22.1 78.2074 21.8667 77.8074 21.4C77.4241 20.9167 77.3074 20.2583 77.4574 19.425L79.6824 6.825C79.9491 5.20833 80.9074 4.4 82.5574 4.4H85.8574C86.6741 4.4 87.2741 4.64167 87.6574 5.125C88.0574 5.59167 88.1824 6.24167 88.0324 7.075L87.3324 11.1H84.0324L84.6574 7.575C84.7074 7.325 84.6074 7.2 84.3574 7.2H83.3074C83.0574 7.2 82.8991 7.34167 82.8324 7.625L80.8574 18.925C80.8074 19.175 80.9074 19.3 81.1574 19.3H82.5824L83.2824 15.35H82.2324L82.7074 12.55H87.0574L85.4074 22H82.4074L82.6574 20.85L81.4324 22.1H79.6324ZM87.7498 22L93.4748 4.5H97.7248L97.2498 22H93.9498L94.1248 19.2H91.8498L91.0498 22H87.7498ZM92.6498 16.4H94.3248L94.7998 8.9L92.6498 16.4ZM100.549 22L103.124 7.3H100.774L101.249 4.5H109.299L108.824 7.3H106.424L103.849 22H100.549ZM108.943 22L112.018 4.5H118.768L118.293 7.3H114.818L114.043 11.7H117.343L116.868 14.5H113.568L112.743 19.2H116.293L115.793 22H108.943ZM118.528 22L119.178 18.25H122.328L121.678 22H118.528ZM124.723 22L127.798 4.5H131.098L128.023 22H124.723ZM133.785 22.1C132.968 22.1 132.36 21.8667 131.96 21.4C131.576 20.9167 131.46 20.2583 131.61 19.425L133.835 6.825C134.101 5.20833 135.06 4.4 136.71 4.4H140.035C140.851 4.4 141.451 4.64167 141.835 5.125C142.235 5.59167 142.36 6.24167 142.21 7.075L139.985 19.675C139.685 21.2917 138.726 22.1 137.11 22.1H133.785ZM135.31 19.3H136.36C136.61 19.3 136.768 19.1583 136.835 18.875L138.81 7.575C138.86 7.325 138.76 7.2 138.51 7.2H137.46C137.21 7.2 137.051 7.34167 136.985 7.625L135.01 18.925C134.96 19.175 135.06 19.3 135.31 19.3Z" fill="url(#paint0_linear_319_5469)"/>
</g>
<mask id="mask1_319_5469" style="mask-type:alpha" maskUnits="userSpaceOnUse" x="4" y="0" width="145" height="13">
<rect width="145" height="13" transform="matrix(1 0 0 -1 4 13)" fill="#C4C4C4"/>
</mask>
<g mask="url(#mask1_319_5469)">
<path d="M11.4246 22L14.4996 4.5H20.1996C21.0163 4.5 21.6163 4.74167 21.9996 5.225C22.3996 5.69167 22.5246 6.34167 22.3746 7.175L21.7246 10.925C21.6246 11.4917 21.4413 11.95 21.1746 12.3C20.9246 12.65 20.5413 12.9167 20.0246 13.1C20.8579 13.4333 21.1746 14.2083 20.9746 15.425L20.2496 19.575C19.9829 21.1917 19.0246 22 17.3746 22H11.4246ZM16.5496 11.65H17.9496C18.2163 11.65 18.3746 11.5083 18.4246 11.225L19.0496 7.675C19.0996 7.425 18.9996 7.3 18.7496 7.3H17.2996L16.5496 11.65ZM15.2496 19.2H16.6246C16.8913 19.2 17.0496 19.0583 17.0996 18.775L17.7996 14.825C17.8496 14.575 17.7496 14.45 17.4996 14.45H16.0496L15.2496 19.2ZM25.5658 22.125C24.7325 22.125 24.1158 21.8833 23.7158 21.4C23.3158 20.9167 23.1908 20.2583 23.3408 19.425L25.9658 4.5H29.2658L26.7158 18.95C26.6658 19.2 26.7658 19.325 27.0158 19.325H28.0408C28.3075 19.325 28.4658 19.1833 28.5158 18.9L31.0658 4.5H34.3658L31.6908 19.675C31.4242 21.3083 30.4575 22.125 28.7908 22.125H25.5658ZM36.8814 4.5H40.2064L40.2564 12L43.0064 4.5H46.3814L41.1564 16.55L40.1814 22H36.8814L37.8564 16.55L36.8814 4.5ZM53.0309 22.1C52.2142 22.1 51.6059 21.8667 51.2059 21.4C50.8225 20.9167 50.7059 20.2583 50.8559 19.425L53.0809 6.825C53.3475 5.20833 54.3059 4.4 55.9559 4.4H59.2809C60.0975 4.4 60.6975 4.64167 61.0809 5.125C61.4809 5.59167 61.6059 6.24167 61.4559 7.075L59.2309 19.675C58.9309 21.2917 57.9725 22.1 56.3559 22.1H53.0309ZM54.5559 19.3H55.6059C55.8559 19.3 56.0142 19.1583 56.0809 18.875L58.0559 7.575C58.1059 7.325 58.0059 7.2 57.7559 7.2H56.7059C56.4559 7.2 56.2975 7.34167 56.2309 7.625L54.2559 18.925C54.2059 19.175 54.3059 19.3 54.5559 19.3ZM61.9715 22L65.0465 4.5H68.3465L69.3465 10.85L70.4965 4.5H73.7965L70.7215 22H67.4215L68.2465 17.45L67.2215 11.1L65.2715 22H61.9715ZM81.1324 22.1C80.3158 22.1 79.7074 21.8667 79.3074 21.4C78.9241 20.9167 78.8074 20.2583 78.9574 19.425L81.1824 6.825C81.4491 5.20833 82.4074 4.4 84.0574 4.4H87.3574C88.1741 4.4 88.7741 4.64167 89.1574 5.125C89.5574 5.59167 89.6824 6.24167 89.5324 7.075L88.8324 11.1H85.5324L86.1574 7.575C86.2074 7.325 86.1074 7.2 85.8574 7.2H84.8074C84.5574 7.2 84.3991 7.34167 84.3324 7.625L82.3574 18.925C82.3074 19.175 82.4074 19.3 82.6574 19.3H84.0824L84.7824 15.35H83.7324L84.2074 12.55H88.5574L86.9074 22H83.9074L84.1574 20.85L82.9324 22.1H81.1324ZM89.2498 22L94.9748 4.5H99.2248L98.7498 22H95.4498L95.6248 19.2H93.3498L92.5498 22H89.2498ZM94.1498 16.4H95.8248L96.2998 8.9L94.1498 16.4ZM102.049 22L104.624 7.3H102.274L102.749 4.5H110.799L110.324 7.3H107.924L105.349 22H102.049ZM110.443 22L113.518 4.5H120.268L119.793 7.3H116.318L115.543 11.7H118.843L118.368 14.5H115.068L114.243 19.2H117.793L117.293 22H110.443ZM120.028 22L120.678 18.25H123.828L123.178 22H120.028ZM126.223 22L129.298 4.5H132.598L129.523 22H126.223ZM135.285 22.1C134.468 22.1 133.86 21.8667 133.46 21.4C133.076 20.9167 132.96 20.2583 133.11 19.425L135.335 6.825C135.601 5.20833 136.56 4.4 138.21 4.4H141.535C142.351 4.4 142.951 4.64167 143.335 5.125C143.735 5.59167 143.86 6.24167 143.71 7.075L141.485 19.675C141.185 21.2917 140.226 22.1 138.61 22.1H135.285ZM136.81 19.3H137.86C138.11 19.3 138.268 19.1583 138.335 18.875L140.31 7.575C140.36 7.325 140.26 7.2 140.01 7.2H138.96C138.71 7.2 138.551 7.34167 138.485 7.625L136.51 18.925C136.46 19.175 136.56 19.3 136.81 19.3Z" fill="url(#paint1_linear_319_5469)"/>
</g>
<defs>
<linearGradient id="paint0_linear_319_5469" x1="-20" y1="-8.97619" x2="-20.9743" y2="37.5239" gradientUnits="userSpaceOnUse">
<stop stop-color="#00BCB0"/>
<stop offset="1" stop-color="#F7D542"/>
</linearGradient>
<linearGradient id="paint1_linear_319_5469" x1="-37" y1="-8.97619" x2="-37.817" y2="37.53" gradientUnits="userSpaceOnUse">
<stop stop-color="#00BCB0"/>
<stop offset="1" stop-color="#F7D542"/>
</linearGradient>
</defs>
</svg>
