<svg width="137" height="40" viewBox="0 0 137 40" fill="none" xmlns="http://www.w3.org/2000/svg">
<path d="M16.2785 20.1927L15.9408 19.8527C15.6851 19.5973 15.2458 19.7782 15.2458 20.1403V24.9956C15.2458 25.2198 15.4298 25.4022 15.6546 25.4022H20.511C20.8731 25.4022 21.0554 24.9637 20.7979 24.7086C20.6392 24.5499 20.6392 24.2928 20.7979 24.1344L25.9633 18.9531C26.1224 18.7953 26.1224 18.5382 25.9633 18.3788L25.4927 17.9099C25.237 17.6545 25.4192 17.2158 25.7803 17.2158H30.6338C30.8582 17.2158 31.0419 17.3981 31.0419 17.6225V22.4774C31.0419 22.8395 30.6018 23.0207 30.3455 22.765L30.0184 22.4379C29.8585 22.2747 29.6015 22.2747 29.4451 22.4379L20.7364 31.1425C20.5783 31.3009 20.3216 31.3009 20.1615 31.1425L9.50696 20.4879C9.34679 20.3278 9.34679 20.0703 9.50696 19.9112L24.2564 5.16234C24.4149 5.00357 24.4149 4.74452 24.2564 4.58645L20.7882 1.11856C20.6294 0.960481 20.3723 0.960481 20.2129 1.11856L1.11856 20.2136C0.960481 20.3723 0.960481 20.6314 1.11856 20.7894L20.2109 39.8817C20.3697 40.0394 20.6289 40.0394 20.7869 39.8817L39.8783 20.7894C40.0361 20.6307 40.0361 20.373 39.8783 20.2148L28.6461 8.98245C28.489 8.82438 28.2306 8.82438 28.0715 8.98245L16.8565 20.1928C16.6964 20.353 16.4387 20.353 16.2785 20.1928V20.1927Z" fill="#00FE00"/>
<path d="M109.967 25.4134C109.431 25.4134 108.97 25.6051 108.583 25.9906C108.201 26.3765 108.006 26.832 108.006 27.3595C108.006 28.1635 108.414 28.7891 109.224 29.236C110.112 29.4786 110.826 29.3206 111.364 28.7706C111.753 28.3824 111.944 27.9169 111.944 27.3745C111.944 26.827 111.753 26.3692 111.364 25.9908C110.978 25.6089 110.515 25.4187 109.965 25.4187V25.4136H109.967V25.4134ZM78.4268 10.4941H76.964C76.332 10.4941 75.8173 11.003 75.8173 11.6364V12.4526C74.2628 10.8338 72.4993 10.0236 70.5297 10.0236C68.2576 10.0236 66.3606 10.8697 64.8469 12.5571C63.3301 14.2444 62.576 16.3548 62.576 18.8857C62.576 21.4602 63.3313 23.6142 64.8438 25.3362C66.3731 27.0245 68.3012 27.867 70.6367 27.867C72.4839 27.867 74.2117 27.1129 75.8188 25.6085V27.2224C75.8188 28.0063 76.4559 28.6434 77.2379 28.6434H79.7353V11.802C79.735 11.0815 79.1489 10.4941 78.4267 10.4941H78.4268ZM74.7291 22.8888C73.8372 23.8831 72.6723 24.3796 71.2251 24.3796C69.872 24.3796 68.7497 23.8681 67.8613 22.8378C66.9946 21.8236 66.5616 20.5022 66.5616 18.8834C66.5616 17.3703 67.0076 16.0961 67.8957 15.0685C68.7966 14.0504 69.9182 13.5453 71.2595 13.5453C72.6818 13.5453 73.8359 14.0481 74.7256 15.0586C75.6171 16.0863 76.0632 17.3903 76.0632 18.9732C76.0632 20.557 75.6172 21.8624 74.7256 22.8913H74.7294V22.8888H74.7291ZM62.5735 13.3449V11.6763C62.5735 11.0217 62.046 10.4966 61.3938 10.4966H59.8516C59.202 10.4966 58.6732 11.0193 58.6732 11.6737V12.4004C57.2627 10.8176 55.4941 10.0238 53.3675 10.0238C50.9402 10.0238 48.9843 10.9408 47.506 12.7638C46.1299 14.4834 45.4424 16.5764 45.4424 19.0401C45.4424 21.5699 46.1833 23.6827 47.6642 25.3687C49.1323 27.0374 51.0156 27.8648 53.3164 27.8648C55.337 27.8648 57.1239 27.0761 58.6731 25.4919V27.8499C58.6731 31.3539 57.246 33.1059 54.3918 33.1059C52.8422 33.1059 51.6651 32.5784 50.8562 31.5257C50.6498 31.2594 50.4786 30.9283 50.3424 30.529C50.1512 29.9703 49.6199 29.5995 49.0325 29.5995H47.5545C46.8091 29.5995 46.2548 30.3087 46.4431 31.0304C46.8475 32.5683 47.6284 33.8177 48.7905 34.7832C50.2472 35.9975 52.1037 36.6049 54.3559 36.6049C57.0256 36.6049 59.1241 35.7264 60.6509 33.972C61.4597 33.0586 62.001 31.9662 62.279 30.6944C62.3718 30.2365 62.4446 29.6977 62.4956 29.0892C62.5466 28.4845 62.5721 27.7826 62.5721 26.9839V24.5298C61.4801 22.9571 60.9309 21.0768 60.9309 18.8857C60.9309 16.7318 61.4788 14.8914 62.5721 13.3448H62.5733L62.5735 13.3449ZM57.6322 22.7556C56.7658 23.8394 55.5884 24.3794 54.0953 24.3794C52.604 24.3794 51.4369 23.8443 50.5913 22.7656C49.8187 21.7851 49.4316 20.5233 49.4316 18.9879C49.4316 17.425 49.8186 16.1533 50.5913 15.173C51.4489 14.0766 52.6147 13.528 54.0953 13.528C55.4816 13.528 56.6208 14.0306 57.5097 15.0347C58.3887 16.0166 58.8298 17.3283 58.8298 18.972C58.8298 20.5086 58.4297 21.7678 57.6321 22.7533V22.7559L57.6322 22.7556ZM95.0035 10.5066V10.4941H86.9128V5.53917C86.9128 4.90208 86.3978 4.38693 85.7594 4.38693H84.1797C83.5365 4.38693 83.0138 4.9096 83.0138 5.55408V10.4941H81.3472V14.1312H83.0115V28.6412H85.2363C86.1639 28.6412 86.9105 27.8945 86.9105 26.9663V14.1338H90.9109C91.2269 13.5303 91.6096 12.974 92.0645 12.4651C92.8933 11.5592 93.8738 10.9072 95.0012 10.5067H95.0037L95.0035 10.5066ZM114.91 4.38693C114.218 4.38693 113.623 4.63705 113.126 5.13615C112.63 5.63244 112.379 6.22353 112.379 6.9042C112.379 7.62233 112.628 8.2245 113.126 8.72602C113.623 9.22244 114.226 9.47014 114.93 9.47014C115.635 9.47014 116.23 9.22257 116.712 8.72347C117.209 8.22208 117.461 7.6273 117.461 6.92051C117.461 6.2164 117.212 5.61906 116.713 5.13628C116.213 4.63476 115.612 4.38477 114.907 4.38477L114.91 4.38706V4.38693ZM115.7 12.4079H114.285C113.56 12.4079 112.969 12.9927 112.969 13.7244V26.1079C113.267 26.4588 113.411 26.8731 113.411 27.351C113.411 27.8288 113.27 28.247 112.969 28.5991V29.2961H115.48C116.249 29.2961 116.871 28.6714 116.871 27.9022V13.5727C116.871 12.928 116.346 12.4056 115.699 12.4056L115.7 12.4081L115.7 12.4079ZM134.035 14.797C132.278 13.0773 130.139 12.2163 127.619 12.2163C125.111 12.2163 122.983 13.07 121.238 14.7846C119.494 16.4918 118.62 18.5674 118.62 21.0062C118.62 23.5931 119.474 25.747 121.186 27.458C122.898 29.1914 125.021 30.0573 127.549 30.0573C130.103 30.0573 132.258 29.2087 134.016 27.509C135.757 25.7943 136.633 23.6777 136.633 21.1457C136.633 18.6358 135.767 16.5204 134.035 14.7971V14.797ZM131.275 25.0974C130.364 26.0817 129.145 26.5682 127.617 26.5682C126.101 26.5682 124.884 26.0742 123.959 25.0774C123.058 24.0971 122.605 22.7582 122.605 21.0733C122.605 19.503 123.07 18.2189 123.993 17.2259C124.919 16.2304 126.126 15.7339 127.619 15.7339C129.131 15.7339 130.352 16.2304 131.275 17.2259C132.188 18.2064 132.646 19.5179 132.646 21.1581C132.646 22.803 132.186 24.1131 131.275 25.0949V25.1V25.0974H131.275Z" fill="#00FE00"/>
<path d="M96.4549 24.4147C95.6509 23.6009 95.2019 22.4909 95.0986 21.1023H106.28C106.79 21.1023 107.211 20.6942 107.218 20.1853C107.218 17.3943 106.501 15.2217 105.069 13.6488C103.622 12.065 101.654 11.2734 99.1724 11.2734C96.7137 11.2734 94.7353 12.0884 93.2446 13.7186C91.7645 15.3734 91.0254 17.5322 91.0254 20.2038C91.0254 22.8952 91.7902 25.0579 93.3119 26.6868C94.3771 27.8202 95.6824 28.5531 97.2315 28.8941C97.8811 29.047 98.5541 29.128 99.2349 29.1181C102.012 29.1754 104.429 29.2325 107.206 29.2898L107.211 28.8817C106.871 28.5122 106.701 28.0656 106.701 27.5479C106.701 27.0427 106.879 26.6084 107.226 26.2327L107.228 25.7387C105.038 25.6839 99.7278 25.6317 99.5163 25.6317C98.2719 25.6317 97.2491 25.2298 96.4553 24.4174V24.4148L96.4549 24.4147ZM95.9124 16.6154C96.1575 16.2319 96.4475 15.9085 96.7896 15.6372C97.1343 15.361 97.5076 15.1569 97.9257 15.0126C98.3413 14.8683 98.7868 14.796 99.2646 14.796C101.34 14.796 102.654 15.834 103.202 17.9145H95.3587C95.4869 17.429 95.6709 16.9962 95.9125 16.6129V16.6154H95.9124Z" fill="#00FE00"/>
<path d="M15.2785 19.1927L14.9408 18.8527C14.6851 18.5973 14.2458 18.7782 14.2458 19.1403V23.9956C14.2458 24.2198 14.4298 24.4022 14.6546 24.4022H19.511C19.8731 24.4022 20.0554 23.9637 19.7979 23.7086C19.6392 23.5499 19.6392 23.2928 19.7979 23.1344L24.9633 17.9531C25.1224 17.7953 25.1224 17.5382 24.9633 17.3788L24.4927 16.9099C24.237 16.6545 24.4192 16.2158 24.7803 16.2158H29.6338C29.8582 16.2158 30.0419 16.3981 30.0419 16.6225V21.4774C30.0419 21.8395 29.6018 22.0207 29.3455 21.765L29.0184 21.4379C28.8585 21.2747 28.6015 21.2747 28.4451 21.4379L19.7364 30.1425C19.5783 30.3009 19.3216 30.3009 19.1615 30.1425L8.50696 19.4879C8.34679 19.3278 8.34679 19.0703 8.50696 18.9112L23.2564 4.16234C23.4149 4.00357 23.4149 3.74452 23.2564 3.58645L19.7882 0.118556C19.6294 -0.0395187 19.3723 -0.0395187 19.2129 0.118556L0.118556 19.2136C-0.0395187 19.3723 -0.0395187 19.6314 0.118556 19.7894L19.2109 38.8817C19.3697 39.0394 19.6289 39.0394 19.7869 38.8817L38.8783 19.7894C39.0361 19.6307 39.0361 19.373 38.8783 19.2148L27.6461 7.98245C27.489 7.82438 27.2306 7.82438 27.0715 7.98245L15.8565 19.1928C15.6964 19.353 15.4387 19.353 15.2785 19.1928V19.1927Z" fill="white"/>
<path d="M108.967 24.4134C108.431 24.4134 107.97 24.6051 107.583 24.9906C107.201 25.3765 107.006 25.832 107.006 26.3595C107.006 27.1635 107.414 27.7891 108.224 28.236C109.112 28.4786 109.826 28.3206 110.364 27.7706C110.753 27.3824 110.944 26.9169 110.944 26.3745C110.944 25.827 110.753 25.3692 110.364 24.9908C109.978 24.6089 109.515 24.4187 108.965 24.4187V24.4136H108.967V24.4134ZM77.4268 9.49407H75.964C75.332 9.49407 74.8173 10.003 74.8173 10.6364V11.4526C73.2628 9.83377 71.4993 9.02365 69.5297 9.02365C67.2576 9.02365 65.3606 9.8697 63.8469 11.5571C62.3301 13.2444 61.576 15.3548 61.576 17.8857C61.576 20.4602 62.3313 22.6142 63.8438 24.3362C65.3731 26.0245 67.3012 26.867 69.6367 26.867C71.4839 26.867 73.2117 26.1129 74.8188 24.6085V26.2224C74.8188 27.0063 75.4559 27.6434 76.2379 27.6434H78.7353V10.802C78.735 10.0815 78.1489 9.49407 77.4267 9.49407H77.4268ZM73.7291 21.8888C72.8372 22.8831 71.6723 23.3796 70.2251 23.3796C68.872 23.3796 67.7497 22.8681 66.8613 21.8378C65.9946 20.8236 65.5616 19.5022 65.5616 17.8834C65.5616 16.3703 66.0076 15.0961 66.8957 14.0685C67.7966 13.0504 68.9182 12.5453 70.2595 12.5453C71.6818 12.5453 72.8359 13.0481 73.7256 14.0586C74.6171 15.0863 75.0632 16.3903 75.0632 17.9732C75.0632 19.557 74.6172 20.8624 73.7256 21.8913H73.7294V21.8888H73.7291ZM61.5735 12.3449V10.6763C61.5735 10.0217 61.046 9.49662 60.3938 9.49662H58.8516C58.202 9.49662 57.6732 10.0193 57.6732 10.6737V11.4004C56.2627 9.81759 54.4941 9.02377 52.3675 9.02377C49.9402 9.02377 47.9843 9.9408 46.506 11.7638C45.1299 13.4834 44.4424 15.5764 44.4424 18.0401C44.4424 20.5699 45.1833 22.6827 46.6642 24.3687C48.1323 26.0374 50.0156 26.8648 52.3164 26.8648C54.337 26.8648 56.1239 26.0761 57.6731 24.4919V26.8499C57.6731 30.3539 56.246 32.1059 53.3918 32.1059C51.8422 32.1059 50.6651 31.5784 49.8562 30.5257C49.6498 30.2594 49.4786 29.9283 49.3424 29.529C49.1512 28.9703 48.6199 28.5995 48.0325 28.5995H46.5545C45.8091 28.5995 45.2548 29.3087 45.4431 30.0304C45.8475 31.5683 46.6284 32.8177 47.7905 33.7832C49.2472 34.9975 51.1037 35.6049 53.3559 35.6049C56.0256 35.6049 58.1241 34.7264 59.6509 32.972C60.4597 32.0586 61.001 30.9662 61.279 29.6944C61.3718 29.2365 61.4446 28.6977 61.4956 28.0892C61.5466 27.4845 61.5721 26.7826 61.5721 25.9839V23.5298C60.4801 21.9571 59.9309 20.0768 59.9309 17.8857C59.9309 15.7318 60.4788 13.8914 61.5721 12.3448H61.5733L61.5735 12.3449ZM56.6322 21.7556C55.7658 22.8394 54.5884 23.3794 53.0953 23.3794C51.604 23.3794 50.4369 22.8443 49.5913 21.7656C48.8187 20.7851 48.4316 19.5233 48.4316 17.9879C48.4316 16.425 48.8186 15.1533 49.5913 14.173C50.4489 13.0766 51.6147 12.528 53.0953 12.528C54.4816 12.528 55.6208 13.0306 56.5097 14.0347C57.3887 15.0166 57.8298 16.3283 57.8298 17.972C57.8298 19.5086 57.4297 20.7678 56.6321 21.7533V21.7559L56.6322 21.7556ZM94.0035 9.50656V9.49407H85.9128V4.53917C85.9128 3.90208 85.3978 3.38693 84.7594 3.38693H83.1797C82.5365 3.38693 82.0138 3.9096 82.0138 4.55408V9.49407H80.3472V13.1312H82.0115V27.6412H84.2363C85.1639 27.6412 85.9105 26.8945 85.9105 25.9663V13.1338H89.9109C90.2269 12.5303 90.6096 11.974 91.0645 11.4651C91.8933 10.5592 92.8738 9.90716 94.0012 9.50669H94.0037L94.0035 9.50656ZM113.91 3.38693C113.218 3.38693 112.623 3.63705 112.126 4.13615C111.63 4.63244 111.379 5.22353 111.379 5.9042C111.379 6.62233 111.628 7.2245 112.126 7.72602C112.623 8.22244 113.226 8.47014 113.93 8.47014C114.635 8.47014 115.23 8.22257 115.712 7.72347C116.209 7.22208 116.461 6.6273 116.461 5.92051C116.461 5.2164 116.212 4.61906 115.713 4.13628C115.213 3.63476 114.612 3.38477 113.907 3.38477L113.91 3.38706V3.38693ZM114.7 11.4079H113.285C112.56 11.4079 111.969 11.9927 111.969 12.7244V25.1079C112.267 25.4588 112.411 25.8731 112.411 26.351C112.411 26.8288 112.27 27.247 111.969 27.5991V28.2961H114.48C115.249 28.2961 115.871 27.6714 115.871 26.9022V12.5727C115.871 11.928 115.346 11.4056 114.699 11.4056L114.7 11.4081L114.7 11.4079ZM133.035 13.797C131.278 12.0773 129.139 11.2163 126.619 11.2163C124.111 11.2163 121.983 12.07 120.238 13.7846C118.494 15.4918 117.62 17.5674 117.62 20.0062C117.62 22.5931 118.474 24.747 120.186 26.458C121.898 28.1914 124.021 29.0573 126.549 29.0573C129.103 29.0573 131.258 28.2087 133.016 26.509C134.757 24.7943 135.633 22.6777 135.633 20.1457C135.633 17.6358 134.767 15.5204 133.035 13.7971V13.797ZM130.275 24.0974C129.364 25.0817 128.145 25.5682 126.617 25.5682C125.101 25.5682 123.884 25.0742 122.959 24.0774C122.058 23.0971 121.605 21.7582 121.605 20.0733C121.605 18.503 122.07 17.2189 122.993 16.2259C123.919 15.2304 125.126 14.7339 126.619 14.7339C128.131 14.7339 129.352 15.2304 130.275 16.2259C131.188 17.2064 131.646 18.5179 131.646 20.1581C131.646 21.803 131.186 23.1131 130.275 24.0949V24.1V24.0974H130.275Z" fill="white"/>
<path d="M95.4549 23.4147C94.6509 22.6009 94.2019 21.4909 94.0986 20.1023H105.28C105.79 20.1023 106.211 19.6942 106.218 19.1853C106.218 16.3943 105.501 14.2217 104.069 12.6488C102.622 11.065 100.654 10.2734 98.1724 10.2734C95.7137 10.2734 93.7353 11.0884 92.2446 12.7186C90.7645 14.3734 90.0254 16.5322 90.0254 19.2038C90.0254 21.8952 90.7902 24.0579 92.3119 25.6868C93.3771 26.8202 94.6824 27.5531 96.2315 27.8941C96.8811 28.047 97.5541 28.128 98.2349 28.1181C101.012 28.1754 103.429 28.2325 106.206 28.2898L106.211 27.8817C105.871 27.5122 105.701 27.0656 105.701 26.5479C105.701 26.0427 105.879 25.6084 106.226 25.2327L106.228 24.7387C104.038 24.6839 98.7278 24.6317 98.5163 24.6317C97.2719 24.6317 96.2491 24.2298 95.4553 23.4174V23.4148L95.4549 23.4147ZM94.9124 15.6154C95.1575 15.2319 95.4475 14.9085 95.7896 14.6372C96.1343 14.361 96.5076 14.1569 96.9257 14.0126C97.3413 13.8683 97.7868 13.796 98.2646 13.796C100.34 13.796 101.654 14.834 102.202 16.9145H94.3587C94.4869 16.429 94.6709 15.9962 94.9125 15.6129V15.6154H94.9124Z" fill="white"/>
</svg>
