<svg width="149" height="28" viewBox="0 0 149 28" fill="none" xmlns="http://www.w3.org/2000/svg">
<mask id="mask0_319_5471" style="mask-type:alpha" maskUnits="userSpaceOnUse" x="0" y="13" width="149" height="15">
<rect y="13" width="149" height="15" fill="#C4C4C4"/>
</mask>
<g mask="url(#mask0_319_5471)">
<path d="M18.7386 22L21.8136 4.5H27.5136C28.3302 4.5 28.9302 4.74167 29.3136 5.225C29.7136 5.69167 29.8386 6.34167 29.6886 7.175L29.0386 10.925C28.9386 11.4917 28.7552 11.95 28.4886 12.3C28.2386 12.65 27.8552 12.9167 27.3386 13.1C28.1719 13.4333 28.4886 14.2083 28.2886 15.425L27.5636 19.575C27.2969 21.1917 26.3386 22 24.6886 22H18.7386ZM23.8636 11.65H25.2636C25.5302 11.65 25.6886 11.5083 25.7386 11.225L26.3636 7.675C26.4136 7.425 26.3136 7.3 26.0636 7.3H24.6136L23.8636 11.65ZM22.5636 19.2H23.9386C24.2052 19.2 24.3636 19.0583 24.4136 18.775L25.1136 14.825C25.1636 14.575 25.0636 14.45 24.8136 14.45H23.3636L22.5636 19.2ZM32.8798 22.125C32.0465 22.125 31.4298 21.8833 31.0298 21.4C30.6298 20.9167 30.5048 20.2583 30.6548 19.425L33.2798 4.5H36.5798L34.0298 18.95C33.9798 19.2 34.0798 19.325 34.3298 19.325H35.3548C35.6215 19.325 35.7798 19.1833 35.8298 18.9L38.3798 4.5H41.6798L39.0048 19.675C38.7381 21.3083 37.7715 22.125 36.1048 22.125H32.8798ZM44.1954 4.5H47.5204L47.5704 12L50.3204 4.5H53.6954L48.4704 16.55L47.4954 22H44.1954L45.1704 16.55L44.1954 4.5ZM60.3448 22.1C59.5282 22.1 58.9198 21.8667 58.5198 21.4C58.1365 20.9167 58.0198 20.2583 58.1698 19.425L60.3948 6.825C60.6615 5.20833 61.6198 4.4 63.2698 4.4H66.5948C67.4115 4.4 68.0115 4.64167 68.3948 5.125C68.7948 5.59167 68.9198 6.24167 68.7698 7.075L66.5448 19.675C66.2448 21.2917 65.2865 22.1 63.6698 22.1H60.3448ZM61.8698 19.3H62.9198C63.1698 19.3 63.3282 19.1583 63.3948 18.875L65.3698 7.575C65.4198 7.325 65.3198 7.2 65.0698 7.2H64.0198C63.7698 7.2 63.6115 7.34167 63.5448 7.625L61.5698 18.925C61.5198 19.175 61.6198 19.3 61.8698 19.3ZM69.2854 22L72.3604 4.5H75.6604L76.6604 10.85L77.8104 4.5H81.1105L78.0354 22H74.7354L75.5604 17.45L74.5354 11.1L72.5854 22H69.2854ZM85.8714 22L88.9464 4.5H93.7464L93.1464 15.075L96.1714 4.5H101.146L98.0714 22H94.7714L96.7714 10.65L93.2964 22H90.5464L91.0214 10.65L89.0214 22H85.8714ZM101.244 22L104.319 4.5H111.069L110.594 7.3H107.119L106.344 11.7H109.644L109.169 14.5H105.869L105.044 19.2H108.594L108.094 22H101.244ZM110.329 22L114.629 13.25L113.454 4.5H116.854L117.279 10.55L119.879 4.5H123.354L119.054 13.25L120.229 22H116.829L116.404 15.9L113.804 22H110.329ZM125.093 22.1C124.276 22.1 123.668 21.8667 123.268 21.4C122.885 20.9167 122.768 20.2583 122.918 19.425L125.143 6.825C125.41 5.20833 126.368 4.4 128.018 4.4H131.318C132.135 4.4 132.735 4.64167 133.118 5.125C133.518 5.59167 133.643 6.24167 133.493 7.075L132.618 12H129.318L130.118 7.575C130.168 7.325 130.068 7.2 129.818 7.2H128.768C128.518 7.2 128.36 7.34167 128.293 7.625L126.318 18.925C126.268 19.175 126.368 19.3 126.618 19.3H127.643C127.91 19.3 128.068 19.1583 128.118 18.875L128.868 14.5H132.168L131.268 19.675C131.001 21.2917 130.043 22.1 128.393 22.1H125.093Z" fill="url(#paint0_linear_319_5471)"/>
</g>
<mask id="mask1_319_5471" style="mask-type:alpha" maskUnits="userSpaceOnUse" x="4" y="0" width="145" height="13">
<rect width="145" height="13" transform="matrix(1 0 0 -1 4 13)" fill="#C4C4C4"/>
</mask>
<g mask="url(#mask1_319_5471)">
<path d="M20.2386 22L23.3136 4.5H29.0136C29.8302 4.5 30.4302 4.74167 30.8136 5.225C31.2136 5.69167 31.3386 6.34167 31.1886 7.175L30.5386 10.925C30.4386 11.4917 30.2552 11.95 29.9886 12.3C29.7386 12.65 29.3552 12.9167 28.8386 13.1C29.6719 13.4333 29.9886 14.2083 29.7886 15.425L29.0636 19.575C28.7969 21.1917 27.8386 22 26.1886 22H20.2386ZM25.3636 11.65H26.7636C27.0302 11.65 27.1886 11.5083 27.2386 11.225L27.8636 7.675C27.9136 7.425 27.8136 7.3 27.5636 7.3H26.1136L25.3636 11.65ZM24.0636 19.2H25.4386C25.7052 19.2 25.8636 19.0583 25.9136 18.775L26.6136 14.825C26.6636 14.575 26.5636 14.45 26.3136 14.45H24.8636L24.0636 19.2ZM34.3798 22.125C33.5465 22.125 32.9298 21.8833 32.5298 21.4C32.1298 20.9167 32.0048 20.2583 32.1548 19.425L34.7798 4.5H38.0798L35.5298 18.95C35.4798 19.2 35.5798 19.325 35.8298 19.325H36.8548C37.1215 19.325 37.2798 19.1833 37.3298 18.9L39.8798 4.5H43.1798L40.5048 19.675C40.2381 21.3083 39.2715 22.125 37.6048 22.125H34.3798ZM45.6954 4.5H49.0204L49.0704 12L51.8204 4.5H55.1954L49.9704 16.55L48.9954 22H45.6954L46.6704 16.55L45.6954 4.5ZM61.8448 22.1C61.0282 22.1 60.4198 21.8667 60.0198 21.4C59.6365 20.9167 59.5198 20.2583 59.6698 19.425L61.8948 6.825C62.1615 5.20833 63.1198 4.4 64.7698 4.4H68.0948C68.9115 4.4 69.5115 4.64167 69.8948 5.125C70.2948 5.59167 70.4198 6.24167 70.2698 7.075L68.0448 19.675C67.7448 21.2917 66.7865 22.1 65.1698 22.1H61.8448ZM63.3698 19.3H64.4198C64.6698 19.3 64.8282 19.1583 64.8948 18.875L66.8698 7.575C66.9198 7.325 66.8198 7.2 66.5698 7.2H65.5198C65.2698 7.2 65.1115 7.34167 65.0448 7.625L63.0698 18.925C63.0198 19.175 63.1198 19.3 63.3698 19.3ZM70.7854 22L73.8604 4.5H77.1604L78.1604 10.85L79.3104 4.5H82.6105L79.5354 22H76.2354L77.0604 17.45L76.0354 11.1L74.0854 22H70.7854ZM87.3714 22L90.4464 4.5H95.2464L94.6464 15.075L97.6714 4.5H102.646L99.5714 22H96.2714L98.2714 10.65L94.7964 22H92.0464L92.5214 10.65L90.5214 22H87.3714ZM102.744 22L105.819 4.5H112.569L112.094 7.3H108.619L107.844 11.7H111.144L110.669 14.5H107.369L106.544 19.2H110.094L109.594 22H102.744ZM111.829 22L116.129 13.25L114.954 4.5H118.354L118.779 10.55L121.379 4.5H124.854L120.554 13.25L121.729 22H118.329L117.904 15.9L115.304 22H111.829ZM126.593 22.1C125.776 22.1 125.168 21.8667 124.768 21.4C124.385 20.9167 124.268 20.2583 124.418 19.425L126.643 6.825C126.91 5.20833 127.868 4.4 129.518 4.4H132.818C133.635 4.4 134.235 4.64167 134.618 5.125C135.018 5.59167 135.143 6.24167 134.993 7.075L134.118 12H130.818L131.618 7.575C131.668 7.325 131.568 7.2 131.318 7.2H130.268C130.018 7.2 129.86 7.34167 129.793 7.625L127.818 18.925C127.768 19.175 127.868 19.3 128.118 19.3H129.143C129.41 19.3 129.568 19.1583 129.618 18.875L130.368 14.5H133.668L132.768 19.675C132.501 21.2917 131.543 22.1 129.893 22.1H126.593Z" fill="url(#paint1_linear_319_5471)"/>
</g>
<defs>
<linearGradient id="paint0_linear_319_5471" x1="-20" y1="-8.97619" x2="-20.9743" y2="37.5239" gradientUnits="userSpaceOnUse">
<stop stop-color="#00BCB0"/>
<stop offset="1" stop-color="#F7D542"/>
</linearGradient>
<linearGradient id="paint1_linear_319_5471" x1="-37" y1="-8.97619" x2="-37.817" y2="37.53" gradientUnits="userSpaceOnUse">
<stop stop-color="#00BCB0"/>
<stop offset="1" stop-color="#F7D542"/>
</linearGradient>
</defs>
</svg>
