<svg width="215" height="28" viewBox="0 0 215 28" fill="none" xmlns="http://www.w3.org/2000/svg">
<mask id="mask0_319_5470" style="mask-type:alpha" maskUnits="userSpaceOnUse" x="0" y="13" width="211" height="15">
<rect y="13" width="211" height="15" fill="#C4C4C4"/>
</mask>
<g mask="url(#mask0_319_5470)">
<path d="M65.5652 22.2719C64.7485 22.2719 64.1402 22.0385 63.7402 21.5719C63.3569 21.0885 63.2402 20.4302 63.3902 19.5969L65.6152 6.99687C65.8819 5.38021 66.8402 4.57187 68.4902 4.57187H71.8152C72.6319 4.57187 73.2319 4.81354 73.6152 5.29687C74.0152 5.76354 74.1402 6.41354 73.9902 7.24687L71.7652 19.8469C71.4652 21.4635 70.5069 22.2719 68.8902 22.2719H65.5652ZM67.0902 19.4719H68.1402C68.3902 19.4719 68.5485 19.3302 68.6152 19.0469L70.5902 7.74687C70.6402 7.49687 70.5402 7.37187 70.2902 7.37187H69.2402C68.9902 7.37187 68.8319 7.51354 68.7652 7.79687L66.7902 19.0969C66.7402 19.3469 66.8402 19.4719 67.0902 19.4719ZM75.2558 22.1719L78.3308 4.67187H84.0558C84.8725 4.67187 85.4725 4.91354 85.8558 5.39687C86.2558 5.86354 86.3808 6.51354 86.2308 7.34687L85.1058 13.6469C84.8391 15.2635 83.8891 16.0719 82.2558 16.0719H79.6308L78.5558 22.1719H75.2558ZM80.1308 13.2719H81.4808C81.7475 13.2719 81.9058 13.1302 81.9558 12.8469L82.8558 7.84687C82.9058 7.59687 82.8058 7.47188 82.5558 7.47188H81.1308L80.1308 13.2719ZM87.3261 22.1719L90.4011 4.67187H97.1511L96.6761 7.47188H93.2011L92.4261 11.8719H95.7261L95.2511 14.6719H91.9511L91.1261 19.3719H94.6761L94.1761 22.1719H87.3261ZM97.7607 22.1719L100.836 4.67187H104.136L105.136 11.0219L106.286 4.67187H109.586L106.511 22.1719H103.211L104.036 17.6219L103.011 11.2719L101.061 22.1719H97.7607ZM115.097 22.1719L120.822 4.67187H125.072L124.597 22.1719H121.297L121.472 19.3719H119.197L118.397 22.1719H115.097ZM119.997 16.5719H121.672L122.147 9.07187L119.997 16.5719ZM127.795 22.1719L130.87 4.67187H136.595C137.412 4.67187 138.012 4.91354 138.395 5.39687C138.795 5.86354 138.92 6.51354 138.77 7.34687L137.645 13.6469C137.378 15.2635 136.428 16.0719 134.795 16.0719H132.17L131.095 22.1719H127.795ZM132.67 13.2719H134.02C134.287 13.2719 134.445 13.1302 134.495 12.8469L135.395 7.84687C135.445 7.59687 135.345 7.47188 135.095 7.47188H133.67L132.67 13.2719ZM139.865 22.1719L142.94 4.67187H148.665C149.482 4.67187 150.082 4.91354 150.465 5.39687C150.865 5.86354 150.99 6.51354 150.84 7.34687L149.715 13.6469C149.449 15.2635 148.499 16.0719 146.865 16.0719H144.24L143.165 22.1719H139.865ZM144.74 13.2719H146.09C146.357 13.2719 146.515 13.1302 146.565 12.8469L147.465 7.84687C147.515 7.59687 147.415 7.47188 147.165 7.47188H145.74L144.74 13.2719Z" fill="url(#paint0_linear_319_5470)"/>
</g>
<mask id="mask1_319_5470" style="mask-type:alpha" maskUnits="userSpaceOnUse" x="0" y="0" width="215" height="13">
<rect width="215" height="13" transform="matrix(1 0 0 -1 0 13)" fill="#C4C4C4"/>
</mask>
<g mask="url(#mask1_319_5470)">
<path d="M67.3023 22.1C66.4857 22.1 65.8773 21.8667 65.4773 21.4C65.094 20.9167 64.9773 20.2583 65.1273 19.425L67.3523 6.825C67.619 5.20833 68.5773 4.4 70.2273 4.4H73.5523C74.369 4.4 74.969 4.64167 75.3523 5.125C75.7523 5.59167 75.8773 6.24167 75.7273 7.075L73.5023 19.675C73.2023 21.2917 72.244 22.1 70.6273 22.1H67.3023ZM68.8273 19.3H69.8773C70.1273 19.3 70.2857 19.1583 70.3523 18.875L72.3273 7.575C72.3773 7.325 72.2773 7.2 72.0273 7.2H70.9773C70.7273 7.2 70.569 7.34167 70.5023 7.625L68.5273 18.925C68.4773 19.175 68.5773 19.3 68.8273 19.3ZM76.993 22L80.068 4.5H85.793C86.6096 4.5 87.2096 4.74167 87.593 5.225C87.993 5.69167 88.118 6.34167 87.968 7.175L86.843 13.475C86.5763 15.0917 85.6263 15.9 83.993 15.9H81.368L80.293 22H76.993ZM81.868 13.1H83.218C83.4846 13.1 83.643 12.9583 83.693 12.675L84.593 7.675C84.643 7.425 84.543 7.3 84.293 7.3H82.868L81.868 13.1ZM89.0633 22L92.1383 4.5H98.8883L98.4133 7.3H94.9383L94.1633 11.7H97.4633L96.9883 14.5H93.6883L92.8633 19.2H96.4133L95.9133 22H89.0633ZM99.4979 22L102.573 4.5H105.873L106.873 10.85L108.023 4.5H111.323L108.248 22H104.948L105.773 17.45L104.748 11.1L102.798 22H99.4979ZM116.834 22L122.559 4.5H126.809L126.334 22H123.034L123.209 19.2H120.934L120.134 22H116.834ZM121.734 16.4H123.409L123.884 8.9L121.734 16.4ZM129.532 22L132.607 4.5H138.332C139.149 4.5 139.749 4.74167 140.132 5.225C140.532 5.69167 140.657 6.34167 140.507 7.175L139.382 13.475C139.115 15.0917 138.165 15.9 136.532 15.9H133.907L132.832 22H129.532ZM134.407 13.1H135.757C136.024 13.1 136.182 12.9583 136.232 12.675L137.132 7.675C137.182 7.425 137.082 7.3 136.832 7.3H135.407L134.407 13.1ZM141.602 22L144.677 4.5H150.402C151.219 4.5 151.819 4.74167 152.202 5.225C152.602 5.69167 152.727 6.34167 152.577 7.175L151.452 13.475C151.186 15.0917 150.236 15.9 148.602 15.9H145.977L144.902 22H141.602ZM146.477 13.1H147.827C148.094 13.1 148.252 12.9583 148.302 12.675L149.202 7.675C149.252 7.425 149.152 7.3 148.902 7.3H147.477L146.477 13.1Z" fill="url(#paint1_linear_319_5470)"/>
</g>
<defs>
<linearGradient id="paint0_linear_319_5470" x1="-16.4258" y1="-8.80432" x2="-17.1852" y2="37.7038" gradientUnits="userSpaceOnUse">
<stop stop-color="#00BCB0"/>
<stop offset="1" stop-color="#F7D542"/>
</linearGradient>
<linearGradient id="paint1_linear_319_5470" x1="-6" y1="-8.97619" x2="-6.81702" y2="37.53" gradientUnits="userSpaceOnUse">
<stop stop-color="#00BCB0"/>
<stop offset="1" stop-color="#F7D542"/>
</linearGradient>
</defs>
</svg>
