<svg width="206" height="28" viewBox="0 0 206 28" fill="none" xmlns="http://www.w3.org/2000/svg">
<mask id="mask0_319_5468" style="mask-type:alpha" maskUnits="userSpaceOnUse" x="0" y="13" width="206" height="15">
<rect y="13" width="206" height="15" fill="#C4C4C4"/>
</mask>
<g mask="url(#mask0_319_5468)">
<path d="M5.16631 22L8.24131 4.5H13.9413C14.758 4.5 15.358 4.74167 15.7413 5.225C16.1413 5.69167 16.2663 6.34167 16.1163 7.175L15.4663 10.925C15.3663 11.4917 15.183 11.95 14.9163 12.3C14.6663 12.65 14.283 12.9167 13.7663 13.1C14.5996 13.4333 14.9163 14.2083 14.7163 15.425L13.9913 19.575C13.7246 21.1917 12.7663 22 11.1163 22H5.16631ZM10.2913 11.65H11.6913C11.958 11.65 12.1163 11.5083 12.1663 11.225L12.7913 7.675C12.8413 7.425 12.7413 7.3 12.4913 7.3H11.0413L10.2913 11.65ZM8.99131 19.2H10.3663C10.633 19.2 10.7913 19.0583 10.8413 18.775L11.5413 14.825C11.5913 14.575 11.4913 14.45 11.2413 14.45H9.79131L8.99131 19.2ZM19.3075 22.125C18.4742 22.125 17.8575 21.8833 17.4575 21.4C17.0575 20.9167 16.9325 20.2583 17.0825 19.425L19.7075 4.5H23.0075L20.4575 18.95C20.4075 19.2 20.5075 19.325 20.7575 19.325H21.7825C22.0492 19.325 22.2075 19.1833 22.2575 18.9L24.8075 4.5H28.1075L25.4325 19.675C25.1659 21.3083 24.1992 22.125 22.5325 22.125H19.3075ZM30.6231 4.5H33.9481L33.9981 12L36.7481 4.5H40.1231L34.8981 16.55L33.9231 22H30.6231L31.5981 16.55L30.6231 4.5ZM46.7726 22.1C45.9559 22.1 45.3476 21.8667 44.9476 21.4C44.5642 20.9167 44.4476 20.2583 44.5976 19.425L46.8226 6.825C47.0892 5.20833 48.0476 4.4 49.6976 4.4H53.0226C53.8392 4.4 54.4392 4.64167 54.8226 5.125C55.2226 5.59167 55.3476 6.24167 55.1976 7.075L52.9726 19.675C52.6726 21.2917 51.7142 22.1 50.0976 22.1H46.7726ZM48.2976 19.3H49.3476C49.5976 19.3 49.7559 19.1583 49.8226 18.875L51.7976 7.575C51.8476 7.325 51.7476 7.2 51.4976 7.2H50.4476C50.1976 7.2 50.0392 7.34167 49.9726 7.625L47.9976 18.925C47.9476 19.175 48.0476 19.3 48.2976 19.3ZM55.7132 22L58.7882 4.5H62.0882L63.0882 10.85L64.2382 4.5H67.5382L64.4632 22H61.1632L61.9882 17.45L60.9632 11.1L59.0132 22H55.7132ZM72.2991 22L75.3741 4.5H81.0991C81.9158 4.5 82.5158 4.74167 82.8991 5.225C83.2991 5.69167 83.4241 6.34167 83.2741 7.175L82.1491 13.475C81.8825 15.0917 80.9325 15.9 79.2991 15.9H76.6741L75.5991 22H72.2991ZM77.1741 13.1H78.5241C78.7908 13.1 78.9491 12.9583 78.9991 12.675L79.8991 7.675C79.9491 7.425 79.8491 7.3 79.5991 7.3H78.1741L77.1741 13.1ZM82.1858 22L87.9108 4.5H92.1608L91.6858 22H88.3858L88.5608 19.2H86.2858L85.4858 22H82.1858ZM87.0858 16.4H88.7608L89.2358 8.9L87.0858 16.4ZM94.1341 22L97.2091 4.5H100.509L101.509 10.85L102.659 4.5H105.959L102.884 22H99.5841L100.409 17.45L99.3841 11.1L97.4341 22H94.1341ZM108.64 22.1C107.823 22.1 107.215 21.8667 106.815 21.4C106.431 20.9167 106.315 20.2583 106.465 19.425L108.69 6.825C108.956 5.20833 109.915 4.4 111.565 4.4H114.865C115.681 4.4 116.281 4.64167 116.665 5.125C117.065 5.59167 117.19 6.24167 117.04 7.075L116.165 12H112.865L113.665 7.575C113.715 7.325 113.615 7.2 113.365 7.2H112.315C112.065 7.2 111.906 7.34167 111.84 7.625L109.865 18.925C109.815 19.175 109.915 19.3 110.165 19.3H111.19C111.456 19.3 111.615 19.1583 111.665 18.875L112.415 14.5H115.715L114.815 19.675C114.548 21.2917 113.59 22.1 111.94 22.1H108.64ZM116.586 22L122.311 4.5H126.561L126.086 22H122.786L122.961 19.2H120.686L119.886 22H116.586ZM121.486 16.4H123.161L123.636 8.9L121.486 16.4ZM128.534 22L131.609 4.5H134.909L133.659 11.55L137.084 4.5H140.484L136.059 13.275L137.334 22H134.084L133.109 14.875L131.834 22H128.534ZM139.708 22L142.783 4.5H149.533L149.058 7.3H145.583L144.808 11.7H148.108L147.633 14.5H144.333L143.508 19.2H147.058L146.558 22H139.708ZM151.593 22.1C150.876 22.1 150.343 21.8917 149.993 21.475C149.643 21.0417 149.535 20.4583 149.668 19.725L150.418 15.5H153.668L153.068 18.925C153.018 19.175 153.118 19.3 153.368 19.3H154.368C154.651 19.3 154.818 19.1583 154.868 18.875L155.393 15.975C155.426 15.725 155.385 15.5417 155.268 15.425L152.093 12.825C151.41 12.225 151.151 11.475 151.318 10.575L152.018 6.525C152.285 5.10833 153.126 4.4 154.543 4.4H158.193C158.926 4.4 159.46 4.61667 159.793 5.05C160.143 5.48333 160.251 6.05833 160.118 6.775L159.418 10.75H156.268L156.843 7.575C156.893 7.325 156.793 7.2 156.543 7.2H155.543C155.293 7.2 155.135 7.34167 155.068 7.625L154.618 10.2C154.568 10.4333 154.601 10.6167 154.718 10.75L157.893 13.35C158.593 13.9333 158.86 14.6833 158.693 15.6L157.918 19.975C157.668 21.3917 156.826 22.1 155.393 22.1H151.593ZM162.798 4.5H166.073L165.298 16.225L168.573 4.5H171.873L170.998 16.225L174.373 4.5H177.698L172.323 22H168.273L168.898 12.2L166.073 22H162.023L162.798 4.5ZM176.215 22L181.94 4.5H186.19L185.715 22H182.415L182.59 19.2H180.315L179.515 22H176.215ZM181.115 16.4H182.79L183.265 8.9L181.115 16.4ZM188.163 22L191.238 4.5H196.963C197.78 4.5 198.38 4.74167 198.763 5.225C199.163 5.69167 199.288 6.34167 199.138 7.175L198.013 13.475C197.747 15.0917 196.797 15.9 195.163 15.9H192.538L191.463 22H188.163ZM193.038 13.1H194.388C194.655 13.1 194.813 12.9583 194.863 12.675L195.763 7.675C195.813 7.425 195.713 7.3 195.463 7.3H194.038L193.038 13.1Z" fill="url(#paint0_linear_319_5468)"/>
</g>
<mask id="mask1_319_5468" style="mask-type:alpha" maskUnits="userSpaceOnUse" x="2" y="0" width="204" height="13">
<rect width="204" height="13" transform="matrix(1 0 0 -1 2 13)" fill="#C4C4C4"/>
</mask>
<g mask="url(#mask1_319_5468)">
<path d="M6.66631 22L9.74131 4.5H15.4413C16.258 4.5 16.858 4.74167 17.2413 5.225C17.6413 5.69167 17.7663 6.34167 17.6163 7.175L16.9663 10.925C16.8663 11.4917 16.683 11.95 16.4163 12.3C16.1663 12.65 15.783 12.9167 15.2663 13.1C16.0996 13.4333 16.4163 14.2083 16.2163 15.425L15.4913 19.575C15.2246 21.1917 14.2663 22 12.6163 22H6.66631ZM11.7913 11.65H13.1913C13.458 11.65 13.6163 11.5083 13.6663 11.225L14.2913 7.675C14.3413 7.425 14.2413 7.3 13.9913 7.3H12.5413L11.7913 11.65ZM10.4913 19.2H11.8663C12.133 19.2 12.2913 19.0583 12.3413 18.775L13.0413 14.825C13.0913 14.575 12.9913 14.45 12.7413 14.45H11.2913L10.4913 19.2ZM20.8075 22.125C19.9742 22.125 19.3575 21.8833 18.9575 21.4C18.5575 20.9167 18.4325 20.2583 18.5825 19.425L21.2075 4.5H24.5075L21.9575 18.95C21.9075 19.2 22.0075 19.325 22.2575 19.325H23.2825C23.5492 19.325 23.7075 19.1833 23.7575 18.9L26.3075 4.5H29.6075L26.9325 19.675C26.6659 21.3083 25.6992 22.125 24.0325 22.125H20.8075ZM32.1231 4.5H35.4481L35.4981 12L38.2481 4.5H41.6231L36.3981 16.55L35.4231 22H32.1231L33.0981 16.55L32.1231 4.5ZM48.2726 22.1C47.4559 22.1 46.8476 21.8667 46.4476 21.4C46.0642 20.9167 45.9476 20.2583 46.0976 19.425L48.3226 6.825C48.5892 5.20833 49.5476 4.4 51.1976 4.4H54.5226C55.3392 4.4 55.9392 4.64167 56.3226 5.125C56.7226 5.59167 56.8476 6.24167 56.6976 7.075L54.4726 19.675C54.1726 21.2917 53.2142 22.1 51.5976 22.1H48.2726ZM49.7976 19.3H50.8476C51.0976 19.3 51.2559 19.1583 51.3226 18.875L53.2976 7.575C53.3476 7.325 53.2476 7.2 52.9976 7.2H51.9476C51.6976 7.2 51.5392 7.34167 51.4726 7.625L49.4976 18.925C49.4476 19.175 49.5476 19.3 49.7976 19.3ZM57.2132 22L60.2882 4.5H63.5882L64.5882 10.85L65.7382 4.5H69.0382L65.9632 22H62.6632L63.4882 17.45L62.4632 11.1L60.5132 22H57.2132ZM73.7991 22L76.8741 4.5H82.5991C83.4158 4.5 84.0158 4.74167 84.3991 5.225C84.7991 5.69167 84.9241 6.34167 84.7741 7.175L83.6491 13.475C83.3825 15.0917 82.4325 15.9 80.7991 15.9H78.1741L77.0991 22H73.7991ZM78.6741 13.1H80.0241C80.2908 13.1 80.4491 12.9583 80.4991 12.675L81.3991 7.675C81.4491 7.425 81.3491 7.3 81.0991 7.3H79.6741L78.6741 13.1ZM83.6858 22L89.4108 4.5H93.6608L93.1858 22H89.8858L90.0608 19.2H87.7858L86.9858 22H83.6858ZM88.5858 16.4H90.2608L90.7358 8.9L88.5858 16.4ZM95.6341 22L98.7091 4.5H102.009L103.009 10.85L104.159 4.5H107.459L104.384 22H101.084L101.909 17.45L100.884 11.1L98.9341 22H95.6341ZM110.14 22.1C109.323 22.1 108.715 21.8667 108.315 21.4C107.931 20.9167 107.815 20.2583 107.965 19.425L110.19 6.825C110.456 5.20833 111.415 4.4 113.065 4.4H116.365C117.181 4.4 117.781 4.64167 118.165 5.125C118.565 5.59167 118.69 6.24167 118.54 7.075L117.665 12H114.365L115.165 7.575C115.215 7.325 115.115 7.2 114.865 7.2H113.815C113.565 7.2 113.406 7.34167 113.34 7.625L111.365 18.925C111.315 19.175 111.415 19.3 111.665 19.3H112.69C112.956 19.3 113.115 19.1583 113.165 18.875L113.915 14.5H117.215L116.315 19.675C116.048 21.2917 115.09 22.1 113.44 22.1H110.14ZM118.086 22L123.811 4.5H128.061L127.586 22H124.286L124.461 19.2H122.186L121.386 22H118.086ZM122.986 16.4H124.661L125.136 8.9L122.986 16.4ZM130.034 22L133.109 4.5H136.409L135.159 11.55L138.584 4.5H141.984L137.559 13.275L138.834 22H135.584L134.609 14.875L133.334 22H130.034ZM141.208 22L144.283 4.5H151.033L150.558 7.3H147.083L146.308 11.7H149.608L149.133 14.5H145.833L145.008 19.2H148.558L148.058 22H141.208ZM153.093 22.1C152.376 22.1 151.843 21.8917 151.493 21.475C151.143 21.0417 151.035 20.4583 151.168 19.725L151.918 15.5H155.168L154.568 18.925C154.518 19.175 154.618 19.3 154.868 19.3H155.868C156.151 19.3 156.318 19.1583 156.368 18.875L156.893 15.975C156.926 15.725 156.885 15.5417 156.768 15.425L153.593 12.825C152.91 12.225 152.651 11.475 152.818 10.575L153.518 6.525C153.785 5.10833 154.626 4.4 156.043 4.4H159.693C160.426 4.4 160.96 4.61667 161.293 5.05C161.643 5.48333 161.751 6.05833 161.618 6.775L160.918 10.75H157.768L158.343 7.575C158.393 7.325 158.293 7.2 158.043 7.2H157.043C156.793 7.2 156.635 7.34167 156.568 7.625L156.118 10.2C156.068 10.4333 156.101 10.6167 156.218 10.75L159.393 13.35C160.093 13.9333 160.36 14.6833 160.193 15.6L159.418 19.975C159.168 21.3917 158.326 22.1 156.893 22.1H153.093ZM164.298 4.5H167.573L166.798 16.225L170.073 4.5H173.373L172.498 16.225L175.873 4.5H179.198L173.823 22H169.773L170.398 12.2L167.573 22H163.523L164.298 4.5ZM177.715 22L183.44 4.5H187.69L187.215 22H183.915L184.09 19.2H181.815L181.015 22H177.715ZM182.615 16.4H184.29L184.765 8.9L182.615 16.4ZM189.663 22L192.738 4.5H198.463C199.28 4.5 199.88 4.74167 200.263 5.225C200.663 5.69167 200.788 6.34167 200.638 7.175L199.513 13.475C199.247 15.0917 198.297 15.9 196.663 15.9H194.038L192.963 22H189.663ZM194.538 13.1H195.888C196.155 13.1 196.313 12.9583 196.363 12.675L197.263 7.675C197.313 7.425 197.213 7.3 196.963 7.3H195.538L194.538 13.1Z" fill="url(#paint1_linear_319_5468)"/>
</g>
<defs>
<linearGradient id="paint0_linear_319_5468" x1="-47" y1="-8.97619" x2="-47.6279" y2="37.5359" gradientUnits="userSpaceOnUse">
<stop stop-color="#00BCB0"/>
<stop offset="1" stop-color="#F7D542"/>
</linearGradient>
<linearGradient id="paint1_linear_319_5468" x1="-42" y1="-8.97619" x2="-42.643" y2="37.5354" gradientUnits="userSpaceOnUse">
<stop stop-color="#00BCB0"/>
<stop offset="1" stop-color="#F7D542"/>
</linearGradient>
</defs>
</svg>
