<svg width="216" height="70" viewBox="0 0 216 70" fill="none" xmlns="http://www.w3.org/2000/svg">
<mask id="mask0_319_5466" style="mask-type:alpha" maskUnits="userSpaceOnUse" x="0" y="18" width="215" height="52">
<path d="M205 18H24H0V70H27H215V53H13.5V34.5H205V18Z" fill="#C4C4C4"/>
</mask>
<g mask="url(#mask0_319_5466)">
<path d="M52.1941 27L55.2691 9.5H60.9941C61.8108 9.5 62.4108 9.74167 62.7941 10.225C63.1941 10.6917 63.3191 11.3417 63.1691 12.175L62.1441 18.05C61.9275 19.2167 61.3691 19.95 60.4691 20.25L60.9691 27H57.9191L57.4691 20.475H56.6441L55.4941 27H52.1941ZM57.1441 17.675H58.4941C58.7608 17.675 58.9191 17.5333 58.9691 17.25L59.7691 12.675C59.8191 12.425 59.7191 12.3 59.4691 12.3H58.0691L57.1441 17.675ZM64.3377 27L67.4127 9.5H74.1627L73.6877 12.3H70.2127L69.4377 16.7H72.7377L72.2627 19.5H68.9627L68.1377 24.2H71.6877L71.1877 27H64.3377ZM74.0223 27L79.7473 9.5H83.9973L83.5223 27H80.2223L80.3973 24.2H78.1223L77.3223 27H74.0223ZM78.9223 21.4H80.5973L81.0723 13.9L78.9223 21.4ZM86.7205 27L89.7955 9.5H95.5455C96.3622 9.5 96.9622 9.74167 97.3455 10.225C97.7455 10.6917 97.8705 11.3417 97.7205 12.175L95.5455 24.575C95.2788 26.1917 94.3205 27 92.6705 27H86.7205ZM90.4955 24.2H91.8955C92.1622 24.2 92.3205 24.0583 92.3705 23.775L94.3455 12.675C94.3955 12.425 94.2955 12.3 94.0455 12.3H92.5955L90.4955 24.2ZM103.666 27L109.391 9.5H113.641L113.166 27H109.866L110.041 24.2H107.766L106.966 27H103.666ZM108.566 21.4H110.241L110.716 13.9L108.566 21.4ZM116.364 27L119.439 9.5H125.139C125.956 9.5 126.556 9.74167 126.939 10.225C127.339 10.6917 127.464 11.3417 127.314 12.175L126.664 15.925C126.564 16.4917 126.381 16.95 126.114 17.3C125.864 17.65 125.481 17.9167 124.964 18.1C125.797 18.4333 126.114 19.2083 125.914 20.425L125.189 24.575C124.922 26.1917 123.964 27 122.314 27H116.364ZM121.489 16.65H122.889C123.156 16.65 123.314 16.5083 123.364 16.225L123.989 12.675C124.039 12.425 123.939 12.3 123.689 12.3H122.239L121.489 16.65ZM120.189 24.2H121.564C121.831 24.2 121.989 24.0583 122.039 23.775L122.739 19.825C122.789 19.575 122.689 19.45 122.439 19.45H120.989L120.189 24.2ZM131.18 27.1C130.364 27.1 129.755 26.8667 129.355 26.4C128.972 25.9167 128.855 25.2583 129.005 24.425L131.23 11.825C131.497 10.2083 132.455 9.4 134.105 9.4H137.43C138.247 9.4 138.847 9.64167 139.23 10.125C139.63 10.5917 139.755 11.2417 139.605 12.075L137.38 24.675C137.08 26.2917 136.122 27.1 134.505 27.1H131.18ZM132.705 24.3H133.755C134.005 24.3 134.164 24.1583 134.23 23.875L136.205 12.575C136.255 12.325 136.155 12.2 135.905 12.2H134.855C134.605 12.2 134.447 12.3417 134.38 12.625L132.405 23.925C132.355 24.175 132.455 24.3 132.705 24.3ZM143.521 27.125C142.688 27.125 142.071 26.8833 141.671 26.4C141.271 25.9167 141.146 25.2583 141.296 24.425L143.921 9.5H147.221L144.671 23.95C144.621 24.2 144.721 24.325 144.971 24.325H145.996C146.263 24.325 146.421 24.1833 146.471 23.9L149.021 9.5H152.321L149.646 24.675C149.379 26.3083 148.413 27.125 146.746 27.125H143.521ZM155.062 27L157.637 12.3H155.287L155.762 9.5H163.812L163.337 12.3H160.937L158.362 27H155.062ZM21.6661 62.1C20.8494 62.1 20.2411 61.8667 19.8411 61.4C19.4578 60.9167 19.3411 60.2583 19.4911 59.425L21.7161 46.825C21.9828 45.2083 22.9411 44.4 24.5911 44.4H27.8911C28.7078 44.4 29.3078 44.6417 29.6911 45.125C30.0911 45.5917 30.2161 46.2417 30.0661 47.075L29.3661 51.1H26.0661L26.6911 47.575C26.7411 47.325 26.6411 47.2 26.3911 47.2H25.3411C25.0911 47.2 24.9328 47.3417 24.8661 47.625L22.8911 58.925C22.8411 59.175 22.9411 59.3 23.1911 59.3H24.6161L25.3161 55.35H24.2661L24.7411 52.55H29.0911L27.4411 62H24.4411L24.6911 60.85L23.4661 62.1H21.6661ZM30.5335 62L36.2585 44.5H40.5085L40.0335 62H36.7335L36.9085 59.2H34.6335L33.8335 62H30.5335ZM35.4335 56.4H37.1085L37.5835 48.9L35.4335 56.4ZM43.2317 62L46.3067 44.5H51.1067L50.5067 55.075L53.5317 44.5H58.5067L55.4317 62H52.1317L54.1317 50.65L50.6567 62H47.9067L48.3817 50.65L46.3817 62H43.2317ZM59.3548 62L62.4298 44.5H69.1798L68.7048 47.3H65.2298L64.4548 51.7H67.7548L67.2798 54.5H63.9798L63.1548 59.2H66.7048L66.2048 62H59.3548ZM69.3894 62L69.8894 59.2L76.1894 47.3H72.0894L72.5644 44.5H80.0644L79.5894 47.3L73.2894 59.2H77.4894L76.9894 62H69.3894ZM83.0919 62.1C82.2752 62.1 81.6669 61.8667 81.2669 61.4C80.8836 60.9167 80.7669 60.2583 80.9169 59.425L83.1419 46.825C83.4086 45.2083 84.3669 44.4 86.0169 44.4H89.3419C90.1586 44.4 90.7586 44.6417 91.1419 45.125C91.5419 45.5917 91.6669 46.2417 91.5169 47.075L89.2919 59.675C88.9919 61.2917 88.0336 62.1 86.4169 62.1H83.0919ZM84.6169 59.3H85.6669C85.9169 59.3 86.0752 59.1583 86.1419 58.875L88.1169 47.575C88.1669 47.325 88.0669 47.2 87.8169 47.2H86.7669C86.5169 47.2 86.3586 47.3417 86.2919 47.625L84.3169 58.925C84.2669 59.175 84.3669 59.3 84.6169 59.3ZM92.7825 62L95.8575 44.5H99.1575L100.158 50.85L101.308 44.5H104.608L101.533 62H98.2325L99.0575 57.45L98.0325 51.1L96.0825 62H92.7825ZM105.463 62L108.538 44.5H115.288L114.813 47.3H111.338L110.563 51.7H113.863L113.388 54.5H110.088L109.263 59.2H112.813L112.313 62H105.463ZM121.303 62L124.378 44.5H127.678L125.103 59.2H128.503L128.028 62H121.303ZM131.469 62L134.544 44.5H141.294L140.819 47.3H137.344L136.569 51.7H139.869L139.394 54.5H136.094L135.269 59.2H138.819L138.319 62H131.469ZM143.929 62L144.379 44.5H147.654L146.779 57.6L150.554 44.5H153.879L148.179 62H143.929ZM154.072 62L157.147 44.5H163.897L163.422 47.3H159.947L159.172 51.7H162.472L161.997 54.5H158.697L157.872 59.2H161.422L160.922 62H154.072ZM164.506 62L167.581 44.5H170.881L168.306 59.2H171.706L171.231 62H164.506ZM185.283 62L185.783 59.2L185.958 58.2C186.108 57.35 186.433 56.6167 186.933 56L192.133 50C192.366 49.7 192.499 49.4583 192.533 49.275L192.833 47.575C192.883 47.325 192.791 47.2 192.558 47.2H191.558C191.291 47.2 191.133 47.3417 191.083 47.625L190.608 50.325H187.458L188.058 46.825C188.358 45.2083 189.324 44.4 190.958 44.4H194.058C194.891 44.4 195.499 44.6417 195.883 45.125C196.266 45.6083 196.374 46.2583 196.208 47.075L195.758 49.675C195.608 50.5583 195.274 51.2833 194.758 51.85L189.633 57.65C189.416 57.9 189.274 58.15 189.208 58.4L189.083 59.2H194.083L193.583 62H185.283Z" fill="url(#paint0_linear_319_5466)"/>
</g>
<mask id="mask1_319_5466" style="mask-type:alpha" maskUnits="userSpaceOnUse" x="1" y="0" width="215" height="53">
<path d="M206 18H25H14.5V38.5H28H216V53H14.5V38.5H1V18H14.5V0.5H206V18Z" fill="#C4C4C4"/>
</mask>
<g mask="url(#mask1_319_5466)">
<path d="M53.1941 27L56.2691 9.5H61.9941C62.8108 9.5 63.4108 9.74167 63.7941 10.225C64.1941 10.6917 64.3191 11.3417 64.1691 12.175L63.1441 18.05C62.9275 19.2167 62.3691 19.95 61.4691 20.25L61.9691 27H58.9191L58.4691 20.475H57.6441L56.4941 27H53.1941ZM58.1441 17.675H59.4941C59.7608 17.675 59.9191 17.5333 59.9691 17.25L60.7691 12.675C60.8191 12.425 60.7191 12.3 60.4691 12.3H59.0691L58.1441 17.675ZM65.3377 27L68.4127 9.5H75.1627L74.6877 12.3H71.2127L70.4377 16.7H73.7377L73.2627 19.5H69.9627L69.1377 24.2H72.6877L72.1877 27H65.3377ZM75.0223 27L80.7473 9.5H84.9973L84.5223 27H81.2223L81.3973 24.2H79.1223L78.3223 27H75.0223ZM79.9223 21.4H81.5973L82.0723 13.9L79.9223 21.4ZM87.7205 27L90.7955 9.5H96.5455C97.3622 9.5 97.9622 9.74167 98.3455 10.225C98.7455 10.6917 98.8705 11.3417 98.7205 12.175L96.5455 24.575C96.2788 26.1917 95.3205 27 93.6705 27H87.7205ZM91.4955 24.2H92.8955C93.1622 24.2 93.3205 24.0583 93.3705 23.775L95.3455 12.675C95.3955 12.425 95.2955 12.3 95.0455 12.3H93.5955L91.4955 24.2ZM104.666 27L110.391 9.5H114.641L114.166 27H110.866L111.041 24.2H108.766L107.966 27H104.666ZM109.566 21.4H111.241L111.716 13.9L109.566 21.4ZM117.364 27L120.439 9.5H126.139C126.956 9.5 127.556 9.74167 127.939 10.225C128.339 10.6917 128.464 11.3417 128.314 12.175L127.664 15.925C127.564 16.4917 127.381 16.95 127.114 17.3C126.864 17.65 126.481 17.9167 125.964 18.1C126.797 18.4333 127.114 19.2083 126.914 20.425L126.189 24.575C125.922 26.1917 124.964 27 123.314 27H117.364ZM122.489 16.65H123.889C124.156 16.65 124.314 16.5083 124.364 16.225L124.989 12.675C125.039 12.425 124.939 12.3 124.689 12.3H123.239L122.489 16.65ZM121.189 24.2H122.564C122.831 24.2 122.989 24.0583 123.039 23.775L123.739 19.825C123.789 19.575 123.689 19.45 123.439 19.45H121.989L121.189 24.2ZM132.18 27.1C131.364 27.1 130.755 26.8667 130.355 26.4C129.972 25.9167 129.855 25.2583 130.005 24.425L132.23 11.825C132.497 10.2083 133.455 9.4 135.105 9.4H138.43C139.247 9.4 139.847 9.64167 140.23 10.125C140.63 10.5917 140.755 11.2417 140.605 12.075L138.38 24.675C138.08 26.2917 137.122 27.1 135.505 27.1H132.18ZM133.705 24.3H134.755C135.005 24.3 135.164 24.1583 135.23 23.875L137.205 12.575C137.255 12.325 137.155 12.2 136.905 12.2H135.855C135.605 12.2 135.447 12.3417 135.38 12.625L133.405 23.925C133.355 24.175 133.455 24.3 133.705 24.3ZM144.521 27.125C143.688 27.125 143.071 26.8833 142.671 26.4C142.271 25.9167 142.146 25.2583 142.296 24.425L144.921 9.5H148.221L145.671 23.95C145.621 24.2 145.721 24.325 145.971 24.325H146.996C147.263 24.325 147.421 24.1833 147.471 23.9L150.021 9.5H153.321L150.646 24.675C150.379 26.3083 149.413 27.125 147.746 27.125H144.521ZM156.062 27L158.637 12.3H156.287L156.762 9.5H164.812L164.337 12.3H161.937L159.362 27H156.062ZM22.6661 62.1C21.8494 62.1 21.2411 61.8667 20.8411 61.4C20.4578 60.9167 20.3411 60.2583 20.4911 59.425L22.7161 46.825C22.9828 45.2083 23.9411 44.4 25.5911 44.4H28.8911C29.7078 44.4 30.3078 44.6417 30.6911 45.125C31.0911 45.5917 31.2161 46.2417 31.0661 47.075L30.3661 51.1H27.0661L27.6911 47.575C27.7411 47.325 27.6411 47.2 27.3911 47.2H26.3411C26.0911 47.2 25.9328 47.3417 25.8661 47.625L23.8911 58.925C23.8411 59.175 23.9411 59.3 24.1911 59.3H25.6161L26.3161 55.35H25.2661L25.7411 52.55H30.0911L28.4411 62H25.4411L25.6911 60.85L24.4661 62.1H22.6661ZM31.5335 62L37.2585 44.5H41.5085L41.0335 62H37.7335L37.9085 59.2H35.6335L34.8335 62H31.5335ZM36.4335 56.4H38.1085L38.5835 48.9L36.4335 56.4ZM44.2317 62L47.3067 44.5H52.1067L51.5067 55.075L54.5317 44.5H59.5067L56.4317 62H53.1317L55.1317 50.65L51.6567 62H48.9067L49.3817 50.65L47.3817 62H44.2317ZM60.3548 62L63.4298 44.5H70.1798L69.7048 47.3H66.2298L65.4548 51.7H68.7548L68.2798 54.5H64.9798L64.1548 59.2H67.7048L67.2048 62H60.3548ZM70.3894 62L70.8894 59.2L77.1894 47.3H73.0894L73.5644 44.5H81.0644L80.5894 47.3L74.2894 59.2H78.4894L77.9894 62H70.3894ZM84.0919 62.1C83.2752 62.1 82.6669 61.8667 82.2669 61.4C81.8836 60.9167 81.7669 60.2583 81.9169 59.425L84.1419 46.825C84.4086 45.2083 85.3669 44.4 87.0169 44.4H90.3419C91.1586 44.4 91.7586 44.6417 92.1419 45.125C92.5419 45.5917 92.6669 46.2417 92.5169 47.075L90.2919 59.675C89.9919 61.2917 89.0336 62.1 87.4169 62.1H84.0919ZM85.6169 59.3H86.6669C86.9169 59.3 87.0752 59.1583 87.1419 58.875L89.1169 47.575C89.1669 47.325 89.0669 47.2 88.8169 47.2H87.7669C87.5169 47.2 87.3586 47.3417 87.2919 47.625L85.3169 58.925C85.2669 59.175 85.3669 59.3 85.6169 59.3ZM93.7825 62L96.8575 44.5H100.158L101.158 50.85L102.308 44.5H105.608L102.533 62H99.2325L100.058 57.45L99.0325 51.1L97.0825 62H93.7825ZM106.463 62L109.538 44.5H116.288L115.813 47.3H112.338L111.563 51.7H114.863L114.388 54.5H111.088L110.263 59.2H113.813L113.313 62H106.463ZM122.303 62L125.378 44.5H128.678L126.103 59.2H129.503L129.028 62H122.303ZM132.469 62L135.544 44.5H142.294L141.819 47.3H138.344L137.569 51.7H140.869L140.394 54.5H137.094L136.269 59.2H139.819L139.319 62H132.469ZM144.929 62L145.379 44.5H148.654L147.779 57.6L151.554 44.5H154.879L149.179 62H144.929ZM155.072 62L158.147 44.5H164.897L164.422 47.3H160.947L160.172 51.7H163.472L162.997 54.5H159.697L158.872 59.2H162.422L161.922 62H155.072ZM165.506 62L168.581 44.5H171.881L169.306 59.2H172.706L172.231 62H165.506ZM186.283 62L186.783 59.2L186.958 58.2C187.108 57.35 187.433 56.6167 187.933 56L193.133 50C193.366 49.7 193.499 49.4583 193.533 49.275L193.833 47.575C193.883 47.325 193.791 47.2 193.558 47.2H192.558C192.291 47.2 192.133 47.3417 192.083 47.625L191.608 50.325H188.458L189.058 46.825C189.358 45.2083 190.324 44.4 191.958 44.4H195.058C195.891 44.4 196.499 44.6417 196.883 45.125C197.266 45.6083 197.374 46.2583 197.208 47.075L196.758 49.675C196.608 50.5583 196.274 51.2833 195.758 51.85L190.633 57.65C190.416 57.9 190.274 58.15 190.208 58.4L190.083 59.2H195.083L194.583 62H186.283Z" fill="url(#paint1_linear_319_5466)"/>
</g>
<defs>
<linearGradient id="paint0_linear_319_5466" x1="12" y1="-43.4167" x2="0.0615697" y2="118.525" gradientUnits="userSpaceOnUse">
<stop stop-color="#00BCB0"/>
<stop offset="1" stop-color="#F7D542"/>
</linearGradient>
<linearGradient id="paint1_linear_319_5466" x1="13" y1="-43.4167" x2="1.06157" y2="118.525" gradientUnits="userSpaceOnUse">
<stop stop-color="#00BCB0"/>
<stop offset="1" stop-color="#F7D542"/>
</linearGradient>
</defs>
</svg>
