<svg width="162" height="28" viewBox="0 0 162 28" fill="none" xmlns="http://www.w3.org/2000/svg">
<mask id="mask0_319_5467" style="mask-type:alpha" maskUnits="userSpaceOnUse" x="0" y="13" width="161" height="15">
<rect y="13" width="161" height="15" fill="#C4C4C4"/>
</mask>
<g mask="url(#mask0_319_5467)">
<path d="M8.50972 22.1719L11.5847 4.67187H17.2847C18.1014 4.67187 18.7014 4.91354 19.0847 5.39687C19.4847 5.86354 19.6097 6.51354 19.4597 7.34687L18.8097 11.0969C18.7097 11.6635 18.5264 12.1219 18.2597 12.4719C18.0097 12.8219 17.6264 13.0885 17.1097 13.2719C17.943 13.6052 18.2597 14.3802 18.0597 15.5969L17.3347 19.7469C17.068 21.3635 16.1097 22.1719 14.4597 22.1719H8.50972ZM13.6347 11.8219H15.0347C15.3014 11.8219 15.4597 11.6802 15.5097 11.3969L16.1347 7.84687C16.1847 7.59687 16.0847 7.47188 15.8347 7.47188H14.3847L13.6347 11.8219ZM12.3347 19.3719H13.7097C13.9764 19.3719 14.1347 19.2302 14.1847 18.9469L14.8847 14.9969C14.9347 14.7469 14.8347 14.6219 14.5847 14.6219H13.1347L12.3347 19.3719ZM22.6509 22.2969C21.8176 22.2969 21.2009 22.0552 20.8009 21.5719C20.4009 21.0885 20.2759 20.4302 20.4259 19.5969L23.0509 4.67187H26.3509L23.8009 19.1219C23.7509 19.3719 23.8509 19.4969 24.1009 19.4969H25.1259C25.3926 19.4969 25.5509 19.3552 25.6009 19.0719L28.1509 4.67187H31.4509L28.7759 19.8469C28.5093 21.4802 27.5426 22.2969 25.8759 22.2969H22.6509ZM33.9666 4.67187H37.2916L37.3416 12.1719L40.0916 4.67187H43.4666L38.2416 16.7219L37.2666 22.1719H33.9666L34.9416 16.7219L33.9666 4.67187ZM50.116 22.2719C49.2993 22.2719 48.691 22.0385 48.291 21.5719C47.9076 21.0885 47.791 20.4302 47.941 19.5969L50.166 6.99687C50.4326 5.38021 51.391 4.57187 53.041 4.57187H56.366C57.1826 4.57187 57.7826 4.81354 58.166 5.29687C58.566 5.76354 58.691 6.41354 58.541 7.24687L56.316 19.8469C56.016 21.4635 55.0576 22.2719 53.441 22.2719H50.116ZM51.641 19.4719H52.691C52.941 19.4719 53.0993 19.3302 53.166 19.0469L55.141 7.74687C55.191 7.49687 55.091 7.37187 54.841 7.37187H53.791C53.541 7.37187 53.3826 7.51354 53.316 7.79687L51.341 19.0969C51.291 19.3469 51.391 19.4719 51.641 19.4719ZM59.0566 22.1719L62.1316 4.67187H65.4316L66.4316 11.0219L67.5816 4.67187H70.8816L67.8066 22.1719H64.5066L65.3316 17.6219L64.3066 11.2719L62.3566 22.1719H59.0566ZM78.2925 22.2969C77.4592 22.2969 76.8425 22.0552 76.4425 21.5719C76.0425 21.0885 75.9175 20.4302 76.0675 19.5969L78.6925 4.67187H81.9925L79.4425 19.1219C79.3925 19.3719 79.4925 19.4969 79.7425 19.4969H80.7675C81.0342 19.4969 81.1925 19.3552 81.2425 19.0719L83.7925 4.67187H87.0925L84.4175 19.8469C84.1509 21.4802 83.1842 22.2969 81.5175 22.2969H78.2925ZM87.1582 22.1719L90.2332 4.67187H93.5332L94.5332 11.0219L95.6832 4.67187H98.9832L95.9082 22.1719H92.6082L93.4332 17.6219L92.4082 11.2719L90.4582 22.1719H87.1582ZM99.0888 22.1719L102.164 4.67187H105.464L102.389 22.1719H99.0888ZM107.775 22.2719C107.058 22.2719 106.525 22.0635 106.175 21.6469C105.825 21.2135 105.717 20.6302 105.85 19.8969L106.6 15.6719H109.85L109.25 19.0969C109.2 19.3469 109.3 19.4719 109.55 19.4719H110.55C110.833 19.4719 111 19.3302 111.05 19.0469L111.575 16.1469C111.608 15.8969 111.567 15.7135 111.45 15.5969L108.275 12.9969C107.592 12.3969 107.333 11.6469 107.5 10.7469L108.2 6.69687C108.467 5.28021 109.308 4.57187 110.725 4.57187H114.375C115.108 4.57187 115.642 4.78854 115.975 5.22187C116.325 5.65521 116.433 6.23021 116.3 6.94687L115.6 10.9219H112.45L113.025 7.74687C113.075 7.49687 112.975 7.37187 112.725 7.37187H111.725C111.475 7.37187 111.317 7.51354 111.25 7.79687L110.8 10.3719C110.75 10.6052 110.783 10.7885 110.9 10.9219L114.075 13.5219C114.775 14.1052 115.042 14.8552 114.875 15.7719L114.1 20.1469C113.85 21.5635 113.008 22.2719 111.575 22.2719H107.775ZM118.98 4.67187H122.255L121.48 16.3969L124.755 4.67187H128.055L127.18 16.3969L130.555 4.67187H133.88L128.505 22.1719H124.455L125.08 12.3719L122.255 22.1719H118.205L118.98 4.67187ZM132.397 22.1719L138.122 4.67187H142.372L141.897 22.1719H138.597L138.772 19.3719H136.497L135.697 22.1719H132.397ZM137.297 16.5719H138.972L139.447 9.07187L137.297 16.5719ZM144.346 22.1719L147.421 4.67187H153.146C153.962 4.67187 154.562 4.91354 154.946 5.39687C155.346 5.86354 155.471 6.51354 155.321 7.34687L154.196 13.6469C153.929 15.2635 152.979 16.0719 151.346 16.0719H148.721L147.646 22.1719H144.346ZM149.221 13.2719H150.571C150.837 13.2719 150.996 13.1302 151.046 12.8469L151.946 7.84687C151.996 7.59687 151.896 7.47188 151.646 7.47188H150.221L149.221 13.2719Z" fill="url(#paint0_linear_319_5467)"/>
</g>
<mask id="mask1_319_5467" style="mask-type:alpha" maskUnits="userSpaceOnUse" x="3" y="0" width="159" height="13">
<rect width="159" height="13" transform="matrix(1 0 0 -1 3 13)" fill="#C4C4C4"/>
</mask>
<g mask="url(#mask1_319_5467)">
<path d="M10.2469 22L13.3219 4.5H19.0219C19.8385 4.5 20.4385 4.74167 20.8219 5.225C21.2219 5.69167 21.3469 6.34167 21.1969 7.175L20.5469 10.925C20.4469 11.4917 20.2635 11.95 19.9969 12.3C19.7469 12.65 19.3635 12.9167 18.8469 13.1C19.6802 13.4333 19.9969 14.2083 19.7969 15.425L19.0719 19.575C18.8052 21.1917 17.8469 22 16.1969 22H10.2469ZM15.3719 11.65H16.7719C17.0385 11.65 17.1969 11.5083 17.2469 11.225L17.8719 7.675C17.9219 7.425 17.8219 7.3 17.5719 7.3H16.1219L15.3719 11.65ZM14.0719 19.2H15.4469C15.7135 19.2 15.8719 19.0583 15.9219 18.775L16.6219 14.825C16.6719 14.575 16.5719 14.45 16.3219 14.45H14.8719L14.0719 19.2ZM24.3881 22.125C23.5548 22.125 22.9381 21.8833 22.5381 21.4C22.1381 20.9167 22.0131 20.2583 22.1631 19.425L24.7881 4.5H28.0881L25.5381 18.95C25.4881 19.2 25.5881 19.325 25.8381 19.325H26.8631C27.1298 19.325 27.2881 19.1833 27.3381 18.9L29.8881 4.5H33.1881L30.5131 19.675C30.2464 21.3083 29.2798 22.125 27.6131 22.125H24.3881ZM35.7037 4.5H39.0287L39.0787 12L41.8287 4.5H45.2037L39.9787 16.55L39.0037 22H35.7037L36.6787 16.55L35.7037 4.5ZM51.8531 22.1C51.0365 22.1 50.4281 21.8667 50.0281 21.4C49.6448 20.9167 49.5281 20.2583 49.6781 19.425L51.9031 6.825C52.1698 5.20833 53.1281 4.4 54.7781 4.4H58.1031C58.9198 4.4 59.5198 4.64167 59.9031 5.125C60.3031 5.59167 60.4281 6.24167 60.2781 7.075L58.0531 19.675C57.7531 21.2917 56.7948 22.1 55.1781 22.1H51.8531ZM53.3781 19.3H54.4281C54.6781 19.3 54.8365 19.1583 54.9031 18.875L56.8781 7.575C56.9281 7.325 56.8281 7.2 56.5781 7.2H55.5281C55.2781 7.2 55.1198 7.34167 55.0531 7.625L53.0781 18.925C53.0281 19.175 53.1281 19.3 53.3781 19.3ZM60.7937 22L63.8688 4.5H67.1688L68.1688 10.85L69.3188 4.5H72.6188L69.5438 22H66.2438L67.0688 17.45L66.0438 11.1L64.0938 22H60.7937ZM80.0297 22.125C79.1964 22.125 78.5797 21.8833 78.1797 21.4C77.7797 20.9167 77.6547 20.2583 77.8047 19.425L80.4297 4.5H83.7297L81.1797 18.95C81.1297 19.2 81.2297 19.325 81.4797 19.325H82.5047C82.7714 19.325 82.9297 19.1833 82.9797 18.9L85.5297 4.5H88.8297L86.1547 19.675C85.888 21.3083 84.9214 22.125 83.2547 22.125H80.0297ZM88.8953 22L91.9703 4.5H95.2703L96.2703 10.85L97.4203 4.5H100.72L97.6453 22H94.3453L95.1703 17.45L94.1453 11.1L92.1953 22H88.8953ZM100.826 22L103.901 4.5H107.201L104.126 22H100.826ZM109.512 22.1C108.796 22.1 108.262 21.8917 107.912 21.475C107.562 21.0417 107.454 20.4583 107.587 19.725L108.337 15.5H111.587L110.987 18.925C110.937 19.175 111.037 19.3 111.287 19.3H112.287C112.571 19.3 112.737 19.1583 112.787 18.875L113.312 15.975C113.346 15.725 113.304 15.5417 113.187 15.425L110.012 12.825C109.329 12.225 109.071 11.475 109.237 10.575L109.937 6.525C110.204 5.10833 111.046 4.4 112.462 4.4H116.112C116.846 4.4 117.379 4.61667 117.712 5.05C118.062 5.48333 118.171 6.05833 118.037 6.775L117.337 10.75H114.187L114.762 7.575C114.812 7.325 114.712 7.2 114.462 7.2H113.462C113.212 7.2 113.054 7.34167 112.987 7.625L112.537 10.2C112.487 10.4333 112.521 10.6167 112.637 10.75L115.812 13.35C116.512 13.9333 116.779 14.6833 116.612 15.6L115.837 19.975C115.587 21.3917 114.746 22.1 113.312 22.1H109.512ZM120.717 4.5H123.992L123.217 16.225L126.492 4.5H129.792L128.917 16.225L132.292 4.5H135.617L130.242 22H126.192L126.817 12.2L123.992 22H119.942L120.717 4.5ZM134.135 22L139.86 4.5H144.11L143.635 22H140.335L140.51 19.2H138.235L137.435 22H134.135ZM139.035 16.4H140.71L141.185 8.9L139.035 16.4ZM146.083 22L149.158 4.5H154.883C155.699 4.5 156.299 4.74167 156.683 5.225C157.083 5.69167 157.208 6.34167 157.058 7.175L155.933 13.475C155.666 15.0917 154.716 15.9 153.083 15.9H150.458L149.383 22H146.083ZM150.958 13.1H152.308C152.574 13.1 152.733 12.9583 152.783 12.675L153.683 7.675C153.733 7.425 153.633 7.3 153.383 7.3H151.958L150.958 13.1Z" fill="url(#paint1_linear_319_5467)"/>
</g>
<defs>
<linearGradient id="paint0_linear_319_5467" x1="-41.4258" y1="-8.80432" x2="-42.1852" y2="37.7038" gradientUnits="userSpaceOnUse">
<stop stop-color="#00BCB0"/>
<stop offset="1" stop-color="#F7D542"/>
</linearGradient>
<linearGradient id="paint1_linear_319_5467" x1="-31" y1="-8.97619" x2="-31.817" y2="37.53" gradientUnits="userSpaceOnUse">
<stop stop-color="#00BCB0"/>
<stop offset="1" stop-color="#F7D542"/>
</linearGradient>
</defs>
</svg>
