<svg width="139" height="139" viewBox="0 0 139 139" fill="none" xmlns="http://www.w3.org/2000/svg">
<path d="M136.535 78.8518L136.728 76.9375L129.954 73.4863L137.278 71.4661L137.471 69.5518L127.999 72.4012L127.821 74.1732L136.535 78.8518Z" fill="white"/>
<path d="M126.364 83.2892L135.156 85.636L135.595 83.9906L126.803 81.6438L126.364 83.2892Z" fill="white"/>
<path d="M129.381 97.4468C130.944 97.3824 131.905 96.2007 132.476 94.904C133.141 93.3641 133.183 91.3656 131.47 90.6107C129.603 89.7877 128.459 91.1588 127.507 92.7708C126.9 93.8247 126.217 94.504 125.432 94.158C124.528 93.7596 124.592 92.6797 125.027 91.6923C125.473 90.6811 126.302 89.8958 127.38 89.9306L127.279 88.3232C125.484 88.2708 124.383 89.3487 123.634 91.0499C122.816 92.9057 122.89 94.8986 124.745 95.7164C126.732 96.5919 127.897 95.1732 128.877 93.5307C129.436 92.5839 130.016 91.8165 130.741 92.1362C131.36 92.4088 131.601 93.1829 131.087 94.3487C130.689 95.2528 129.891 95.8388 129.289 95.9146L129.381 97.4468Z" fill="white"/>
<path d="M119.46 99.8202L127.138 104.705L128.052 103.268L120.375 98.3833L119.46 99.8202Z" fill="white"/>
<path d="M115.417 105.692L114.3 106.994L120.022 111.904L118.143 114.094L119.327 115.11C121.045 113.107 122.493 111.42 124.203 109.427L123.019 108.411L121.14 110.601L115.417 105.692Z" fill="white"/>
<path d="M104.642 127.169L101.876 122.751C101.048 121.428 101.228 120.196 102.429 119.444C103.63 118.693 104.886 118.934 105.755 120.323L108.521 124.741L109.964 123.838L107.198 119.419C105.743 117.094 103.463 116.956 101.612 118.115C99.6729 119.329 99.0047 121.373 100.433 123.654L103.199 128.073L104.642 127.169Z" fill="white"/>
<path d="M90.7086 132.132C91.8429 133.208 93.3603 133.075 94.6889 132.582C96.2566 131.987 97.7206 130.626 97.0696 128.871C96.3597 126.957 94.5791 127.091 92.7593 127.53C91.5805 127.829 90.6174 127.812 90.319 127.007C89.9754 126.081 90.795 125.375 91.8066 124.999C92.8427 124.615 93.9836 124.663 94.7096 125.462L95.7926 124.27C94.5801 122.945 93.0405 122.906 91.2975 123.552C89.3961 124.257 88.017 125.698 88.7223 127.599C89.4774 129.635 91.3068 129.483 93.1677 129.042C94.2368 128.785 95.1912 128.666 95.467 129.41C95.7021 130.043 95.3146 130.756 94.1202 131.199C93.1938 131.542 92.2176 131.378 91.7442 130.999L90.7086 132.132Z" fill="white"/>
<path d="M63.2829 131.314C63.2293 131.709 63.0846 131.969 62.849 132.094C62.6121 132.228 62.3391 132.275 62.03 132.233C61.7294 132.192 61.4828 132.075 61.2902 131.883C61.0965 131.699 61.0264 131.41 61.08 131.015C61.1313 130.637 61.2759 130.377 61.5139 130.234C61.7508 130.1 62.0195 130.053 62.3201 130.094C62.6292 130.136 62.8801 130.253 63.0727 130.446C63.2641 130.646 63.3341 130.936 63.2829 131.314Z" fill="white"/>
<path d="M26.4951 122.334L28.0468 123.472L34.4583 119.387L32.4819 126.723L34.0337 127.86L36.3856 118.253L34.9491 117.2L26.4951 122.334Z" fill="white"/>
<path d="M27.8459 111.328L21.3647 117.716L22.5601 118.929L29.0414 112.541L27.8459 111.328Z" fill="white"/>
<path d="M14.1785 106.868C13.4484 108.251 13.9867 109.676 14.8202 110.822C15.8172 112.171 17.5234 113.212 19.0373 112.111C20.6878 110.91 20.0778 109.232 19.163 107.599C18.5569 106.545 18.3131 105.613 19.007 105.108C19.8059 104.527 20.7073 105.125 21.342 105.998C21.992 106.891 22.254 108.003 21.6816 108.918L23.122 109.638C24.07 108.113 23.6914 106.62 22.5978 105.116C21.4048 103.476 19.6452 102.538 18.0052 103.731C16.2495 105.008 16.8901 106.728 17.8173 108.401C18.3546 109.36 18.7264 110.247 18.0852 110.714C17.5385 111.111 16.748 110.931 15.9986 109.901C15.4174 109.102 15.3122 108.117 15.5492 107.559L14.1785 106.868Z" fill="white"/>
<path d="M17.1355 97.1449L9.0564 101.333L9.84011 102.845L17.9192 98.6569L17.1355 97.1449Z" fill="white"/>
<path d="M14.089 90.6974L13.5287 89.0755L6.40201 91.5377L5.45957 88.8099L3.98509 89.3194C4.84687 91.8137 5.57281 93.9148 6.43035 96.3969L7.90482 95.8874L6.96238 93.1597L14.089 90.6974Z" fill="white"/>
<path d="M0.99634 70.554L6.20744 70.4132C7.76687 70.3711 8.7373 71.1511 8.77558 72.5676C8.81386 73.9841 7.96846 74.9433 6.33106 74.9875L1.11996 75.1284L1.16597 76.8308L6.37706 76.6899C9.11906 76.6158 10.3944 74.7217 10.3354 72.5385C10.2735 70.2513 8.85145 68.6381 6.16143 68.7108L0.950333 68.8517L0.99634 70.554Z" fill="white"/>
<path d="M3.73469 55.9907C2.23297 56.4274 1.58288 57.805 1.33872 59.2008C1.06256 60.855 1.50001 62.8055 3.34401 63.1281C5.35448 63.4798 6.13677 61.8746 6.67479 60.0814C7.01117 58.9129 7.51148 58.0898 8.35664 58.2377C9.32987 58.4079 9.52651 59.4717 9.34059 60.5346C9.15018 61.623 8.53335 62.5841 7.47788 62.8086L7.9614 64.3449C9.71699 63.9657 10.5268 62.6557 10.8472 60.8245C11.1966 58.8268 10.6478 56.9096 8.65009 56.5601C6.51156 56.1861 5.7203 57.8425 5.16276 59.6718C4.84654 60.725 4.46757 61.609 3.68643 61.4723C3.02054 61.3558 2.60079 60.6621 2.82032 59.4072C2.99056 58.434 3.62501 57.6739 4.19099 57.4562L3.73469 55.9907Z" fill="white"/>
<path d="M18.2086 32.8002C17.895 32.5541 17.7437 32.2976 17.7547 32.0309C17.7589 31.7588 17.8574 31.5 18.05 31.2546C18.2372 31.0159 18.4625 30.8622 18.7258 30.7934C18.9823 30.7193 19.2674 30.8053 19.581 31.0514C19.881 31.2868 20.0323 31.5432 20.0349 31.8207C20.0306 32.0928 19.9349 32.3482 19.7476 32.5868C19.555 32.8322 19.3271 32.9894 19.0638 33.0582C18.7936 33.1216 18.5086 33.0356 18.2086 32.8002Z" fill="white"/>
<path d="M44.3926 5.55118L42.6291 6.32047L42.9358 13.9164L37.5888 8.51919L35.8253 9.28848L42.9468 16.1526L44.5793 15.4404L44.3926 5.55118Z" fill="white"/>
<path d="M53.2844 12.2229L51.0379 3.40453L49.3876 3.82496L51.6341 12.6433L53.2844 12.2229Z" fill="white"/>
<path d="M64.1684 2.65358C63.3474 1.32242 61.8465 1.06268 60.436 1.19906C58.7681 1.37341 57.0045 2.31453 57.1847 4.17784C57.3811 6.20936 59.1367 6.5359 61.0083 6.57695C62.2242 6.58998 63.1508 6.85302 63.2334 7.70703C63.3285 8.69045 62.3555 9.16329 61.2815 9.26715C60.1817 9.3735 59.091 9.0349 58.5935 8.07734L57.2415 8.95254C58.0745 10.5437 59.5529 10.9755 61.4033 10.7965C63.4219 10.6013 65.1237 9.56171 64.9285 7.54312C64.7196 5.3822 62.9122 5.06066 61.0005 5.01043C59.9011 4.98614 58.9481 4.85625 58.8718 4.06693C58.8068 3.39407 59.3636 2.80474 60.6317 2.68212C61.6151 2.58702 62.5167 2.99615 62.8773 3.4837L64.1684 2.65358Z" fill="white"/>
<path d="M70.9233 10.1125L71.4146 1.02574L69.7141 0.933783L69.2228 10.0205L70.9233 10.1125Z" fill="white"/>
<path d="M78.2885 10.754L79.9703 11.0948L81.4678 3.705L84.2963 4.27818L84.6061 2.74925C82.0197 2.22514 79.841 1.78364 77.2673 1.2621L76.9575 2.79103L79.786 3.3642L78.2885 10.754Z" fill="white"/>
<path d="M102.111 9.55403L99.5932 14.1186C98.8397 15.4845 97.6756 15.9262 96.4349 15.2418C95.1941 14.5573 94.7953 13.3426 95.5864 11.9083L98.1044 7.34375L96.6132 6.52118L94.0953 11.0857C92.7704 13.4875 93.7576 15.5465 95.67 16.6014C97.6734 17.7066 99.7846 17.2974 101.084 14.9412L103.602 10.3766L102.111 9.55403Z" fill="white"/>
<path d="M113.4 19.3681C113.785 17.8524 112.928 16.5932 111.85 15.6745C110.564 14.5971 108.662 13.9841 107.448 15.4093C106.125 16.9632 107.111 18.4519 108.383 19.8255C109.219 20.7083 109.674 21.5571 109.118 22.2103C108.477 22.9625 107.461 22.5921 106.64 21.8925C105.798 21.1761 105.283 20.1569 105.625 19.1335L104.056 18.7705C103.492 20.4756 104.21 21.8383 105.625 23.0436C107.169 24.3584 109.1 24.8585 110.415 23.3145C111.822 21.6616 110.796 20.1392 109.503 18.7305C108.756 17.9235 108.187 17.1484 108.701 16.5447C109.139 16.03 109.95 16.0204 110.92 16.8464C111.672 17.4869 112.005 18.4193 111.905 19.0175L113.4 19.3681Z" fill="white"/>
<path d="M126.083 43.4996C126.453 43.3526 126.751 43.351 126.976 43.4948C127.209 43.6355 127.383 43.8508 127.498 44.1408C127.61 44.4228 127.629 44.6948 127.556 44.957C127.491 45.2159 127.273 45.4189 126.903 45.5659C126.548 45.7065 126.25 45.7081 126.009 45.5706C125.776 45.43 125.604 45.2186 125.492 44.9367C125.377 44.6467 125.356 44.3706 125.429 44.1085C125.51 43.8432 125.728 43.6402 126.083 43.4996Z" fill="white"/>
</svg>
