<svg width="146" height="146" viewBox="0 0 146 146" fill="none" xmlns="http://www.w3.org/2000/svg">
<path d="M134.725 80.0496L134.545 81.9129L143.996 78.7257L144.176 76.8624L135.511 71.9235L135.332 73.7739L136.965 74.7154L136.507 79.4513L134.725 80.0496ZM138.165 78.9194L138.49 75.5551L142.184 77.6101L138.165 78.9194Z" fill="white"/>
<path d="M140.798 88.9588L140.068 91.4273C139.449 93.5217 136.354 92.6204 136.976 90.5135L137.706 88.045L140.798 88.9588ZM141.639 91.8915C142.044 90.5202 142.437 89.1451 142.843 87.7738L134.116 85.1945L133.629 86.8402L136.198 87.5992L135.468 90.0676C134.204 94.3438 140.379 96.1552 141.639 91.8915Z" fill="white"/>
<path d="M136.764 100.89L135.605 103.188C134.621 105.138 131.737 103.698 132.726 101.736L133.885 99.4379L136.764 100.89ZM137.067 103.926C137.711 102.649 138.344 101.366 138.988 100.089L130.863 95.9915L130.09 97.5237L132.481 98.7296L131.322 101.028C129.314 105.009 135.065 107.895 137.067 103.926Z" fill="white"/>
<path d="M132.849 111.61L125.529 106.204L121.729 111.348L123.005 112.291L125.785 108.526L131.829 112.991L132.849 111.61Z" fill="white"/>
<path d="M125.19 121.374L126.654 119.952L126.6 119.896L120.423 118.556L117.805 115.861L116.574 117.056L119.192 119.751L120.259 126.055L120.313 126.111L121.796 124.671L120.913 120.291L125.19 121.374Z" fill="white"/>
<path d="M103.46 130.929L110.069 133.764L111.292 133.102L106.955 125.101L105.447 125.919L108.371 131.314L101.235 128.187L101.241 128.199L100.304 128.707L104.646 136.718L106.155 135.901L103.46 130.929Z" fill="white"/>
<path d="M95.7842 140.578C98.7838 139.63 99.5213 136.874 98.8001 134.593C98.0789 132.313 95.9722 130.566 92.923 131.53C89.8738 132.494 89.2074 135.173 89.892 137.424C90.5845 139.7 92.797 141.523 95.7842 140.578ZM95.3139 139.091C93.2687 139.738 91.9332 138.36 91.4955 136.89C91.0696 135.456 91.352 133.676 93.3972 133.03C95.4424 132.383 96.693 133.665 97.1809 135.078C97.6806 136.529 97.3591 138.444 95.3139 139.091Z" fill="white"/>
<path d="M73.0613 144.394L74.979 144.239L76.521 137.527L79.3197 143.886L80.4341 143.796L82.1056 137.074L84.7748 143.444L86.6925 143.288L82.6261 134.488L81.1749 134.606L80.3028 137.52L79.5915 140.486L78.4002 137.701L77.0415 134.941L75.5903 135.059L73.0613 144.394Z" fill="white"/>
<path d="M56.5107 136.577C56.3977 136.959 56.2152 137.194 55.9632 137.282C55.7087 137.379 55.4319 137.383 55.1327 137.294C54.8418 137.208 54.6158 137.056 54.4547 136.836C54.2911 136.625 54.2658 136.329 54.3788 135.946C54.4869 135.581 54.6694 135.345 54.9263 135.241C55.1808 135.144 55.4534 135.139 55.7443 135.225C56.0435 135.313 56.2737 135.467 56.4348 135.687C56.5935 135.914 56.6187 136.211 56.5107 136.577Z" fill="white"/>
<path d="M35.1233 122.595L33.6015 121.505L31.6208 131.28L33.1426 132.37L41.7603 127.349L40.249 126.267L38.6156 127.208L34.7476 124.437L35.1233 122.595ZM34.3766 126.138L37.1244 128.106L33.4945 130.271L34.3766 126.138Z" fill="white"/>
<path d="M24.4144 123.41L22.6412 121.545C21.1366 119.962 23.4646 117.731 24.9781 119.324L26.7513 121.189L24.4144 123.41ZM21.4538 122.673C22.439 123.71 23.4335 124.737 24.4186 125.774L31.0149 119.505L29.8327 118.261L27.8915 120.106L26.1183 118.24C23.0465 115.008 18.391 119.45 21.4538 122.673Z" fill="white"/>
<path d="M16.0727 113.924L14.6592 111.773C13.4599 109.948 16.1472 108.167 17.3536 110.003L18.7671 112.154L16.0727 113.924ZM13.2903 112.673C14.0755 113.868 14.8717 115.056 15.6569 116.251L23.2621 111.254L22.3198 109.819L20.0817 111.29L18.6682 109.139C16.2196 105.412 10.8488 108.957 13.2903 112.673Z" fill="white"/>
<path d="M8.7382 105.193L17.0791 101.554L14.5218 95.692L13.068 96.3261L14.9393 100.616L8.05207 103.62L8.7382 105.193Z" fill="white"/>
<path d="M4.12207 93.7465L4.61842 95.7262L4.69408 95.7073L8.95059 91.0349L12.5948 90.1212L12.1775 88.4567L8.53328 89.3704L2.54429 87.1327L2.46863 87.1516L2.9713 89.1566L7.20355 90.5883L4.12207 93.7465Z" fill="white"/>
<path d="M6.74316 69.9006L0.966192 74.1833L0.923249 75.5737L10.0189 75.8546L10.0719 74.1394L3.93881 73.95L10.2326 69.3581L10.2196 69.3577L10.2525 68.2922L1.14383 68.0109L1.09086 69.726L6.74316 69.9006Z" fill="white"/>
<path d="M2.23136 58.5078C1.54786 61.5787 3.56213 63.5985 5.89699 64.1182C8.23186 64.6379 10.7999 63.6912 11.4947 60.5696C12.1895 57.448 10.2062 55.5283 7.91505 54.9917C5.59853 54.4494 2.91205 55.4496 2.23136 58.5078ZM3.7541 58.8467C4.22013 56.753 6.08155 56.2883 7.57326 56.647C9.0269 56.9971 10.4253 58.1341 9.95925 60.2279C9.49323 62.3216 7.75731 62.761 6.28955 62.4742C4.78372 62.179 3.28807 60.9405 3.7541 58.8467Z" fill="white"/>
<path d="M10.3559 36.8836L9.52154 38.6173L14.5351 43.3386L7.63292 42.5415L7.14808 43.5489L12.1052 48.3873L5.25947 47.4731L4.42509 49.2067L14.0737 50.1426L14.7052 48.8306L12.6307 46.6059L10.4301 44.4936L13.436 44.8727L16.5036 45.0939L17.135 43.7819L10.3559 36.8836Z" fill="white"/>
<path d="M25.186 26.7598C24.9113 26.4709 24.7988 26.1952 24.8484 25.9329C24.892 25.6642 25.0269 25.4225 25.2531 25.2075C25.4729 24.9986 25.7181 24.8791 25.9886 24.8492C26.2531 24.813 26.5227 24.9394 26.7973 25.2284C27.06 25.5048 27.1726 25.7805 27.1349 26.0554C27.0913 26.324 26.9596 26.5628 26.7397 26.7718C26.5135 26.9867 26.2652 27.1091 25.9947 27.139C25.7183 27.1626 25.4487 27.0362 25.186 26.7598Z" fill="white"/>
<path d="M48.0341 15.1073L49.7386 14.3333L42.2594 7.73528L40.5549 8.50927L40.6006 18.4828L42.2933 17.7142L42.294 15.8292L46.6263 13.862L48.0341 15.1073ZM45.3378 12.6909L42.2602 14.0884L42.1973 9.86229L45.3378 12.6909Z" fill="white"/>
<path d="M52.3374 5.4966L54.8388 4.88964C56.9612 4.37464 57.7341 7.50466 55.599 8.02272L53.0976 8.62969L52.3374 5.4966ZM54.4525 3.29783C53.0629 3.63503 51.6763 3.98487 50.2866 4.32207L52.4324 13.1655L54.1 12.7608L53.4685 10.1583L55.9699 9.55137C60.3032 8.49991 58.7732 2.24944 54.4525 3.29783Z" fill="white"/>
<path d="M65.0914 2.92161L67.6616 2.78263C69.8424 2.6647 70.0295 5.8833 67.8357 6.00193L65.2655 6.14091L65.0914 2.92161ZM67.5732 1.14702C66.1453 1.22423 64.718 1.31442 63.2901 1.39164L63.7815 10.4784L65.495 10.3857L65.3504 7.71161L67.9206 7.57263C72.3731 7.33187 72.0127 0.906957 67.5732 1.14702Z" fill="white"/>
<path d="M76.654 0.967482L75.6041 10.0067L81.9574 10.7446L82.1403 9.16923L77.4916 8.62929L78.3585 1.16546L76.654 0.967482Z" fill="white"/>
<path d="M88.5643 2.64846L86.6027 2.08481L86.5811 2.15978L88.4881 8.18577L87.4506 11.7967L89.0999 12.2706L90.1374 8.65966L95.0774 4.60105L95.0989 4.52608L93.1123 3.95526L89.7508 6.89839L88.5643 2.64846Z" fill="white"/>
<path d="M107.844 16.7943L107.032 9.64903L105.85 8.91528L101.05 16.6463L102.508 17.5515L105.744 12.3386L106.565 20.086L106.572 20.075L107.478 20.6373L112.285 12.8952L110.827 11.9901L107.844 16.7943Z" fill="white"/>
<path d="M120.145 18.7435C117.834 16.6096 115.075 17.3363 113.453 19.0939C111.83 20.8516 111.359 23.5476 113.708 25.7167C116.058 27.8859 118.715 27.1357 120.33 25.4243C121.962 23.6939 122.447 20.8686 120.145 18.7435ZM119.087 19.8898C120.663 21.3447 120.13 23.1876 119.07 24.2971C118.037 25.378 116.351 26.0158 114.775 24.5609C113.199 23.106 113.692 21.3843 114.677 20.2593C115.689 19.1057 117.511 18.4349 119.087 19.8898Z" fill="white"/>
<path d="M134.737 36.5274L133.651 34.9391L127.058 36.9269L131.194 31.3438L130.563 30.4209L123.896 32.3014L128.105 26.8257L127.019 25.2374L121.392 33.131L122.214 34.333L125.177 33.6459L128.106 32.7933L126.277 35.2088L124.554 37.7565L125.376 38.9585L134.737 36.5274Z" fill="white"/>
<path d="M136.128 54.5373C136.516 54.4448 136.811 54.4858 137.013 54.6603C137.223 54.8329 137.364 55.0709 137.437 55.3743C137.507 55.6694 137.488 55.9414 137.378 56.1904C137.276 56.4373 137.032 56.6071 136.644 56.6996C136.273 56.7881 135.978 56.7471 135.759 56.5766C135.549 56.4041 135.408 56.1703 135.338 55.8752C135.265 55.5717 135.284 55.2955 135.394 55.0466C135.512 54.7956 135.757 54.6258 136.128 54.5373Z" fill="white"/>
</svg>
